<?xml version="1.0" encoding="UTF-8" standalone="no"?>
<!DOCTYPE svg PUBLIC "-//W3C//DTD SVG 1.1//EN"
"http://www.w3.org/Graphics/SVG/1.1/DTD/svg11.dtd">
<svg viewBox="0 0 935 1210" version="1.1" xmlns="http://www.w3.org/2000/svg" xmlns:xlink="http://www.w3.org/1999/xlink">
<defs>
<clipPath id="c0"><path d="M170.4,67.2V43.6h220V67.2Z"/></clipPath>
<style type="text/css"><![CDATA[
/*.g0{
fill: #DEDFDF;
}
.g1{
fill: #E7E8E8;
}
.g2{
fill: #FFFFFF;
}
.g3{
}*/
.g0, .g1 {
        fill: var(--characterSheetsPrimary) !important;
    }

    .g2 {
        fill: var(--characterSheetsSecondary) !important;
    }

    .g3 {
        fill: var(--characterSheetsTertiary) !important;
    }
.g4{
fill: none;
stroke: #000000;
stroke-width: 2.1;
stroke-linecap: butt;
stroke-linejoin: miter;
}
.g5{
fill: none;
stroke: #000000;
stroke-width: 1.145;
stroke-linecap: butt;
stroke-linejoin: miter;
}
.g6{
fill: #C3C4C6;
}
.g7{
fill: none;
stroke: #000000;
stroke-width: 1.909;
stroke-linecap: butt;
stroke-linejoin: miter;
}
.g8{
fill: none;
stroke: #B5B6B6;
stroke-width: 0.381;
stroke-linecap: butt;
stroke-linejoin: miter;
stroke-miterlimit: 4;
}
.g9{
fill: none;
stroke: #000000;
stroke-width: 0.763;
stroke-linecap: butt;
stroke-linejoin: miter;
}
.ga{
fill: #242122;
}
]]></style>
</defs>
<path d="M53.3,203.9c1.6,-.5,3.3,-.9,5.2,-.9h6.8c.9,.9,1.8,1.7,2.8,2.5c-3.5,-1.1,-9.4,-2.4,-14.8,-1.6m-10.7,8c-.5,.7,-1,1.3,-1.3,1.9V228L43,221.3c-1.1,-3.7,-.8,-7.2,-.4,-9.4m88.3,9.3c1.5,-4.6,.6,-9.1,.2,-10.6c-1.4,-1.6,-3,-3.2,-5.1,-4.6c-7.4,-3.6,-18.3,-.1,-21.5,1c-5,3.3,-10.9,5.1,-17.1,5.1c-6.2,0,-12.1,-1.8,-17.2,-5.1c-3.1,-1.1,-14.1,-4.6,-21.5,-1c-2,1.4,-3.7,3,-5,4.6c-.4,1.5,-1.3,6,.1,10.6v.2l-2.5,9.5v613l2.5,9.7v.1c-1.4,4.6,-.5,9,-.2,10.6c1.4,1.5,3.1,3.2,5.1,4.5c7.5,3.6,18.4,.2,21.5,-1c5.1,-3.3,11,-5.1,17.2,-5.1c6.2,0,12.1,1.8,17.1,5.1c3.2,1.2,14.1,4.6,21.5,1c2.1,-1.3,3.7,-3,5.1,-4.5c.4,-1.5,1.3,-6,-.2,-10.6v-.2l2.6,-9.6v-613l-2.6,-9.6ZM117.2,197.7h4.9L121,196.2H108.6c-.3,0,-.7,0,-1,0H100c.5,.5,1,1,1.5,1.5h12.8c9.5,2.1,16.2,8.1,19.2,11.3v2.8c-3,-4.2,-8.7,-9.9,-17.2,-9.9h-19c-.2,-.4,-.6,-.6,-1,-.6c-.7,0,-1.2,.5,-1.2,1.2c0,.6,.5,1.2,1.2,1.2c.4,0,.8,-.3,1,-.7h10.5c-5.6,5.2,-12.8,8,-20.4,8C79.8,211,72.6,208.2,67,203H77.4c.3,.4,.6,.7,1.1,.7c.6,0,1.2,-.6,1.2,-1.2c0,-.7,-.6,-1.2,-1.2,-1.2c-.5,0,-.8,.2,-1.1,.6H58.5c-8.5,0,-14.2,5.7,-17.2,9.9V209c3,-3.2,9.7,-9.2,19.1,-11.3H73.2c.5,-.5,1,-1,1.5,-1.5H67.2c-.4,0,-.7,0,-1.1,0H53.8l-1.1,1.5h4.8c-7.7,2.4,-13.3,7.2,-16.2,10.2V204c0,0,5.5,-3.3,6.9,-6.3h3l2,-2.6H64.3c4.3,-.6,9.8,-1.6,12.4,-3.4c0,0,1.8,-1.1,1.8,.7c0,1.1,-4.2,2.1,-7.4,2.7h4.1c.2,-.2,.4,-.3,.6,-.3c.2,0,.4,.1,.5,.2c3.1,-2.2,6.9,-3.5,11.1,-3.5c4.1,0,7.9,1.3,11.1,3.5c.1,-.1,.2,-.2,.4,-.2c.3,0,.5,.1,.6,.3h4.2c-3.3,-.6,-7.4,-1.6,-7.4,-2.7c0,-1.8,1.8,-.7,1.8,-.7c2.6,1.8,8,2.8,12.3,3.4h11.2l1.9,2.6h3c1.4,3,7,6.3,7,6.3v3.9c-3,-3,-8.6,-7.8,-16.3,-10.2m-18,-1.2c-.1,0,-.2,0,-.3,0c-.4,0,-.8,-.3,-.8,-.8C95,193.5,91.4,192.2,87.4,192.2c-4,0,-7.7,1.3,-10.7,3.5c0,.5,-.4,.8,-.9,.8c-.1,0,-.2,0,-.2,0c-.5,.4,-.9,.8,-1.4,1.2h1.4c3.2,-2.8,7.3,-4.5,11.8,-4.5c4.5,0,8.6,1.7,11.7,4.5h1.4c-.4,-.4,-.9,-.8,-1.3,-1.2m32.5,24.8l1.8,6.7V213.8c-.4,-.6,-.8,-1.2,-1.3,-1.9c.3,2.2,.6,5.7,-.5,9.4M116.3,203h-6.8c-.9,.9,-1.9,1.7,-2.9,2.5c3.6,-1.1,9.5,-2.4,14.9,-1.6c-1.6,-.5,-3.3,-.9,-5.2,-.9m0,668.8c1.9,0,3.6,-.3,5.2,-.8c-5.4,.8,-11.3,-.6,-14.9,-1.7c1,.8,2,1.6,2.9,2.5Zm15.9,-8.9c.5,-.6,.9,-1.3,1.3,-1.9V846.9l-1.8,6.7c1.1,3.7,.8,7.2,.5,9.3m1.3,.2v2.8c-3,3.2,-9.7,9.2,-19.2,11.3H101.5c-.5,.5,-1,1,-1.5,1.4h7.6v.1c.3,0,.7,-.1,1,-.1H121l1.1,-1.4h-4.8c7.6,-2.5,13.2,-7.2,16.2,-10.2v3.8c0,0,-5.6,3.3,-7,6.4h-3l-1.9,2.6H110.4c-4.3,.5,-9.7,1.5,-12.3,3.3c0,0,-1.8,1.1,-1.8,-.7c0,-1.1,4.1,-2,7.4,-2.6H99.5c-.1,.1,-.3,.2,-.6,.2c-.2,0,-.3,0,-.4,-.1c-3.2,2.2,-7,3.5,-11.1,3.5c-4.1,0,-8,-1.3,-11.1,-3.5c-.1,.1,-.3,.1,-.5,.1c-.2,0,-.4,-.1,-.6,-.2H71.1c3.2,.6,7.4,1.5,7.4,2.6c0,1.8,-1.8,.7,-1.8,.7c-2.6,-1.8,-8.1,-2.8,-12.4,-3.3H53.2l-2,-2.6h-3c-1.4,-3.1,-6.9,-6.4,-6.9,-6.4V867c2.9,3,8.5,7.7,16.2,10.2H52.7l1.1,1.4H66.1c.4,0,.7,.1,1.1,.1v-.1h7.5c-.5,-.4,-1,-.9,-1.5,-1.4H60.5C51,875.1,44.3,869.1,41.3,865.9v-2.8c3,4.1,8.7,9.8,17.2,9.8H77.4c.3,.4,.6,.7,1.1,.7c.6,0,1.2,-.6,1.2,-1.2c0,-.7,-.6,-1.2,-1.2,-1.2c-.5,0,-.8,.2,-1.1,.6H67c5.6,-5.1,12.7,-7.9,20.4,-7.9c7.6,0,14.8,2.8,20.4,7.9H97.3c-.2,-.4,-.6,-.6,-1,-.6c-.7,0,-1.2,.5,-1.2,1.2c0,.6,.5,1.2,1.2,1.2c.4,0,.8,-.3,1,-.7h19c8.5,0,14.2,-5.7,17.2,-9.8m-33,14.1H99.1c-3.1,2.8,-7.2,4.5,-11.7,4.5c-4.5,0,-8.6,-1.7,-11.8,-4.5H74.2c.5,.4,.9,.8,1.4,1.2c0,-.1,.1,-.1,.2,-.1c.5,0,.9,.4,.9,.9c3,2.1,6.7,3.4,10.7,3.4c4,0,7.6,-1.3,10.7,-3.4c0,-.5,.4,-.9,.8,-.9c.1,0,.2,0,.3,.1c.4,-.4,.9,-.8,1.3,-1.2M43,853.6l-1.7,-6.7V861c.3,.6,.8,1.3,1.3,1.9c-.4,-2.1,-.7,-5.6,.4,-9.3m22.3,18.2c.9,-.9,1.8,-1.7,2.8,-2.5c-3.5,1.1,-9.4,2.5,-14.8,1.7c1.6,.5,3.3,.8,5.2,.8Z" class="g0"/>
<path d="M603.5,555.8c.4,-2.2,.7,-5.7,-.4,-9.4l2,-7.6v14.7c-.4,.6,-.9,1.4,-1.6,2.3m1.6,-332.9V208.2c-.4,-.7,-.9,-1.5,-1.6,-2.3c.4,2.1,.7,5.7,-.4,9.4Zm-275,-14.7v14.7l2.1,-7.6c-1.2,-3.7,-.9,-7.3,-.5,-9.4c-.7,.8,-1.2,1.6,-1.6,2.3M587.6,565.8H492.5c-.2,.3,-.5,.6,-1,.6c-.7,0,-1.2,-.5,-1.2,-1.2c0,-.7,.5,-1.2,1.2,-1.2c.5,0,.8,.3,1,.6h95.1c6.9,0,11.8,-3.9,14.9,-7.5c.3,-1.5,1.2,-6,-.2,-10.6v-.2l2.8,-10.5v-310l-2.8,-10.5v-.1c1.4,-4.7,.5,-9.1,.2,-10.6c-3.1,-3.7,-8.1,-7.6,-14.9,-7.6H492.5c-.2,.4,-.5,.7,-1,.7c-.7,0,-1.2,-.6,-1.2,-1.2c0,-.7,.5,-1.3,1.2,-1.3c.5,0,.8,.3,1,.7h95.1c8.8,0,14.5,6,17.5,10.2v-2.9c-2.8,-3,-9.3,-9.1,-18.7,-11.4H348.8c-9.4,2.4,-15.9,8.4,-18.7,11.4v2.9c3,-4.2,8.7,-10.2,17.5,-10.2h95.1c.2,-.4,.6,-.7,1,-.7c.7,0,1.2,.6,1.2,1.3c0,.6,-.5,1.2,-1.2,1.2c-.4,0,-.8,-.3,-1,-.7H347.6c-6.8,0,-11.7,3.9,-14.8,7.6c-.4,1.5,-1.3,5.9,.1,10.6v.2l-2.8,10.4v310l2.8,10.6v.1c-1.4,4.6,-.5,9.1,-.1,10.6c3.1,3.6,8,7.5,14.8,7.5h95.1c.2,-.3,.6,-.6,1,-.6c.7,0,1.2,.5,1.2,1.2c0,.7,-.5,1.2,-1.2,1.2c-.4,0,-.8,-.3,-1,-.6H347.6c-8.8,0,-14.5,-6.1,-17.5,-10.3v2.9c2.8,3,9.4,9.1,18.7,11.4H586.4c9.4,-2.3,15.9,-8.4,18.7,-11.4v-2.9c-3,4.2,-8.7,10.3,-17.5,10.3m-257.5,-27v14.7c.4,.6,.9,1.4,1.6,2.3c-.4,-2.2,-.7,-5.7,.5,-9.4Zm0,20.7v4c0,0,5.6,3.3,7,6.3h9c-7.6,-2.5,-13.2,-7.3,-16,-10.3m275,-357.4v-3.9c0,0,-5.6,-3.3,-7,-6.4h-9c7.7,2.6,13.2,7.4,16,10.3m-16,367.7h9c1.4,-3,7,-6.3,7,-6.3v-4c-2.8,3,-8.3,7.8,-16,10.3m-243,-378h-9c-1.4,3.1,-7,6.4,-7,6.4v3.9c2.8,-2.9,8.3,-7.7,16,-10.3Z" class="g0"/>
<path d="M891.9,555.8c.4,-2.2,.7,-5.7,-.4,-9.4l2,-7.6v14.7c-.4,.6,-.9,1.4,-1.6,2.3m1.6,-332.9V208.2c-.4,-.7,-.9,-1.5,-1.6,-2.3c.4,2.1,.7,5.7,-.4,9.4Zm-275,-14.7v14.7l2.1,-7.6c-1.2,-3.7,-.9,-7.3,-.5,-9.4c-.7,.8,-1.2,1.6,-1.6,2.3M876,565.8H780.9c-.2,.3,-.5,.6,-1,.6c-.7,0,-1.2,-.5,-1.2,-1.2c0,-.7,.5,-1.2,1.2,-1.2c.5,0,.8,.3,1,.6H876c6.9,0,11.8,-3.9,14.9,-7.5c.3,-1.5,1.2,-6,-.2,-10.6v-.2l2.8,-10.5v-310l-2.8,-10.5v-.1c1.4,-4.7,.5,-9.1,.2,-10.6C887.8,200.9,882.8,197,876,197H780.9c-.2,.4,-.5,.7,-1,.7c-.7,0,-1.2,-.6,-1.2,-1.2c0,-.7,.5,-1.3,1.2,-1.3c.5,0,.8,.3,1,.7H876c8.8,0,14.5,6,17.5,10.2v-2.9c-2.8,-3,-9.3,-9.1,-18.7,-11.4H637.2c-9.4,2.4,-15.9,8.4,-18.7,11.4v2.9c3,-4.2,8.7,-10.2,17.5,-10.2h95.1c.2,-.4,.6,-.7,1,-.7c.7,0,1.2,.6,1.2,1.3c0,.6,-.5,1.2,-1.2,1.2c-.4,0,-.8,-.3,-1,-.7H636c-6.8,0,-11.8,3.9,-14.8,7.6c-.4,1.5,-1.3,5.9,.1,10.6v.2l-2.8,10.4v310l2.8,10.6v.1c-1.4,4.6,-.5,9.1,-.1,10.6c3,3.6,8,7.5,14.8,7.5h95.1c.2,-.3,.6,-.6,1,-.6c.7,0,1.2,.5,1.2,1.2c0,.7,-.5,1.2,-1.2,1.2c-.4,0,-.8,-.3,-1,-.6H636c-8.8,0,-14.5,-6.1,-17.5,-10.3v2.9c2.8,3,9.4,9.1,18.7,11.4H874.8c9.4,-2.3,15.9,-8.4,18.7,-11.4v-2.9c-3,4.2,-8.7,10.3,-17.5,10.3m-257.5,-27v14.7c.4,.6,.9,1.4,1.6,2.3c-.4,-2.2,-.7,-5.7,.5,-9.4Zm0,20.7v4c0,0,5.6,3.3,7,6.3h9c-7.6,-2.5,-13.2,-7.3,-16,-10.3m275,-357.4v-3.9c0,0,-5.6,-3.3,-7,-6.4h-9c7.7,2.6,13.2,7.4,16,10.3m-16,367.7h9c1.4,-3,7,-6.3,7,-6.3v-4c-2.8,3,-8.3,7.8,-16,10.3m-243,-378h-9c-1.4,3.1,-7,6.4,-7,6.4v3.9c2.8,-2.9,8.3,-7.7,16,-10.3Z" class="g0"/>
<path d="M438.3,619.7V599.1H344.1l-3.6,3.6v20.6h94.1Z" class="g1"/>
<path d="M492.7,619.7V599.1h-44l-3.6,3.6v20.6h44Z" class="g1"/>
<path d="M594.5,619.7V599.1H503.2l-3.6,3.6v20.6h91.3Z" class="g1"/>
<path d="M438.3,650.9V630.3H344.1l-3.6,3.6v20.6h94.1Z" class="g1"/>
<path d="M492.7,650.9V630.3h-44l-3.6,3.6v20.6h44Z" class="g1"/>
<path d="M594.5,650.9V630.3H503.2l-3.6,3.6v20.6h91.3Z" class="g1"/>
<path d="M438.3,682.4V661.8H344.1l-3.6,3.6V686h94.1Z" class="g1"/>
<path d="M492.7,682.4V661.8h-44l-3.6,3.6V686h44Z" class="g1"/>
<path d="M594.5,682.4V661.8H503.2l-3.6,3.6V686h91.3Z" class="g1"/>
<path d="M877.8,313.7c0,0,-3.3,6,-13.7,0H648.8c-10.4,6,-13.6,0,-13.6,0h-4v74.4h4c0,0,3.2,-6.1,13.6,0H864.1c10.4,-6.1,13.7,0,13.7,0h3.9V313.7Z" class="g2"/>
<path d="M877.8,398.8c0,0,-3.3,6,-13.7,0H648.8c-10.4,6,-13.6,0,-13.6,0h-4v74.4h4c0,0,3.2,-6.1,13.6,0H864.1c10.4,-6.1,13.7,0,13.7,0h3.9V398.8Z" class="g2"/>
<path d="M637.8,556.9H874.7c0,-3.9,6.8,-6,6.8,-6V482.5h-4c0,0,-3.2,6,-13.6,0H648.6c-10.4,6,-13.6,0,-13.6,0h-4v68.4c0,0,6.8,2.1,6.8,6Z" class="g2"/>
<path d="M874.7,207.8H637.8c0,3.9,-6.8,6,-6.8,6v90.1h4c0,0,3.2,-6,13.6,0H863.9c10.4,-6,13.6,0,13.6,0h4V213.8c0,0,-6.8,-2.1,-6.8,-6Z" class="g2"/>
<path d="M141.8,88.3L177.4,91l-35.6,2.7L106.3,91Zm212.7,10L390,101l35.6,-2.7L390,95.6Zm174.6,-26l34.1,-2.5l-42,-3.1l64.2,-4.8L528.2,57.6l79.3,-5.9L472.5,41.6l36.3,-2.7l-66.2,-5l-58.9,4.4L357.3,34.9L422.2,30l-52,-3.9l-36.3,2.7L291.8,25.7l-39.3,2.9l40,3l-44.1,3.3l-44,-3.3l25.5,-1.9L199.4,27.4l-97.5,7.3l34.6,2.6L26.9,45.5l64.5,4.8l-34,2.6l42,3.1L35.1,60.8l57.2,4.3L13.1,71L122,79.1L72.1,82.9l52.7,3.9l13.6,-1l39.6,3l58.8,-4.4l26.4,3.4l-68.5,5.1l94.1,7.1l20.6,-1.6L272.3,95.6l52.9,-3.9l37.1,2.8l24.3,-1.8l34.5,2.5l97.5,-7.3L484.1,85.4L593.6,77.2Z" class="g0"/>
<path d="M292.7,165.1l28.8,2.2l-28.8,2.2l-28.9,-2.2Zm172.7,8.1l28.9,2.2l28.8,-2.2l-28.8,-2.1ZM607.3,152.1l27.6,-2l-34.1,-2.6L653,143.6l-46.5,-3.5l64.4,-4.8L561.3,127.1l29.4,-2.2l-53.7,-4l-47.8,3.6l-21.5,-2.8l52.7,-4l-42.3,-3.1l-29.4,2.2l-34.2,-2.6l-32,2.4l32.5,2.5l-35.8,2.6l-35.7,-2.6l20.7,-1.6l-24.8,-1.9l-79.2,6l28.1,2.1l-89,6.6l52.4,3.9l-27.6,2.1l34.1,2.6L206,142.8l46.5,3.4L188.1,151l88.4,6.7l-40.5,3l42.8,3.2l11.1,-.8l32.1,2.4l47.8,-3.6l21.5,2.8l-55.7,4.2l76.4,5.7l16.8,-1.3l-30.1,-2.2l42.9,-3.2l30.1,2.2l19.8,-1.5l28,2.1l79.2,-5.9l-28,-2.1l89,-6.6Z" class="g0"/>
<path d="M598.6,92.6l23.8,1.8l-23.8,1.7L574.8,94.4Zm142.5,6.6l23.8,1.8l23.8,-1.8L764.9,97.5Zm117,-17.3l22.8,-1.7L852.7,78.1l43.1,-3.3L857.5,72l53.1,-4L820.1,61.2l24.3,-1.8L800.1,56.1L760.7,59L742.9,56.7l43.5,-3.2L751.6,50.9l-24.3,1.8L699.1,50.6l-26.4,2l26.8,2L670,56.8L640.5,54.6l17.1,-1.3L637.2,51.8l-65.3,4.8L595,58.4l-73.4,5.5l43.2,3.2L542,68.8l28.1,2.1l-43,3.2L565.4,77l-53.1,4l73,5.4l-33.4,2.5l35.3,2.6l9.1,-.6l26.5,2l39.4,-3l17.7,2.3L634,95.6l63.1,4.8l13.7,-1.1L686,97.5l35.5,-2.7l24.8,1.9l16.3,-1.2l23.1,1.7L851,92.3L827.9,90.6l73.4,-5.5Z" class="g0"/>
<path d="M133,31.8c-.6,4.3,.3,9.7,.3,9.7c0,0,-3.1,-2.3,-6.5,-4.3c-2,-1.1,-3.8,-3.6,-4.8,-5.5c-.8,-1.3,-1.2,-2.3,-1.2,-2.3c-4.8,5.1,-1.7,11.1,-1.7,11.1c-7.4,-1.6,-12,.3,-12,.3c14,9.2,6.6,9.9,-1.5,13.8c-8.1,3.8,-8.7,8.6,-8.7,8.6c9.6,-3.2,13.5,.9,13.5,.9c-5.2,4.9,-.6,12.7,-.6,12.7c5.1,9.7,17.6,13.8,28.8,15.5c11.1,1.7,21,1,21,1l-25.6,8l-22.9,5.8c0,0,-22.8,-2.5,-31.2,-21.7C71.6,66.1,86.2,50.9,84.7,49.9c-1.4,-1,-3.2,1.1,-3.3,1.4c6.3,-18.2,25.5,-18,26.2,-19.9c.8,-2,-3.8,-2.1,-3.8,-2.1c19.4,-6.4,29.2,2.5,29.2,2.5Z" class="g3"/>
<path d="M877.3,83.8v58.3c22.3,-.1,25.2,0,29,-4.9V79.9c-7.2,3.7,-14.5,3.9,-29,3.9Z" class="g2"/>
<path d="M877.3,83.8v58.3c22.3,-.1,25.2,0,29,-4.9V79.9c-7.2,3.7,-14.5,3.9,-29,3.9Z" class="g4"/>
<path d="M876.4,88.1c24.8,0,27,-1.8,29.3,-3.5m-28.4,52.7c30,3.4,27.4,-5.4,28.7,-5.7" class="g5"/>
<path d="M301.9,131.1c-.1,.5,-.1,1,.2,1.4c.3,.5,8.3,12.2,18.7,12.2c2.3,0,4.6,-.6,6.8,-1.8c.9,-.6,1.8,-1.2,2.5,-1.7c5.5,-3.4,10.8,-8.3,12.7,-10.1Z" class="g2"/>
<path d="M46.5,94.1v57.3l54.2,-7.1V87Z" class="g2"/>
<path d="M46.5,94.1v57.3l54.2,-7.1V87L46.5,94.1Z" class="g4"/>
<path d="M47.6,147.1l53.1,-7.5M47.6,97.9l53.1,-6.8" class="g5"/>
<path d="M100.7,87l-37,-5.5v57.3l37,5.5Z" class="g6"/>
<path d="M100.7,87l-37,-5.5v57.3l37,5.5V87Z" class="g4"/>
<path d="M398.3,138.8C304,156,158,121.6,63.7,138.8V81.5C158,64.3,304,98.7,398.3,81.5Z" class="g2"/>
<path d="M398.3,138.8C304,156,158,121.6,63.7,138.8V81.5C158,64.3,304,98.7,398.3,81.5v57.3Z" class="g4"/>
<path d="M399.7,133.3c0,0,-31.3,13.2,-175.2,.5C122.9,124.8,72.1,132.7,64.3,134m334,-48c0,0,-30.3,12.2,-174.2,-.5C122.5,76.5,71.8,84.4,63.9,85.8" class="g5"/>
<path d="M877.8,156.5H398.2V63.9H877.8v92.6Z" class="g2"/>
<path d="M877.8,156.5H398.2V63.9H877.8v92.6Z" class="g7"/>
<path d="M395,54.2v112c1.6,-3.9,3.2,-5.5,3.2,-5.5V59.7c0,0,-1.6,-1.6,-3.2,-5.5Z" class="g2"/>
<path d="M395,54.2v112c1.6,-3.9,3.2,-5.5,3.2,-5.5V59.7c0,0,-1.6,-1.6,-3.2,-5.5Zm3.2,21.7c0,0,1.6,-15.8,12.8,-15.8h33.6c0,0,11,3.8,31.4,3.8m-77.8,80.6c0,0,1.6,15.8,12.8,15.8h33.6c0,0,11,-3.8,31.4,-3.8" class="g7"/>
<path d="M881,54.2v112c-1.6,-3.9,-3.2,-5.5,-3.2,-5.5V59.7c0,0,1.6,-1.6,3.2,-5.5Z" class="g2"/>
<path d="M881,54.2v112c-1.6,-3.9,-3.2,-5.5,-3.2,-5.5V59.7c0,0,1.6,-1.6,3.2,-5.5Zm-3.2,21.7c0,0,-1.7,-15.8,-12.9,-15.8H831.3c0,0,-10.9,3.8,-31.3,3.8m77.8,80.6c0,0,-1.7,15.8,-12.9,15.8H831.3c0,0,-10.9,-3.8,-31.3,-3.8" class="g7"/>
<path d="M844.3,63.9c-8,1.4,-17.5,2.9,-26.3,2.9H457.9c-8.7,0,-18.3,-1.5,-26.3,-2.9m0,92.6c8,-1.4,17.6,-2.9,26.3,-2.9H818c8.8,0,18.3,1.5,26.3,2.9" class="g5"/>
<path d="M152.3,56c5.2,2.1,6.6,7.1,6.6,7.1C154.6,63,153.3,59.6,152.3,56Z" class="g2"/>
<path d="M391.2,146.5c-1,-5.3,-4.8,-14,-12,-18.5c-6,-3.8,-11.2,-3,-11.2,-4.8c-.1,-2.4,6.6,-1.7,6.6,-1.7c-7.2,-4.1,-17.6,1,-19.1,-1.4c-.8,-1.4,4.9,-3.4,4.9,-3.4c-8.9,-.4,-19.3,4.2,-23.5,8.3c10.6,-3.5,25.4,-1.5,32.2,4.3c-2.9,-1.6,-6,-2.7,-9.2,-3.3c-12,-2.4,-25.3,1.2,-33.3,4.5c-9,3,-15.9,7.6,-15.9,7.6c-6,3.4,-17,6.7,-24.4,3.5c0,0,11.6,19.5,26,12.7c1.1,-.6,2.1,-1.2,3,-1.8c7.9,-4.2,15.8,-11.3,15.8,-11.3c2.7,-1.9,11.2,-7.5,21.4,-10.5c2.2,-.7,4.5,-.8,6.7,-.5c5.7,.7,10.6,4.4,12.3,8.7c4.4,-.7,15.5,2.9,19.7,7.6Z" class="g3"/>
<path d="M158.9,63.1c0,0,-1.4,-5,-6.6,-7.1c1,3.6,2.2,7,6.6,7.1M142.2,76.6C141,70.1,132,68.9,127.4,71.9c1.6,-4.3,6.1,-8.2,9.6,-9.4c-2,-.8,-4.3,-1.4,-6.8,-2c2.9,-2.2,10.2,-4,13.9,-3.6c-.7,-.2,-1.4,-.4,-2.2,-.5l.7,-4.2c-.4,-3.6,-3.6,-7.6,-7.4,-10.1c-1.9,-5.4,-.1,-15.3,2.5,-17.9c-1.3,14.2,18.8,23,22.7,33.4C158.2,48.7,148.9,42.8,144.5,37.4c-1.3,-3.6,0,-9.5,1.7,-11.5c-.8,9.5,9.3,17.2,14.6,22.7c6.3,6.5,7.9,12.1,6.9,16.6c1.4,.4,3.3,1.9,2.9,4.2c2.1,-.4,4.3,-2.7,4.8,-4.2c.9,7.2,-3.5,14.5,-8.3,16.6c0,0,1.4,-3.3,-.7,-6c-2,-2.6,-7.9,-2.8,-9.9,-2.7c0,0,2.5,-3.6,1.6,-5.5C157,65.3,145.3,65.9,140,67.7c1.8,-.2,6,.4,7.4,1.1c-.8,1.2,-3.1,6.2,-1.6,7.8c1.3,1.4,3.1,-.7,3.3,-.9c-.2,.5,-1.9,5.6,-.7,6.9c1.2,1.3,4,.5,4,.5c-1.8,4.3,-8.7,7.1,-13.4,7c1.7,-.5,4.6,-3.4,5,-5.2c-1.2,.6,-4.5,.8,-5.7,.5c1.5,-.5,4.7,-4.4,3.9,-8.8Z" class="g3"/>
<path d="M117.2,49.9c.8,-2.8,-4.5,-7.7,-6.6,-8.6c7.6,-.1,11.3,1.4,11.3,1.4C120,39.8,119.5,35.3,120.8,31.9c3.8,9.9,18.4,12,21.8,20.3l-.7,4.2c-5.8,-.7,-14.3,1,-18.6,5.8c1.5,0,5.3,.9,6.8,1.4c-6.5,1,-15.5,6.7,-18.2,9.5c.8,-3.8,2,-6.9,1.2,-9.2c-1.2,-3.2,-5,-4.6,-12.7,-3.3c5.3,-5,16,-7.9,16.8,-10.7Z" class="g3"/>
<path d="M74.4,75.1L76,78.5c-2.1,.4,-4.5,8.6,-4.5,8.6c-5.3,-3,-.8,-12.9,-.8,-12.9Z" class="g3"/>
<path d="M62.8,73.7c0,0,2.7,-2,4.2,-2.3l2.4,2.1l-1.2,.4c0,0,-2.4,7.6,-1.4,10.8l1.5,4.4c0,0,-5,-1,-5.7,-2.9c0,0,-1.6,-8.6,.2,-12.5Z" class="g3"/>
<path d="M59.9,77c0,0,.4,9.8,1.4,10.6L65,89.2l.1,3.4c0,0,-6.6,-2.1,-7.2,-4.7C57.4,85.4,57,79.2,57,79.2c0,0,1.1,-1.7,2.9,-2.2Z" class="g3"/>
<path d="M349.1,469.2H585.9c0,-3.9,6.8,-6,6.8,-6V394.5h-3.9c0,0,-3.2,6,-13.6,0H359.8c-10.4,6,-13.6,0,-13.6,0h-3.9v68.7c0,0,6.8,2.1,6.8,6Z" class="g2"/>
<path d="M342,463.9c1.8,.6,6.3,2.6,6.3,5.3v.8H586.7v-.8c0,-2.7,4.5,-4.7,6.3,-5.3l.5,-.1v-70h-5.2l-.2,.3c0,.1,-1.1,1.9,-3.8,2.3c-.2,-.4,-.6,-.6,-1.1,-.6c-.4,0,-.8,.2,-1.1,.5c-1.9,-.2,-4.1,-1,-6.5,-2.4l-.2,-.1H359.6l-.2,.1c-2.4,1.4,-4.6,2.2,-6.5,2.4c-.3,-.3,-.7,-.5,-1.1,-.5c-.5,0,-.9,.2,-1.1,.6c-2.7,-.4,-3.8,-2.2,-3.8,-2.2l-.2,-.4h-5.2v70Zm2.5,-7.8c-.8,-1.4,-1.3,-2.5,-1.5,-2.8V414.1c1,7,1.5,13.4,1.5,18.9Zm5.3,12.3c-.7,-3.2,-5.2,-5.2,-6.8,-5.7v-6.1c2,3.5,5.8,9.1,11.1,11.8Zm235.4,0h-4.3c5.3,-2.7,9.1,-8.3,11.1,-11.8v6.1c-1.6,.5,-6.1,2.5,-6.8,5.7M592,453.3c-.2,.3,-.7,1.4,-1.5,2.8V433c0,-5.5,.5,-11.9,1.5,-18.9Zm-246.2,-58c.5,.7,2,2.3,4.8,2.6c.2,.4,.7,.7,1.2,.7c.5,0,1,-.3,1.2,-.8c2.1,-.2,4.5,-1.1,7,-2.5H575c2.5,1.4,4.9,2.3,7,2.5c.2,.5,.7,.8,1.2,.8c.5,0,1,-.3,1.2,-.7c2.8,-.3,4.3,-1.9,4.8,-2.6H592V409c-1.5,9.1,-2.3,17.2,-2.3,24v24.4c-2.8,4.5,-8,11,-15,11H360.3c-7,0,-12.2,-6.5,-15,-11V433c0,-6.8,-.8,-14.9,-2.3,-24V395.3Z" class="g3"/>
<path d="M585.9,295.5H349.1c0,3.8,-6.8,6,-6.8,6v86.9h3.9c0,0,3.2,-6,13.6,0H575.2c10.4,-6,13.6,0,13.6,0h3.9V301.5c0,0,-6.8,-2.2,-6.8,-6Z" class="g2"/>
<path d="M593,300.7c-1.8,-.5,-6.3,-2.5,-6.3,-5.2v-.8H348.3v.8c0,2.7,-4.5,4.7,-6.3,5.2l-.5,.2v88.3h5.2l.2,-.4c0,-.1,1.1,-1.9,3.8,-2.2c.2,.3,.6,.5,1.1,.5c.4,0,.8,-.2,1.1,-.5c1.9,.3,4.1,1.1,6.5,2.5l.2,.1H575.4l.2,-.1c2.4,-1.4,4.6,-2.2,6.5,-2.5c.3,.3,.7,.5,1.1,.5c.5,0,.9,-.2,1.1,-.5c2.7,.3,3.8,2.1,3.8,2.2l.2,.4h5.2V300.9Zm-2.5,7.9c.8,1.4,1.3,2.4,1.5,2.8v57.5c-1,-7.1,-1.5,-13.4,-1.5,-19Zm-5.3,-12.4c.7,3.3,5.2,5.2,6.8,5.8v6c-2,-3.4,-5.8,-9.1,-11.1,-11.8Zm-235.4,0h4.3c-5.3,2.7,-9.1,8.4,-11.1,11.8v-6c1.6,-.6,6.1,-2.5,6.8,-5.8M343,311.4c.2,-.4,.7,-1.4,1.5,-2.8v41.3c0,5.6,-.5,11.9,-1.5,19Zm246.2,76.2c-.5,-.7,-2,-2.2,-4.8,-2.6c-.2,-.4,-.7,-.7,-1.2,-.7c-.5,0,-1,.3,-1.2,.8c-2.1,.2,-4.5,1.1,-7,2.5H360c-2.5,-1.4,-4.9,-2.3,-7,-2.5c-.2,-.5,-.7,-.8,-1.2,-.8c-.5,0,-1,.3,-1.2,.7c-2.8,.4,-4.3,1.9,-4.8,2.6H343V373.9c1.5,-9.1,2.3,-17.1,2.3,-24V307.3c2.8,-4.6,8,-11.1,15,-11.1H574.7c7,0,12.2,6.5,15,11.1v42.6c0,6.9,.8,14.9,2.3,24v13.7Z" class="g3"/>
<path d="M503,214.7v59.7l-6.4,6.4H432l-6.5,-6.4V214.7l6.5,-6.4h64.6Z" class="g2"/>
<path d="M592.2,214.7v59.7l-6.4,6.4H521.2l-6.4,-6.4V214.7l6.4,-6.4h64.6Z" class="g2"/>
<path d="M496.3,207H431.8l-7.7,7.7v60l7.7,7.6h64.5l7.6,-7.6v-60Zm5.5,8.6v5.9c-.6,-1.9,-1.5,-3.9,-2.7,-5.8v-.1H499c-1.7,-2.6,-4.2,-5,-7.7,-6.5h4.1Zm-13.5,64.6H439.7c-4,-.9,-7.2,-3.1,-9.6,-6.5v-58c2.1,-2.9,5.2,-5.5,9.7,-6.6h48.6c4,1,7.2,3.2,9.6,6.6v57.9c-2.1,3,-5.2,5.5,-9.7,6.6M426.2,225c.5,-2.2,1.3,-4.9,2.8,-7.5v54.4c-.3,-.5,-.5,-.9,-.8,-1.4c-1,-2.1,-1.6,-4.2,-2,-6Zm72.9,-7.5c.3,.4,.5,.9,.8,1.4c1,2.1,1.6,4.2,1.9,6v39.5c-.4,2.2,-1.2,4.9,-2.7,7.4Zm-66.4,-8.4h4.1c-3.5,1.5,-6,3.9,-7.7,6.5H429v.1c-1.3,1.9,-2.1,3.9,-2.8,5.8v-5.9Zm-6.5,64.7v-5.9c.7,1.8,1.5,3.8,2.8,5.7v.1h.1c1.7,2.7,4.2,5,7.7,6.5h-4.1Zm69.2,6.4h-4.1c3.5,-1.5,6,-3.8,7.7,-6.5h.1v-.1c1.2,-1.9,2.1,-3.9,2.7,-5.7v5.9Z" class="g3"/>
<path d="M585.8,207H521.3l-7.6,7.7v60l7.6,7.6h64.5l7.7,-7.6v-60Zm5.6,8.6v5.9c-.6,-1.9,-1.5,-3.9,-2.8,-5.8v-.1c-1.8,-2.6,-4.3,-5,-7.8,-6.5H585Zm-13.5,64.6H529.3c-4,-.9,-7.2,-3.1,-9.6,-6.5v-58c2.1,-2.9,5.1,-5.5,9.6,-6.6h48.6c4,1,7.2,3.2,9.6,6.6v57.9c-2.1,3,-5.1,5.5,-9.6,6.6M515.8,225c.4,-2.2,1.3,-4.9,2.7,-7.5v54.4c-.2,-.5,-.5,-.9,-.7,-1.4c-1,-2.1,-1.6,-4.2,-2,-6Zm72.8,-7.5c.3,.4,.6,.9,.8,1.4c1,2.1,1.6,4.2,2,6v39.5c-.5,2.2,-1.3,4.9,-2.8,7.4Zm-66.4,-8.4h4.2c-3.5,1.5,-6,3.9,-7.8,6.5h-.1v.1c-1.2,1.9,-2.1,3.9,-2.7,5.8v-5.9Zm-6.4,64.7v-5.9c.6,1.8,1.5,3.8,2.7,5.7v.1h.1c1.8,2.7,4.3,5,7.8,6.5h-4.2Zm69.2,6.4h-4.2c3.5,-1.5,6,-3.8,7.8,-6.5v-.1c1.3,-1.9,2.2,-3.9,2.8,-5.7v5.9Z" class="g3"/>
<path d="M403.7,211.6l-25.5,-7.8l-25.5,7.8c0,0,-1.1,13.2,-10.1,15.1v18.1c0,0,8.5,33.5,35.6,40.8c27.1,-7.3,35.5,-40.8,35.5,-40.8V226.7c-9,-1.9,-10,-15.1,-10,-15.1Z" class="g2"/>
<path d="M413.9,225.6c-8,-1.7,-9.1,-14,-9.1,-14.1l-.1,-.8l-26.5,-8.1l-26.6,8.1v.8c-.1,.1,-1.1,12.4,-9.2,14.1l-.9,.1v19.4c.1,.3,9,34.3,36.4,41.6l.3,.1l.3,-.1c27.4,-7.3,36.2,-41.3,36.3,-41.6V225.7Zm-1.3,19c-.6,2.3,-9.4,32.9,-34.4,39.8c-25.1,-6.9,-33.8,-37.5,-34.5,-39.8v-17c7.8,-2.3,9.6,-12.2,10,-15.1L378.2,205l24.4,7.5c.4,2.9,2.3,12.8,10,15.1ZM400.3,215v-.4l-20.5,-6.2c0,-.9,-.7,-1.6,-1.6,-1.6c-.9,0,-1.6,.7,-1.7,1.6l-20.4,6.2l-.1,.4c-.6,3,-2.5,9.9,-7.9,13.5c-.3,-.2,-.7,-.4,-1.1,-.4c-.9,0,-1.7,.8,-1.7,1.8c0,.7,.5,1.3,1.1,1.6v12.8c.9,3.1,9,29.2,30.1,36.7c0,.9,.8,1.6,1.7,1.6c.9,0,1.6,-.7,1.7,-1.7c8.6,-3,16,-9.4,22.1,-19c4.9,-7.9,7.3,-15.4,7.9,-17.6V231.5c.7,-.3,1.1,-.9,1.1,-1.6c0,-1,-.7,-1.8,-1.7,-1.8c-.4,0,-.7,.2,-1,.4c-5.4,-3.6,-7.4,-10.5,-8,-13.5m-20.8,64.8c-.4,-.4,-.8,-.7,-1.3,-.7c-.6,0,-1,.3,-1.3,.7c-20.3,-7.2,-28.3,-32.4,-29.3,-35.7V231.5c.7,-.3,1.1,-.9,1.1,-1.6c0,-.1,0,-.2,0,-.3c5.6,-3.7,7.7,-10.7,8.4,-14l19.8,-6c.3,.4,.7,.6,1.3,.6c.5,0,1,-.2,1.3,-.6l19.7,6c.7,3.3,2.8,10.3,8.5,14c0,.1,-.1,.2,-.1,.3c0,.7,.5,1.3,1.1,1.6v12.6c-1,3.3,-8.9,28.5,-29.2,35.7Z" class="g3"/>
<path d="M877.3,312.9l-.2,.4c-.1,.1,-1.1,1.9,-3.8,2.2c-.3,-.3,-.7,-.6,-1.1,-.6c-.5,0,-.9,.3,-1.1,.6c-1.9,-.3,-4.1,-1.1,-6.6,-2.5l-.1,-.1H648.6l-.2,.1c-2.4,1.4,-4.6,2.2,-6.6,2.5c-.2,-.3,-.6,-.6,-1.1,-.6c-.4,0,-.8,.3,-1.1,.6c-2.7,-.3,-3.7,-2.1,-3.8,-2.2l-.2,-.4h-5.1v75.9h5.1l.2,-.4c.1,0,1.1,-1.8,3.8,-2.2c.3,.4,.7,.6,1.1,.6c.5,0,.9,-.2,1.1,-.5c2,.2,4.2,1,6.6,2.4l.2,.1H864.4l.1,-.1c2.5,-1.4,4.7,-2.2,6.6,-2.4c.2,.3,.6,.5,1.1,.5c.4,0,.8,-.2,1.1,-.6c2.7,.4,3.7,2.2,3.8,2.2l.2,.4h5.2V312.9ZM632,333.2c1,7.1,1.5,13.4,1.5,19v-2.6c0,5.5,-.5,11.9,-1.5,18.9Zm248.9,54.1h-2.7c-.6,-.7,-2,-2.3,-4.8,-2.6c-.3,-.4,-.7,-.7,-1.2,-.7c-.6,0,-1,.3,-1.3,.8c-2.1,.2,-4.4,1.1,-7,2.5H649c-2.6,-1.4,-4.9,-2.3,-7,-2.5c-.3,-.5,-.7,-.8,-1.3,-.8c-.5,0,-.9,.3,-1.2,.7c-2.7,.3,-4.2,1.9,-4.7,2.6H632V373.6c1.5,-9.1,2.2,-17.2,2.2,-24v2.6c0,-6.9,-.7,-15,-2.2,-24V314.4h2.8c.5,.8,2,2.3,4.7,2.7c.3,.4,.7,.7,1.2,.7c.6,0,1,-.3,1.3,-.8c2.1,-.3,4.4,-1.1,7,-2.6H863.9c2.6,1.5,4.9,2.3,7,2.6c.3,.5,.7,.8,1.3,.8c.5,0,.9,-.3,1.2,-.7c2.8,-.4,4.2,-1.9,4.8,-2.7h2.7v13.8c-1.5,9,-2.2,17.1,-2.2,24v-2.6c0,6.8,.7,14.9,2.2,24Zm0,-18.8c-1,-7,-1.5,-13.4,-1.5,-18.9v2.6c0,-5.6,.5,-11.9,1.5,-19Z" class="g3"/>
<path d="M877.3,398l-.2,.4c-.1,.1,-1.1,1.8,-3.8,2.2c-.3,-.3,-.7,-.6,-1.1,-.6c-.5,0,-.9,.3,-1.1,.6c-1.9,-.3,-4.1,-1.1,-6.6,-2.5l-.1,-.1H648.6l-.2,.1c-2.4,1.4,-4.6,2.2,-6.6,2.5c-.2,-.3,-.6,-.6,-1.1,-.6c-.4,0,-.8,.3,-1.1,.6c-2.7,-.4,-3.7,-2.1,-3.8,-2.2l-.2,-.4h-5.1v75.9h5.1l.2,-.4c.1,0,1.1,-1.8,3.8,-2.2c.3,.4,.7,.6,1.1,.6c.5,0,.9,-.2,1.1,-.5c2,.2,4.2,1,6.6,2.4l.2,.1H864.4l.1,-.1c2.5,-1.4,4.7,-2.2,6.6,-2.4c.2,.3,.6,.5,1.1,.5c.4,0,.8,-.2,1.1,-.6c2.7,.4,3.7,2.2,3.8,2.2l.2,.4h5.2V398ZM632,418.3c1,7.1,1.5,13.4,1.5,19v-2.7c0,5.6,-.5,12,-1.5,19Zm248.9,54.1h-2.7c-.6,-.7,-2,-2.3,-4.8,-2.6c-.3,-.4,-.7,-.7,-1.2,-.7c-.6,0,-1,.3,-1.3,.7c-2.1,.3,-4.4,1.1,-7,2.6H649c-2.6,-1.5,-4.9,-2.3,-7,-2.6c-.3,-.4,-.7,-.7,-1.3,-.7c-.5,0,-.9,.3,-1.2,.7c-2.7,.3,-4.2,1.9,-4.7,2.6H632V458.7c1.5,-9.1,2.2,-17.2,2.2,-24.1v2.7c0,-6.9,-.7,-15,-2.2,-24V399.5h2.8c.5,.8,2,2.3,4.7,2.6c.3,.5,.7,.8,1.2,.8c.6,0,1,-.4,1.3,-.8c2.1,-.3,4.4,-1.1,7,-2.6H863.9c2.6,1.5,4.9,2.3,7,2.6c.3,.4,.7,.8,1.3,.8c.5,0,.9,-.3,1.2,-.8c2.8,-.3,4.2,-1.8,4.8,-2.6h2.7v13.8c-1.5,9,-2.2,17.1,-2.2,24v-2.7c0,6.9,.7,15,2.2,24.1Zm0,-18.8c-1,-7,-1.5,-13.4,-1.5,-19v2.7c0,-5.6,.5,-11.9,1.5,-19Z" class="g3"/>
<path d="M630.8,551.7c1.7,.5,6.3,2.5,6.3,5.2v.8H875.4v-.8c0,-2.7,4.6,-4.7,6.3,-5.2l.5,-.2V481.7l-5.1,.1l-.2,.3c-.1,.1,-1.1,1.9,-3.8,2.3c-.3,-.4,-.7,-.6,-1.1,-.6c-.5,0,-.9,.2,-1.1,.5c-2,-.2,-4.1,-1,-6.6,-2.5l-.2,-.1H648.4l-.2,.1c-2.5,1.5,-4.6,2.3,-6.6,2.5c-.2,-.3,-.6,-.5,-1.1,-.5c-.4,0,-.8,.2,-1.1,.6c-2.7,-.4,-3.7,-2.2,-3.8,-2.3l-.2,-.4h-5.1v69.8Zm2.5,-7.9c-.9,-1.4,-1.4,-2.5,-1.5,-2.8V502.1c1,7,1.5,13.4,1.5,18.9Zm5.2,12.3c-.6,-3.2,-5.1,-5.1,-6.7,-5.7v-6.1c1.9,3.5,5.7,9.2,11.1,11.8Zm235.5,0h-4.4c5.4,-2.6,9.2,-8.3,11.1,-11.8v6.1c-1.6,.6,-6.1,2.5,-6.7,5.7M880.7,541c-.1,.3,-.6,1.4,-1.5,2.8V521c0,-5.5,.5,-11.9,1.5,-18.9ZM634.5,483.3c.6,.7,2.1,2.3,4.8,2.6c.3,.4,.7,.7,1.2,.7c.6,0,1,-.3,1.3,-.8c2.1,-.2,4.4,-1.1,7,-2.5H863.7c2.6,1.4,4.9,2.3,7,2.5c.3,.5,.7,.8,1.3,.8c.5,0,.9,-.3,1.2,-.7c2.7,-.3,4.2,-1.9,4.8,-2.6h2.7V497c-1.5,9.1,-2.2,17.2,-2.2,24v24.1c-2.8,4.5,-8.1,11,-15,11H649c-6.9,0,-12.2,-6.5,-15,-11V521c0,-6.8,-.7,-14.9,-2.2,-24V483.3Z" class="g3"/>
<path d="M881.7,213.1c-1.7,-.6,-6.3,-2.6,-6.3,-5.3V207H637.1v.8c0,2.7,-4.6,4.7,-6.3,5.3l-.5,.1v91.5l5.1,-.1l.2,-.3c.1,-.1,1.1,-1.9,3.8,-2.3c.3,.4,.7,.6,1.1,.6c.5,0,.9,-.2,1.1,-.5c2,.2,4.1,1,6.6,2.4l.2,.2H864.1l.2,-.2c2.5,-1.4,4.6,-2.2,6.6,-2.4c.2,.3,.6,.5,1.1,.5c.4,0,.8,-.2,1.1,-.6c2.7,.4,3.7,2.2,3.8,2.2l.2,.5h5.1V213.2Zm-2.5,7.8c.9,1.4,1.4,2.5,1.5,2.8v60.6c-1,-7,-1.5,-13.4,-1.5,-18.9ZM874,208.6c.6,3.2,5.1,5.2,6.7,5.7v6.1c-1.9,-3.5,-5.7,-9.1,-11.1,-11.8Zm-235.5,0h4.4c-5.4,2.7,-9.2,8.3,-11.1,11.8v-6.1c1.6,-.5,6.1,-2.5,6.7,-5.7m-6.7,15.1c.1,-.3,.6,-1.4,1.5,-2.8v44.5c0,5.5,-.5,11.9,-1.5,18.9ZM878,303.1c-.6,-.7,-2.1,-2.3,-4.8,-2.6c-.3,-.4,-.7,-.7,-1.2,-.7c-.6,0,-1,.3,-1.3,.8c-2.1,.2,-4.4,1.1,-7,2.5H648.8c-2.6,-1.4,-4.9,-2.3,-7,-2.5c-.3,-.5,-.7,-.8,-1.3,-.8c-.5,0,-.9,.3,-1.2,.7c-2.7,.3,-4.2,1.9,-4.8,2.6h-2.7V289.4c1.5,-9.1,2.2,-17.2,2.2,-24V219.6c2.8,-4.5,8.1,-11,15,-11H863.5c6.9,0,12.2,6.5,15,11v45.8c0,6.8,.7,14.9,2.2,24v13.7Z" class="g3"/>
<path d="M590.9,489v59.7l-6.4,6.4H479.2l-6.4,-6.4V489l6.4,-6.4H584.5Z" class="g2"/>
<path d="M584.5,481.2H479.1l-7.6,7.6v60.1l7.6,7.6H584.5l7.7,-7.6V488.8Zm5.6,8.5v5.9c-.6,-1.8,-1.5,-3.8,-2.7,-5.7v-.1h-.1c-1.8,-2.7,-4.3,-5.1,-7.8,-6.5h4.2Zm-13.5,64.7H487.1c-4,-.9,-7.2,-3.1,-9.6,-6.5V489.8c2.1,-2.9,5.1,-5.4,9.6,-6.5h89.5c4,.9,7.2,3.1,9.6,6.5v58.1c-2.1,2.9,-5.1,5.4,-9.6,6.5m-103,-55.3c.4,-2.2,1.3,-4.9,2.7,-7.4v54.4c-.2,-.5,-.5,-.9,-.7,-1.4c-1,-2.1,-1.7,-4.2,-2,-6Zm113.8,-7.5c.2,.5,.5,.9,.7,1.4c1,2.1,1.6,4.2,2,6v39.6c-.5,2.2,-1.3,4.9,-2.7,7.5ZM480,483.3h4.1c-3.5,1.4,-5.9,3.8,-7.7,6.5h-.1v.1c-1.2,1.9,-2.1,3.9,-2.7,5.7v-5.9ZM473.6,548v-5.9c.6,1.8,1.5,3.8,2.7,5.7v.1h.1c1.8,2.7,4.2,5.1,7.7,6.5H480Zm110.1,6.4h-4.2c3.5,-1.4,6,-3.8,7.8,-6.5h.1v-.1c1.2,-1.9,2.1,-3.9,2.7,-5.7V548Z" class="g3"/>
<path d="M460.9,489v59.7l-6.4,6.4H349.3l-6.5,-6.4V489l6.5,-6.4H454.5Z" class="g2"/>
<path d="M454.6,481.2H349.2l-7.7,7.6v60.1l7.7,7.6H454.6l7.6,-7.6V488.8Zm5.5,8.5v5.9c-.6,-1.8,-1.5,-3.8,-2.7,-5.7v-.1h-.1c-1.7,-2.7,-4.2,-5.1,-7.7,-6.5h4.1Zm-13.5,64.7H357.1c-4,-.9,-7.2,-3.1,-9.6,-6.5V489.8c2.1,-2.9,5.1,-5.4,9.6,-6.5h89.6c3.9,.9,7.1,3.1,9.5,6.5v58.1c-2,2.9,-5.1,5.4,-9.6,6.5m-103,-55.3c.5,-2.2,1.3,-4.9,2.8,-7.4v54.4c-.3,-.5,-.6,-.9,-.8,-1.4c-1,-2.1,-1.6,-4.2,-2,-6Zm113.8,-7.5c.2,.5,.5,.9,.7,1.4c1,2.1,1.7,4.2,2,6v39.6c-.4,2.2,-1.3,4.9,-2.7,7.5ZM350,483.3h4.2c-3.5,1.4,-6,3.8,-7.8,6.5v.1c-1.3,1.9,-2.2,3.9,-2.8,5.7v-5.9ZM343.6,548v-5.9c.6,1.8,1.5,3.8,2.8,5.7v.1c1.8,2.7,4.3,5.1,7.8,6.5H350Zm110.1,6.4h-4.1c3.5,-1.4,6,-3.8,7.7,-6.5h.1v-.1c1.2,-1.9,2.1,-3.9,2.7,-5.7V548Z" class="g3"/>
<path d="M574.8,492.2c-3.7,0,-6.7,2.8,-7.1,6.4h-5.5c-.3,-3.6,-3.4,-6.4,-7.1,-6.4c-3.7,0,-6.7,2.8,-7,6.4h-5.5c-.4,-3.6,-3.4,-6.4,-7.1,-6.4c-4,0,-7.2,3.2,-7.2,7.1c0,4,3.2,7.2,7.2,7.2c3.1,0,5.7,-2,6.7,-4.8h6.2c1,2.8,3.6,4.8,6.7,4.8c3.1,0,5.7,-2,6.7,-4.8h6.3c1,2.8,3.6,4.8,6.7,4.8c3.9,0,7.1,-3.2,7.1,-7.2c0,-3.9,-3.2,-7.1,-7.1,-7.1m-39.3,12.9c-3.2,0,-5.8,-2.6,-5.8,-5.8c0,-3.2,2.6,-5.8,5.8,-5.8c3.2,0,5.8,2.6,5.8,5.8c0,3.2,-2.6,5.8,-5.8,5.8m6.9,-4.1c.1,-.3,.1,-.6,.2,-1h5.5c0,.4,0,.7,.1,1Zm12.7,4.1c-3.1,0,-5.7,-2.6,-5.7,-5.8c0,-3.2,2.6,-5.8,5.7,-5.8c3.2,0,5.8,2.6,5.8,5.8c0,3.2,-2.6,5.8,-5.8,5.8m7,-4.1c0,-.3,.1,-.6,.1,-1h5.5c0,.4,.1,.7,.2,1Zm12.7,4.1c-3.2,0,-5.8,-2.6,-5.8,-5.8c0,-3.2,2.6,-5.8,5.8,-5.8c3.2,0,5.8,2.6,5.8,5.8c0,3.2,-2.6,5.8,-5.8,5.8Z" class="g3"/>
<path d="M574.8,515.1c-3.7,0,-6.7,2.8,-7.1,6.4h-5.5c-.3,-3.6,-3.4,-6.4,-7.1,-6.4c-3.7,0,-6.7,2.8,-7,6.4h-5.5c-.4,-3.6,-3.4,-6.4,-7.1,-6.4c-4,0,-7.2,3.2,-7.2,7.1c0,4,3.2,7.2,7.2,7.2c3.1,0,5.7,-2,6.7,-4.8h6.2c1,2.8,3.6,4.8,6.7,4.8c3.1,0,5.7,-2,6.7,-4.8h6.3c1,2.8,3.6,4.8,6.7,4.8c3.9,0,7.1,-3.2,7.1,-7.2c0,-3.9,-3.2,-7.1,-7.1,-7.1M535.5,528c-3.2,0,-5.8,-2.6,-5.8,-5.8c0,-3.2,2.6,-5.8,5.8,-5.8c3.2,0,5.8,2.6,5.8,5.8c0,3.2,-2.6,5.8,-5.8,5.8m6.9,-4.1c.1,-.3,.1,-.6,.2,-1h5.5c0,.4,0,.7,.1,1Zm12.7,4.1c-3.1,0,-5.7,-2.6,-5.7,-5.8c0,-3.2,2.6,-5.8,5.7,-5.8c3.2,0,5.8,2.6,5.8,5.8c0,3.2,-2.6,5.8,-5.8,5.8m7,-4.1c0,-.3,.1,-.6,.1,-1h5.5c0,.4,.1,.7,.2,1Zm12.7,4.1c-3.2,0,-5.8,-2.6,-5.8,-5.8c0,-3.2,2.6,-5.8,5.8,-5.8c3.2,0,5.8,2.6,5.8,5.8c0,3.2,-2.6,5.8,-5.8,5.8Z" class="g3"/>
<path d="M312.7,399.7V373.1c.5,-7.8,1.6,-29.8,3.4,-35.6l.2,-.5l-.4,-.2c-.1,0,-1.2,-.7,-2.3,-1.9c.3,-2.1,.8,-4.1,1.4,-5.9l.1,-.2l-1.5,-17.3l-.7,-.2c-1.6,-.5,-6.1,-2.4,-6.1,-5v-1H150.1v1c0,2.6,-4.3,4.5,-6,5l-.7,.2l-1.5,17.3v.2c.6,1.8,1.1,3.7,1.5,5.9c-1.2,1.2,-2.3,1.9,-2.3,1.9l-.4,.2l.1,.5c1.8,5.8,3,27.7,3.5,35.6v26.5c-.5,7.9,-1.7,23.8,-3.5,29.6l-.1,.4l.4,.3c0,0,1.1,.7,2.3,1.9c-.4,2.1,-.9,4.1,-1.5,5.9v.2l1.5,17.2l.7,.2c1.7,.6,6,2.5,6,5v1.1H306.8v-1.1c0,-2.5,4.4,-4.4,6.1,-5l.7,-.2l1.5,-17.2l-.1,-.2c-.6,-1.8,-1.1,-3.8,-1.4,-5.9c1.1,-1.2,2.2,-1.9,2.3,-1.9l.4,-.3l-.2,-.4c-1.8,-5.8,-2.9,-21.7,-3.4,-29.5m-2.4,38.8c0,.1,.3,.7,.6,1.6c.2,1.5,.3,4.4,-.8,7.7c-1.9,5.4,-6.4,9.3,-13.1,11.5H159.9C145.5,454.6,145.6,443.5,146,440.2c.4,-1,.7,-1.7,.7,-1.8c.6,-2.3,-.2,-4.4,-1.3,-6c2.1,-11.5,1,-26.2,1,-26.9V361.2c0,-.7,1.1,-15.4,-1,-27c1.1,-1.6,1.9,-3.7,1.3,-6.1c0,0,-.3,-.6,-.6,-1.6c-.2,-1.4,-.3,-4.4,.8,-7.6c1.8,-5.4,6.3,-9.3,13,-11.5H297.1c14.4,4.7,14.2,15.8,13.8,19.1c-.3,1,-.6,1.7,-.7,1.7c-.5,2.4,.3,4.4,1.4,6c-2.2,11.6,-1.1,26.3,-1,27v44.2c-.1,.7,-1.2,15.5,1,27.1c-1.1,1.6,-1.9,3.6,-1.3,6m4.6,-101c-1.1,3.8,-1.9,10.8,-2.5,17.5c-.1,-5,0,-12.3,.9,-18.7c.7,.5,1.2,1,1.6,1.2m-3.6,-8.9c.1,-.2,.7,-1.7,1.4,-3.6l.3,3.5c-.4,1.3,-.8,2.6,-1.1,4c-.6,-1.1,-.9,-2.5,-.6,-3.9m.3,-15.5l.8,8.6c-.2,.8,-.4,1.5,-.6,2.3c-.1,-1.5,-.3,-3.4,-1,-5.4c-1.3,-3.6,-4.3,-8.3,-11.5,-11.2h5.6c.7,3.2,5,5,6.7,5.7M152.1,307.4h5.6c-10.4,4.2,-12.3,12.1,-12.5,16.7c-.2,-.8,-.4,-1.6,-.6,-2.4l.8,-8.6c1.7,-.7,5.9,-2.5,6.7,-5.7M144,328.5l.3,-3.5c.6,1.9,1.3,3.4,1.3,3.5c.4,1.5,0,2.8,-.5,4c-.3,-1.4,-.7,-2.7,-1.1,-4m-.4,7.8c1,6.4,1.1,13.7,1,18.7c-.6,-6.7,-1.5,-13.7,-2.5,-17.5c.3,-.2,.9,-.7,1.5,-1.2m-1.5,92.8c1,-3.7,1.9,-10.8,2.5,-17.4c.1,5,0,12.2,-1,18.7c-.6,-.6,-1.2,-1,-1.5,-1.3m3.5,9c0,.1,-.7,1.7,-1.3,3.6l-.3,-3.6c.4,-1.2,.8,-2.6,1.1,-4c.6,1.2,.9,2.5,.5,4m-.2,15.5l-.8,-8.7c.2,-.7,.4,-1.5,.6,-2.2c0,1.5,.3,3.3,1,5.3c1.2,3.7,4.3,8.4,11.5,11.3h-5.6c-.8,-3.2,-5,-5.1,-6.7,-5.7m159.5,5.7h-5.6c10.4,-4.2,12.3,-12.1,12.4,-16.7c.3,.8,.5,1.6,.7,2.3l-.8,8.7c-1.7,.6,-6,2.5,-6.7,5.7M313,438.1l-.3,3.6c-.7,-1.9,-1.3,-3.4,-1.3,-3.5c-.4,-1.5,-.1,-2.9,.5,-4c.3,1.4,.7,2.7,1.1,3.9m.3,-7.7c-.9,-6.5,-1,-13.7,-.9,-18.7c.6,6.6,1.4,13.7,2.5,17.4c-.4,.3,-.9,.7,-1.6,1.3Z" class="g3"/>
<path d="M165.2,244.6c-.3,.1,-.4,.4,-.3,.7c0,.1,.2,.5,.5,1.1c-3.5,.1,-6.8,1,-9.8,2.4c2.9,-.3,7.4,-.1,11.6,.7c.1,0,.2,0,.2,0c.2,.3,.5,.7,.7,1c-19.4,-4.6,-24.5,5.2,-24.5,5.2c1.7,-1.7,3.7,-3,5.8,-3.8c.7,-.2,1.3,-.4,2,-.5c-5.9,4.5,-9.7,11.6,-9.7,19.5c0,8,3.8,15.1,9.7,19.6c-.7,-.2,-1.3,-.3,-2,-.5c-2.1,-.9,-4.1,-2.1,-5.8,-3.9c0,0,5.1,9.9,24.5,5.3c-.2,.3,-.5,.6,-.7,.9c0,0,-.1,0,-.2,0c-4.2,.9,-8.7,1.1,-11.6,.8c3,1.4,6.3,2.3,9.8,2.4c-.3,.6,-.5,1,-.5,1.1c-.1,.3,0,.6,.3,.7c.3,.1,.7,0,.8,-.3c0,0,4.6,-8.7,10.6,-10.4c1.7,-.5,3.5,-1,5.4,-1c-3.1,3.3,-7.2,5.7,-11.9,6.5c-1.3,1.3,-1.8,2.4,-2,3.4c3.5,-.3,6.7,-1.3,9.6,-2.8l3.3,-2.1c.4,-.3,.8,-.6,1.2,-1H308.5l.3,-.5c.9,-1.5,3.7,-5.5,5.9,-6.6l.6,-.2V259.6l-.6,-.3c-2.2,-1,-5,-5.1,-5.9,-6.5l-.3,-.5H182.2c-.4,-.4,-.8,-.7,-1.2,-1l-3.3,-2.1c-2.9,-1.5,-6.1,-2.5,-9.6,-2.8c.2,1,.7,2.1,2,3.4c4.7,.8,8.8,3.2,11.9,6.5c-1.9,-.1,-3.7,-.5,-5.4,-1C170.6,253.6,166,244.9,166,244.9c-.1,-.3,-.5,-.5,-.8,-.3m19.2,42.9c.5,-.5,.9,-1.1,1.4,-1.6c1.8,.3,3.8,.8,5.8,1.6ZM313.2,281c-2.5,1.5,-5,5.2,-5.9,6.5h-6.5c3.9,-1.7,9.6,-4.7,12.4,-8.8Zm-5.9,-26.6c.9,1.3,3.4,5,5.9,6.5v2.3c-2.8,-4.1,-8.5,-7.1,-12.4,-8.8Zm-122.9,0h7.2c-2,.8,-4,1.3,-5.8,1.6c-.5,-.6,-.9,-1.1,-1.4,-1.6m10,0v0H297.6c3.7,1.3,13.3,5.4,15.6,11.2v10.6c-2.3,5.9,-11.9,10,-15.6,11.3H194.4c-2.7,-1.3,-5.4,-2.2,-7.9,-2.7c2.8,-3.9,4.4,-8.7,4.4,-13.9c0,-5.1,-1.6,-9.9,-4.4,-13.8c2.5,-.5,5.2,-1.4,7.9,-2.7M170.6,253c1.5,1.3,3.4,2.5,5.5,3.3c2.2,.9,4.5,1.2,6.9,1.2c3,3.6,4.8,8.3,4.8,13.4c0,5.2,-1.8,9.8,-4.8,13.5c-2.4,0,-4.7,.3,-6.9,1.1c-2.1,.9,-4,2.1,-5.5,3.4c-2.1,.7,-6.5,2,-11.9,2.2c-8.2,-3.1,-14,-10.9,-14,-20.2c0,-9.2,5.8,-17,14,-20.1c5.4,.2,9.8,1.5,11.9,2.2Z" class="g3"/>
<path d="M52.2,895.3c-6.9,4.6,-11,12.3,-11,20.5c0,8.2,4.1,15.8,11,20.4l.3,.3H79.1l.4,-.3c1.5,-1,2.8,-2.1,3.9,-3.3H308.3l.3,-.5c.8,-1.5,3.6,-5.5,5.8,-6.6l.6,-.2V906l-.6,-.3c-2.2,-1.1,-5,-5.1,-5.8,-6.6l-.4,-.5H83.5c-1.2,-1.2,-2.5,-2.3,-4,-3.3l-.4,-.2H52.5Zm-7.9,20.5c0,-7.1,3.4,-13.6,9.2,-17.7H65.8c5.7,2.5,13.4,3.9,17.2,4.6c2.8,3.7,4.4,8.3,4.4,13.1c0,4.8,-1.6,9.3,-4.4,13c-3.8,.7,-11.5,2.1,-17.2,4.6H53.5c-5.8,-4,-9.2,-10.6,-9.2,-17.6M297.4,900.7c3.7,1.4,13.3,5.4,15.5,11.3v7.5c-2.2,5.9,-11.8,10,-15.5,11.3H97.5c-.9,-.8,-3,-2.2,-6.8,-2.5c1.1,-1.9,3.5,-6.7,3.5,-12.5c0,-5.9,-2.4,-10.7,-3.5,-12.6c3.8,-.3,5.9,-1.6,6.8,-2.5Zm-208,2.6c.7,1.2,3.7,6.3,3.7,12.5c0,6.1,-3,11.2,-3.7,12.4c-.8,0,-1.5,0,-2.4,.1c2.2,-3.8,3.4,-8.1,3.4,-12.5c0,-4.5,-1.2,-8.8,-3.4,-12.5c.9,0,1.6,0,2.4,0M78.2,933.4H71.8c3.9,-1.6,7.2,-2.6,10,-3.2c-1.1,1.2,-2.3,2.3,-3.6,3.2m8,-3.9c4.8,-.4,7.6,.5,9.3,1.3H85.3c.3,-.4,.6,-.8,.9,-1.3m220.9,1.3h-6.6c4,-1.7,9.7,-4.7,12.4,-8.8v2.3c-2.5,1.5,-5,5.2,-5.8,6.5m5.8,-23.5v2.2c-2.7,-4.1,-8.4,-7.1,-12.4,-8.8h6.6c.8,1.4,3.3,5,5.8,6.6M95.5,900.7c-1.7,.9,-4.5,1.8,-9.3,1.3c-.3,-.4,-.6,-.9,-.9,-1.3Zm-13.7,.6c-2.8,-.6,-6.1,-1.6,-10,-3.2h6.4c1.3,1,2.5,2,3.6,3.2Z" class="g3"/>
<path d="M47.9,247.2c0,0,3.4,17.1,2.2,32.8c0,0,-4.7,4.8,.4,12.5l-.4,8.4h74.5l-.4,-8.4c5.2,-7.7,.4,-12.5,.4,-12.5c-1.1,-15.7,2.3,-32.8,2.3,-32.8l-2.2,-1.7c.5,-.8,1.7,-6.1,1.7,-6.1l-1.5,-17.7c-4.3,1.8,-7.2,-4.8,-7.2,-4.8H57c0,0,-2.8,6.6,-7.2,4.8l-1.4,17.7c0,0,1.2,5.3,1.6,6.1Z" class="g2"/>
<path d="M87.4,282.4c10.3,0,18.6,5.6,18.6,12.6c0,6.9,-8.3,12.6,-18.6,12.6C77.1,307.6,68.7,301.9,68.7,295c0,-7,8.4,-12.6,18.7,-12.6Z" class="g2"/>
<path d="M87.4,305.6c-9.1,0,-16.8,-4.8,-16.8,-10.6c0,-5.8,7.7,-10.7,16.8,-10.7c9,0,16.7,4.9,16.7,10.7c0,5.8,-7.7,10.6,-16.7,10.6m0,3.9c11.3,0,20.5,-6.5,20.5,-14.5c0,-8,-9.2,-14.5,-20.5,-14.5C76,280.5,66.8,287,66.8,295c0,8,9.2,14.5,20.6,14.5Z" class="g0"/>
<path d="M51.2,229.6c-.9,-2.4,-1.4,-7.4,-1.4,-7.4v-.5l.7,-.2c1.4,-.4,5.6,-2.3,5.6,-4.6v-1h62.5v1c0,2.3,4.2,4.2,5.7,4.6l.6,.2l.1,.5c0,0,-.5,5,-1.5,7.4l-.4,-6.4c-1.7,-.6,-5.6,-2.3,-6.4,-5.3H58c-.7,3,-4.7,4.7,-6.3,5.3ZM49,295.7v0c.1,0,.2,0,.3,0c.1,-1.1,.2,-2.4,.2,-3.8c-1.1,-1.8,-2,-3.8,-2.2,-5.9c-.2,-2.6,.7,-5.1,2.6,-7.3c0,-.3,0,-.7,0,-1.1c0,0,-1.4,-25.9,-2.6,-30l-.2,-.6l.5,-.3c0,0,1.1,-.7,2.2,-1.8c0,0,1.1,-1,1.5,-2.3c.5,-1,.7,-2.1,.5,-3.4c-.1,-.1,-.6,-1.3,-1.2,-2.9l-.2,2.8c.2,.8,.5,1.7,.7,2.5c-.3,.7,-.9,1.6,-1.6,2.1c-.3,-1.5,-.6,-2.9,-1.1,-4.1v-.2l1.2,-13.9c0,2.1,1.4,6.6,1.4,6.6c.5,2.8,2.1,6.6,2.1,6.7c.6,2.4,-.2,4.4,-1.3,5.9c1.6,9.3,0,42.5,-.2,46.4c-.8,-1,-1.5,-2.6,-1.9,-3.5c.1,-2,.2,-4.2,.2,-6.5c-.9,1.5,-1.3,3.1,-1.1,4.8c.1,1.9,1,3.7,2.1,5.4c0,.1,.1,.2,.1,.2c.2,.2,.3,.5,.5,.7c2.4,3.3,5.6,5.6,5.8,5.7c1.2,.7,2.4,1.4,3.5,2.2l.3,.1c.8,.6,1.5,1.1,2.3,1.7l.1,.1c1.5,1.1,2.8,2.2,3.8,3.1c1.4,.1,2.8,.2,4,.3C70,304.4,69,303.2,68.1,302H64.7l-2.5,-1.9h2.3c-.5,-1.6,-.8,-3,-.9,-4.2c-.8,1.1,-2.6,2.8,-5.2,1.8c.6,.1,3.1,.5,5.3,-4.1c.4,-3.7,2.5,-5.3,2.5,-5.3c-2.2,4.2,-1.7,8,-1,10.3c0,0,.5,.6,1.4,.6c-.6,-1.3,-.9,-2.8,-.9,-4.2c0,-8.6,9.7,-15.6,21.7,-15.6c11.9,0,21.6,7,21.6,15.6c0,1.4,-.3,2.9,-.8,4.2c.9,0,1.3,-.6,1.3,-.6c.7,-2.3,1.2,-6.1,-1,-10.3c0,0,2.1,1.6,2.6,5.3c2.2,4.6,4.7,4.2,5.3,4.1c-2.7,1,-4.5,-.7,-5.3,-1.8c-.1,1.2,-.3,2.6,-.9,4.2h2.4l-2.5,1.9h-3.5c-.8,1.2,-1.9,2.4,-3.2,3.4c1.2,-.1,2.6,-.2,4,-.3c1.1,-.9,2.4,-2,3.8,-3.1l.2,-.1c.7,-.6,1.5,-1.1,2.3,-1.7l.2,-.1h.1c1.1,-.8,2.3,-1.5,3.5,-2.2c.2,-.1,3.3,-2.4,5.7,-5.7h.1c.1,-.2,.3,-.5,.4,-.7c.1,0,.1,-.1,.2,-.2c1.1,-1.7,1.9,-3.5,2.1,-5.4c.1,-1.7,-.3,-3.3,-1.2,-4.8c.1,2.3,.1,4.5,.2,6.5c-.4,.9,-1.1,2.5,-1.8,3.5c-.3,-3.9,-1.9,-37.1,-.2,-46.4c-1.1,-1.5,-1.9,-3.5,-1.4,-5.9c.1,-.1,1.7,-3.9,2.1,-6.7c0,0,1.4,-4.5,1.4,-6.6l1.3,13.9l-.1,.2c-.4,1.2,-.8,2.6,-1.1,4.1c-.7,-.5,-1.2,-1.4,-1.5,-2.1c.2,-.8,.4,-1.7,.7,-2.5l-.3,-2.8c-.5,1.6,-1.1,2.8,-1.1,2.9c-.3,1.3,-.1,2.4,.4,3.4c.4,1.3,1.6,2.3,1.6,2.3c1.1,1.1,2.2,1.8,2.2,1.8l.5,.3l-.2,.6c-1.3,4.1,-2.7,30,-2.7,30c0,.4,0,.8,0,1.1c2,2.2,2.9,4.7,2.6,7.3c-.2,2.1,-1.1,4.1,-2.2,5.9c.1,1.4,.2,2.7,.2,3.8c.1,0,.2,0,.3,0c1.5,-.2,2.8,.7,2.2,1.7c-.6,1.1,-1.7,1.2,-1.7,1.2c0,0,.4,-.3,.7,-.9c.2,-.3,.1,-.4,-.1,-.5c-.1,0,-.3,0,-.4,0c-.3,-.1,-.6,-.1,-.9,-.1c.2,2.4,.4,3.8,.4,3.8l.1,1.1H113.6c-1.4,1.1,-2.8,2.2,-4,3.2c4.3,-.1,7,2.1,7,2.1l-2.7,1.1c-1.4,.6,-3.5,1.4,-5.4,1.8c-.1,0,-.2,0,-.3,0c-.1,0,-.2,0,-.2,.1c-9.7,1.6,-10.8,.7,-10.8,.7c4.2,0,6.9,-2.7,6.9,-2.7l.2,-.3c.1,0,.6,-.6,1.4,-1.4c-.6,.1,-1.2,.1,-1.8,.2c-.1,0,-.3,0,-.4,0c-.3,0,-.7,.1,-1.2,.2c-.3,.1,-.6,.2,-.9,.3c0,0,-.1,0,-.1,.1c-.3,.1,-.7,.2,-1,.4l-.1,.1c-.2,.1,-.5,.3,-.7,.5c-.1,.1,-.2,.1,-.3,.2c-.2,.3,-.5,.5,-.7,.9l-7.9,.9v-.1c-1,.2,-2.1,.2,-3.2,.2c-1.1,0,-2.2,0,-3.3,-.2l.1,.1l-7.9,-.9c-.3,-.4,-.5,-.6,-.8,-.9q-.1,-.1,-.2,-.2c-.3,-.2,-.5,-.4,-.8,-.6c0,0,-.1,0,-.1,0c-.3,-.2,-.6,-.3,-1,-.4c0,-.1,-.1,-.1,-.1,-.1c-.3,-.1,-.6,-.2,-.9,-.3c-.5,-.1,-.9,-.2,-1.2,-.2c-.1,0,-.2,0,-.4,0c-.6,-.1,-1.2,-.1,-1.8,-.2c.8,.8,1.4,1.4,1.5,1.4l.2,.3c0,0,2.6,2.7,6.8,2.7c0,0,-1,.9,-10.7,-.7c-.1,-.1,-.2,-.1,-.3,-.1c-.1,0,-.2,0,-.3,0c-1.9,-.4,-4,-1.2,-5.3,-1.8l-2.8,-1.1c0,0,2.7,-2.2,7.1,-2.1c-1.2,-1,-2.6,-2.1,-4.1,-3.2H48.7l.2,-1.1c0,0,.1,-1.4,.3,-3.8c-.3,0,-.6,0,-.8,.1h-.1c-.1,0,-.2,0,-.3,0c-.2,.1,-.3,.2,-.2,.5c.4,.6,.8,.9,.8,.9c0,0,-1.1,-.1,-1.7,-1.2c-.7,-1,.6,-1.9,2.1,-1.7m74.8,-30.5c.5,-5.7,1.3,-14.3,2.2,-17.5c-.4,-.3,-.8,-.6,-1.3,-1.1c-.8,5.3,-.9,14.1,-.9,18.6m-2.1,31c.6,-.2,1.2,-.3,1.8,-.3c-.1,-.5,-.1,-1,-.1,-1.5c-.6,.6,-1.2,1.3,-1.7,1.8m-5.1,3.9h7.2c-.1,-.7,-.1,-1.7,-.2,-2.8c-2.2,.2,-4.6,1.3,-7,2.8m-11,8.6q.1,.1,.1,.1c1.1,.6,4.6,-.5,7.4,-1.6c-1.4,-.5,-3.2,-.6,-5.1,-.6c-1.1,.9,-1.9,1.7,-2.4,2.1m-18.2,-.3c7,0,13.1,-2.6,16.5,-6.4c.3,-.3,.6,-.6,.8,-.9c0,-.1,.1,-.1,.1,-.1c.2,-.3,.4,-.6,.6,-.9c.9,-1.6,1.5,-3.3,1.5,-5.1c0,-7.4,-8.8,-13.5,-19.5,-13.5c-10.8,0,-19.5,6.1,-19.5,13.5c0,1.8,.5,3.5,1.4,5.1c.2,.3,.4,.6,.7,.9v.1c.3,.3,.5,.6,.8,.9c3.5,3.8,9.6,6.4,16.6,6.4M66.8,306.6c-1.9,0,-3.8,.1,-5.1,.6c2.8,1.1,6.3,2.2,7.3,1.6q.1,0,.1,-.1c-.4,-.4,-1.2,-1.2,-2.3,-2.1M51.3,295.9c.6,0,1.2,.1,1.8,.3c-.6,-.5,-1.1,-1.2,-1.7,-1.8c0,.5,-.1,1,-.1,1.5m-.4,4.2h7.2c-2.3,-1.5,-4.8,-2.6,-6.9,-2.8c-.1,1.1,-.2,2.1,-.3,2.8m0,-34.9c.1,-4.5,-.1,-13.3,-.8,-18.6c-.5,.5,-1,.8,-1.3,1.1c.9,3.2,1.6,11.8,2.1,17.5Z" class="g3"/>
<path d="M47.9,356.9c0,0,3.4,17.2,2.2,32.8c0,0,-4.7,4.8,.4,12.6l-.4,8.3h74.5l-.4,-8.3c5.2,-7.8,.4,-12.6,.4,-12.6c-1.1,-15.6,2.3,-32.8,2.3,-32.8l-2.2,-1.6c.5,-.9,1.7,-6.2,1.7,-6.2l-1.5,-17.6c-4.3,1.8,-7.2,-4.8,-7.2,-4.8H57c0,0,-2.8,6.6,-7.2,4.8l-1.4,17.6c0,0,1.2,5.3,1.6,6.2Z" class="g2"/>
<path d="M87.4,392.1c10.3,0,18.6,5.7,18.6,12.6c0,6.9,-8.3,12.6,-18.6,12.6c-10.3,0,-18.7,-5.7,-18.7,-12.6c0,-6.9,8.4,-12.6,18.7,-12.6Z" class="g2"/>
<path d="M87.4,415.4c-9.1,0,-16.8,-4.9,-16.8,-10.7c0,-5.8,7.7,-10.7,16.8,-10.7c9,0,16.7,4.9,16.7,10.7c0,5.8,-7.7,10.7,-16.7,10.7m0,3.8c11.3,0,20.5,-6.5,20.5,-14.5c0,-8,-9.2,-14.5,-20.5,-14.5c-11.4,0,-20.6,6.5,-20.6,14.5c0,8,9.2,14.5,20.6,14.5Z" class="g0"/>
<path d="M103.4,415.1c1.3,-1,2.4,-2.1,3.2,-3.3h3.5l2.5,-2h-2.4c.6,-1.6,.8,-3,.9,-4.2c.8,1.1,2.6,2.8,5.3,1.8c-.7,.2,-3.1,.5,-5.3,-4.1c-.5,-3.6,-2.6,-5.3,-2.6,-5.3c2.2,4.3,1.7,8,1,10.3c0,0,-.4,.6,-1.3,.7c.5,-1.4,.8,-2.8,.8,-4.3c0,-8.6,-9.7,-15.6,-21.6,-15.6c-12,0,-21.7,7,-21.7,15.6c0,1.5,.3,2.9,.9,4.3c-.9,-.1,-1.4,-.7,-1.4,-.7c-.7,-2.3,-1.2,-6,1,-10.3c0,0,-2.1,1.7,-2.5,5.3c-2.2,4.6,-4.7,4.3,-5.3,4.1c2.6,1,4.4,-.7,5.2,-1.8c.1,1.2,.4,2.6,.9,4.2H62.2l2.5,2h3.4c.9,1.2,2,2.3,3.2,3.3c-.1,.1,-6.3,3.7,-11.1,.6c0,0,1.4,2.9,6,2.7c0,0,.1,0,.2,0h.1c5.3,-.5,7.7,1.7,7.7,1.7c-.7,-1.8,-2.3,-2.5,-3.5,-2.7c.6,-.2,1.1,-.4,1.7,-.6c1.2,.3,2.9,.9,3.9,2.4l7.9,.9h-.1c1.1,.1,2.2,.2,3.3,.2c1.1,0,2.2,-.1,3.2,-.2l7.9,-.9c1,-1.5,2.6,-2.1,3.8,-2.4c.6,.2,1.2,.4,1.7,.6c-1.2,.2,-2.7,.9,-3.5,2.7c0,0,2.4,-2.2,7.7,-1.7q.1,0,.2,0c0,0,.1,0,.1,0c4.6,.2,6,-2.7,6,-2.7c-4.7,3,-10.8,-.4,-11.1,-.6M70.8,411.8v0c-.3,-.3,-.5,-.7,-.8,-1c0,0,0,-.1,0,-.1c-.3,-.3,-.5,-.6,-.7,-.9c-.9,-1.6,-1.4,-3.3,-1.4,-5.1c0,-7.4,8.7,-13.4,19.5,-13.4c10.7,0,19.5,6,19.5,13.4c0,1.8,-.6,3.5,-1.5,5.1c-.2,.3,-.4,.6,-.6,.9c0,0,-.1,.1,-.1,.1c-.2,.3,-.5,.7,-.8,1c-3.4,3.8,-9.5,6.3,-16.5,6.3c-7,0,-13.1,-2.5,-16.6,-6.3m50.8,-63.3c-.5,2.4,.3,4.4,1.4,6c-1.7,9.3,-.1,42.5,.2,46.3c.7,-1,1.4,-2.5,1.8,-3.5c-.1,-2,-.1,-4.2,-.2,-6.4c.9,1.5,1.3,3,1.2,4.7c-.2,1.9,-1,3.8,-2.1,5.4c-.1,.1,-.1,.2,-.2,.3c-.1,.2,-.3,.4,-.4,.6q-.1,.1,-.1,.1c-2.4,3.2,-5.5,5.5,-5.7,5.7c-1.2,.6,-2.4,1.3,-3.5,2.1h-.1l-.2,.2c-.8,.5,-1.6,1.1,-2.3,1.6l-.2,.2c0,0,-2,1.7,-1.3,2.9c.6,1.2,4.6,.9,6.5,-1.6c0,0,-1.9,1.7,-4,.8c-1,-.5,-.2,-1.3,.8,-2.1H126l-.1,-1.1c0,-.1,-.2,-1.5,-.4,-3.8c.3,0,.6,0,.9,0c.1,0,.3,0,.4,0c.1,.1,.3,.3,.1,.6c-.3,.6,-.7,.8,-.7,.8c0,0,1,-.1,1.7,-1.1c.6,-1.1,-.7,-1.9,-2.2,-1.8c-.1,0,-.2,0,-.3,0c0,-1.1,-.1,-2.4,-.2,-3.8c1.1,-1.7,2,-3.7,2.2,-5.9c.3,-2.6,-.6,-5,-2.6,-7.2c0,-.4,0,-.8,0,-1.2c0,0,1.4,-25.9,2.7,-30l.2,-.5l-.5,-.3c0,0,-1.1,-.7,-2.2,-1.9c0,0,-1.2,-1,-1.6,-2.2c-.5,-1,-.7,-2.2,-.4,-3.4c0,-.1,.6,-1.4,1.1,-3l.3,2.9c-.3,.8,-.5,1.6,-.7,2.5c.3,.6,.8,1.6,1.5,2c.3,-1.4,.7,-2.8,1.1,-4.1l.1,-.2l-1.3,-13.8c0,2.1,-1.4,6.5,-1.4,6.5c-.4,2.9,-2,6.6,-2.1,6.7m1.8,55.6c0,.5,0,1,.1,1.5c-.6,.1,-1.2,.2,-1.8,.4c.5,-.6,1.1,-1.2,1.7,-1.9m-6.8,5.7c2.4,-1.4,4.8,-2.5,7,-2.8c.1,1.2,.1,2.1,.2,2.8Zm8.1,-53.4c.5,.4,.9,.8,1.3,1c-.9,3.3,-1.7,11.8,-2.2,17.5c0,-4.5,.1,-13.2,.9,-18.5M51.2,339.3c-.9,-2.4,-1.4,-7.4,-1.4,-7.4v-.4l.7,-.2c1.4,-.5,5.6,-2.3,5.6,-4.7v-1h62.5v1c0,2.4,4.2,4.2,5.7,4.7l.6,.2l.1,.4c0,0,-.5,5,-1.5,7.4l-.4,-6.3c-1.7,-.6,-5.6,-2.4,-6.4,-5.4H58c-.7,3,-4.7,4.8,-6.3,5.4Zm-4.3,67.9c.6,1,1.7,1.1,1.7,1.1c0,0,-.4,-.2,-.8,-.8c-.1,-.3,0,-.5,.2,-.6c.1,0,.2,0,.3,0h.1c.2,0,.5,0,.8,0c-.2,2.3,-.3,3.7,-.3,3.8l-.2,1.1H61.5c1.1,.8,1.8,1.6,.8,2.1c-2.1,.9,-4,-.8,-4,-.8c1.9,2.5,5.9,2.8,6.5,1.6c.7,-1.2,-1.3,-2.9,-1.3,-2.9l-.1,-.2c-.8,-.5,-1.5,-1.1,-2.3,-1.6l-.3,-.2c-1.1,-.8,-2.3,-1.5,-3.5,-2.1c-.2,-.2,-3.4,-2.5,-5.8,-5.7v-.1c-.2,-.2,-.3,-.4,-.5,-.6c0,-.1,-.1,-.2,-.1,-.3c-1.1,-1.6,-2,-3.5,-2.1,-5.4c-.2,-1.7,.2,-3.2,1.1,-4.7c0,2.2,-.1,4.4,-.2,6.4c.4,1,1.1,2.5,1.9,3.5c.2,-3.8,1.8,-37,.2,-46.3c1.1,-1.6,1.9,-3.6,1.3,-6c0,-.1,-1.6,-3.8,-2.1,-6.7c0,0,-1.4,-4.4,-1.4,-6.5l-1.2,13.8v.2c.5,1.3,.8,2.7,1.1,4.1c.7,-.4,1.3,-1.4,1.6,-2c-.2,-.9,-.5,-1.7,-.7,-2.5l.2,-2.9c.6,1.6,1.1,2.9,1.2,3c.2,1.2,0,2.4,-.5,3.4c-.4,1.2,-1.5,2.2,-1.5,2.2c-1.1,1.2,-2.2,1.9,-2.2,1.9l-.5,.3l.2,.5c1.2,4.1,2.6,30,2.6,30c0,.4,0,.8,0,1.2c-1.9,2.2,-2.8,4.6,-2.6,7.2c.2,2.2,1.1,4.2,2.2,5.9c0,1.4,-.1,2.7,-.2,3.8c-.1,0,-.2,0,-.3,0c-1.5,-.1,-2.8,.7,-2.1,1.8m4.5,-3.1c.6,.7,1.1,1.3,1.7,1.9c-.6,-.2,-1.2,-.3,-1.8,-.4c0,-.5,.1,-1,.1,-1.5m-.2,2.9c2.1,.3,4.6,1.4,6.9,2.8H50.9c.1,-.7,.2,-1.6,.3,-2.8M48.8,357.4c.3,-.2,.8,-.6,1.3,-1c.7,5.3,.9,14,.8,18.5c-.5,-5.7,-1.2,-14.2,-2.1,-17.5Z" class="g3"/>
<path d="M47.9,465.9c0,0,3.4,17.2,2.2,32.8c0,0,-4.7,4.8,.4,12.6l-.4,8.3h74.5l-.4,-8.3c5.2,-7.8,.4,-12.6,.4,-12.6c-1.1,-15.6,2.3,-32.8,2.3,-32.8l-2.2,-1.6c.5,-.9,1.7,-6.2,1.7,-6.2l-1.5,-17.6c-4.3,1.8,-7.2,-4.8,-7.2,-4.8H57c0,0,-2.8,6.6,-7.2,4.8l-1.4,17.6c0,0,1.2,5.3,1.6,6.2Z" class="g2"/>
<path d="M87.4,501.1c10.3,0,18.6,5.7,18.6,12.6c0,6.9,-8.3,12.6,-18.6,12.6c-10.3,0,-18.7,-5.7,-18.7,-12.6c0,-6.9,8.4,-12.6,18.7,-12.6Z" class="g2"/>
<path d="M87.4,524.4c-9.1,0,-16.8,-4.9,-16.8,-10.7c0,-5.8,7.7,-10.7,16.8,-10.7c9,0,16.7,4.9,16.7,10.7c0,5.8,-7.7,10.7,-16.7,10.7m0,3.8c11.3,0,20.5,-6.5,20.5,-14.5c0,-8,-9.2,-14.5,-20.5,-14.5c-11.4,0,-20.6,6.5,-20.6,14.5c0,8,9.2,14.5,20.6,14.5Z" class="g0"/>
<path d="M51.2,448.3c-.9,-2.4,-1.4,-7.4,-1.4,-7.4v-.4l.7,-.2c1.4,-.5,5.6,-2.3,5.6,-4.7v-1h62.5v1c0,2.4,4.2,4.2,5.7,4.7l.6,.2l.1,.4c0,0,-.5,5,-1.5,7.4l-.4,-6.3c-1.7,-.6,-5.6,-2.4,-6.4,-5.4H58c-.7,3,-4.7,4.8,-6.3,5.4ZM49,514.4v0c.1,0,.2,0,.3,0c.1,-1.1,.2,-2.4,.2,-3.8c-1.1,-1.7,-2,-3.7,-2.2,-5.9c-.2,-2.6,.7,-5,2.6,-7.2c0,-.4,0,-.8,0,-1.2c0,0,-1.4,-25.9,-2.6,-30l-.2,-.5l.5,-.3c0,0,1.1,-.7,2.2,-1.9c0,0,1.1,-1,1.5,-2.2c.5,-1,.7,-2.2,.5,-3.4c-.1,-.1,-.6,-1.4,-1.2,-3l-.2,2.9c.2,.8,.5,1.6,.7,2.5c-.3,.6,-.9,1.6,-1.6,2c-.3,-1.4,-.6,-2.8,-1.1,-4.1v-.2l1.2,-13.8c0,2.1,1.4,6.5,1.4,6.5c.5,2.9,2.1,6.6,2.1,6.7c.6,2.4,-.2,4.4,-1.3,6c1.6,9.3,0,42.5,-.2,46.3c-.8,-1,-1.5,-2.5,-1.9,-3.5c.1,-2,.2,-4.2,.2,-6.4c-.9,1.5,-1.3,3,-1.1,4.7c.1,1.9,1,3.8,2.1,5.4c0,.1,.1,.2,.1,.3c.2,.2,.3,.4,.5,.6q0,.1,0,.1c2.4,3.2,5.6,5.5,5.8,5.7c1.2,.6,2.4,1.3,3.5,2.1l.3,.2c.8,.5,1.5,1.1,2.3,1.6l.1,.2H54.7c-.1,.8,-.1,3.1,3.9,4c0,0,.6,2,6.6,3.4c6.1,1.4,1.3,-6,-.6,-7.4l.1,-.1l-2.5,-1.9h2.3c-.5,-1.6,-.8,-3,-.9,-4.2c-.8,1.1,-2.6,2.8,-5.2,1.8c.6,.2,3,.5,5.3,-4.1c.4,-3.6,2.5,-5.3,2.5,-5.3c-2.2,4.3,-1.7,8,-1,10.3c0,0,.5,.7,1.4,.7c-.6,-1.4,-.9,-2.8,-.9,-4.3c0,-8.6,9.7,-15.6,21.7,-15.6c11.9,0,21.6,7,21.6,15.6c0,1.5,-.3,2.9,-.8,4.3c.9,0,1.3,-.7,1.3,-.7c.7,-2.3,1.2,-6,-1,-10.3c0,0,2.1,1.7,2.6,5.3c2.2,4.6,4.7,4.3,5.3,4.1c-2.7,1,-4.5,-.7,-5.3,-1.8c-.1,1.2,-.3,2.6,-.9,4.2h2.4l-2.5,2c-1.9,1.4,-6.7,8.8,-.6,7.4c6,-1.4,6.6,-3.4,6.6,-3.4c4,-.9,4,-3.2,3.9,-4h-8.8l.2,-.2c.7,-.5,1.5,-1.1,2.3,-1.6l.2,-.2h.1c1.1,-.8,2.3,-1.5,3.5,-2.1c.2,-.2,3.3,-2.5,5.7,-5.7l.1,-.1c.1,-.2,.3,-.4,.4,-.6c.1,-.1,.1,-.2,.2,-.3c1.1,-1.6,1.9,-3.5,2.1,-5.4c.1,-1.7,-.3,-3.2,-1.2,-4.7c.1,2.2,.1,4.4,.2,6.4c-.4,1,-1.1,2.5,-1.8,3.5c-.3,-3.8,-1.9,-37,-.2,-46.3c-1.1,-1.6,-1.9,-3.6,-1.4,-6c.1,-.1,1.7,-3.8,2.1,-6.7c0,0,1.4,-4.4,1.4,-6.5l1.3,13.8l-.1,.2c-.4,1.3,-.8,2.7,-1.1,4.1c-.7,-.4,-1.2,-1.4,-1.5,-2c.2,-.9,.4,-1.7,.7,-2.5l-.3,-2.9c-.5,1.6,-1.1,2.9,-1.1,3c-.3,1.2,-.1,2.4,.4,3.4c.4,1.2,1.6,2.2,1.6,2.2c1.1,1.2,2.2,1.9,2.2,1.9l.5,.3l-.2,.5c-1.3,4.1,-2.7,30,-2.7,30c0,.4,0,.8,0,1.2c2,2.2,2.8,4.6,2.6,7.2c-.2,2.2,-1.1,4.2,-2.2,5.9c.1,1.4,.2,2.7,.2,3.8c.1,0,.2,0,.3,0c1.5,-.1,2.8,.7,2.2,1.8c-.6,1,-1.7,1.1,-1.7,1.1c0,0,.4,-.2,.7,-.8c.2,-.3,.1,-.5,-.1,-.5c-.2,-.1,-.3,-.1,-.4,-.1c-.3,0,-.6,0,-.9,0c.2,2.3,.4,3.7,.4,3.8l.1,1.1h-3.9c-1.9,6.9,-14.6,9.2,-14.6,9.2c-2.3,-2,-4.9,-1.4,-4.9,-1.4c2.1,-1.1,2.6,-3.5,2.6,-3.5l-2.9,.7c-1.2,.3,-2.8,.9,-3.8,2.4l-7.9,.9c-1,.1,-2.1,.2,-3.2,.2c-1.1,0,-2.2,-.1,-3.3,-.2h.1l-7.9,-.9c-1,-1.5,-2.7,-2.1,-3.9,-2.4l-2.9,-.7c0,0,.5,2.4,2.6,3.5c0,0,-2.6,-.6,-4.9,1.4c0,0,-12.7,-2.3,-14.6,-9.2H48.7l.2,-1.1c0,-.1,.1,-1.5,.3,-3.8c-.3,0,-.6,0,-.8,0h-.1c-.1,0,-.2,0,-.3,.1c-.2,0,-.3,.2,-.2,.5c.4,.6,.8,.8,.8,.8c0,0,-1.1,-.1,-1.7,-1.1c-.7,-1.1,.6,-1.9,2.1,-1.8m74.8,-30.5c.5,-5.7,1.3,-14.2,2.2,-17.5c-.4,-.2,-.8,-.6,-1.3,-1c-.8,5.3,-.9,14,-.9,18.5M121.7,515c.6,-.2,1.2,-.3,1.8,-.4c-.1,-.5,-.1,-1,-.1,-1.5c-.6,.7,-1.2,1.3,-1.7,1.9m-5.1,3.8h7.2c-.1,-.7,-.1,-1.6,-.2,-2.8c-2.2,.3,-4.6,1.4,-7,2.8m-10,2c-.7,1.1,-1.7,2.1,-2.8,3c2.1,.1,3.7,-1.8,4.6,-3ZM67.9,513.7c0,1.8,.5,3.5,1.4,5.1c.2,.3,.4,.6,.7,.9c0,0,0,.1,0,.1c.3,.3,.5,.7,.8,1c3.5,3.8,9.6,6.3,16.6,6.3c7,0,13.1,-2.5,16.5,-6.3c.3,-.3,.6,-.7,.8,-1c0,0,.1,-.1,.1,-.1c.2,-.3,.4,-.6,.6,-.9c.9,-1.6,1.5,-3.3,1.5,-5.1c0,-7.4,-8.8,-13.4,-19.5,-13.4c-10.8,0,-19.5,6,-19.5,13.4m3,10.1c-1.1,-.9,-2,-1.9,-2.8,-3H66.3c.9,1.2,2.6,3.1,4.6,3M51.3,514.6c.6,.1,1.2,.2,1.8,.4c-.6,-.6,-1.1,-1.2,-1.7,-1.9c0,.5,-.1,1,-.1,1.5m-.4,4.2h7.2c-2.3,-1.4,-4.8,-2.5,-6.9,-2.8c-.1,1.2,-.2,2.1,-.3,2.8m0,-34.9c.1,-4.5,-.1,-13.2,-.8,-18.5c-.5,.4,-1,.8,-1.3,1c.9,3.3,1.6,11.8,2.1,17.5Z" class="g3"/>
<path d="M47.9,575.6c0,0,3.4,17.2,2.2,32.9c0,0,-4.7,4.8,.4,12.5l-.4,8.4h74.5l-.4,-8.4c5.2,-7.7,.4,-12.5,.4,-12.5c-1.1,-15.7,2.3,-32.9,2.3,-32.9L124.7,574c.5,-.8,1.7,-6.1,1.7,-6.1l-1.5,-17.7c-4.3,1.8,-7.2,-4.8,-7.2,-4.8H57c0,0,-2.8,6.6,-7.2,4.8l-1.4,17.7c0,0,1.2,5.3,1.6,6.1Z" class="g2"/>
<path d="M87.4,610.9c10.3,0,18.6,5.6,18.6,12.6c0,6.9,-8.3,12.5,-18.6,12.5C77.1,636,68.7,630.4,68.7,623.5c0,-7,8.4,-12.6,18.7,-12.6Z" class="g2"/>
<path d="M87.4,634.1c-9.1,0,-16.8,-4.9,-16.8,-10.6c0,-5.8,7.7,-10.7,16.8,-10.7c9,0,16.7,4.9,16.7,10.7c0,5.7,-7.7,10.6,-16.7,10.6m0,3.9c11.3,0,20.5,-6.5,20.5,-14.5c0,-8,-9.2,-14.5,-20.5,-14.5C76,609,66.8,615.5,66.8,623.5c0,8,9.2,14.5,20.6,14.5Z" class="g0"/>
<path d="M106.6,630.5h2.3c-1.7,1.5,-2.1,3.2,-2.1,3.2c.6,.1,1.7,.6,1.7,.6c-.9,-2.1,1.6,-3.8,1.6,-3.8l2.5,-2h-2.4c.6,-1.5,.8,-2.9,.9,-4.1c.8,1.1,2.6,2.8,5.2,1.8c-.5,.1,-3,.5,-5.2,-4.1c-.5,-3.7,-2.6,-5.4,-2.6,-5.4c2.2,4.3,1.7,8.1,1,10.4c0,0,-.4,.6,-1.3,.6c.5,-1.3,.8,-2.8,.8,-4.2c0,-8.6,-9.7,-15.6,-21.6,-15.6c-12,0,-21.7,7,-21.7,15.6c0,1.4,.3,2.9,.9,4.2c-.9,0,-1.4,-.6,-1.4,-.6c-.7,-2.3,-1.2,-6.1,1,-10.4c0,0,-2.1,1.7,-2.5,5.4c-2.2,4.6,-4.7,4.2,-5.3,4.1c2.6,1,4.4,-.7,5.2,-1.8c.1,1.2,.4,2.6,.9,4.1H62.2l2.5,2h-.1c0,0,2.5,1.7,1.6,3.8c0,0,1.1,-.5,1.7,-.6c0,0,-.4,-1.7,-2.1,-3.2h2.3c.9,1.2,1.9,2.3,3.1,3.3c-5.8,.6,-8.9,3.7,-8.9,3.7c5.2,-1.4,7.5,0,7.5,0c-.2,-1.2,-1.5,-1.4,-1.5,-1.4c.1,-1.7,4.1,-.6,4.1,-.6c1.2,.3,2.9,1,3.9,2.5l7.9,.9l-.1,-.1c1.1,.1,2.2,.2,3.3,.2c1.1,0,2.2,-.1,3.2,-.2v.1l7.9,-.9c1,-1.5,2.6,-2.2,3.8,-2.5c0,0,4,-1.1,4.1,.6c0,0,-1.3,.2,-1.5,1.4c0,0,2.3,-1.4,7.5,0c0,0,-3.1,-3.1,-8.9,-3.7c1.2,-1,2.3,-2.1,3.1,-3.3m-35.8,0v0c-.3,-.3,-.5,-.6,-.8,-.9q0,-.1,0,-.1c-.3,-.3,-.5,-.6,-.7,-1c-.9,-1.5,-1.4,-3.2,-1.4,-5c0,-7.4,8.7,-13.5,19.5,-13.5c10.7,0,19.5,6.1,19.5,13.5c0,1.8,-.6,3.5,-1.5,5c-.2,.4,-.4,.7,-.6,1c0,0,-.1,0,-.1,.1c-.2,.3,-.5,.6,-.8,.9c-3.4,3.8,-9.5,6.4,-16.5,6.4c-7,0,-13.1,-2.6,-16.6,-6.4m50.8,-63.2c-.5,2.3,.3,4.4,1.4,5.9c-1.7,9.3,-.1,42.5,.2,46.4c.7,-1,1.4,-2.6,1.8,-3.5c-.1,-2,-.1,-4.2,-.2,-6.5c.9,1.5,1.3,3.1,1.2,4.8c-.2,1.9,-1,3.7,-2.1,5.4q-.1,.1,-.2,.2c-.1,.2,-.3,.5,-.4,.7q-.1,0,-.1,0c-2.4,3.3,-5.5,5.6,-5.7,5.7c-1.2,.6,-2.4,1.4,-3.5,2.1h-.1l-.2,.2c-.8,.6,-1.6,1.1,-2.3,1.7l-.2,.1c0,0,-1,.7,-1.1,2c0,0,.8,-1.4,3.1,-2h3c-3.5,2.1,-5.1,4.9,-5.1,4.9c1,.5,1.8,1.6,1.8,1.6c-.7,-2.3,1.2,-4,3.2,-5.2c.2,-.1,3.1,-1.4,5.5,-1.3H126l-.1,-1.1c0,-.1,-.2,-1.5,-.4,-3.8c.3,0,.6,0,.9,0c.1,.1,.3,.1,.4,.1c.1,.1,.3,.2,.1,.5c-.3,.6,-.7,.9,-.7,.9c0,0,1.1,-.1,1.7,-1.2c.6,-1,-.7,-1.9,-2.2,-1.7c-.1,0,-.2,0,-.3,0c0,-1.1,-.1,-2.4,-.2,-3.8c1.1,-1.8,2,-3.8,2.2,-5.9c.3,-2.6,-.6,-5.1,-2.6,-7.3c0,-.4,0,-.8,0,-1.1c0,0,1.4,-25.9,2.7,-30l.2,-.6l-.5,-.3c0,0,-1.1,-.7,-2.2,-1.8c0,0,-1.2,-1.1,-1.6,-2.3c-.5,-1,-.7,-2.1,-.4,-3.4c0,-.1,.6,-1.3,1.1,-2.9l.3,2.8c-.3,.8,-.5,1.7,-.7,2.5c.3,.6,.8,1.6,1.5,2.1c.3,-1.5,.7,-2.9,1.1,-4.1l.1,-.2L125.1,554c0,2.1,-1.4,6.6,-1.4,6.6c-.4,2.8,-2,6.5,-2.1,6.7m1.8,55.6c0,.5,0,1,.1,1.5c-.6,0,-1.2,.1,-1.8,.3c.5,-.5,1.1,-1.2,1.7,-1.8m-6.8,5.6c2.4,-1.4,4.8,-2.5,7,-2.7c.1,1.1,.1,2.1,.2,2.7Zm8.1,-53.4c.5,.5,.9,.8,1.3,1c-.9,3.3,-1.7,11.9,-2.2,17.6c0,-4.5,.1,-13.3,.9,-18.6M51.2,558c-.9,-2.3,-1.4,-7.3,-1.4,-7.3v-.5l.7,-.2c1.4,-.4,5.6,-2.3,5.6,-4.6v-1h62.5v1c0,2.3,4.2,4.2,5.7,4.6l.6,.2l.1,.5c0,0,-.5,5,-1.5,7.3l-.4,-6.3c-1.7,-.6,-5.6,-2.3,-6.4,-5.4H58c-.7,3.1,-4.7,4.8,-6.3,5.4Zm-4.3,67.9c.6,1.1,1.7,1.2,1.7,1.2c0,0,-.4,-.3,-.8,-.9c-.1,-.3,0,-.4,.2,-.5c.1,0,.2,0,.4,-.1c.2,0,.5,0,.8,0c-.2,2.3,-.3,3.7,-.3,3.8l-.2,1.1h7.4c2.2,.9,6.7,3.2,5.7,6.5c0,0,.8,-1.1,1.8,-1.6c0,0,-1.6,-2.8,-5.1,-4.9h3c2.3,.6,3.1,2,3.1,2c-.1,-1.3,-1.1,-2,-1.1,-2l-.1,-.1c-.8,-.6,-1.5,-1.1,-2.3,-1.7l-.3,-.2c-1.1,-.7,-2.3,-1.5,-3.5,-2.1c-.2,-.1,-3.4,-2.4,-5.8,-5.7c-.2,-.2,-.3,-.5,-.5,-.7c0,-.1,-.1,-.1,-.1,-.2c-1.1,-1.7,-2,-3.5,-2.1,-5.4c-.2,-1.7,.2,-3.3,1.1,-4.8c0,2.3,-.1,4.5,-.2,6.5c.4,.9,1.1,2.5,1.9,3.5c.2,-3.9,1.8,-37.1,.2,-46.4c1.1,-1.5,1.9,-3.6,1.3,-5.9c0,-.2,-1.6,-3.9,-2.1,-6.7c0,0,-1.4,-4.5,-1.4,-6.6l-1.2,13.9v.2c.5,1.2,.8,2.6,1.1,4.1c.7,-.5,1.3,-1.5,1.6,-2.1c-.2,-.8,-.5,-1.7,-.7,-2.5l.2,-2.8c.6,1.6,1.1,2.8,1.2,2.9c.2,1.3,0,2.4,-.5,3.4c-.4,1.2,-1.5,2.3,-1.5,2.3c-1.1,1.1,-2.2,1.8,-2.2,1.8l-.5,.3l.2,.6c1.2,4.1,2.6,30,2.6,30c0,.3,0,.7,0,1.1c-1.9,2.2,-2.8,4.7,-2.6,7.3c.2,2.1,1.1,4.1,2.2,5.9c0,1.4,-.1,2.7,-.2,3.8c-.1,0,-.2,0,-.3,0c-1.5,-.2,-2.8,.7,-2.1,1.7m4.5,-3c.6,.6,1.1,1.3,1.7,1.8c-.6,-.2,-1.2,-.3,-1.8,-.3c0,-.5,.1,-1,.1,-1.5m-.2,2.9c2.1,.2,4.6,1.3,6.9,2.7H50.9c.1,-.6,.2,-1.6,.3,-2.7M48.8,576.1c.3,-.2,.8,-.5,1.3,-1c.7,5.3,.9,14.1,.8,18.6C50.4,588,49.7,579.4,48.8,576.1Z" class="g3"/>
<path d="M47.9,685c0,0,3.4,17.2,2.2,32.9c0,0,-4.7,4.7,.4,12.5l-.4,8.3h74.5l-.4,-8.3c5.2,-7.8,.4,-12.5,.4,-12.5c-1.1,-15.7,2.3,-32.9,2.3,-32.9l-2.2,-1.6c.5,-.9,1.7,-6.2,1.7,-6.2l-1.5,-17.6c-4.3,1.8,-7.2,-4.8,-7.2,-4.8H57c0,0,-2.8,6.6,-7.2,4.8l-1.4,17.6c0,0,1.2,5.3,1.6,6.2Z" class="g2"/>
<path d="M87.4,720.2c10.3,0,18.6,5.7,18.6,12.6c0,7,-8.3,12.6,-18.6,12.6c-10.3,0,-18.7,-5.6,-18.7,-12.6c0,-6.9,8.4,-12.6,18.7,-12.6Z" class="g2"/>
<path d="M87.4,743.5c-9.1,0,-16.8,-4.9,-16.8,-10.7c0,-5.8,7.7,-10.6,16.8,-10.6c9,0,16.7,4.8,16.7,10.6c0,5.8,-7.7,10.7,-16.7,10.7m0,3.8c11.3,0,20.5,-6.5,20.5,-14.5c0,-8,-9.2,-14.5,-20.5,-14.5c-11.4,0,-20.6,6.5,-20.6,14.5c0,8,9.2,14.5,20.6,14.5Z" class="g0"/>
<path d="M121.6,676.7c-.5,2.3,.3,4.3,1.4,5.9c-1.7,9.3,-.1,42.5,.2,46.3c.7,-.9,1.4,-2.5,1.8,-3.5c-.1,-2,-.1,-4.1,-.2,-6.4c.9,1.5,1.3,3.1,1.2,4.7c-.2,2,-1,3.8,-2.1,5.5c-.1,0,-.1,.1,-.2,.2c-.1,.2,-.3,.4,-.4,.6q-.1,.1,-.1,.1c-2.4,3.2,-5.5,5.5,-5.7,5.7c-1.2,.6,-2.4,1.4,-3.5,2.1h-.1l-.2,.2c-.8,.5,-1.6,1.1,-2.3,1.7l-.2,.1c0,0,-1.8,1.3,-.6,2.6c0,0,-.3,-1.4,2.6,-2.6H126l-.1,-1.1c0,-.1,-.2,-1.5,-.4,-3.8c.3,0,.6,0,.9,0c.1,0,.3,.1,.4,.1c.2,0,.3,.2,.1,.5c-.3,.6,-.7,.8,-.7,.8c0,0,1.1,-.1,1.7,-1.1c.6,-1.1,-.7,-1.9,-2.2,-1.8c-.1,0,-.2,0,-.3,0c0,-1.1,-.1,-2.3,-.2,-3.7c1.1,-1.8,2,-3.8,2.2,-5.9c.3,-2.7,-.6,-5.1,-2.6,-7.3c0,-.4,0,-.8,0,-1.2c0,0,1.4,-25.8,2.7,-30l.2,-.5l-.5,-.3c0,0,-1.1,-.7,-2.2,-1.9c0,0,-1.2,-1,-1.6,-2.2c-.5,-1,-.7,-2.2,-.4,-3.4c0,-.1,.6,-1.4,1.1,-3l.3,2.9c-.3,.8,-.5,1.6,-.7,2.5c.3,.6,.8,1.6,1.5,2c.3,-1.4,.7,-2.8,1.1,-4.1l.1,-.2l-1.3,-13.8c0,2.1,-1.4,6.6,-1.4,6.6c-.4,2.8,-2,6.5,-2.1,6.7m1.8,55.5c0,.6,0,1.1,.1,1.5c-.6,.1,-1.2,.2,-1.8,.4c.5,-.6,1.1,-1.2,1.7,-1.9m-6.8,5.7c2.4,-1.4,4.8,-2.5,7,-2.8c.1,1.2,.1,2.2,.2,2.8Zm8.1,-53.4c.5,.4,.9,.8,1.3,1c-.9,3.3,-1.7,11.9,-2.2,17.6c0,-4.5,.1,-13.3,.9,-18.6Z" class="g3"/>
<path d="M51.7,661.1c1.6,-.6,5.6,-2.4,6.3,-5.4h58.7c.8,3,4.7,4.8,6.4,5.4l.4,6.3c1,-2.3,1.5,-7.4,1.5,-7.4l-.1,-.4l-.6,-.2c-1.5,-.4,-5.7,-2.3,-5.7,-4.7v-1H56.1v1c0,2.4,-4.2,4.3,-5.6,4.7l-.7,.2v.4c0,0,.5,5.1,1.4,7.4Z" class="g3"/>
<path d="M46.9,735.3c.6,1,1.7,1.1,1.7,1.1c0,0,-.4,-.2,-.8,-.8c-.1,-.3,0,-.5,.2,-.5c.1,0,.2,-.1,.4,-.1c.2,0,.5,0,.8,0c-.2,2.3,-.3,3.7,-.3,3.8l-.2,1.1H61.5c3,1.2,2.6,2.6,2.6,2.6c1.2,-1.3,-.6,-2.6,-.6,-2.6l-.1,-.1c-.8,-.6,-1.5,-1.2,-2.3,-1.7l-.3,-.2c-1.1,-.7,-2.3,-1.5,-3.5,-2.1c-.2,-.2,-3.4,-2.5,-5.8,-5.7V730c-.2,-.2,-.3,-.4,-.5,-.6c0,-.1,-.1,-.2,-.1,-.2c-1.1,-1.7,-2,-3.5,-2.1,-5.5c-.2,-1.6,.2,-3.2,1.1,-4.7c0,2.3,-.1,4.4,-.2,6.4c.4,1,1.1,2.6,1.9,3.5c.2,-3.8,1.8,-37,.2,-46.3c1.1,-1.6,1.9,-3.6,1.3,-5.9c0,-.2,-1.6,-3.9,-2.1,-6.7c0,0,-1.4,-4.5,-1.4,-6.6l-1.2,13.8v.2c.5,1.3,.8,2.7,1.1,4.1c.7,-.4,1.3,-1.4,1.6,-2c-.2,-.9,-.5,-1.7,-.7,-2.5l.2,-2.9c.6,1.6,1.1,2.9,1.2,3c.2,1.2,0,2.4,-.5,3.4c-.4,1.2,-1.5,2.2,-1.5,2.2c-1.1,1.2,-2.2,1.9,-2.2,1.9l-.5,.3l.2,.5c1.2,4.2,2.6,30,2.6,30c0,.4,0,.8,0,1.2c-1.9,2.2,-2.8,4.6,-2.6,7.3c.2,2.1,1.1,4.1,2.2,5.9c0,1.4,-.1,2.6,-.2,3.7c-.1,0,-.2,0,-.3,0c-1.5,-.1,-2.8,.7,-2.1,1.8m4.5,-3.1c.6,.7,1.1,1.3,1.7,1.9c-.6,-.2,-1.2,-.3,-1.8,-.4c0,-.4,.1,-.9,.1,-1.5m-.2,2.9c2.1,.3,4.6,1.4,6.9,2.8H50.9c.1,-.6,.2,-1.6,.3,-2.8M48.8,685.5c.3,-.2,.8,-.6,1.3,-1c.7,5.3,.9,14.1,.8,18.6c-.5,-5.7,-1.2,-14.3,-2.1,-17.6Z" class="g3"/>
<path d="M109.6,743.1c-.1,-.1,-1.5,-1.3,.5,-3.2l2.5,-2h-2.4c.6,-1.5,.8,-2.9,.9,-4.2c.8,1.2,2.6,2.9,5.3,1.8c-.6,.2,-3.1,.6,-5.3,-4.1v.1c-.5,-3.7,-2.6,-5.4,-2.6,-5.4c2.2,4.3,1.7,8.1,1,10.3c0,.1,-.4,.7,-1.3,.7c.5,-1.4,.8,-2.8,.8,-4.3c0,-8.6,-9.7,-15.5,-21.6,-15.5c-12,0,-21.7,6.9,-21.7,15.5c0,1.5,.3,2.9,.9,4.3c-.9,0,-1.4,-.6,-1.4,-.7c-.7,-2.2,-1.2,-6,1,-10.3c0,0,-2.1,1.7,-2.5,5.4v-.1c-2.3,4.7,-4.7,4.3,-5.3,4.1c2.6,1.1,4.4,-.6,5.2,-1.8c.1,1.3,.4,2.7,.9,4.2H62.2l2.5,2c2,1.9,.5,3.1,.4,3.2c-2.4,1.1,-5.9,1.7,-9.6,0c0,0,1.5,2.2,3.8,2.8c0,0,3.5,-1.3,5.4,-.8c0,0,3.1,-3.9,6,-2.3c.2,.1,.4,.2,.5,.3c0,.1,.1,.1,.1,.1c-6,.9,-5.6,5,-5.6,5c.6,-1.8,3.1,-1.6,3.1,-1.6c.5,-2,3.6,-1.7,3.6,-1.7c.3,.1,.7,.2,1,.3c.1,0,.2,.1,.3,.1c.2,.1,.5,.2,.7,.4c.2,.1,.4,.2,.6,.4c.1,.1,.3,.2,.4,.3c.3,.2,.6,.6,.9,.9l7.9,.9h-.1c.5,.1,1,.1,1.5,.1c.6,.1,1.2,.1,1.8,.1c.6,0,1.2,0,1.7,-.1c.5,0,1,0,1.5,-.1l7.9,-.9c1,-1.4,2.6,-2.1,3.8,-2.4c0,0,3.1,-.3,3.7,1.7c0,0,2.4,-.2,3,1.6c0,0,.4,-4.1,-5.6,-5q.1,0,.1,-.1c.2,-.1,.4,-.2,.5,-.3c2.9,-1.6,6,2.3,6,2.3c1.9,-.5,5.5,.8,5.5,.8c2.2,-.6,3.7,-2.8,3.7,-2.8c-3.7,1.7,-7.1,1.1,-9.6,0M87.4,719.4c10.7,0,19.5,6,19.5,13.4c0,1.8,-.6,3.5,-1.5,5.1c-.2,.3,-.4,.6,-.6,.9c0,.1,-.1,.1,-.1,.1c-.2,.4,-.5,.7,-.8,1c-1.2,1.4,-2.9,2.6,-4.8,3.6q-.1,.1,-.2,.1c-.6,.3,-1.2,.6,-1.8,.8q-.1,.1,-.2,.1c-.7,.3,-1.4,.5,-2.1,.7c0,0,-.1,.1,-.1,.1c-.7,.2,-1.3,.3,-2,.4c-.2,.1,-.4,.1,-.7,.1c-.5,.1,-1.1,.2,-1.6,.3c-.2,0,-.5,0,-.7,.1c-.8,0,-1.5,.1,-2.3,.1c-.8,0,-1.6,-.1,-2.4,-.1c-.2,-.1,-.4,-.1,-.6,-.1c-.6,-.1,-1.2,-.2,-1.7,-.3c-.2,0,-.4,0,-.6,-.1c-.7,-.1,-1.4,-.2,-2,-.4c-.1,0,-.1,-.1,-.2,-.1c-.7,-.2,-1.4,-.4,-2.1,-.7c0,0,-.1,0,-.1,-.1c-.7,-.2,-1.3,-.5,-1.9,-.8c0,0,-.1,0,-.2,-.1c-1.9,-1,-3.5,-2.2,-4.8,-3.6c-.3,-.3,-.5,-.6,-.8,-1v-.1c-.3,-.3,-.5,-.6,-.7,-.9c-.9,-1.6,-1.4,-3.3,-1.4,-5.1c0,-7.4,8.7,-13.4,19.5,-13.4M66.7,742.3c.1,-1,-.4,-1.9,-.8,-2.4h2.2c.2,.3,.5,.6,.8,.9l-.1,.1c0,0,-.8,.7,-2.1,1.4m41.3,0c-1.3,-.7,-2.1,-1.4,-2.1,-1.4v-.1c.3,-.3,.5,-.6,.7,-.9h2.2c-.4,.5,-.8,1.4,-.8,2.4Z" class="g3"/>
<path d="M47.9,794c0,0,3.4,17.2,2.2,32.9c0,0,-4.7,4.8,.4,12.5l-.4,8.4h74.5l-.4,-8.4c5.2,-7.7,.4,-12.5,.4,-12.5c-1.1,-15.7,2.3,-32.9,2.3,-32.9l-2.2,-1.6c.5,-.8,1.7,-6.1,1.7,-6.1l-1.5,-17.7c-4.3,1.8,-7.2,-4.8,-7.2,-4.8H57c0,0,-2.8,6.6,-7.2,4.8l-1.4,17.7c0,0,1.2,5.3,1.6,6.1Z" class="g2"/>
<path d="M87.4,829.3c10.3,0,18.6,5.6,18.6,12.5c0,7,-8.3,12.6,-18.6,12.6c-10.3,0,-18.7,-5.6,-18.7,-12.6c0,-6.9,8.4,-12.5,18.7,-12.5Z" class="g2"/>
<path d="M87.4,852.5c-9.1,0,-16.8,-4.9,-16.8,-10.6c0,-5.8,7.7,-10.7,16.8,-10.7c9,0,16.7,4.9,16.7,10.7c0,5.7,-7.7,10.6,-16.7,10.6m0,3.8c11.3,0,20.5,-6.4,20.5,-14.4c0,-8.1,-9.2,-14.5,-20.5,-14.5c-11.4,0,-20.6,6.4,-20.6,14.5c0,8,9.2,14.4,20.6,14.4Z" class="g0"/>
<path d="M110.1,848.9l2.5,-2h-2.4c.6,-1.5,.8,-2.9,.9,-4.2c.8,1.2,2.6,2.9,5.3,1.9c-.6,.1,-3.1,.5,-5.3,-4.1c-.5,-3.7,-2.6,-5.4,-2.6,-5.4c2.2,4.3,1.7,8.1,1,10.4c0,0,-.4,.6,-1.3,.6c.5,-1.4,.8,-2.8,.8,-4.3c0,-8.5,-9.7,-15.5,-21.6,-15.5c-12,0,-21.7,7,-21.7,15.5c0,1.5,.3,2.9,.9,4.3c-.9,0,-1.4,-.6,-1.4,-.6c-.7,-2.3,-1.2,-6.1,1,-10.4c0,0,-2.1,1.7,-2.5,5.4c-2.2,4.6,-4.7,4.2,-5.3,4.1c2.6,1,4.4,-.7,5.2,-1.9c.1,1.3,.4,2.7,.9,4.2H62.2l2.5,2c0,0,2.7,1.9,2.1,5.6c0,0,-.4,1.2,.7,1.4c1,.1,2.2,-2.2,-1.1,-7h1.7c.5,.7,1,1.3,1.6,1.9v.1c0,0,.1,0,.1,.1c3.5,5.2,.6,6,.6,6c-.3,.1,-.4,.5,-.3,.7c.6,.9,4,.6,2.5,-3.7c1.2,.3,2.7,1,3.7,2.3l7.9,1l-.1,-.1c1.1,.1,2.2,.2,3.3,.2c1.1,0,2.2,-.1,3.2,-.2v.1l7.9,-1c.9,-1.3,2.4,-2,3.6,-2.3c-1.4,4.3,2,4.6,2.5,3.7c.2,-.2,0,-.6,-.3,-.7c0,0,-2.9,-.8,.6,-6q.1,-.1,.1,-.1v-.1c.6,-.6,1.2,-1.2,1.6,-1.9h1.7c-3.2,4.8,-2,7.1,-1,7c1.1,-.2,.6,-1.4,.6,-1.4c-.6,-3.7,2.2,-5.6,2.2,-5.6m-22.7,6.4c-7,0,-13.1,-2.6,-16.6,-6.4c-.3,-.3,-.5,-.6,-.8,-.9q0,-.1,0,-.1c-.3,-.3,-.5,-.7,-.7,-1c-.9,-1.5,-1.4,-3.3,-1.4,-5.1c0,-7.3,8.7,-13.4,19.5,-13.4c10.7,0,19.5,6.1,19.5,13.4c0,1.8,-.6,3.6,-1.5,5.1c-.2,.3,-.4,.7,-.6,1q-.1,0,-.1,.1c-.2,.3,-.5,.6,-.8,.9c-3.4,3.8,-9.5,6.4,-16.5,6.4m34.2,-69.6c-.5,2.3,.3,4.4,1.4,5.9c-1.7,9.3,-.1,42.5,.2,46.4c.7,-1,1.4,-2.6,1.8,-3.5c-.1,-2,-.1,-4.2,-.2,-6.5c.9,1.5,1.3,3.1,1.2,4.8c-.2,1.9,-1,3.7,-2.1,5.4q-.1,.1,-.2,.2c-.1,.2,-.3,.4,-.4,.7q-.1,0,-.1,0c-2.4,3.3,-5.5,5.5,-5.7,5.7c-1.2,.6,-2.4,1.4,-3.5,2.1h-.1l-.2,.2c-.4,.3,-.8,.6,-1.2,.9h-.1c-.4,.3,-.8,.6,-1.1,.9h-.1c-2.5,2.2,-1.6,4.2,-.9,4.4c.8,.3,1.1,-.8,1.1,-.8c0,-1.8,1.2,-3,2.1,-3.6H126l-.1,-1.1c0,-.1,-.2,-1.5,-.4,-3.8c.3,0,.6,0,.9,0c.1,0,.2,.1,.4,.1c.2,.1,.3,.2,.1,.5c-.3,.6,-.7,.9,-.7,.9c0,0,1.1,-.2,1.7,-1.2c.6,-1,-.7,-1.9,-2.2,-1.8c-.1,0,-.2,.1,-.3,.1c0,-1.2,-.1,-2.4,-.2,-3.8c1.1,-1.8,2,-3.8,2.2,-5.9c.3,-2.7,-.6,-5.1,-2.6,-7.3c0,-.4,0,-.8,0,-1.2c0,0,1.4,-25.8,2.7,-30l.2,-.5l-.5,-.3c0,0,-1.1,-.7,-2.2,-1.8c0,0,-1.2,-1.1,-1.6,-2.3c-.5,-1,-.7,-2.1,-.4,-3.4c0,-.1,.6,-1.3,1.1,-2.9l.3,2.8c-.3,.8,-.5,1.7,-.7,2.5c.3,.6,.8,1.6,1.5,2.1c.3,-1.5,.7,-2.9,1.1,-4.1l.1,-.2l-1.3,-13.9c0,2.1,-1.4,6.6,-1.4,6.6c-.4,2.8,-2,6.5,-2.1,6.7m1.8,55.6c0,.5,0,1,.1,1.4c-.6,.1,-1.2,.2,-1.8,.4c.5,-.6,1.1,-1.2,1.7,-1.8m-6.8,5.6c2.4,-1.4,4.8,-2.5,7,-2.7c.1,1.1,.1,2.1,.2,2.7Zm8.1,-53.4c.5,.5,.9,.8,1.3,1c-.9,3.3,-1.7,11.9,-2.2,17.6c0,-4.5,.1,-13.3,.9,-18.6M51.2,776.4C50.3,774.1,49.8,769,49.8,769v-.4l.7,-.2c1.4,-.4,5.6,-2.3,5.6,-4.7v-.9h62.5v.9c0,2.4,4.2,4.3,5.7,4.7l.6,.2l.1,.4c0,0,-.5,5.1,-1.5,7.4l-.4,-6.3c-1.7,-.6,-5.6,-2.3,-6.4,-5.4H58c-.7,3.1,-4.7,4.8,-6.3,5.4Zm-4.3,67.9c.6,1,1.7,1.2,1.7,1.2c0,0,-.4,-.3,-.8,-.9c-.1,-.3,0,-.4,.2,-.5c.1,0,.2,-.1,.3,-.1h.1c.2,0,.5,0,.8,0c-.2,2.3,-.3,3.7,-.3,3.8l-.2,1.1H61.2c1,.6,2.2,1.8,2.1,3.6c0,0,.3,1.1,1.1,.8c.7,-.2,1.6,-2.2,-.9,-4.4c-.3,-.3,-.7,-.6,-1.2,-.9c-.4,-.3,-.8,-.6,-1.2,-.9l-.3,-.2c-1.1,-.7,-2.3,-1.5,-3.5,-2.1c-.2,-.2,-3.4,-2.4,-5.8,-5.7c-.2,-.3,-.3,-.5,-.5,-.7c0,-.1,-.1,-.1,-.1,-.2c-1.1,-1.7,-2,-3.5,-2.1,-5.4c-.2,-1.7,.2,-3.3,1.1,-4.8c0,2.3,-.1,4.5,-.2,6.5c.4,.9,1.1,2.5,1.9,3.5c.2,-3.9,1.8,-37.1,.2,-46.4c1.1,-1.5,1.9,-3.6,1.3,-5.9c0,-.2,-1.6,-3.9,-2.1,-6.7c0,0,-1.4,-4.5,-1.4,-6.6l-1.2,13.9v.2c.5,1.2,.8,2.6,1.1,4.1c.7,-.5,1.3,-1.5,1.6,-2.1c-.2,-.8,-.5,-1.7,-.7,-2.5l.2,-2.8c.6,1.6,1.1,2.8,1.2,2.9c.2,1.3,0,2.4,-.5,3.4c-.4,1.2,-1.5,2.3,-1.5,2.3c-1.1,1.1,-2.2,1.8,-2.2,1.8l-.5,.3l.2,.5c1.2,4.2,2.6,30,2.6,30c0,.4,0,.8,0,1.2c-1.9,2.2,-2.8,4.6,-2.6,7.3c.2,2.1,1.1,4.1,2.2,5.9c0,1.4,-.1,2.6,-.2,3.8c-.1,0,-.2,-.1,-.3,-.1c-1.5,-.1,-2.8,.8,-2.1,1.8m4.5,-3c.6,.6,1.1,1.2,1.7,1.8c-.6,-.2,-1.2,-.3,-1.8,-.4c0,-.4,.1,-.9,.1,-1.4m-.2,2.9c2.1,.2,4.6,1.3,6.9,2.7H50.9c.1,-.6,.2,-1.6,.3,-2.7M48.8,794.5c.3,-.2,.8,-.5,1.3,-1c.7,5.3,.9,14.1,.8,18.6c-.5,-5.7,-1.2,-14.3,-2.1,-17.6Z" class="g3"/>
<path d="M597.4,898.5H337.7l-7.7,7.7v258.5l7.7,7.7H597.4l7.7,-7.7V906.2Zm5.6,8.6V913c-.6,-1.9,-1.5,-3.9,-2.7,-5.8v-.1h-.1c-1.8,-2.6,-4.3,-5,-7.8,-6.5h4.2Zm-13.5,263.2H345.6c-4,-1,-7.2,-3.2,-9.6,-6.6V907.2c2.1,-2.9,5.1,-5.5,9.6,-6.6H589.5c4,1,7.2,3.2,9.6,6.6v256.5c-2.1,2.9,-5.1,5.5,-9.6,6.6M332.1,916.4c.5,-2.1,1.3,-4.8,2.7,-7.4v252.9c-.2,-.4,-.5,-.9,-.7,-1.3c-1,-2.2,-1.6,-4.3,-2,-6.1ZM600.3,909c.2,.4,.5,.9,.7,1.4c1,2.1,1.6,4.2,2,6v238.1c-.5,2.1,-1.3,4.8,-2.7,7.4ZM338.5,900.6h4.2c-3.5,1.5,-6,3.9,-7.8,6.5h-.1v.1c-1.2,1.9,-2.1,3.9,-2.7,5.8v-5.9Zm-6.4,263.3v-6c.6,1.9,1.5,3.9,2.7,5.8v.1h.1c1.8,2.6,4.3,5,7.8,6.5h-4.2Zm264.5,6.4h-4.2c3.5,-1.5,6,-3.9,7.8,-6.5h.1v-.1c1.2,-1.9,2.1,-3.9,2.7,-5.8v6Z" class="g3"/>
<path d="M608.8,853.5v-.7l-.7,-.1c-.1,0,-2.4,-.2,-3.1,-6.1V587.5l-.7,-.2c-1.7,-.6,-6.1,-2.5,-6.1,-5.1v-1H336.8v1c0,2.6,-4.4,4.5,-6.1,5.1l-.7,.2V846.6c-.7,5.9,-3,6.1,-3.1,6.1h-.7v.8c0,7.1,1.6,12.7,3.8,17v8.6l.7,.2c1.7,.6,6.1,2.5,6.1,5.1v1H598.2v-1c0,-2.6,4.4,-4.5,6.1,-5.1l.7,-.2v-8.6c2.2,-4.3,3.8,-9.9,3.8,-17m-3.4,-.8c.7,.8,1.4,1.2,1.9,1.4c-.1,4.9,-1,9.1,-2.3,12.6V852c.1,.2,.3,.4,.4,.7M331.9,597.7c.3,-.5,.7,-1.4,1.3,-2.4V845.9c0,5.2,-.4,11,-1.3,17.5Zm0,271.1c1.4,-8.6,2.1,-16.3,2.1,-22.9V594c2.5,-4.1,7,-9.8,12.9,-10.9H588.1c5.9,1.1,10.4,6.8,12.9,10.9V845.9c0,6.6,.7,14.3,2.1,22.9v2c-1.5,2.8,-3.3,4.9,-4.9,6.6c-3.6,3.6,-7.2,5.5,-8.5,6.1H345.3c-2,-.9,-8.8,-4.5,-13.4,-12.7Zm271.2,-5.4c-.9,-6.5,-1.3,-12.3,-1.3,-17.5V595.3c.6,1,1,1.9,1.3,2.4Zm0,-274.5v5.5c-2,-3.4,-5.5,-8.6,-10.5,-11.3h3.8c.7,3.2,5,5.1,6.7,5.8M338.6,583.1h3.8c-5,2.7,-8.6,7.9,-10.5,11.3v-5.5c1.7,-.7,6,-2.6,6.7,-5.8m-10.9,271c.5,-.2,1.2,-.6,1.9,-1.4c.1,-.3,.3,-.5,.4,-.7v14.7c-1.3,-3.5,-2.2,-7.7,-2.3,-12.6m4.2,23.6v-3.9c1.3,1.9,2.6,3.4,3.8,4.7c2.3,2.3,4.6,3.9,6.3,5h-3.4c-.7,-3.2,-5,-5.1,-6.7,-5.8m264.5,5.8H593c1.7,-1.1,4,-2.7,6.3,-5c1.2,-1.3,2.5,-2.8,3.8,-4.7v3.9c-1.7,.7,-6,2.6,-6.7,5.8Z" class="g3"/>
<path d="M893.8,1131.9V587.5l-.7,-.2c-1.7,-.6,-6.2,-2.5,-6.2,-5.1v-1H625.6v1c0,2.6,-4.5,4.5,-6.2,5.1l-.6,.2v543.6c-1,3.9,-4.8,20,-3.6,28.5v.5l.5,.1c0,.1,1.3,.5,3.1,1.3v5l.6,.2c1.7,.5,6.2,2.5,6.2,5.1v.9H886.9v-.9c0,-2.6,4.5,-4.6,6.2,-5.1l.7,-.2v-5.1c1.6,-.7,2.8,-1.1,2.8,-1.2l.5,-.1v-.5c1.2,-8,-2.1,-22.7,-3.3,-27.7M620.7,597.7c.2,-.5,.6,-1.4,1.2,-2.4v537.9c0,5.2,-.4,11.1,-1.2,17.6Zm0,558.4c1.3,-8.6,2,-16.3,2,-22.9V594c2.5,-4.1,7,-9.8,13,-10.9H876.8c6,1.1,10.5,6.8,13,10.9v539.2c0,6.6,.7,14.3,2,22.9v4.5c-4.1,1.9,-9.8,5.4,-10.8,10.2H631.3c-1,-4.7,-6.5,-8.2,-10.6,-10.2ZM890.6,595.3c.6,1,1,1.9,1.2,2.4v553.1c-.8,-6.5,-1.2,-12.4,-1.2,-17.6Zm1.2,-6.4v5.5c-1.9,-3.4,-5.5,-8.6,-10.5,-11.3h3.8c.8,3.2,5.1,5.1,6.7,5.8M627.4,583.1h3.8c-5,2.7,-8.6,7.9,-10.5,11.3v-5.5c1.6,-.7,5.9,-2.6,6.7,-5.8M616.6,1159c-.6,-5.7,.9,-14.6,2.2,-20.9v21.7c-1,-.4,-1.7,-.7,-2.2,-.8m4.1,6.1v-2.7c3.6,1.8,8.1,4.7,9,8.4h-2.3c-.8,-3.2,-5.1,-5.1,-6.7,-5.7m271.1,0c-1.6,.6,-5.9,2.5,-6.7,5.7h-2.5c.9,-3.8,5.6,-6.7,9.2,-8.5Zm3.9,-6.1c-.4,.1,-1.1,.4,-1.9,.7v-20.6c1.2,6.2,2.5,14.5,1.9,19.9Z" class="g3"/>
<path d="M316.3,955.1v-1.4h-4.4v-3.2H310c0,0,-.8,1.1,-2.8,1.1H50.3c-2,0,-2.8,-1.1,-2.8,-1.1H45.6v3.2H41.3v1.4c1.8,0,1.9,2.9,1.9,2.9v205.3c0,0,-.1,3,-1.9,3v1.4h4.3v5h1.9V952.8H310v217.5H47.6v2.4c0,0,.7,-1.1,2.7,-1.1H307.2c2,0,2.7,1.1,2.8,1.1h1.9v-5h4.4v-1.4c-1.9,0,-2,-3,-2,-3V958c0,0,.1,-2.9,2,-2.9M45.6,1163.3H44.3V959.2h1.3v204.1Zm267.6,0h-1.3V959.2h1.3v204.1Z" class="g3"/>
<path d="M368.3,920.6c-1.1,1.1,-2.9,1.1,-4,0c-.7,-.7,-.9,-1.8,-.7,-2.7H334.5c.3,.9,0,2,-.7,2.7c-1.1,1.1,-2.9,1.1,-4,0l-6.2,5.2V931l6.2,5.3c1.1,-1.1,2.9,-1.1,4,0c.7,.7,1,1.7,.7,2.7h29.1c-.2,-1,0,-2,.7,-2.7c1.1,-1.1,2.9,-1.1,4,0l6.2,-5.3v-5.2Z" class="g2"/>
<path d="M364.6,939.7H333.5l.3,-.9c.2,-.7,0,-1.5,-.5,-2c-.8,-.7,-2.1,-.7,-2.9,0l-.5,.5l-7,-5.9v-5.9l7,-6l.5,.5c.8,.8,2.1,.8,2.9,0c.5,-.5,.7,-1.2,.5,-1.9l-.3,-.9h31.1l-.2,.9c-.2,.7,0,1.4,.5,1.9c.7,.8,2.1,.8,2.9,0l.4,-.5l7.1,6v5.9l-7.1,5.9l-.4,-.5c-.8,-.7,-2.2,-.7,-2.9,0c-.5,.5,-.7,1.3,-.5,2Zm-29.2,-1.5h27.4c0,-.9,.3,-1.8,1,-2.4c1.2,-1.2,3.1,-1.4,4.5,-.5l5.5,-4.6v-4.5l-5.5,-4.6c-1.4,.9,-3.3,.7,-4.5,-.5c-.7,-.6,-1,-1.5,-1,-2.4H335.4c0,.9,-.4,1.8,-1.1,2.4c-1.1,1.2,-3.1,1.4,-4.4,.5l-5.5,4.6v4.5l5.5,4.6c1.3,-.9,3.3,-.7,4.4,.5c.7,.6,1.1,1.5,1.1,2.4Z" class="g3"/>
<path d="M405.3,932.2v-7.5l-10,-12.6H350.2l-10,12.6v7.5l10,12.5h45.1Z" class="g2"/>
<path d="M395.7,945.6h-46L339.3,932.4v-8l10.4,-13.1h46l10.4,13.1v8Zm-45.1,-1.7h44.2l9.6,-12V925l-9.5,-12H350.6L341,925v6.9Z" class="g3"/>
<path d="M340.8,928.7l-.7,-.6l13.3,-16.2l.7,.5Z" class="g3"/>
<path d="M404.9,928.7L391.6,912.4l.7,-.5l13.3,16.2Z" class="g3"/>
<path d="M353.4,945L340.1,928.7l.7,-.6l13.3,16.3Z" class="g3"/>
<path d="M392.3,945l-.7,-.6l13.3,-16.3l.7,.6Z" class="g3"/>
<path d="M368.3,999.9c-1.1,1.1,-2.9,1.1,-4,0c-.7,-.7,-.9,-1.8,-.7,-2.7H334.5c.3,.9,0,2,-.7,2.7c-1.1,1.1,-2.9,1.1,-4,0l-6.2,5.2v5.2l6.2,5.3c1.1,-1.1,2.9,-1.1,4,0c.7,.7,1,1.7,.7,2.7h29.1c-.2,-1,0,-2,.7,-2.7c1.1,-1.1,2.9,-1.1,4,0l6.2,-5.3v-5.2Z" class="g2"/>
<path d="M364.6,1019H333.5l.3,-.9c.2,-.7,0,-1.4,-.5,-1.9c-.8,-.8,-2.1,-.8,-2.9,-.1l-.5,.5l-7,-5.9v-5.9l7,-6l.5,.5c.8,.8,2.1,.8,2.9,0c.5,-.5,.7,-1.2,.5,-1.9l-.3,-.9h31.1l-.2,.9c-.2,.7,0,1.4,.5,1.9c.7,.8,2.1,.8,2.9,0l.4,-.5l7.1,6v5.9l-7.1,5.9l-.4,-.5c-.8,-.7,-2.2,-.7,-2.9,0c-.5,.6,-.7,1.3,-.5,2Zm-29.2,-1.5h27.4c0,-.9,.3,-1.8,1,-2.4c1.2,-1.2,3.1,-1.4,4.5,-.5l5.5,-4.6v-4.5l-5.5,-4.6c-1.4,.9,-3.3,.7,-4.5,-.5c-.7,-.6,-1,-1.5,-1,-2.4H335.4c0,.9,-.4,1.8,-1.1,2.4c-1.1,1.2,-3.1,1.4,-4.4,.5l-5.5,4.6v4.5l5.5,4.6c1.3,-.9,3.3,-.7,4.4,.5c.7,.6,1.1,1.5,1.1,2.4Z" class="g3"/>
<path d="M405.3,1011.5V1004l-10,-12.5H350.2l-10,12.5v7.5l10,12.5h45.1Z" class="g2"/>
<path d="M395.7,1024.9h-46l-10.4,-13.1v-8.1l10.4,-13.1h46l10.4,13.1v8.1Zm-45.1,-1.7h44.2l9.6,-12v-6.9l-9.5,-12H350.6l-9.6,12v6.9Z" class="g3"/>
<path d="M343.2,1015l-.8,-.5c1.4,-2,2.1,-4.3,2.1,-6.7c0,-2.4,-.7,-4.8,-2.1,-6.8l.7,-.5c1.5,2.1,2.3,4.7,2.3,7.3c0,2.6,-.7,5.1,-2.2,7.2Z" class="g3"/>
<path d="M402.3,1015c-1.5,-2.1,-2.3,-4.6,-2.3,-7.2c0,-2.6,.8,-5.2,2.3,-7.3l.7,.5c-1.4,2,-2.1,4.4,-2.1,6.8c0,2.4,.7,4.7,2.1,6.7Z" class="g3"/>
<path d="M344.6,1003.4l-.9,-.2c0,-.1,.7,-3.1,4.2,-4.7c.3,-1.4,2,-7.5,13.2,-7.5v.9c-11.7,0,-12.3,6.8,-12.3,6.9v.3l-.3,.1c-3.3,1.5,-3.9,4.2,-3.9,4.2Z" class="g3"/>
<path d="M400.9,1003.4c0,-.1,-.7,-2.7,-4,-4.2l-.2,-.1v-.3c-.1,-.3,-.7,-6.9,-12.4,-6.9V991c11.2,0,13,6.1,13.2,7.5c3.6,1.6,4.2,4.6,4.3,4.7Z" class="g3"/>
<path d="M401.4,1007.7c0,-.5,-.5,-1,-1.1,-1c-.5,0,-1,.5,-1,1c0,.6,.5,1.1,1,1.1c.6,0,1.1,-.5,1.1,-1.1Z" class="g2"/>
<path d="M400.3,1009.2c-.8,0,-1.4,-.7,-1.4,-1.5c0,-.7,.6,-1.4,1.4,-1.4c.4,0,.8,.2,1.1,.4c.2,.3,.4,.7,.4,1.1c0,.7,-.7,1.4,-1.5,1.4m0,-2.1c-.3,0,-.6,.3,-.6,.7c0,.3,.3,.6,.6,.6c.4,0,.7,-.3,.7,-.7c0,-.1,-.1,-.3,-.2,-.4c-.1,-.2,-.3,-.2,-.5,-.2Z" class="g3"/>
<path d="M346.1,1007.7c0,-.5,-.4,-1,-1,-1c-.6,0,-1.1,.5,-1.1,1c0,.6,.5,1.1,1.1,1.1c.6,0,1,-.5,1,-1.1Z" class="g2"/>
<path d="M345.1,1009.2c-.8,0,-1.5,-.7,-1.5,-1.5c0,-.7,.7,-1.4,1.5,-1.4c.4,0,.7,.2,1,.4c.3,.3,.4,.7,.4,1.1c0,.7,-.6,1.4,-1.4,1.4m0,-2.1c-.4,0,-.7,.3,-.7,.7c0,.3,.3,.6,.7,.6c.4,0,.7,-.3,.7,-.7c0,-.1,-.1,-.3,-.2,-.4c-.2,-.2,-.3,-.2,-.5,-.2Z" class="g3"/>
<path d="M361.1,1024.5c-11.2,0,-12.9,-6.1,-13.2,-7.5c-3.5,-1.6,-4.2,-4.6,-4.2,-4.7l.9,-.2c0,.1,.6,2.7,3.9,4.2l.3,.1v.3c0,.3,.6,6.9,12.3,6.9Z" class="g3"/>
<path d="M384.3,1024.5v-.9c11.8,0,12.4,-6.8,12.4,-6.9v-.3l.2,-.1c3.3,-1.5,4,-4.2,4,-4.2l.9,.2c-.1,.1,-.7,3.1,-4.3,4.7c-.2,1.4,-2,7.5,-13.2,7.5Z" class="g3"/>
<path d="M368.3,1079.2c-1.1,1.1,-2.9,1.1,-4,0c-.7,-.7,-.9,-1.7,-.7,-2.7H334.5c.3,1,0,2,-.7,2.7c-1.1,1.1,-2.9,1.1,-4,0l-6.2,5.3v5.2l6.2,5.2c1.1,-1.1,2.9,-1.1,4,0c.7,.7,1,1.8,.7,2.7h29.1c-.2,-.9,0,-2,.7,-2.7c1.1,-1.1,2.9,-1.1,4,0l6.2,-5.2v-5.2Z" class="g2"/>
<path d="M364.6,1098.3H333.5l.3,-.9c.2,-.7,0,-1.4,-.5,-1.9c-.8,-.8,-2.1,-.8,-2.9,0l-.5,.5l-7,-6v-5.9l7,-5.9l.5,.5c.8,.7,2.1,.7,2.9,0c.5,-.6,.7,-1.3,.5,-2l-.3,-.9h31.1l-.2,.9c-.2,.7,0,1.4,.5,1.9c.7,.8,2.1,.8,2.9,.1l.4,-.5l7.1,5.9v5.9l-7.1,6l-.4,-.5c-.8,-.8,-2.2,-.8,-2.9,0c-.5,.5,-.7,1.2,-.5,1.9Zm-29.2,-1.5h27.4c0,-.9,.3,-1.8,1,-2.4c1.2,-1.2,3.1,-1.4,4.5,-.5l5.5,-4.6v-4.5l-5.5,-4.6c-1.4,.9,-3.3,.7,-4.5,-.5c-.7,-.6,-1,-1.5,-1,-2.4H335.4c0,.9,-.4,1.8,-1.1,2.4c-1.1,1.2,-3.1,1.4,-4.4,.5l-5.5,4.6v4.5l5.5,4.6c1.3,-.9,3.3,-.7,4.4,.5c.7,.6,1.1,1.5,1.1,2.4Z" class="g3"/>
<path d="M405.3,1090.8v-7.5l-10,-12.5H350.2l-10,12.5v7.5l10,12.5h45.1Z" class="g2"/>
<path d="M395.7,1104.2h-46l-10.4,-13.1V1083l10.4,-13.1h46l10.4,13.1v8.1Zm-45.1,-1.7h44.2l9.6,-12v-6.9l-9.5,-12H350.6l-9.6,12v6.9Z" class="g3"/>
<path d="M343.2,1094.3l-.8,-.5c1.4,-2,2.1,-4.3,2.1,-6.7c0,-2.4,-.7,-4.8,-2.1,-6.8l.7,-.5c1.5,2.2,2.3,4.7,2.3,7.3c0,2.6,-.7,5.1,-2.2,7.2Z" class="g3"/>
<path d="M344.1,1088.9v0c.2,.1,.5,.2,.8,.2c1.1,0,1.9,-.9,1.9,-2c0,-1.1,-.8,-2,-1.9,-2c-.3,0,-.6,.1,-.8,.2h-.2c0,.1,-.1,.1,-.2,.1l-2.9,1.7l2.9,1.6c.1,0,.2,.1,.2,.1Z" class="g2"/>
<path d="M344.9,1089.4c-.4,0,-.7,0,-1,-.2l-.2,-.1q-.1,0,-.2,-.1l-3.5,-1.9l3.6,-2l.1,-.1l.2,-.1c1.6,-.7,3.3,.5,3.3,2.2c0,1.3,-1,2.3,-2.3,2.3m-3.3,-2.3l2.7,1.5c.1,0,.3,.1,.6,.1c.8,0,1.6,-.7,1.6,-1.6c0,-.9,-.8,-1.6,-1.6,-1.6c-.3,0,-.5,0,-.7,.1l-.1,.1q-.1,0,-.1,.1Z" class="g3"/>
<path d="M345.8,1085.7c0,-.1,-.6,-2.2,.2,-5.2c.7,-2.7,2.8,-6.7,8.7,-10.1l.4,.7c-10.8,6.2,-8.7,14,-8.6,14.4Z" class="g3"/>
<path d="M354.7,1103.7c-5.9,-3.4,-8,-7.4,-8.7,-10.1c-.8,-3,-.2,-5.1,-.2,-5.2l.7,.2c-.1,.4,-2.2,8.2,8.6,14.4Z" class="g3"/>
<path d="M369.9,1103.4l-.8,-.1c.1,-.1,.2,-1.1,-.5,-1.7c-.6,-.7,-2.2,-1.2,-6,-.2c-8.2,2.1,-12.8,-1.5,-13,-1.6l.5,-.6c0,0,4.5,3.5,12.3,1.5c3.3,-.9,5.6,-.8,6.8,.3c1,1,.7,2.4,.7,2.4Z" class="g3"/>
<path d="M402.3,1094.3c-1.5,-2.1,-2.3,-4.6,-2.3,-7.2c0,-2.6,.8,-5.1,2.3,-7.3l.7,.5c-1.4,2,-2.1,4.4,-2.1,6.8c0,2.4,.7,4.7,2.1,6.7Z" class="g3"/>
<path d="M401.4,1088.9v0c-.3,.1,-.6,.2,-.8,.2c-1.1,0,-2,-.9,-2,-2c0,-1.1,.9,-2,2,-2c.2,0,.5,.1,.8,.2h.1q.1,.1,.2,.1l2.9,1.7l-2.9,1.6c-.1,0,-.1,.1,-.2,.1Z" class="g2"/>
<path d="M400.6,1089.4c-1.3,0,-2.4,-1,-2.4,-2.3c0,-1.3,1.1,-2.4,2.4,-2.4c.3,0,.6,.1,.9,.2l.2,.1q.1,.1,.2,.1l3.5,2l-3.5,1.9q-.1,.1,-.2,.1l-.2,.1c-.3,.2,-.6,.2,-.9,.2m0,-3.9c-.9,0,-1.6,.7,-1.6,1.6c0,.9,.7,1.6,1.6,1.6c.2,0,.4,-.1,.6,-.2l2.6,-1.4l-2.3,-1.3q-.1,-.1,-.1,-.1l-.2,-.1c-.2,-.1,-.4,-.1,-.6,-.1Z" class="g3"/>
<path d="M399.6,1085.7l-.7,-.2c.1,-.4,2.2,-8.2,-8.6,-14.4l.4,-.7c5.9,3.4,8,7.4,8.7,10.1c.9,3,.3,5.1,.2,5.2Z" class="g3"/>
<path d="M390.7,1103.7l-.4,-.7c10.8,-6.2,8.7,-14,8.6,-14.4l.7,-.2c.1,.1,.7,2.2,-.2,5.2c-.7,2.7,-2.8,6.7,-8.7,10.1Z" class="g3"/>
<path d="M375.5,1103.4c0,0,-.3,-1.4,.8,-2.4c1.1,-1.1,3.4,-1.2,6.8,-.3c7.7,2,12.2,-1.5,12.2,-1.5l.5,.6c-.2,.1,-4.8,3.7,-12.9,1.6c-3.9,-1,-5.4,-.5,-6.1,.2c-.7,.7,-.5,1.7,-.5,1.7Z" class="g3"/>
<path d="M350.1,1074.9l-.5,-.6c.2,-.1,4.8,-3.7,13,-1.6c3.8,1,5.4,.5,6,-.2c.8,-.7,.6,-1.6,.6,-1.6l.7,-.2c0,0,.3,1.4,-.7,2.4c-1.2,1.1,-3.5,1.2,-6.8,.4c-7.8,-2.1,-12.3,1.4,-12.3,1.4Z" class="g3"/>
<path d="M395.3,1074.9c0,0,-4.5,-3.5,-12.2,-1.4c-3.4,.8,-5.7,.7,-6.8,-.4c-1.1,-1,-.8,-2.4,-.8,-2.4l.8,.1c0,.1,-.2,1.1,.5,1.8c.7,.6,2.3,1.1,6.1,.1c8.1,-2.1,12.7,1.5,12.9,1.6Z" class="g3"/>
<path d="M368.3,1039.5c-1.1,1.1,-2.9,1.1,-4,0c-.7,-.7,-.9,-1.7,-.7,-2.6H334.5c.3,.9,0,1.9,-.7,2.6c-1.1,1.1,-2.9,1.1,-4,0l-6.2,5.3v5.2l6.2,5.3c1.1,-1.1,2.9,-1.1,4,0c.7,.7,1,1.7,.7,2.6h29.1c-.2,-.9,0,-1.9,.7,-2.6c1.1,-1.1,2.9,-1.1,4,0l6.2,-5.3v-5.2Z" class="g2"/>
<path d="M364.6,1058.7H333.5l.3,-1c.2,-.7,0,-1.4,-.5,-1.9c-.8,-.8,-2.1,-.8,-2.9,0l-.5,.5l-7,-5.9v-6l7,-5.9l.5,.5c.8,.8,2.1,.8,2.9,0c.5,-.5,.7,-1.2,.5,-1.9l-.3,-1h31.1l-.2,1c-.2,.7,0,1.4,.5,1.9c.7,.8,2.1,.8,2.9,0l.4,-.5l7.1,5.9v6l-7.1,5.9l-.4,-.5c-.8,-.8,-2.2,-.8,-2.9,0c-.5,.5,-.7,1.2,-.5,1.9Zm-29.2,-1.5h27.4c0,-1,.3,-1.8,1,-2.5c1.2,-1.2,3.1,-1.3,4.5,-.4l5.5,-4.7v-4.4l-5.5,-4.7c-1.4,.9,-3.3,.8,-4.5,-.4c-.7,-.7,-1,-1.5,-1,-2.5H335.4c0,.9,-.4,1.8,-1.1,2.5c-1.1,1.2,-3.1,1.3,-4.4,.4l-5.5,4.7v4.4l5.5,4.7c1.3,-.9,3.3,-.8,4.4,.4c.7,.7,1.1,1.5,1.1,2.5Z" class="g3"/>
<path d="M405.3,1051.1v-7.4l-10,-12.6H350.2l-10,12.6v7.4l10,12.6h45.1Z" class="g2"/>
<path d="M395.7,1064.5h-46l-10.4,-13.1v-8l10.4,-13.2h46l10.4,13.2v8Zm-45.1,-1.7h44.2l9.6,-12V1044l-9.5,-12H350.6l-9.6,12v6.8Z" class="g3"/>
<path d="M343.2,1054.7l-.8,-.6c1.4,-1.9,2.1,-4.2,2.1,-6.7c0,-2.4,-.7,-4.7,-2.1,-6.7l.7,-.5c1.5,2.1,2.3,4.6,2.3,7.2c0,2.7,-.7,5.2,-2.2,7.3Z" class="g3"/>
<path d="M402.3,1054.7c-1.5,-2.1,-2.3,-4.6,-2.3,-7.3c0,-2.6,.8,-5.1,2.3,-7.2l.7,.5c-1.4,2,-2.1,4.3,-2.1,6.7c0,2.5,.7,4.8,2.1,6.7Z" class="g3"/>
<path d="M343.6,1047.4c0,-.8,.7,-1.5,1.5,-1.5c.8,0,1.5,.7,1.5,1.5c0,.8,-.7,1.5,-1.5,1.5c-.8,0,-1.5,-.7,-1.5,-1.5Z" class="g2"/>
<path d="M345.1,1049.3c-1.1,0,-1.9,-.9,-1.9,-1.9c0,-.5,.2,-1,.5,-1.3c.4,-.4,.9,-.6,1.4,-.6c1,0,1.9,.9,1.9,1.9c0,1,-.9,1.9,-1.9,1.9m0,-3c-.3,0,-.6,.1,-.8,.3c-.2,.2,-.3,.5,-.3,.8c0,.6,.5,1.1,1.1,1.1c.6,0,1.1,-.5,1.1,-1.1c0,-.6,-.5,-1.1,-1.1,-1.1Z" class="g3"/>
<path d="M401.8,1047.4c0,-.8,-.6,-1.5,-1.5,-1.5c-.8,0,-1.5,.7,-1.5,1.5c0,.8,.7,1.5,1.5,1.5c.9,0,1.5,-.7,1.5,-1.5Z" class="g2"/>
<path d="M400.3,1049.3c-1,0,-1.8,-.9,-1.8,-1.9c0,-1,.8,-1.9,1.8,-1.9c.5,0,1,.2,1.4,.6c.3,.3,.5,.8,.5,1.3c0,1,-.8,1.9,-1.9,1.9m0,-3c-.6,0,-1.1,.5,-1.1,1.1c0,.6,.5,1.1,1.1,1.1c.7,0,1.2,-.5,1.2,-1.1c0,-.3,-.2,-.6,-.4,-.8c-.2,-.2,-.5,-.3,-.8,-.3Z" class="g3"/>
<path d="M401.9,1046.6l-.7,-.1c0,-.1,.4,-3,3.2,-4l.3,.7c-2.4,.9,-2.8,3.4,-2.8,3.4Z" class="g3"/>
<path d="M401.1,1043.1l-6,-7.7c-.1,0,-1.3,-1.2,-3.2,.1l-.3,.2l-4,-4.3l.5,-.6l3.6,3.9c2.4,-1.4,3.9,.2,3.9,.2l6.1,7.7Z" class="g3"/>
<path d="M404.4,1052.3c-2.8,-1,-3.2,-3.9,-3.2,-4l.7,-.1c.1,.1,.4,2.5,2.8,3.4Z" class="g3"/>
<path d="M388.1,1063.9l-.5,-.5l4,-4.3l.3,.2c1.9,1.3,3.1,.1,3.2,0l6,-7.6l.6,.5l-6,7.6c-.1,.1,-1.6,1.7,-4,.3Z" class="g3"/>
<path d="M343.5,1046.6c0,-.1,-.3,-2.5,-2.7,-3.4l.3,-.7c2.8,1,3.2,3.9,3.2,4Z" class="g3"/>
<path d="M344.4,1043.1l-.6,-.5l6,-7.6c.1,-.1,1.6,-1.7,4,-.3l3.6,-3.9l.5,.6l-4,4.3l-.3,-.2c-2,-1.3,-3.2,-.1,-3.2,0Z" class="g3"/>
<path d="M341,1052.3l-.2,-.7c2.4,-.9,2.7,-3.4,2.7,-3.4l.8,.1c0,.1,-.4,3,-3.3,4Z" class="g3"/>
<path d="M357.4,1063.9l-3.6,-3.8c-2.4,1.4,-3.9,-.2,-4,-.2l-6,-7.7l.6,-.5l6,7.7c0,0,1.3,1.2,3.2,-.1l.3,-.2l4,4.3Z" class="g3"/>
<path d="M368.3,960.2c-1.1,1.1,-2.9,1.1,-4,0c-.7,-.7,-.9,-1.7,-.7,-2.6H334.5c.3,.9,0,1.9,-.7,2.6c-1.1,1.1,-2.9,1.1,-4,0l-6.2,5.3v5.2l6.2,5.3c1.1,-1.1,2.9,-1.1,4,0c.7,.7,1,1.7,.7,2.6h29.1c-.2,-.9,0,-1.9,.7,-2.6c1.1,-1.1,2.9,-1.1,4,0l6.2,-5.3v-5.2Z" class="g2"/>
<path d="M364.6,979.4H333.5l.3,-1c.2,-.7,0,-1.4,-.5,-1.9c-.8,-.8,-2.1,-.8,-2.9,0l-.5,.5l-7,-6v-5.9l7,-5.9l.5,.5c.8,.8,2.1,.8,2.9,0c.5,-.5,.7,-1.2,.5,-1.9l-.3,-1h31.1l-.2,1c-.2,.7,0,1.4,.5,1.9c.7,.8,2.1,.8,2.9,0l.4,-.5l7.1,5.9V971l-7.1,6l-.4,-.5c-.8,-.8,-2.2,-.8,-2.9,0c-.5,.5,-.7,1.2,-.5,1.9Zm-29.2,-1.5h27.4c0,-1,.3,-1.8,1,-2.5c1.2,-1.2,3.1,-1.3,4.5,-.4l5.5,-4.7v-4.5l-5.5,-4.6c-1.4,.9,-3.3,.7,-4.5,-.4c-.7,-.7,-1,-1.6,-1,-2.5H335.4c0,.9,-.4,1.8,-1.1,2.5c-1.1,1.1,-3.1,1.3,-4.4,.4l-5.5,4.6v4.5l5.5,4.7c1.3,-.9,3.3,-.8,4.4,.4c.7,.7,1.1,1.5,1.1,2.5Z" class="g3"/>
<path d="M405.3,971.8v-7.4l-10,-12.6H350.2l-10,12.6v7.4l10,12.6h45.1Z" class="g2"/>
<path d="M395.7,985.2h-46L339.3,972.1v-8l10.4,-13.2h46l10.4,13.2v8Zm-45.1,-1.7h44.2l9.6,-12v-6.8l-9.5,-12H350.6l-9.6,12v6.8Z" class="g3"/>
<path d="M343.6,968.1c0,-.8,.7,-1.5,1.5,-1.5c.8,0,1.5,.7,1.5,1.5c0,.8,-.7,1.5,-1.5,1.5c-.8,0,-1.5,-.7,-1.5,-1.5Z" class="g3"/>
<path d="M353.4,984.7l-9.6,-11.8l.7,-.6l9.6,11.8Z" class="g3"/>
<path d="M344.4,963.9l-.7,-.6l9.7,-11.8l.7,.6Z" class="g3"/>
<path d="M343.2,975.4l-.8,-.6c1.4,-1.9,2.1,-4.2,2.1,-6.7c0,-2.4,-.7,-4.7,-2.1,-6.7l.7,-.5c1.5,2.1,2.3,4.6,2.3,7.2c0,2.6,-.7,5.1,-2.2,7.3Z" class="g3"/>
<path d="M401.8,968.1c0,-.8,-.6,-1.5,-1.5,-1.5c-.8,0,-1.5,.7,-1.5,1.5c0,.8,.7,1.5,1.5,1.5c.9,0,1.5,-.7,1.5,-1.5Z" class="g3"/>
<path d="M392,984.7l-.7,-.6L401,972.3l.7,.6Z" class="g3"/>
<path d="M401,963.9l-9.7,-11.8l.7,-.6l9.7,11.8Z" class="g3"/>
<path d="M402.3,975.4c-1.5,-2.2,-2.3,-4.7,-2.3,-7.3c0,-2.6,.8,-5.1,2.3,-7.2l.7,.5c-1.4,2,-2.1,4.3,-2.1,6.7c0,2.5,.7,4.8,2.1,6.7Z" class="g3"/>
<path d="M412.5,97.5H867.9M412.5,137.4H867.9M444,317H581.4M377.2,501.2h73" class="g8"/>
<path d="M159.4,327.4c2.5,0,4.5,-2.1,4.5,-4.6c0,-2.5,-2,-4.5,-4.5,-4.5c-2.5,0,-4.5,2,-4.5,4.5c0,2.5,2,4.6,4.5,4.6Z" class="g2"/>
<path d="M159.4,327.9c-2.8,0,-5.1,-2.3,-5.1,-5.1c0,-2.8,2.3,-5.1,5.1,-5.1c2.8,0,5.1,2.3,5.1,5.1c0,2.8,-2.3,5.1,-5.1,5.1m0,-9.1c-2.2,0,-4,1.8,-4,4c0,2.2,1.8,4,4,4c2.2,0,4,-1.8,4,-4c0,-2.2,-1.8,-4,-4,-4Z" class="g3"/>
<path d="M172.6,329.1h21.8" class="g9"/>
<path d="M159.4,348c2.5,0,4.5,-2,4.5,-4.5c0,-2.6,-2,-4.6,-4.5,-4.6c-2.5,0,-4.5,2,-4.5,4.6c0,2.5,2,4.5,4.5,4.5Z" class="g2"/>
<path d="M159.4,348.5c-2.8,0,-5.1,-2.2,-5.1,-5c0,-2.8,2.3,-5.1,5.1,-5.1c2.8,0,5.1,2.3,5.1,5.1c0,2.8,-2.3,5,-5.1,5m0,-9c-2.2,0,-4,1.8,-4,4c0,2.2,1.8,3.9,4,3.9c2.2,0,4,-1.7,4,-3.9c0,-2.2,-1.8,-4,-4,-4Z" class="g3"/>
<path d="M172.6,349.7h21.8" class="g9"/>
<path d="M159.4,368.6c2.5,0,4.5,-2,4.5,-4.5c0,-2.5,-2,-4.6,-4.5,-4.6c-2.5,0,-4.5,2.1,-4.5,4.6c0,2.5,2,4.5,4.5,4.5Z" class="g2"/>
<path d="M159.4,369.2c-2.8,0,-5.1,-2.3,-5.1,-5.1c0,-2.8,2.3,-5.1,5.1,-5.1c2.8,0,5.1,2.3,5.1,5.1c0,2.8,-2.3,5.1,-5.1,5.1m0,-9.1c-2.2,0,-4,1.8,-4,4c0,2.2,1.8,4,4,4c2.2,0,4,-1.8,4,-4c0,-2.2,-1.8,-4,-4,-4Z" class="g3"/>
<path d="M172.6,370.3h21.8" class="g9"/>
<path d="M159.4,389.2c2.5,0,4.5,-2,4.5,-4.5c0,-2.5,-2,-4.5,-4.5,-4.5c-2.5,0,-4.5,2,-4.5,4.5c0,2.5,2,4.5,4.5,4.5Z" class="g2"/>
<path d="M159.4,389.8c-2.8,0,-5.1,-2.3,-5.1,-5.1c0,-2.8,2.3,-5.1,5.1,-5.1c2.8,0,5.1,2.3,5.1,5.1c0,2.8,-2.3,5.1,-5.1,5.1m0,-9.1c-2.2,0,-4,1.8,-4,4c0,2.2,1.8,4,4,4c2.2,0,4,-1.8,4,-4c0,-2.2,-1.8,-4,-4,-4Z" class="g3"/>
<path d="M172.6,390.9h21.8" class="g9"/>
<path d="M159.4,409.9c2.5,0,4.5,-2.1,4.5,-4.6c0,-2.5,-2,-4.5,-4.5,-4.5c-2.5,0,-4.5,2,-4.5,4.5c0,2.5,2,4.6,4.5,4.6Z" class="g2"/>
<path d="M159.4,410.4c-2.8,0,-5.1,-2.3,-5.1,-5.1c0,-2.8,2.3,-5.1,5.1,-5.1c2.8,0,5.1,2.3,5.1,5.1c0,2.8,-2.3,5.1,-5.1,5.1m0,-9.1c-2.2,0,-4,1.8,-4,4c0,2.2,1.8,4,4,4c2.2,0,4,-1.8,4,-4c0,-2.2,-1.8,-4,-4,-4Z" class="g3"/>
<path d="M172.6,411.6h21.8" class="g9"/>
<path d="M159.4,430.5c2.5,0,4.5,-2,4.5,-4.5c0,-2.6,-2,-4.6,-4.5,-4.6c-2.5,0,-4.5,2,-4.5,4.6c0,2.5,2,4.5,4.5,4.5Z" class="g2"/>
<path d="M159.4,431c-2.8,0,-5.1,-2.2,-5.1,-5c0,-2.8,2.3,-5.1,5.1,-5.1c2.8,0,5.1,2.3,5.1,5.1c0,2.8,-2.3,5,-5.1,5m0,-9c-2.2,0,-4,1.8,-4,4c0,2.2,1.8,3.9,4,3.9c2.2,0,4,-1.7,4,-3.9c0,-2.2,-1.8,-4,-4,-4Z" class="g3"/>
<path d="M172.6,432.2h21.8" class="g9"/>
<path d="M312.7,823.6V536.9c.5,-7.8,1.6,-23.7,3.4,-29.6l.2,-.4l-.4,-.2c-.1,0,-1.2,-.8,-2.3,-2c.3,-2.1,.8,-4.1,1.4,-5.8l.1,-.2l-1.5,-17.3l-.7,-.2c-1.6,-.5,-6.1,-2.5,-6.1,-5v-1H150.1v1c0,2.5,-4.3,4.5,-6,5l-.7,.2l-1.5,17.3v.2c.6,1.7,1.1,3.7,1.5,5.8c-1.2,1.2,-2.3,2,-2.3,2l-.4,.2l.1,.4c1.8,5.9,3,21.7,3.5,29.6V823.6c-.5,7.9,-1.7,23.7,-3.5,29.6l-.1,.4l.4,.2c0,.1,1.1,.8,2.3,2c-.4,2.1,-.9,4.1,-1.5,5.8v.3l1.5,17.2l.7,.2c1.7,.6,6,2.5,6,5v1.1H306.8v-1.1c0,-2.5,4.4,-4.4,6.1,-5l.7,-.2l1.5,-17.2l-.1,-.3c-.6,-1.7,-1.1,-3.7,-1.4,-5.8c1.1,-1.2,2.2,-1.9,2.3,-2l.4,-.2l-.2,-.4c-1.8,-5.9,-2.9,-21.7,-3.4,-29.6m-2.4,38.9c0,0,.3,.7,.6,1.6c.2,1.4,.3,4.4,-.8,7.6c-1.9,5.4,-6.4,9.4,-13.1,11.6H159.9C145.5,878.6,145.6,867.5,146,864.2c.4,-1,.7,-1.7,.7,-1.8c.6,-2.3,-.2,-4.4,-1.3,-6c2.1,-11.5,1,-26.3,1,-26.9V531.1c0,-.7,1.1,-15.5,-1,-27c1.1,-1.6,1.9,-3.7,1.3,-6.1c0,0,-.3,-.7,-.6,-1.6c-.2,-1.4,-.3,-4.4,.8,-7.6c1.8,-5.4,6.3,-9.4,13,-11.5H297.1c14.4,4.6,14.2,15.7,13.8,19.1c-.3,1,-.6,1.6,-.7,1.7c-.5,2.4,.3,4.4,1.4,6c-2.2,11.6,-1.1,26.3,-1,26.9V829.4c-.1,.7,-1.2,15.5,1,27.1c-1.1,1.6,-1.9,3.6,-1.3,6m4.6,-355.1c-1.1,3.8,-1.9,10.8,-2.5,17.5c-.1,-5,0,-12.3,.9,-18.8c.7,.6,1.2,1.1,1.6,1.3m-3.6,-9c.1,-.1,.7,-1.6,1.4,-3.5l.3,3.5c-.4,1.3,-.8,2.6,-1.1,4c-.6,-1.1,-.9,-2.5,-.6,-4m.3,-15.4l.8,8.6c-.2,.8,-.4,1.5,-.6,2.3c-.1,-1.5,-.3,-3.4,-1,-5.4c-1.3,-3.7,-4.3,-8.3,-11.5,-11.2h5.6c.7,3.2,5,5,6.7,5.7M152.1,477.3h5.6c-10.4,4.2,-12.3,12.1,-12.5,16.7c-.2,-.8,-.4,-1.6,-.6,-2.4l.8,-8.6c1.7,-.7,5.9,-2.5,6.7,-5.7M144,498.4l.3,-3.5c.6,1.9,1.3,3.4,1.3,3.5c.4,1.4,0,2.8,-.5,4c-.3,-1.4,-.7,-2.8,-1.1,-4m-.4,7.7c1,6.5,1.1,13.8,1,18.8c-.6,-6.7,-1.5,-13.7,-2.5,-17.5c.3,-.2,.9,-.7,1.5,-1.3m-1.5,347c1,-3.8,1.9,-10.8,2.5,-17.5c.1,5,0,12.3,-1,18.8c-.6,-.6,-1.2,-1,-1.5,-1.3m3.5,9c0,.1,-.7,1.6,-1.3,3.5l-.3,-3.5c.4,-1.2,.8,-2.6,1.1,-4c.6,1.2,.9,2.5,.5,4m-.2,15.5l-.8,-8.7c.2,-.7,.4,-1.5,.6,-2.3c0,1.6,.3,3.4,1,5.4c1.2,3.7,4.3,8.3,11.5,11.3h-5.6c-.8,-3.3,-5,-5.1,-6.7,-5.7m159.5,5.7h-5.6c10.4,-4.3,12.3,-12.2,12.4,-16.7c.3,.7,.5,1.5,.7,2.3l-.8,8.7c-1.7,.6,-6,2.4,-6.7,5.7M313,862.1l-.3,3.5c-.7,-1.9,-1.3,-3.4,-1.3,-3.4c-.4,-1.5,-.1,-2.9,.5,-4.1c.3,1.4,.7,2.8,1.1,4m.3,-7.7c-.9,-6.5,-1,-13.7,-.9,-18.8c.6,6.7,1.4,13.7,2.5,17.5c-.4,.3,-.9,.7,-1.6,1.3Z" class="g3"/>
<path d="M159.4,503.5c2.5,0,4.5,-2.1,4.5,-4.6c0,-2.5,-2,-4.5,-4.5,-4.5c-2.5,0,-4.5,2,-4.5,4.5c0,2.5,2,4.6,4.5,4.6Z" class="g2"/>
<path d="M159.4,504c-2.8,0,-5.1,-2.3,-5.1,-5.1c0,-2.8,2.3,-5.1,5.1,-5.1c2.8,0,5.1,2.3,5.1,5.1c0,2.8,-2.3,5.1,-5.1,5.1m0,-9.1c-2.2,0,-4,1.8,-4,4c0,2.2,1.8,4,4,4c2.2,0,4,-1.8,4,-4c0,-2.2,-1.8,-4,-4,-4Z" class="g3"/>
<path d="M171.1,505.2h21.7" class="g9"/>
<path d="M159.4,524.1c2.5,0,4.5,-2,4.5,-4.6c0,-2.5,-2,-4.5,-4.5,-4.5c-2.5,0,-4.5,2,-4.5,4.5c0,2.6,2,4.6,4.5,4.6Z" class="g2"/>
<path d="M159.4,524.6c-2.8,0,-5.1,-2.2,-5.1,-5.1c0,-2.8,2.3,-5,5.1,-5c2.8,0,5.1,2.2,5.1,5c0,2.9,-2.3,5.1,-5.1,5.1m0,-9c-2.2,0,-4,1.7,-4,3.9c0,2.2,1.8,4,4,4c2.2,0,4,-1.8,4,-4c0,-2.2,-1.8,-3.9,-4,-3.9Z" class="g3"/>
<path d="M171.1,525.8h21.7" class="g9"/>
<path d="M159.4,544.7c2.5,0,4.5,-2,4.5,-4.5c0,-2.5,-2,-4.6,-4.5,-4.6c-2.5,0,-4.5,2.1,-4.5,4.6c0,2.5,2,4.5,4.5,4.5Z" class="g2"/>
<path d="M159.4,545.3c-2.8,0,-5.1,-2.3,-5.1,-5.1c0,-2.8,2.3,-5.1,5.1,-5.1c2.8,0,5.1,2.3,5.1,5.1c0,2.8,-2.3,5.1,-5.1,5.1m0,-9.1c-2.2,0,-4,1.8,-4,4c0,2.2,1.8,4,4,4c2.2,0,4,-1.8,4,-4c0,-2.2,-1.8,-4,-4,-4Z" class="g3"/>
<path d="M171.1,546.4h21.7" class="g9"/>
<path d="M159.4,565.3c2.5,0,4.5,-2,4.5,-4.5c0,-2.5,-2,-4.5,-4.5,-4.5c-2.5,0,-4.5,2,-4.5,4.5c0,2.5,2,4.5,4.5,4.5Z" class="g2"/>
<path d="M159.4,565.9c-2.8,0,-5.1,-2.3,-5.1,-5.1c0,-2.8,2.3,-5.1,5.1,-5.1c2.8,0,5.1,2.3,5.1,5.1c0,2.8,-2.3,5.1,-5.1,5.1m0,-9.1c-2.2,0,-4,1.8,-4,4c0,2.2,1.8,4,4,4c2.2,0,4,-1.8,4,-4c0,-2.2,-1.8,-4,-4,-4Z" class="g3"/>
<path d="M171.1,567h21.7" class="g9"/>
<path d="M159.4,586c2.5,0,4.5,-2.1,4.5,-4.6c0,-2.5,-2,-4.5,-4.5,-4.5c-2.5,0,-4.5,2,-4.5,4.5c0,2.5,2,4.6,4.5,4.6Z" class="g2"/>
<path d="M159.4,586.5c-2.8,0,-5.1,-2.3,-5.1,-5.1c0,-2.8,2.3,-5.1,5.1,-5.1c2.8,0,5.1,2.3,5.1,5.1c0,2.8,-2.3,5.1,-5.1,5.1m0,-9.1c-2.2,0,-4,1.8,-4,4c0,2.2,1.8,4,4,4c2.2,0,4,-1.8,4,-4c0,-2.2,-1.8,-4,-4,-4Z" class="g3"/>
<path d="M171.1,587.7h21.7" class="g9"/>
<path d="M159.4,606.6c2.5,0,4.5,-2,4.5,-4.6c0,-2.5,-2,-4.5,-4.5,-4.5c-2.5,0,-4.5,2,-4.5,4.5c0,2.6,2,4.6,4.5,4.6Z" class="g2"/>
<path d="M159.4,607.1c-2.8,0,-5.1,-2.2,-5.1,-5.1c0,-2.8,2.3,-5,5.1,-5c2.8,0,5.1,2.2,5.1,5c0,2.9,-2.3,5.1,-5.1,5.1m0,-9c-2.2,0,-4,1.7,-4,3.9c0,2.2,1.8,4,4,4c2.2,0,4,-1.8,4,-4c0,-2.2,-1.8,-3.9,-4,-3.9Z" class="g3"/>
<path d="M171.1,608.3h21.7" class="g9"/>
<path d="M159.4,627.2c2.5,0,4.5,-2,4.5,-4.5c0,-2.5,-2,-4.6,-4.5,-4.6c-2.5,0,-4.5,2.1,-4.5,4.6c0,2.5,2,4.5,4.5,4.5Z" class="g2"/>
<path d="M159.4,627.8c-2.8,0,-5.1,-2.3,-5.1,-5.1c0,-2.8,2.3,-5.1,5.1,-5.1c2.8,0,5.1,2.3,5.1,5.1c0,2.8,-2.3,5.1,-5.1,5.1m0,-9.1c-2.2,0,-4,1.8,-4,4c0,2.2,1.8,4,4,4c2.2,0,4,-1.8,4,-4c0,-2.2,-1.8,-4,-4,-4Z" class="g3"/>
<path d="M171.1,628.9h21.7" class="g9"/>
<path d="M159.4,647.8c2.5,0,4.5,-2,4.5,-4.5c0,-2.5,-2,-4.5,-4.5,-4.5c-2.5,0,-4.5,2,-4.5,4.5c0,2.5,2,4.5,4.5,4.5Z" class="g2"/>
<path d="M159.4,648.4c-2.8,0,-5.1,-2.3,-5.1,-5.1c0,-2.8,2.3,-5.1,5.1,-5.1c2.8,0,5.1,2.3,5.1,5.1c0,2.8,-2.3,5.1,-5.1,5.1m0,-9.1c-2.2,0,-4,1.8,-4,4c0,2.2,1.8,4,4,4c2.2,0,4,-1.8,4,-4c0,-2.2,-1.8,-4,-4,-4Z" class="g3"/>
<path d="M171.1,649.5h21.7" class="g9"/>
<path d="M159.4,668.5c2.5,0,4.5,-2.1,4.5,-4.6c0,-2.5,-2,-4.5,-4.5,-4.5c-2.5,0,-4.5,2,-4.5,4.5c0,2.5,2,4.6,4.5,4.6Z" class="g2"/>
<path d="M159.4,669c-2.8,0,-5.1,-2.3,-5.1,-5.1c0,-2.8,2.3,-5.1,5.1,-5.1c2.8,0,5.1,2.3,5.1,5.1c0,2.8,-2.3,5.1,-5.1,5.1m0,-9.1c-2.2,0,-4,1.8,-4,4c0,2.2,1.8,4,4,4c2.2,0,4,-1.8,4,-4c0,-2.2,-1.8,-4,-4,-4Z" class="g3"/>
<path d="M171.1,670.2h21.7" class="g9"/>
<path d="M159.4,689.1c2.5,0,4.5,-2,4.5,-4.6c0,-2.5,-2,-4.5,-4.5,-4.5c-2.5,0,-4.5,2,-4.5,4.5c0,2.6,2,4.6,4.5,4.6Z" class="g2"/>
<path d="M159.4,689.6c-2.8,0,-5.1,-2.2,-5.1,-5.1c0,-2.8,2.3,-5,5.1,-5c2.8,0,5.1,2.2,5.1,5c0,2.9,-2.3,5.1,-5.1,5.1m0,-9c-2.2,0,-4,1.7,-4,3.9c0,2.2,1.8,4,4,4c2.2,0,4,-1.8,4,-4c0,-2.2,-1.8,-3.9,-4,-3.9Z" class="g3"/>
<path d="M171.1,690.8h21.7" class="g9"/>
<path d="M159.4,709.7c2.5,0,4.5,-2,4.5,-4.5c0,-2.5,-2,-4.6,-4.5,-4.6c-2.5,0,-4.5,2.1,-4.5,4.6c0,2.5,2,4.5,4.5,4.5Z" class="g2"/>
<path d="M159.4,710.3c-2.8,0,-5.1,-2.3,-5.1,-5.1c0,-2.8,2.3,-5.1,5.1,-5.1c2.8,0,5.1,2.3,5.1,5.1c0,2.8,-2.3,5.1,-5.1,5.1m0,-9.1c-2.2,0,-4,1.8,-4,4c0,2.2,1.8,4,4,4c2.2,0,4,-1.8,4,-4c0,-2.2,-1.8,-4,-4,-4Z" class="g3"/>
<path d="M171.1,711.4h21.7" class="g9"/>
<path d="M159.4,730.3c2.5,0,4.5,-2,4.5,-4.5c0,-2.5,-2,-4.5,-4.5,-4.5c-2.5,0,-4.5,2,-4.5,4.5c0,2.5,2,4.5,4.5,4.5Z" class="g2"/>
<path d="M159.4,730.9c-2.8,0,-5.1,-2.3,-5.1,-5.1c0,-2.8,2.3,-5.1,5.1,-5.1c2.8,0,5.1,2.3,5.1,5.1c0,2.8,-2.3,5.1,-5.1,5.1m0,-9.1c-2.2,0,-4,1.8,-4,4c0,2.2,1.8,4,4,4c2.2,0,4,-1.8,4,-4c0,-2.2,-1.8,-4,-4,-4Z" class="g3"/>
<path d="M171.1,732h21.7" class="g9"/>
<path d="M159.4,751c2.5,0,4.5,-2.1,4.5,-4.6c0,-2.5,-2,-4.5,-4.5,-4.5c-2.5,0,-4.5,2,-4.5,4.5c0,2.5,2,4.6,4.5,4.6Z" class="g2"/>
<path d="M159.4,751.5c-2.8,0,-5.1,-2.3,-5.1,-5.1c0,-2.8,2.3,-5.1,5.1,-5.1c2.8,0,5.1,2.3,5.1,5.1c0,2.8,-2.3,5.1,-5.1,5.1m0,-9.1c-2.2,0,-4,1.8,-4,4c0,2.2,1.8,4,4,4c2.2,0,4,-1.8,4,-4c0,-2.2,-1.8,-4,-4,-4Z" class="g3"/>
<path d="M171.1,752.7h21.7" class="g9"/>
<path d="M159.4,771.6c2.5,0,4.5,-2,4.5,-4.6c0,-2.5,-2,-4.5,-4.5,-4.5c-2.5,0,-4.5,2,-4.5,4.5c0,2.6,2,4.6,4.5,4.6Z" class="g2"/>
<path d="M159.4,772.1c-2.8,0,-5.1,-2.2,-5.1,-5.1c0,-2.8,2.3,-5,5.1,-5c2.8,0,5.1,2.2,5.1,5c0,2.9,-2.3,5.1,-5.1,5.1m0,-9c-2.2,0,-4,1.7,-4,3.9c0,2.2,1.8,4,4,4c2.2,0,4,-1.8,4,-4c0,-2.2,-1.8,-3.9,-4,-3.9Z" class="g3"/>
<path d="M171.1,773.3h21.7" class="g9"/>
<path d="M159.4,792.2c2.5,0,4.5,-2,4.5,-4.5c0,-2.5,-2,-4.6,-4.5,-4.6c-2.5,0,-4.5,2.1,-4.5,4.6c0,2.5,2,4.5,4.5,4.5Z" class="g2"/>
<path d="M159.4,792.8c-2.8,0,-5.1,-2.3,-5.1,-5.1c0,-2.8,2.3,-5.1,5.1,-5.1c2.8,0,5.1,2.3,5.1,5.1c0,2.8,-2.3,5.1,-5.1,5.1m0,-9.1c-2.2,0,-4,1.8,-4,4c0,2.2,1.8,4,4,4c2.2,0,4,-1.8,4,-4c0,-2.2,-1.8,-4,-4,-4Z" class="g3"/>
<path d="M171.1,793.9h21.7" class="g9"/>
<path d="M159.4,812.8c2.5,0,4.5,-2,4.5,-4.5c0,-2.5,-2,-4.5,-4.5,-4.5c-2.5,0,-4.5,2,-4.5,4.5c0,2.5,2,4.5,4.5,4.5Z" class="g2"/>
<path d="M159.4,813.4c-2.8,0,-5.1,-2.3,-5.1,-5.1c0,-2.8,2.3,-5.1,5.1,-5.1c2.8,0,5.1,2.3,5.1,5.1c0,2.8,-2.3,5.1,-5.1,5.1m0,-9.1c-2.2,0,-4,1.8,-4,4c0,2.2,1.8,4,4,4c2.2,0,4,-1.8,4,-4c0,-2.2,-1.8,-4,-4,-4Z" class="g3"/>
<path d="M171.1,814.5h21.7" class="g9"/>
<path d="M159.4,833.5c2.5,0,4.5,-2.1,4.5,-4.6c0,-2.5,-2,-4.5,-4.5,-4.5c-2.5,0,-4.5,2,-4.5,4.5c0,2.5,2,4.6,4.5,4.6Z" class="g2"/>
<path d="M159.4,834c-2.8,0,-5.1,-2.3,-5.1,-5.1c0,-2.8,2.3,-5.1,5.1,-5.1c2.8,0,5.1,2.3,5.1,5.1c0,2.8,-2.3,5.1,-5.1,5.1m0,-9.1c-2.2,0,-4,1.8,-4,4c0,2.2,1.8,4,4,4c2.2,0,4,-1.8,4,-4c0,-2.2,-1.8,-4,-4,-4Z" class="g3"/>
<path d="M171.1,835.2h21.7" class="g9"/>
<path d="M159.4,854.1c2.5,0,4.5,-2,4.5,-4.6c0,-2.5,-2,-4.5,-4.5,-4.5c-2.5,0,-4.5,2,-4.5,4.5c0,2.6,2,4.6,4.5,4.6Z" class="g2"/>
<path d="M159.4,854.6c-2.8,0,-5.1,-2.2,-5.1,-5.1c0,-2.8,2.3,-5,5.1,-5c2.8,0,5.1,2.2,5.1,5c0,2.9,-2.3,5.1,-5.1,5.1m0,-9c-2.2,0,-4,1.7,-4,3.9c0,2.2,1.8,4,4,4c2.2,0,4,-1.8,4,-4c0,-2.2,-1.8,-3.9,-4,-3.9Z" class="g3"/>
<path d="M171.1,855.8h21.7" class="g9"/>
<path d="M315.3,203.5l-.6,-.2c-2.2,-1.1,-5,-5.1,-5.9,-6.6l-.3,-.5H185.6v-4.4H175.1l-.4,.5c-.7,.9,-1.5,1.6,-2.5,2c-2.2,-.9,-4.6,-1.5,-7.1,-1.6c-.2,-.4,-.6,-.7,-1,-.7c-.5,0,-.9,.3,-1.1,.7c-2.4,.1,-4.8,.7,-7.1,1.6c-.9,-.4,-1.8,-1.1,-2.4,-2l-.4,-.5H142.6v43h10.5l.4,-.5c.6,-.8,1.5,-1.5,2.4,-2c2.3,1,4.6,1.6,7.1,1.7c.2,.4,.6,.7,1.1,.7c.4,0,.8,-.3,1,-.7c2.5,-.1,4.9,-.7,7.1,-1.7c1,.5,1.8,1.2,2.5,2l.4,.5h10.5v-4.3H308.5l.3,-.5c.9,-1.5,3.7,-5.5,5.9,-6.6l.6,-.3Zm-10.5,21.6H188.6V201.6H304.8c3.6,2,7.1,4.7,8.4,8v7.5c-1.3,3.3,-4.8,6,-8.4,8M185.6,201.6h1.9v23.5h-1.9V201.6Zm127.6,3.2v2.3c-2.8,-4.1,-8.5,-7.1,-12.4,-8.8h6.5c.9,1.3,3.4,5,5.9,6.5m-15.5,-6.5c1.1,.4,3,1.1,5,2.1H185.6v-2.1ZM163.1,193.8c.2,.3,.5,.6,1,.6c.4,0,.7,-.3,1,-.6c1.9,.1,3.7,.5,5.6,1.1c-.6,.2,-1.2,.2,-1.8,.2h-9.7c-.6,0,-1.2,0,-1.7,-.2c1.8,-.6,3.7,-1,5.6,-1.1m1.9,39.1c-.2,-.4,-.5,-.6,-.9,-.6c-.5,0,-.8,.2,-1,.6c-1.9,-.1,-3.8,-.5,-5.6,-1.2c.5,-.1,1.1,-.2,1.7,-.2h9.7c.6,0,1.2,.1,1.8,.2c-1.9,.7,-3.7,1.1,-5.7,1.2m11.3,-.7c-1.9,-2.1,-4.5,-3.3,-7.4,-3.3h-9.7c-2.8,0,-5.5,1.2,-7.4,3.3H150c0,0,-4.8,-.1,-4.8,-6.5V201c0,-6.4,4.8,-6.5,4.8,-6.5h1.8c1.9,2.1,4.6,3.3,7.4,3.3h9.7c2.9,0,5.5,-1.2,7.4,-3.3h1.8c0,0,4.8,.1,4.8,6.5v24.7c0,6.4,-4.8,6.5,-4.8,6.5Zm9.3,-6H302.7c-2,1,-3.9,1.8,-5,2.2H185.6Zm121.7,2.2h-6.5c3.9,-1.7,9.6,-4.7,12.4,-8.8v2.2c-2.5,1.6,-5,5.2,-5.9,6.6Z" class="ga"/>
<path d="M387.1,52.1c.6,0,.6,.9,0,.9h-.8v-.9Zm.5,1.5c1.4,-.3,1.1,-2.4,-.5,-2.4h-1.8V55h1V53.8h.3l.9,1.2h1.1v-.2Zm-.9,2.4c1.8,0,2.8,-1.3,2.8,-2.9c0,-1.7,-1,-3,-2.8,-3c-1.7,0,-2.7,1.3,-2.7,3c0,1.6,1,2.9,2.7,2.9m3.7,-2.9c0,2,-1.3,3.7,-3.6,3.7c-2.4,0,-3.7,-1.7,-3.7,-3.7c0,-2,1.3,-3.7,3.7,-3.7c2.3,0,3.6,1.7,3.6,3.7Z" class="g3"/>
<path clip-path="url(#c0)" d="M276.2,50.2c-.1,-.4,0,-.8,.1,-1.1l.5,-1.6l.6,1.5c.2,.5,.6,.8,1.1,1.1c-.1,-.8,.1,-1.6,.3,-2.2c0,-1.2,.8,-2,1.8,-2c1.7,0,2.1,2,1.4,3.5c.3,.5,.9,1,1.4,1.5c.1,.1,.3,.3,.5,.4q0,.1,.1,.2c.7,-1,1.3,-2.4,1.3,-3.5c0,-2.2,-1.5,-4.2,-4.4,-4.3c-1.9,-.1,-3.1,.4,-4.1,1.4c-.4,.4,-1.3,1.5,-1.2,3.5c.1,.8,.4,1.3,.6,1.6m7.9,10.1c-.7,1.1,-2.1,2.6,-3.6,2.6c-2.6,0,-3.9,-3.7,-1,-6.8c-.1,0,-.3,-.1,-.4,-.1c-.2,0,-.5,.1,-.6,.2l-1.3,1.1l.3,-1.8c.1,0,.1,-.1,.1,-.2c-.6,.4,-1.3,.8,-1.5,1.1l-1.2,1.3l.1,-1.8l.1,-.4c.1,-.3,.1,-.7,.1,-.8c0,0,0,-.1,-.1,-.1c-.5,.4,-2,1.8,-2.2,3.7c0,0,.3,-.4,.5,-.5c.2,-.1,.4,0,.2,.5c-.1,.2,-1.5,4.1,1.3,6.9c0,0,-.3,-.8,-.1,-1.1c.1,-.1,.2,-.1,.4,.1c.1,.2,.2,.3,.4,.5c.2,.2,.5,.5,.8,.7c.8,.6,2,1.1,3.3,1.1c3.5,0,5.4,-2.4,6.4,-4.5c0,0,-.1,-.1,-.1,-.1c-.6,-.5,-1.3,-1.1,-1.9,-1.6m7.9,-7c-2.6,.2,-4.8,2.4,-6,4c.2,0,.4,.1,.6,.3c.3,.2,.6,.5,1,.8c.3,-.7,1,-2.1,2.1,-3.3c1,-1.1,2.7,-1.2,3.6,-.6c.6,-.5,2.6,-1,3.6,-.7c-.6,-.7,-2,-1.6,-3.5,-1.6c-1.2,0,-1.9,.6,-2.1,.3c-.2,-.3,.8,-.8,.8,-.8c-1.4,0,-2.5,1.7,-2.9,1.5c-.3,-.1,.4,-.9,.4,-.9c-1.4,.7,-2.5,2.4,-2.7,3.4c1.2,-1.5,3.6,-2.6,5.1,-2.4m54.1,7.2c-.1,-.1,-.2,-.2,-.2,-.7V56.5c0,-.5,.1,-.6,.1,-.8c.2,-.1,.3,-.4,.3,-.4l.1,-.1h-.1c0,0,-.2,-.1,-.5,-.2c-.1,0,-5.2,0,-5.2,0l.3,.2c0,0,.7,.5,1.1,.7c.3,.2,.5,.4,.5,1.2v1.7c-.4,.2,-.8,.2,-1.3,.2c-2,0,-3.1,-1.1,-3.1,-3.3c0,-2.1,1.2,-3.4,3.2,-3.4c1.2,0,2.6,.3,4.2,1.5l-.4,-3.6V50l-.3,-.1h-.2c-1.1,-.3,-1.5,-.4,-2.2,-.4c-.3,-.1,-.6,-.1,-1,-.1c0,0,-.2,0,-.2,0c-3.8,0,-6.6,2.7,-6.6,6.3c0,3.7,2.8,6.3,6.6,6.3c.7,0,2,-.1,2.8,-.3c.1,0,.2,-.1,.3,-.1q.1,0,.1,0c.5,-.1,.9,-.2,1.4,-.4l.6,-.2l-.1,-.1c0,0,-.1,-.2,-.2,-.4m28,-10.9h-6.9l.2,.1c0,0,.7,.4,1.1,.7c.4,.3,.5,.4,.5,1.2v3l-5.1,-5h-4l.2,.1c0,0,.6,.4,1,.7c.3,.3,.5,.5,.5,1.3v8c0,.8,-.1,1,-.5,1.2c-.4,.2,-1.1,.7,-1.2,.7l-.2,.1h6.9l-.3,-.1c0,0,-.8,-.5,-1.1,-.7c-.4,-.2,-.5,-.4,-.5,-1.2V54.9l7.4,7.2V51.6c0,-.8,.1,-.9,.5,-1.2c.4,-.3,1.1,-.7,1.2,-.7Zm-44.4,7.1l-1.1,-3l-1.2,3ZM318.3,53c0,-.6,-.4,-1,-1.5,-1h-.4v2.8c.1,0,.3,0,.4,0c.7,0,1.5,-.1,1.5,-1.8m17,7.9l1,.8H330c0,0,.5,-.5,.7,-.7c.2,-.2,.4,-.5,.2,-.8c0,-.1,-.1,-.3,-.2,-.6h-4.4c-.1,.3,-.2,.5,-.2,.6c-.2,.4,-.2,.5,.1,.8c.3,.2,.9,.7,.9,.7h-6.7l-3,-3.7c-.4,-.4,-.6,-.7,-.8,-.8q-.1,0,-.2,-.1v2.6c0,.8,.1,.9,.5,1.2c.3,.3,1.4,.8,1.4,.8h-7.1c0,0,1.1,-.6,1.4,-.8c.3,-.2,.5,-.4,.5,-1.2V51.6c0,-.7,-.1,-1,-.5,-1.2c-.3,-.2,-1.1,-.7,-1.1,-.7l-.2,-.1c0,0,5.5,0,5.8,0c1.1,0,1.5,0,2.2,.2c1.5,.5,2.4,1.7,2.4,3.3c0,.7,-.2,1.4,-.6,1.9c-.3,.4,-.7,.8,-1.1,1c1.2,1.8,2.2,3,2.9,3.7c0,-.1,3.7,-8.9,3.7,-8.9c0,0,0,-.1,0,-.1c0,-.1,0,-.2,-.2,-.3l-.9,-.8h4.8c0,0,4,10.1,4.1,10.2c.1,.2,.1,.3,.2,.4c.2,.3,.2,.4,.7,.7m21.5,-5.3c0,-1.9,-1.3,-3.2,-3.2,-3.2c-1.9,0,-3.1,1.3,-3.1,3.3c0,2,1.3,3.3,3.2,3.3c1.8,0,3.1,-1.4,3.1,-3.4m3.5,0c0,3.6,-2.9,6.4,-6.7,6.4C349.8,62,347,59.3,347,55.7c0,-3.6,2.8,-6.3,6.6,-6.3c3.8,0,6.7,2.7,6.7,6.2m18.8,-1.7c-.2,0,-.3,0,-.5,-.1c-1.2,-.3,-2,-.5,-2,-1c0,-.1,.1,-.3,.2,-.4c.2,-.2,.6,-.3,1.2,-.3c.1,0,.2,0,.3,0c0,0,.1,0,.1,0c1,.1,2.3,.6,3.6,1.4l-.2,-3.6h-.3v-.1c0,0,-.2,0,-.6,-.1c-.2,-.1,-1.5,-.3,-2.2,-.4c-.2,0,-.5,0,-.7,0c-2.7,0,-4.3,1.3,-4.5,3.6c-.1,1.2,.5,2.3,1.5,2.9c.9,.6,2.2,1,3.1,1.2l.2,.1c.6,.2,1.3,.6,1.2,1.3c-.1,.3,-.2,.7,-1.3,.7c-.2,0,-.3,0,-.5,0C376.9,59,376,58.6,375,57.8c0,0,-.1,-.1,-.1,-.1l-.6,-.4l-.6,-.5l.2,4.5l.2,.1h.1c0,0,.1,.1,.5,.2c.5,.1,1.8,.3,2.5,.4c.2,0,.4,0,.7,0c2.9,0,4.9,-1.5,4.9,-3.8c.1,-2.2,-1.2,-3.6,-3.7,-4.3m-70.7,1.8c0,-2,-1,-3.2,-2.8,-3.2h-1.4v6.3h1.4c1.8,0,2.8,-1.2,2.8,-3.1m3.5,-.1c0,1.4,-.4,2.8,-1.2,3.8c-.4,.5,-.8,.9,-1.3,1.2c-1.2,.8,-2.4,1.1,-4.1,1.1h-6.4l.3,-.1c0,0,.8,-.5,1.1,-.7c.4,-.2,.5,-.4,.5,-1.2v-7c0,-.8,-.2,-1,-.5,-1.2C298.7,50.4,298.6,49,298.6,49v-.2l.1,.1c0,0,.6,.3,1.1,.5c.7,.1,1.6,.2,3.6,.2h2.4c1.2,0,2.1,.2,3,.7c2,1,3.1,3,3.1,5.3M221.3,61c0,0,-.2,-.2,-.3,-.4c-.1,-.1,-.2,-.2,-.2,-.7V56.6c0,-.5,.1,-.6,.2,-.8c.1,-.1,.3,-.4,.3,-.4l-.1,-.1c0,0,-.2,-.1,-.5,-.1c0,0,-5.1,0,-5.1,0l.2,.1c0,0,.8,.5,1.1,.7c.4,.2,.5,.4,.5,1.2V59c-.4,.1,-.8,.1,-1.2,.1C214.1,59.1,213,58,213,55.8c0,-2.1,1.2,-3.4,3.2,-3.4c1.3,0,2.6,.3,4.2,1.6v-.1L220,50.3v-.2l-.2,-.1h-.3c-1.1,-.3,-1.5,-.3,-2.1,-.4c-.4,-.1,-.6,-.1,-1.1,-.1c0,0,-.1,0,-.2,0c-3.8,0,-6.6,2.7,-6.6,6.3c0,3.7,2.8,6.3,6.6,6.3c.7,0,2,-.1,2.8,-.3c.2,0,.2,-.1,.4,-.1c.5,-.1,1,-.2,1.4,-.4l.6,-.2ZM259.7,49.6h-6.9l.3,.1c0,0,.7,.4,1.1,.7c.3,.3,.5,.4,.5,1.2v3l-5.1,-5h-4.1l.3,.1c0,0,.6,.4,1,.7c.3,.3,.5,.5,.5,1.3v8c0,.8,-.2,1,-.5,1.2c-.4,.2,-1.2,.7,-1.2,.7l-.2,.1h6.9l-.3,-.1c0,0,-.8,-.5,-1.1,-.7c-.4,-.2,-.5,-.4,-.5,-1.2V54.9l7.4,7.2V51.6c0,-.8,.1,-.9,.5,-1.2c.4,-.3,1.1,-.7,1.1,-.7ZM210.4,49.6h-6.9l.2,.1c0,0,.7,.4,1.1,.7c.4,.3,.5,.4,.5,1.2v3l-5.1,-5h-8c-.2,0,-.5,.1,-.5,.1l-.1,.1h.1c0,0,.2,.3,.3,.5c0,.1,.1,.2,.1,.5c0,0,0,6.2,0,6.2v.1c0,1.3,-.6,1.9,-1.8,1.9c-1.3,0,-1.9,-.7,-1.9,-2V50.8c0,-.3,0,-.4,.1,-.5c.1,-.2,.3,-.5,.3,-.5v-.1c0,0,-.3,-.1,-.5,-.1h-5.2l.3,.1c0,0,.7,.4,1.1,.7c.3,.2,.5,.4,.5,1.2v5c0,1.1,.1,2,.4,2.6c.1,.4,.4,.8,.8,1.2c1.1,1,2.4,1.5,4.1,1.5c2.3,0,4.1,-1,4.8,-2.8c.3,-.6,.4,-1.2,.4,-2.4V51.6c0,-.8,.1,-1,.5,-1.2c.2,-.1,.5,-.3,.7,-.5c.2,.2,.5,.4,.7,.5c.3,.3,.5,.5,.5,1.3v8c0,.8,-.1,1,-.5,1.2c-.4,.2,-1.1,.7,-1.1,.7l-.3,.1h6.9l-.3,-.1c0,0,-.7,-.5,-1.1,-.7c-.4,-.2,-.5,-.4,-.5,-1.2V54.9l7.4,7.2V51.6c0,-.8,.1,-.9,.5,-1.2c.4,-.3,1.2,-.7,1.2,-.7Zm18.9,9.2h-2.7V57c0,0,2.5,0,2.6,0c.3,0,.7,0,.9,.1c.2,.1,.4,.4,.4,.4l.1,.1V53.7l-.1,.1c0,0,-.2,.1,-.3,.2c-.1,0,-.2,0,-.8,0h-2.8V52.5h2.8c.8,0,.9,.1,1.4,.4l.7,.5l-.4,-3.8h-9.8l.3,.1c0,0,.7,.4,1.1,.7c.3,.3,.5,.4,.5,1.2v8.1c0,.8,-.1,1,-.5,1.2c-.4,.2,-1.2,.7,-1.2,.7l-.2,.1h10.1l.9,-4c0,0,-.8,.6,-1.1,.7c-.4,.3,-.8,.4,-1.9,.4m35.5,-4.9c-.2,0,-.4,0,-.5,-.1h-.1c-1.1,-.3,-1.9,-.5,-1.9,-1c0,-.1,.1,-.3,.2,-.4c.2,-.2,.6,-.3,1.2,-.3c.1,0,.2,0,.3,0h.1c1,.1,2.3,.6,3.5,1.4l-.2,-3.6h-.2v-.1c-.1,0,-.2,0,-.6,-.1c-.2,-.1,-1.5,-.3,-2.2,-.4c-.3,0,-.5,0,-.7,0c-2.7,0,-4.3,1.3,-4.5,3.6c-.1,1.2,.5,2.3,1.5,2.9c.8,.6,2.1,1,3.1,1.2l.2,.1c.6,.2,1.3,.6,1.2,1.3c-.1,.3,-.2,.7,-1.3,.7c-.2,0,-.4,0,-.6,0c-.7,-.1,-1.6,-.5,-2.6,-1.3c-.1,0,-.1,-.1,-.1,-.1l-.6,-.4l-.7,-.5l.3,4.5l.2,.1h.1c0,0,.1,.1,.5,.2c.4,.1,1.8,.3,2.5,.4c.2,0,.4,0,.6,0c3,0,5,-1.5,5,-3.8c.1,-2.2,-1.2,-3.6,-3.7,-4.3m-84.5,1.8c0,-2,-1.1,-3.2,-2.9,-3.2h-1.3v6.3h1.3c1.8,0,2.9,-1.2,2.9,-3.1m3.5,-.1c0,1.4,-.5,2.8,-1.3,3.8c-.3,.5,-.8,.9,-1.3,1.2c-1.2,.8,-2.3,1.1,-4.1,1.1h-6.3l.2,-.1c0,0,.8,-.5,1.2,-.7c.3,-.2,.5,-.4,.5,-1.2v-7c0,-.8,-.2,-1,-.5,-1.2C170.6,50.4,170.5,49,170.5,49l-.1,-.2l.2,.1c0,0,.5,.3,1.1,.5c.7,.1,1.6,.2,3.5,.2h2.5c1.2,0,2.1,.2,3,.7c1.9,1,3.1,3,3.1,5.3m58.7,0c0,-2,-1.3,-3.2,-3.3,-3.2c-1.8,0,-3,1.2,-3,3.3c0,2,1.2,3.3,3.1,3.3c1.9,0,3.2,-1.4,3.2,-3.4m3.5,0c0,3.6,-2.9,6.3,-6.7,6.3c-3.8,0,-6.6,-2.6,-6.6,-6.2c0,-3.6,2.8,-6.3,6.6,-6.3c3.8,0,6.7,2.7,6.7,6.2m37.6,-1.2l-.1,-.4c0,0,-.3,-.9,-1.3,-1.3l-.5,-.2l.1,.6c.2,.4,.4,1.3,1.4,1.3Zm-7.2,-2.2c.1,-.5,-.8,-1.2,-1.1,-1.4c1.2,0,1.8,.2,1.8,.2c-.3,-.5,-.4,-1.2,-.2,-1.8c.6,1.6,3,1.9,3.6,3.2c-.1,-.5,-.6,-1.2,-1.3,-1.6c-.3,-.8,0,-2.4,.4,-2.9c-.2,2.3,3.1,3.6,3.8,5.3C283,51.8,281.5,50.9,280.7,50c-.2,-.6,0,-1.5,.2,-1.9c0,1.6,1.6,2.8,2.5,3.7c1.1,1,1.4,1.9,1.2,2.6c.3,.1,.6,.3,.5,.7c.4,-.1,.7,-.5,.8,-.7c.2,1.1,-.5,2.3,-1.3,2.7c0,0,.2,-.5,-.1,-1c-.4,-.4,-1.3,-.4,-1.6,-.4c0,0,.4,-.5,.2,-.8c-.2,-.4,-2.1,-.3,-2.9,.1c.2,-.1,.9,0,1.2,.1c-.2,.2,-.5,1,-.3,1.3c.3,.2,.6,-.2,.6,-.2c0,0,-.3,.9,-.1,1.1c.2,.2,.6,.1,.6,.1c-.2,.7,-1.3,1.2,-2.1,1.2c.3,-.1,.7,-.6,.8,-.9c-.2,.1,-.7,.2,-.9,.1c.2,-.1,.7,-.7,.6,-1.4c-.3,-1.1,-1.7,-1.2,-2.5,-.7c.3,-.7,1,-1.4,1.5,-1.6c-.3,-.1,-.7,-.2,-1.1,-.3c.5,-.3,1.7,-.6,2.3,-.6c-.9,-.3,-2.6,0,-3.4,.9c.3,0,.9,.2,1.1,.2c-1,.2,-2.4,1.2,-2.9,1.7c.1,-.6,.3,-1.1,.2,-1.5c-.2,-.5,-.9,-.7,-2.1,-.5c.8,-.8,2.6,-1.4,2.7,-1.8m19.7,10.1c0,1.7,-1.7,3.1,-3.7,2.8c.5,.5,1.7,.8,2.4,.5c-.4,.7,-2.2,1.6,-3.8,1.2c-1.6,-.4,-2.3,-1.9,-2.3,-2.9c-.8,.7,-.6,2,0,2.4c-.7,-.1,-1.6,-.8,-1.7,-1.9c-.2,-1,.4,-2.1,-.6,-3c-.6,-.5,-1.6,-1.3,-2.2,-1.8c-1.2,-1,-.8,-1.7,-1,-2.2c-.3,-.4,-.8,-.6,-1.1,-1c-.3,-.4,-.3,-.9,-.1,-1.2c-.1,.4,.2,.7,.7,.9c.4,.1,.8,0,1.2,.2c.5,.3,.3,1.1,.6,1.3c.3,.3,1.1,-.1,1.7,.5c.7,.5,2.2,1.7,2.8,2.3c1.2,.9,2.4,-.2,2,-1.2c1.1,.6,1.3,2.6,.3,3.3c.9,.2,2.6,-.2,2.6,-1.6c0,-.8,-.8,-1.4,-1.3,-1.4c1.9,-.2,3.5,1.1,3.5,2.8Z" class="g3"/>
</svg>