<?xml version="1.0" encoding="UTF-8" standalone="no"?>
<!DOCTYPE svg PUBLIC "-//W3C//DTD SVG 1.1//EN"
"http://www.w3.org/Graphics/SVG/1.1/DTD/svg11.dtd">
<svg viewBox="0 0 935 1210" version="1.1" xmlns="http://www.w3.org/2000/svg" xmlns:xlink="http://www.w3.org/1999/xlink">
<defs>
<clipPath id="c0"><path d="M278.3,67.7V31.9H356V67.7Z"/></clipPath>
<style type="text/css"><![CDATA[
.g0{
fill: #DEDFDF;
}
.g1{
fill: #E0E1E1;
}
.g2{
fill: #FFFFFF;
}
.g3{
fill: none;
stroke: #DEDFDF;
stroke-width: 1.527;
stroke-linecap: butt;
stroke-linejoin: miter;
}
.g4{
}
.g5{
fill: none;
stroke: #000000;
stroke-width: 1.909;
stroke-linecap: butt;
stroke-linejoin: miter;
}
.g6{
fill: none;
stroke: #000000;
stroke-width: 2.1;
stroke-linecap: butt;
stroke-linejoin: miter;
}
.g7{
fill: none;
stroke: #000000;
stroke-width: 1.145;
stroke-linecap: butt;
stroke-linejoin: miter;
}
.g8{
fill: #C3C4C6;
}
.g9{
fill: none;
stroke: #000000;
stroke-width: 0.916;
stroke-linecap: butt;
stroke-linejoin: miter;
}
.ga{
fill: none;
stroke: #000000;
stroke-width: 0.381;
stroke-linecap: butt;
stroke-linejoin: miter;
}
]]></style>
</defs>
<path d="M143.2,93.6l35.5,2.7l-35.5,2.6L107.7,96.3Zm212.7,10l35.5,2.6l35.5,-2.6l-35.5,-2.7Zm174.6,-26l34,-2.6l-42,-3.1l64.3,-4.8L529.6,62.8l79.2,-5.9L473.9,46.8l36.2,-2.7l-66.2,-5l-58.8,4.4L358.6,40.1l64.9,-4.8l-52,-3.9l-36.2,2.7L293.2,30.9l-39.4,3l40,3l-44,3.3L205.7,36.9l25.6,-2L200.8,32.7L103.3,40l34.5,2.5L28.3,50.7l64.5,4.9L58.7,58.1l42,3.1L36.5,66l57.2,4.3L14.4,76.2l108.9,8.2L73.5,88.1l52.6,4L139.7,91l39.6,3l58.9,-4.4L264.6,93L196,98.2l94.1,7l20.6,-1.5l-37,-2.8l52.9,-4l37,2.8l24.3,-1.8l34.6,2.6L520,93.2L485.4,90.6L595,82.4Z" class="g0"/>
<path d="M294,170.4l28.9,2.1L294,174.7l-28.8,-2.2Zm172.8,8.1l28.8,2.1l28.9,-2.1l-28.9,-2.2ZM608.6,157.4l27.7,-2.1l-34.1,-2.5l52.1,-3.9l-46.4,-3.5l64.3,-4.8L562.6,132.4l29.5,-2.2l-53.8,-4l-47.8,3.5L469,126.9L521.7,123l-42.2,-3.2L450,122l-34.1,-2.5l-32,2.4l32.5,2.4L380.6,127l-35.8,-2.7l20.8,-1.6l-24.8,-1.8l-79.2,5.9l28,2.1l-88.9,6.7l52.4,3.9l-27.7,2l34.1,2.6L207.3,148l46.5,3.5l-64.4,4.8l88.5,6.6l-40.5,3l42.7,3.2l11.1,-.8l32.2,2.4l47.8,-3.6l21.4,2.8l-55.7,4.2l76.5,5.7l16.7,-1.2L400,176.3l43,-3.2l30.1,2.2l19.7,-1.4l28.1,2.1l79.2,-5.9L572,168l89,-6.7Z" class="g0"/>
<path d="M600,97.8l23.8,1.8L600,101.4L576.2,99.6Zm142.4,6.7l23.8,1.8L790,104.5l-23.8,-1.8Zm117,-17.4l22.8,-1.7L854.1,83.3l43,-3.2L858.8,77.2l53.1,-4L821.5,66.5l24.3,-1.8L801.4,61.3l-39.4,3L744.3,62l43.5,-3.3L752.9,56.1l-24.3,1.8L700.4,55.8l-26.3,2l26.8,2L671.4,62L641.9,59.8L659,58.5L638.5,57l-65.3,4.9l23.1,1.7L523,69.1l43.2,3.2L543.4,74l28.1,2.1l-43,3.3l38.3,2.8l-53.1,4l73,5.5l-33.5,2.5l35.3,2.6l9.1,-.7l26.6,2l39.4,-3l17.7,2.4l-45.9,3.4l63,4.7l13.8,-1l-24.8,-1.9l35.4,-2.6l24.8,1.8l16.3,-1.2l23.2,1.7l65.3,-4.8L829.2,95.8l73.4,-5.5Z" class="g0"/>
<path d="M602.5,206.5c-3.2,-4.1,-6.1,-9.4,-6.1,-15.2v-1.1H497c-9.4,-2.6,-19.3,-4,-29.5,-4c-10.2,0,-20.1,1.4,-29.5,4H338.1v1.1c0,5.8,-3,11.1,-6.2,15.2h2.8c.7,-1,1.4,-2,2,-3.1h2.6l.1,-.3c.1,-.3,2.7,-7.3,14.4,-7.3h69.3c-4.1,1.9,-8.1,4.2,-12,6.7l.6,.8c1.8,-1.2,3.6,-2.3,5.4,-3.3H517.9c1.8,1,3.7,2.1,5.5,3.3l.5,-.8c-3.8,-2.5,-7.9,-4.7,-12,-6.7h68.9c11.6,0,14.3,7,14.4,7.3l.1,.3h2.4c.6,1.1,1.3,2.1,2,3.1ZM339.8,195.8h7.1c-5.7,1.8,-7.8,5.5,-8.3,6.6h-1.3c1.1,-2,1.9,-4.2,2.5,-6.6m91.4,-3.3c-1.5,.5,-3,1.1,-4.5,1.7c-.3,-.4,-.7,-.6,-1.3,-.6c-.8,0,-1.4,.5,-1.6,1.2H340c.1,-.7,.2,-1.5,.3,-2.3Zm62,-2.3H441.8c8.2,-2,16.9,-3.1,25.7,-3.1c8.8,0,17.5,1.1,25.7,3.1m7.7,2.3c2.4,.7,4.7,1.6,7,2.6c0,.1,-.1,.1,-.1,.2c0,1,.8,1.7,1.8,1.7c.5,0,1,-.2,1.3,-.6c1.7,.8,3.5,1.7,5.2,2.6H418.9c1.7,-.9,3.5,-1.8,5.2,-2.6c.3,.4,.8,.6,1.3,.6c1,0,1.8,-.7,1.8,-1.7c0,-.1,-.1,-.1,-.1,-.2c2.3,-1,4.6,-1.8,7,-2.6Zm93.5,2.3H511.2c-.2,-.7,-.9,-1.2,-1.6,-1.2c-.6,0,-1,.2,-1.3,.6c-1.5,-.6,-3,-1.2,-4.5,-1.7h90.4c0,.8,.1,1.6,.2,2.3m2.8,7.6H596c-.5,-1.1,-2.6,-4.8,-8.3,-6.6h7c.5,2.4,1.4,4.6,2.5,6.6M332,1160.7c3.1,4.1,6.1,9.3,6.1,15.1v1.1H438c9.4,2.7,19.3,4,29.5,4c10.2,0,20.1,-1.3,29.5,-4h99.4v-1.1c0,-5.8,2.9,-11,6.1,-15.1h-2.9c-.6,1,-1.3,2,-1.9,3h-2.6l-.1,.3c-.1,.3,-2.7,7.3,-14.3,7.3H511.9c4.1,-1.9,8.1,-4.2,12,-6.7l-.6,-.8c-1.8,1.2,-3.6,2.3,-5.4,3.3H417.1c-1.8,-1,-3.7,-2.1,-5.5,-3.3l-.5,.8c3.8,2.5,7.9,4.7,12,6.7H353.6c-11.6,0,-14.2,-7,-14.3,-7.3l-.2,-.3h-2.4c-.6,-1,-1.2,-2,-1.9,-3Zm262.7,10.6h-7.1c5.6,-1.8,7.7,-5.5,8.2,-6.6h1.4c-1.1,2,-2,4.2,-2.5,6.6m-90.9,3.3c1.5,-.5,3,-1.1,4.5,-1.7c.3,.4,.7,.6,1.3,.6c.8,0,1.4,-.5,1.6,-1.2h83.2c-.1,.8,-.2,1.5,-.2,2.3Zm-62,2.3h51.4c-8.2,2,-16.9,3.1,-25.7,3.1c-8.8,0,-17.5,-1.1,-25.7,-3.1m-7.7,-2.3c-2.4,-.7,-4.7,-1.6,-7,-2.6c0,-.1,.1,-.1,.1,-.2c0,-1,-.8,-1.7,-1.8,-1.7c-.5,0,-1,.2,-1.3,.6c-1.7,-.8,-3.5,-1.7,-5.2,-2.6h97.2c-1.7,.9,-3.5,1.8,-5.2,2.6c-.3,-.4,-.8,-.6,-1.3,-.6c-1,0,-1.8,.7,-1.8,1.7c0,.1,.1,.1,.1,.2c-2.3,1,-4.6,1.9,-7,2.6ZM340,1172.3h83.8c.2,.7,.9,1.2,1.6,1.2c.6,0,1,-.2,1.3,-.6c1.5,.6,3,1.2,4.5,1.7H340.3c-.1,-.8,-.2,-1.5,-.3,-2.3m-2.7,-7.6h1.2c.5,1.1,2.5,4.8,8.2,6.6h-6.9c-.6,-2.4,-1.4,-4.6,-2.5,-6.6Z" class="g1"/>
<path d="M611.7,209.9l-7.3,-7.3H330l-7.3,7.3v947.3l7.3,7.3H604.4l7.3,-7.3Z" class="g2"/>
<path d="M611.7,209.9l-7.3,-7.3H330l-7.3,7.3v947.3l7.3,7.3H604.4l7.3,-7.3V209.9Z" class="g3"/>
<path d="M314.1,206.5c-3.2,-4.1,-6.2,-9.4,-6.2,-15.2v-1.1H208.5c-9.4,-2.6,-19.3,-4,-29.5,-4c-10.2,0,-20.1,1.4,-29.4,4H49.6v1.1c0,5.8,-3,11.1,-6.2,15.2h2.8c.7,-1,1.4,-2,2.1,-3.1h2.5l.1,-.3c.2,-.3,2.8,-7.3,14.4,-7.3h69.4c-4.2,1.9,-8.2,4.2,-12,6.7l.5,.8c1.8,-1.2,3.6,-2.3,5.5,-3.3H229.4c1.9,1,3.7,2.1,5.5,3.3l.5,-.8c-3.8,-2.5,-7.8,-4.7,-12,-6.7h68.9c11.7,0,14.3,7,14.4,7.3l.1,.3h2.4c.7,1.1,1.4,2.1,2.1,3.1ZM51.3,195.8h7.1c-5.7,1.8,-7.7,5.5,-8.2,6.6H48.8c1.1,-2,2,-4.2,2.5,-6.6m91.4,-3.3c-1.5,.5,-3,1.1,-4.4,1.7c-.4,-.4,-.8,-.6,-1.3,-.6c-.8,0,-1.4,.5,-1.7,1.2H51.5c.2,-.7,.3,-1.5,.3,-2.3Zm62,-2.3H153.3c8.3,-2,16.9,-3.1,25.7,-3.1c8.9,0,17.5,1.1,25.7,3.1m7.7,2.3c2.4,.7,4.7,1.6,7,2.6q0,.1,0,.2c0,1,.7,1.7,1.7,1.7c.5,0,1,-.2,1.3,-.6c1.8,.8,3.5,1.7,5.2,2.6H130.5c1.7,-.9,3.4,-1.8,5.2,-2.6c.3,.4,.7,.6,1.3,.6c.9,0,1.7,-.7,1.7,-1.7q0,-.1,-.1,-.2c2.3,-1,4.7,-1.8,7,-2.6Zm93.6,2.3H222.7c-.2,-.7,-.8,-1.2,-1.6,-1.2c-.5,0,-1,.2,-1.3,.6c-1.5,-.6,-2.9,-1.2,-4.4,-1.7h90.3c0,.8,.1,1.6,.3,2.3m2.7,7.6h-1.2c-.5,-1.1,-2.6,-4.8,-8.2,-6.6h6.9c.5,2.4,1.4,4.6,2.5,6.6M43.5,1160.7c3.2,4.1,6.1,9.3,6.1,15.1v1.1h100c9.3,2.7,19.2,4,29.4,4c10.2,0,20.1,-1.3,29.5,-4h99.4v-1.1c0,-5.8,2.9,-11,6.1,-15.1h-2.8c-.7,1,-1.4,2,-2,3h-2.5l-.1,.3c-.2,.3,-2.8,7.3,-14.4,7.3H223.4c4.2,-1.9,8.2,-4.2,12,-6.7l-.5,-.8c-1.8,1.2,-3.7,2.3,-5.5,3.3H128.7c-1.9,-1,-3.7,-2.1,-5.5,-3.3l-.6,.8c3.9,2.5,7.9,4.7,12.1,6.7H65.2c-11.7,0,-14.3,-7,-14.4,-7.3l-.1,-.3H48.3c-.6,-1,-1.3,-2,-2,-3Zm262.7,10.6h-7.1c5.7,-1.8,7.7,-5.5,8.2,-6.6h1.4c-1.1,2,-2,4.2,-2.5,6.6m-90.8,3.3c1.5,-.5,3,-1.1,4.4,-1.7c.3,.4,.8,.6,1.3,.6c.8,0,1.4,-.5,1.6,-1.2H306c-.2,.8,-.3,1.5,-.3,2.3Zm-62.1,2.3h51.4c-8.2,2,-16.8,3.1,-25.7,3.1c-8.8,0,-17.4,-1.1,-25.7,-3.1m-7.7,-2.3c-2.3,-.7,-4.7,-1.6,-6.9,-2.6q0,-.1,0,-.2c0,-1,-.8,-1.7,-1.7,-1.7c-.6,0,-1,.2,-1.3,.6c-1.8,-.8,-3.5,-1.7,-5.2,-2.6h97.1c-1.7,.9,-3.4,1.8,-5.2,2.6c-.3,-.4,-.8,-.6,-1.3,-.6c-.9,0,-1.7,.7,-1.7,1.7q0,.1,0,.2c-2.3,1,-4.6,1.9,-7,2.6Zm-94.1,-2.3h83.9c.2,.7,.8,1.2,1.6,1.2c.5,0,.9,-.2,1.3,-.6c1.4,.6,2.9,1.2,4.4,1.7H51.8c0,-.8,-.1,-1.5,-.3,-2.3m-2.7,-7.6H50c.5,1.1,2.6,4.8,8.2,6.6H51.3c-.5,-2.4,-1.4,-4.6,-2.5,-6.6Z" class="g1"/>
<path d="M323.2,209.9l-7.3,-7.3H41.6l-7.3,7.3v947.3l7.3,7.3H315.9l7.3,-7.3Z" class="g2"/>
<path d="M323.2,209.9l-7.3,-7.3H41.6l-7.3,7.3v947.3l7.3,7.3H315.9l7.3,-7.3V209.9Z" class="g3"/>
<path d="M891.6,206.5c-3.2,-4.1,-6.2,-9.4,-6.2,-15.2v-1.1H786c-9.4,-2.6,-19.3,-4,-29.5,-4c-10.2,0,-20.1,1.4,-29.4,4h-100v1.1c0,5.8,-3,11.1,-6.2,15.2h2.8c.7,-1,1.4,-2,2.1,-3.1h2.5l.1,-.3c.2,-.3,2.8,-7.3,14.4,-7.3h69.4c-4.2,1.9,-8.2,4.2,-12,6.7l.5,.8c1.8,-1.2,3.6,-2.3,5.5,-3.3H806.9c1.9,1,3.7,2.1,5.5,3.3l.5,-.8c-3.8,-2.5,-7.8,-4.7,-12,-6.7h68.9c11.7,0,14.3,7,14.4,7.3l.1,.3h2.4c.7,1.1,1.4,2.1,2.1,3.1ZM628.8,195.8h7.1c-5.7,1.8,-7.7,5.5,-8.2,6.6h-1.4c1.1,-2,2,-4.2,2.5,-6.6m91.4,-3.3c-1.5,.5,-3,1.1,-4.4,1.7c-.4,-.4,-.8,-.6,-1.3,-.6c-.8,0,-1.4,.5,-1.7,1.2H629c.2,-.7,.3,-1.5,.3,-2.3Zm62,-2.3H730.8c8.3,-2,16.9,-3.1,25.7,-3.1c8.9,0,17.5,1.1,25.7,3.1m7.7,2.3c2.4,.7,4.7,1.6,7,2.6q0,.1,0,.2c0,1,.7,1.7,1.7,1.7c.5,0,1,-.2,1.3,-.6c1.8,.8,3.5,1.7,5.2,2.6H708c1.7,-.9,3.4,-1.8,5.2,-2.6c.3,.4,.7,.6,1.3,.6c.9,0,1.7,-.7,1.7,-1.7q0,-.1,-.1,-.2c2.3,-1,4.7,-1.8,7,-2.6Zm93.6,2.3H800.2c-.2,-.7,-.8,-1.2,-1.6,-1.2c-.5,0,-1,.2,-1.3,.6c-1.5,-.6,-2.9,-1.2,-4.4,-1.7h90.3c0,.8,.1,1.6,.3,2.3m2.7,7.6H885c-.5,-1.1,-2.6,-4.8,-8.2,-6.6h6.9c.5,2.4,1.4,4.6,2.5,6.6M621,1160.7c3.2,4.1,6.1,9.3,6.1,15.1v1.1h100c9.3,2.7,19.2,4,29.4,4c10.2,0,20.1,-1.3,29.5,-4h99.4v-1.1c0,-5.8,2.9,-11,6.1,-15.1h-2.8c-.7,1,-1.4,2,-2,3h-2.5l-.1,.3c-.2,.3,-2.8,7.3,-14.4,7.3H800.9c4.2,-1.9,8.2,-4.2,12,-6.7l-.5,-.8c-1.8,1.2,-3.7,2.3,-5.5,3.3H706.2c-1.9,-1,-3.7,-2.1,-5.5,-3.3l-.6,.8c3.9,2.5,7.9,4.7,12.1,6.7H642.7c-11.7,0,-14.3,-7,-14.4,-7.3l-.1,-.3h-2.4c-.6,-1,-1.3,-2,-2,-3Zm262.7,10.6h-7.1c5.7,-1.8,7.7,-5.5,8.2,-6.6h1.4c-1.1,2,-2,4.2,-2.5,6.6m-90.8,3.3c1.5,-.5,3,-1.1,4.4,-1.7c.3,.4,.8,.6,1.3,.6c.8,0,1.4,-.5,1.6,-1.2h83.3c-.2,.8,-.3,1.5,-.3,2.3Zm-62.1,2.3h51.4c-8.2,2,-16.8,3.1,-25.7,3.1c-8.8,0,-17.4,-1.1,-25.7,-3.1m-7.7,-2.3c-2.3,-.7,-4.7,-1.6,-6.9,-2.6q0,-.1,0,-.2c0,-1,-.8,-1.7,-1.7,-1.7c-.6,0,-1,.2,-1.3,.6c-1.8,-.8,-3.5,-1.7,-5.2,-2.6h97.1c-1.7,.9,-3.4,1.8,-5.2,2.6c-.3,-.4,-.8,-.6,-1.3,-.6c-.9,0,-1.7,.7,-1.7,1.7q0,.1,0,.2c-2.3,1,-4.6,1.9,-7,2.6ZM629,1172.3h83.9c.2,.7,.8,1.2,1.6,1.2c.5,0,.9,-.2,1.3,-.6c1.4,.6,2.9,1.2,4.4,1.7H629.3c0,-.8,-.1,-1.5,-.3,-2.3m-2.7,-7.6h1.2c.5,1.1,2.6,4.8,8.2,6.6h-6.9c-.5,-2.4,-1.4,-4.6,-2.5,-6.6Z" class="g1"/>
<path d="M900.7,209.9l-7.3,-7.3H619.1l-7.3,7.3v947.3l7.3,7.3H893.4l7.3,-7.3Z" class="g2"/>
<path d="M900.7,209.9l-7.3,-7.3H619.1l-7.3,7.3v947.3l7.3,7.3H893.4l7.3,-7.3V209.9Z" class="g3"/>
<path d="M327.8,550.1c0,-.1,0,-.2,0,-.3h8.7l-1.1,-.8c-5.8,0,-9.7,-3,-9.7,-3c-.9,-.6,-1.9,-.9,-3,-.9v10.1c1.3,0,2.4,-.4,3.3,-1.2c1.1,-.7,4.6,-2.8,9.4,-2.8l1.1,-.8h-8.7c0,-.1,0,-.2,0,-.3Z" class="g1"/>
<path d="M322.7,546.3c-.2,0,-.5,0,-.7,.1v7.5c.2,.1,.5,.1,.7,.1c2.2,0,3.9,-1.7,3.9,-3.9c0,-2.1,-1.7,-3.8,-3.9,-3.8Z" class="g2"/>
<path d="M606.6,550.1c0,-.1,0,-.2,0,-.3h-8.7l1.2,-.8c5.7,0,9.7,-3,9.7,-3c.8,-.6,1.8,-.9,2.9,-.9v10.1c-1.3,0,-2.4,-.4,-3.3,-1.2c-1.1,-.7,-4.6,-2.8,-9.3,-2.8l-1.2,-.8h8.7c0,-.1,0,-.2,0,-.3Z" class="g1"/>
<path d="M611.7,546.3c.2,0,.5,0,.7,.1v7.5c-.2,.1,-.5,.1,-.7,.1c-2.1,0,-3.9,-1.7,-3.9,-3.9c0,-2.1,1.8,-3.8,3.9,-3.8Z" class="g2"/>
<path d="M327.8,894.7c0,-.1,0,-.2,0,-.3h8.7l-1.1,-.8c-5.8,0,-9.7,-3,-9.7,-3c-.9,-.6,-1.9,-1,-3,-1v10.2c1.3,0,2.4,-.5,3.3,-1.2c1.1,-.7,4.6,-2.8,9.4,-2.8l1.1,-.8h-8.7c0,-.1,0,-.2,0,-.3Z" class="g1"/>
<path d="M322.7,890.9c-.2,0,-.5,0,-.7,0v7.6c.2,.1,.5,.1,.7,.1c2.2,0,3.9,-1.7,3.9,-3.9c0,-2.1,-1.7,-3.8,-3.9,-3.8Z" class="g2"/>
<path d="M606.6,894.7c0,-.1,0,-.2,0,-.3h-8.7l1.2,-.8c5.7,0,9.7,-3,9.7,-3c.8,-.6,1.8,-1,2.9,-1v10.2c-1.3,0,-2.4,-.5,-3.3,-1.2c-1.1,-.7,-4.6,-2.8,-9.3,-2.8l-1.2,-.8h8.7c0,-.1,0,-.2,0,-.3Z" class="g1"/>
<path d="M611.7,890.9c.2,0,.5,0,.7,0v7.6c-.2,.1,-.5,.1,-.7,.1c-2.1,0,-3.9,-1.7,-3.9,-3.9c0,-2.1,1.8,-3.8,3.9,-3.8Z" class="g2"/>
<path d="M39.4,809.7c0,-.1,-.1,-.2,-.1,-.3h8.8l-1.2,-.8c-5.8,0,-9.7,-3,-9.7,-3c-.8,-.6,-1.8,-.9,-2.9,-.9v10.1c1.2,0,2.4,-.5,3.3,-1.2c1,-.7,4.5,-2.8,9.3,-2.8l1.2,-.8H39.3c0,-.1,.1,-.2,.1,-.3Z" class="g1"/>
<path d="M34.3,805.9c-.3,0,-.5,0,-.8,.1v7.5c.3,.1,.5,.1,.8,.1c2.1,0,3.8,-1.7,3.8,-3.9c0,-2.1,-1.7,-3.8,-3.8,-3.8Z" class="g2"/>
<path d="M318.1,809.7c0,-.1,.1,-.2,.1,-.3h-8.8l1.2,-.8c5.8,0,9.7,-3,9.7,-3c.8,-.6,1.8,-.9,2.9,-.9v10.1c-1.2,0,-2.4,-.5,-3.3,-1.2c-1,-.7,-4.5,-2.8,-9.3,-2.8l-1.2,-.8h8.8c0,-.1,-.1,-.2,-.1,-.3Z" class="g1"/>
<path d="M323.2,805.9c.3,0,.5,0,.8,.1v7.5c-.3,.1,-.5,.1,-.8,.1c-2.1,0,-3.8,-1.7,-3.8,-3.9c0,-2.1,1.7,-3.8,3.8,-3.8Z" class="g2"/>
<path d="M39.4,443.1c0,-.1,-.1,-.2,-.1,-.3h8.8L46.9,442c-5.8,0,-9.7,-3.1,-9.7,-3.1v.1c-.8,-.6,-1.8,-1,-2.9,-1v10.2c1.2,0,2.4,-.5,3.3,-1.2c1,-.8,4.5,-2.8,9.3,-2.8l1.2,-.8H39.3c0,-.1,.1,-.2,.1,-.3Z" class="g1"/>
<path d="M34.3,439.2c-.3,0,-.5,.1,-.8,.1v7.6c.3,0,.5,.1,.8,.1c2.1,0,3.8,-1.8,3.8,-3.9c0,-2.1,-1.7,-3.9,-3.8,-3.9Z" class="g2"/>
<path d="M318.1,443.1c0,-.1,.1,-.2,.1,-.3h-8.8l1.2,-.8c5.8,0,9.7,-3.1,9.7,-3.1v.1c.8,-.6,1.8,-1,2.9,-1v10.2c-1.2,0,-2.4,-.5,-3.3,-1.2c-1,-.8,-4.5,-2.8,-9.3,-2.8l-1.2,-.8h8.8c0,-.1,-.1,-.2,-.1,-.3Z" class="g1"/>
<path d="M323.2,439.2c.3,0,.5,.1,.8,.1v7.6c-.3,0,-.5,.1,-.8,.1c-2.1,0,-3.8,-1.8,-3.8,-3.9c0,-2.1,1.7,-3.9,3.8,-3.9Z" class="g2"/>
<path d="M616.9,463.3c0,-.2,-.1,-.3,-.1,-.4h8.8l-1.2,-.7c-5.8,0,-9.7,-3.1,-9.7,-3.1c-.8,-.6,-1.8,-.9,-2.9,-.9v10.1c1.2,0,2.4,-.4,3.3,-1.2c1,-.7,4.5,-2.8,9.3,-2.8l1.2,-.7h-8.8c0,-.1,.1,-.2,.1,-.3Z" class="g1"/>
<path d="M611.8,459.4c-.3,0,-.5,0,-.8,.1V467c.3,.1,.5,.1,.8,.1c2.1,0,3.8,-1.7,3.8,-3.8c0,-2.2,-1.7,-3.9,-3.8,-3.9Z" class="g2"/>
<path d="M895.6,463.3c0,-.2,.1,-.3,.1,-.4h-8.8l1.2,-.7c5.8,0,9.7,-3.1,9.7,-3.1c.8,-.6,1.8,-.9,2.9,-.9v10.1c-1.2,0,-2.4,-.4,-3.3,-1.2c-1,-.7,-4.5,-2.8,-9.3,-2.8l-1.2,-.7h8.8c0,-.1,-.1,-.2,-.1,-.3Z" class="g1"/>
<path d="M900.7,459.4c.3,0,.5,0,.8,.1V467c-.3,.1,-.5,.1,-.8,.1c-2.1,0,-3.8,-1.7,-3.8,-3.8c0,-2.2,1.7,-3.9,3.8,-3.9Z" class="g2"/>
<path d="M616.9,723.1c0,-.1,-.1,-.2,-.1,-.4h8.8l-1.2,-.7c-5.8,0,-9.7,-3.1,-9.7,-3.1c-.8,-.6,-1.8,-.9,-2.9,-.9v10.2c1.2,0,2.4,-.5,3.3,-1.3c1,-.7,4.5,-2.8,9.3,-2.8l1.2,-.7h-8.8c0,-.1,.1,-.2,.1,-.3Z" class="g1"/>
<path d="M611.8,719.2c-.3,0,-.5,.1,-.8,.1v7.6c.3,0,.5,0,.8,0c2.1,0,3.8,-1.7,3.8,-3.8c0,-2.1,-1.7,-3.9,-3.8,-3.9Z" class="g2"/>
<path d="M895.6,723.1c0,-.1,.1,-.2,.1,-.4h-8.8l1.2,-.7c5.8,0,9.7,-3.1,9.7,-3.1c.8,-.6,1.8,-.9,2.9,-.9v10.2c-1.2,0,-2.4,-.5,-3.3,-1.3c-1,-.7,-4.5,-2.8,-9.3,-2.8l-1.2,-.7h8.8c0,-.1,-.1,-.2,-.1,-.3Z" class="g1"/>
<path d="M900.7,719.2c.3,0,.5,.1,.8,.1v7.6c-.3,0,-.5,0,-.8,0c-2.1,0,-3.8,-1.7,-3.8,-3.8c0,-2.1,1.7,-3.9,3.8,-3.9Z" class="g2"/>
<path d="M616.9,939.4c0,-.2,-.1,-.3,-.1,-.4h8.8l-1.2,-.7c-5.8,0,-9.7,-3.1,-9.7,-3.1c-.8,-.6,-1.8,-.9,-2.9,-.9v10.1c1.2,0,2.4,-.4,3.3,-1.2c1,-.7,4.5,-2.8,9.3,-2.8l1.2,-.7h-8.8c0,-.1,.1,-.2,.1,-.3Z" class="g1"/>
<path d="M611.8,935.5c-.3,0,-.5,0,-.8,.1v7.5c.3,.1,.5,.1,.8,.1c2.1,0,3.8,-1.7,3.8,-3.8c0,-2.2,-1.7,-3.9,-3.8,-3.9Z" class="g2"/>
<path d="M895.6,939.4c0,-.2,.1,-.3,.1,-.4h-8.8l1.2,-.7c5.8,0,9.7,-3.1,9.7,-3.1c.8,-.6,1.8,-.9,2.9,-.9v10.1c-1.2,0,-2.4,-.4,-3.3,-1.2c-1,-.7,-4.5,-2.8,-9.3,-2.8l-1.2,-.7h8.8c0,-.1,-.1,-.2,-.1,-.3Z" class="g1"/>
<path d="M900.7,935.5c.3,0,.5,0,.8,.1v7.5c-.3,.1,-.5,.1,-.8,.1c-2.1,0,-3.8,-1.7,-3.8,-3.8c0,-2.2,1.7,-3.9,3.8,-3.9Z" class="g2"/>
<path d="M305.1,258.9l7.3,-8.9V227.8l-7.3,-8.9H63.4v40Z" class="g2"/>
<path d="M305.1,515.1l7.3,-8.9V484.1l-7.3,-8.9H63.4v39.9Z" class="g2"/>
<path d="M305.1,864.3l7.3,-8.9V833.3l-7.3,-8.9H63.4v39.9Z" class="g2"/>
<path d="M593.8,258.9l7.4,-8.9V227.8l-7.4,-8.9H352.1v40Z" class="g2"/>
<path d="M879.7,258.9l7.4,-8.9V227.8l-7.4,-8.9H638v40Z" class="g2"/>
<path d="M879.7,518.2l7.4,-8.9V487.2l-7.4,-8.9H638v39.9Z" class="g2"/>
<path d="M879.7,777.6l7.4,-8.9V746.6l-7.4,-8.9H638v39.9Z" class="g2"/>
<path d="M879.7,992.6l7.4,-8.9V961.6l-7.4,-8.9H638v39.9Z" class="g2"/>
<path d="M593.8,603.5l7.4,-8.9V572.5l-7.4,-8.9H352.1v39.9Z" class="g2"/>
<path d="M593.8,949.7l7.4,-8.9V918.6l-7.4,-8.9H352.1v40Z" class="g2"/>
<path d="M52,513.5V476.9L56.1,473l15.6,13.5v17.3L56.1,517.3Z" class="g2"/>
<path d="M52,862.7V826.1l4.1,-3.9l15.6,13.5V853L56.1,866.5Z" class="g2"/>
<path d="M340.7,257.2V220.6l4.2,-3.9l15.6,13.6v17.3l-15.6,13.5Z" class="g2"/>
<path d="M626.6,257.2V220.6l4.1,-3.9l15.7,13.6v17.3l-15.7,13.5Z" class="g2"/>
<path d="M626.6,516.5V480l4.1,-3.9l15.7,13.5v17.3l-15.7,13.5Z" class="g2"/>
<path d="M626.6,776V739.4l4.1,-3.9L646.4,749v17.3l-15.7,13.6Z" class="g2"/>
<path d="M626.6,991V954.4l4.1,-3.9L646.4,964v17.3l-15.7,13.6Z" class="g2"/>
<path d="M340.7,601.8V565.3l4.2,-3.9l15.6,13.5v17.3l-15.6,13.5Z" class="g2"/>
<path d="M340.7,948V911.4l4.2,-3.9L360.5,921v17.3l-15.6,13.6Z" class="g2"/>
<path d="M56.2,476.1l13.2,11.5v15.2L56.2,514.3l-1.9,-1.8V477.9ZM56,469.9l-6.3,6v38.6l6.3,5.9L74,504.9V485.5Z" class="g0"/>
<path d="M56.2,825.3l13.2,11.5V852L56.2,863.5l-1.9,-1.8V827.1ZM56,819.1l-6.3,6v38.6l6.3,5.9L74,854.1V834.7Z" class="g0"/>
<path d="M344.9,219.8l13.3,11.5v15.2L344.9,258L343,256.2V221.6Zm-.1,-6.2l-6.4,6v38.6l6.4,6l18,-15.6V229.2Z" class="g0"/>
<path d="M630.8,219.8l13.3,11.5v15.2L630.8,258l-1.9,-1.8V221.6Zm-.1,-6.2l-6.4,6v38.6l6.4,6l17.9,-15.6V229.2Z" class="g0"/>
<path d="M630.8,479.2l13.3,11.5v15.1l-13.3,11.5l-1.9,-1.7V480.9Zm-.1,-6.2l-6.4,6v38.5l6.4,6l17.9,-15.6V488.6Z" class="g0"/>
<path d="M630.8,738.6l13.3,11.5v15.2l-13.3,11.5L628.9,775V740.4Zm-.1,-6.2l-6.4,6V777l6.4,5.9l17.9,-15.5V748Z" class="g0"/>
<path d="M630.8,953.6l13.3,11.5v15.2l-13.3,11.5L628.9,990V955.4Zm-.1,-6.2l-6.4,6V992l6.4,5.9l17.9,-15.5V963Z" class="g0"/>
<path d="M344.9,564.5L358.2,576v15.1l-13.3,11.5L343,600.9V566.2Zm-.1,-6.2l-6.4,6v38.5l6.4,6l18,-15.6V573.9Z" class="g0"/>
<path d="M344.9,910.6l13.3,11.5v15.2l-13.3,11.5L343,947V912.4Zm-.1,-6.2l-6.4,6V949l6.4,6l18,-15.6V920Z" class="g0"/>
<path d="M52,257.2V220.6l4.1,-3.9l15.6,13.6v17.3L56.1,261.1Z" class="g2"/>
<path d="M56.2,219.8l13.2,11.5v15.2L56.2,258l-1.9,-1.8V221.6ZM56,213.6l-6.3,6v38.6l6.3,6L74,248.6V229.2Z" class="g0"/>
<path d="M84,88.7V70H95.6c0,0,5.8,2.8,14.7,-9.9h19.4l7.7,-5.4c0,0,6.6,-9.4,12.6,-9.4c6.1,0,30.2,-11,30.2,-11l25.9,-5.7l30.8,9l16.4,6.6c0,0,25,9.3,21.6,24.4c0,0,3,-12.6,-21.6,-21.1c0,0,13.3,9.7,10.6,15.4c0,0,14.3,9.8,16.5,17.8c0,0,31.9,9.5,44.5,-12.1c0,0,-4.5,10.2,-8.8,12.1c0,0,29.7,17.8,58.3,-12.1c0,0,-20.6,17.9,-19.2,25.4L273.8,91.5c0,0,.8,-35.9,-49.9,-39.1C173.1,49.3,167.6,74.7,171.8,84.3Z" class="g2"/>
<path d="M228.7,86.5c0,0,9.3,-34.1,41.2,5c0,0,-22.2,-43.5,-46,-6.1Z" class="g2"/>
<path d="M288.4,97.1c1.2,5.2,1.8,11,1.7,17.2c0,0,1,-7.4,-1.7,-17.2M138.3,73.4l-.2,.5l-.5,.2l.5,.3l.3,.5l.2,-.5l.5,-.3l-.5,-.2ZM107.7,93.9l-.4,.9l-.9,.5l.9,.4l.5,.9l.4,-.9l.9,-.5l-.9,-.4ZM141.3,70.1l-.7,1.2l-1.2,.6l1.3,.7l.6,1.2l.7,-1.2l1.2,-.7L142,71.2Zm-4.6,4.8l-.2,.5l-.5,.3l.5,.2l.2,.5l.3,-.5l.4,-.3l-.4,-.2ZM99.4,94.4l-.4,.7l-.8,.5L99,96l.4,.8l.5,-.8l.7,-.5l-.8,-.4Zm2.9,1.4l-.3,.6l-.6,.3l.6,.3l.3,.6l.3,-.6l.6,-.3l-.6,-.4Zm-.5,2.2l-.2,.4l-.5,.3l.5,.2l.2,.4l.2,-.4l.5,-.2l-.5,-.3ZM324.5,90.5c0,.5,.3,.9,.8,.9c.5,-.1,.8,-.4,.8,-.9c0,-.5,-.4,-.8,-.8,-.8c-.5,0,-.9,.4,-.8,.8m8.6,-7.1c.4,0,.7,-.3,.7,-.7c0,-.4,-.3,-.7,-.7,-.7c-.4,0,-.7,.4,-.7,.7c0,.4,.3,.7,.7,.7M328,86.9c.8,-.1,1.4,-.7,1.4,-1.5c0,-.7,-.7,-1.4,-1.4,-1.3c-.8,0,-1.4,.6,-1.4,1.4c0,.7,.6,1.4,1.4,1.4M372.9,60.8c.4,-.1,.7,-.4,.7,-.8c0,-.3,-.3,-.6,-.7,-.6c-.4,0,-.7,.3,-.7,.7c0,.4,.3,.7,.7,.7m-5.5,5.6c.9,0,1.5,-.7,1.5,-1.5c0,-.9,-.7,-1.6,-1.5,-1.6c-.9,.1,-1.5,.8,-1.5,1.6c0,.9,.7,1.5,1.5,1.5m-5.3,5c0,.4,.3,.7,.7,.7c.4,0,.7,-.4,.7,-.7c0,-.4,-.4,-.7,-.7,-.7c-.4,0,-.7,.3,-.7,.7m1,-2.3l.5,-.8l.8,-.4l-.8,-.5l-.5,-.8l-.4,.8l-.8,.5l.8,.4Zm4,2.6l.5,-.9l.9,-.5l-.9,-.5l-.6,-.9l-.4,.9l-.9,.5l.9,.5ZM400.1,47l-.5,-.9l-.5,.9l-.9,.5l.9,.5l.5,.9l.5,-.9l.9,-.5ZM393,49.7l-.9,1.5l-1.5,.9l1.6,.8l.8,1.5l.8,-1.5l1.6,-.9l-1.6,-.8Zm3.4,4.3l-.3,.5l-.5,.3l.5,.3l.3,.5l.3,-.5l.5,-.3l-.5,-.3Zm-3.3,1.7l-.6,1.1l-1.1,.6l1.1,.5l.6,1.1l.6,-1.1l1,-.6l-1.1,-.5ZM343.9,89.8c-9.7,-1.3,-22.5,-2.2,-31.5,-.1c-2.2,1,-5.9,3.3,-4,6.1c1.7,2.7,25.7,-.2,35.5,-6M387.3,44.9c0,0,3.5,11.7,1.7,20.1c0,0,.2,-7.9,-2.9,-5.9c-3,2,-15.4,13.1,-5.8,18.5c0,0,-21.5,.7,-22.9,14.4c0,0,-4.9,-1.1,-11.7,-2c-.9,.6,-2,1.3,-3.4,1.9c-12.7,6.1,-45.1,13,-35.8,-.1c-4.2,2.4,-6.2,6.3,-3.9,12.5c0,0,-7.4,-13,12,-17c0,0,-4.5,-1.8,-2,-3.5c0,0,18.1,6.5,34.5,3.3c1.7,-2.1,1.4,-4.6,-2.2,-7.2c0,0,5.5,2.9,3.7,6.9c4.5,-1,8.8,-2.8,12.5,-5.8c0,0,-5.8,1.8,-8.6,2.4c0,0,5.2,-2,11.7,-6.6l-.4,-.8l-2.1,-1.1l2,-1.2l1.2,-2.1l1.1,2.1l1.4,.6c7.4,-6,15.8,-15.5,19.9,-29.4M272.6,94.5q0,.1,-.1,.2q.1,-.1,.1,-.2M272.5,94.7c-.1,.3,-.2,.6,-.4,.9c0,0,.2,-.4,.4,-.9M171.7,87.4l-.5,.9l-.9,.5l.9,.5l.5,.9l.5,-.9l.9,-.5l-.9,-.5Zm-4.1,-4.5l-.4,.9l-.8,.4l.8,.4l.4,.9l.5,-.9l.8,-.4l-.8,-.5ZM163,84.7l-.7,1.3l-1.3,.7l1.3,.7l.7,1.3l.7,-1.3l1.3,-.7L163.7,86ZM281,70.8l.5,-1l1,-.5l-1,-.6l-.6,-1l-.5,1l-1,.6l1,.5Zm40.7,5.8l-.4,.6l-.6,.3l.7,.3l.3,.6l.3,-.6l.6,-.3l-.6,-.3Zm-10,-2.3l.8,-1.6l1.5,-.8L312.4,71l-.8,-1.5l-.8,1.6l-1.6,.8l1.6,.9Zm-8.2,4.5l.4,-.8l.8,-.4l-.8,-.5l-.4,-.7l-.4,.8l-.8,.4l.8,.4Zm-4.8,-1.4l.5,.3l.3,.5l.3,-.5l.5,-.3l-.5,-.3l-.3,-.5l-.3,.5Zm-1,-1.9l.6,-1.2l1.2,-.7L298.3,73l-.7,-1.1L297,73l-1.1,.7l1.1,.6Zm-4.8,2.9l.8,-1.6l1.5,-.9l-1.5,-.8l-.9,-1.5l-.8,1.5l-1.6,.9l1.6,.8Zm-50,-17.6l.7,-1.3l1.3,-.7l-1.3,-.7l-.8,-1.3l-.7,1.3l-1.3,.7l1.3,.7Zm-3.3,-5.9l-.5,1l-.9,.5l.9,.6l.6,.9l.5,-1l.9,-.5l-.9,-.5ZM263.8,60C261.4,52.9,250.3,41.8,205.5,37.8c0,0,11.7,1,26.4,5.9c-.1,.2,-.2,.5,-.2,.8c0,1.1,.9,2,2,2c.9,0,1.7,-.7,1.9,-1.5c9.2,3.3,19.2,8.1,28.2,15M238.4,48.9c0,-.2,-.1,-.3,-.3,-.3c-.2,0,-.3,.1,-.3,.3c0,.2,.1,.3,.3,.3c.2,0,.3,-.1,.3,-.3m-1.7,-1.3c0,-.3,-.2,-.5,-.5,-.5c-.2,0,-.5,.2,-.5,.5c0,.3,.3,.5,.6,.5c.2,0,.4,-.2,.4,-.5m-7.8,-3.2c0,-.5,-.4,-.8,-.9,-.8c-.4,0,-.8,.4,-.8,.8c0,.5,.4,.8,.9,.8c.4,0,.8,-.4,.8,-.8m-1.8,1.8c0,-.4,-.4,-.8,-.9,-.8c-.4,0,-.8,.4,-.8,.9c0,.4,.4,.8,.9,.8c.4,0,.8,-.4,.8,-.9m-3.9,-2.7c0,-.5,-.4,-.8,-.8,-.8c-.5,0,-.9,.3,-.9,.8c0,.5,.4,.8,.9,.8c.4,0,.8,-.4,.8,-.8m-3.9,-.3l-.7,-.4l-.4,-.7l-.4,.7l-.7,.4l.7,.4l.4,.7l.4,-.7Zm-3.7,1l-.8,-.4l-.4,-.7l-.3,.7l-.8,.4l.8,.4l.4,.7l.3,-.7Zm15.7,-4c0,0,-16.6,-8.2,-43,-5.8c0,0,-5.9,5.1,-14.6,5.7c0,0,-17.5,6.3,-26.2,15.1c0,0,4,-3.6,7.8,-2.5c0,0,37.1,-28.4,76,-12.5m-82,23.4c1.7,-1.7,12.2,-12,12.2,-12c0,0,-11.6,8.7,-19.1,9.7c-3.4,.5,-9.8,.1,-17.6,1c-4.7,2.4,-12,5.8,-12.3,4.9c-.1,-.6,.5,-1.6,1.3,-2.5c-6.9,2.1,-14.2,5.9,-20.9,12.4c0,0,-3.6,2.3,-2.7,2.9c.9,.5,1.8,1,1.8,1c0,0,-4.7,3.1,-3.4,5C89.9,87.9,101,79.7,101,79.7c0,0,-5,5.4,-9,8.2c-4.1,2.8,-3.9,7.2,-3.2,9.8c0,0,1.5,6.2,9.1,4.5l-.5,-.8l-1.5,-.8l1.5,-.8l.7,-1.5l.9,1.5l1.4,.7l-1.4,.8l-.4,.7c.5,-.2,.9,-.3,1.4,-.4c9.4,-3.5,21,-.8,26,.3c4.9,1,11.1,-6.2,14.2,-13.5c0,0,1.5,.2,3.5,-2.3c0,0,-1.6,3.9,-.6,5.5c1,1.5,3.4,.4,3.9,-.7l-1.1,-2.2c0,0,3.7,-1.9,6.1,-6.6c2.3,-4.7,0,-9.5,-1.8,-11.5c0,0,1.8,1.7,2.4,2.6c0,0,1.1,-8.4,5.5,-12.1c0,0,-8.1,5.1,-9.4,5.7c-1.3,.6,-1,-1.5,.6,-3.2m-8.7,34.1c-8.8,9.7,-17,5.9,-17,5.9c8.3,7.4,17,-5.9,17,-5.9M137.4,56.5c0,.4,.3,.7,.7,.7c.3,0,.6,-.3,.6,-.7c0,-.4,-.3,-.7,-.6,-.7c-.4,0,-.7,.3,-.7,.7M142,52.6c0,.6,.5,1,1,1c.6,0,1,-.5,1,-1c0,-.6,-.5,-1,-1,-1c-.6,0,-1,.5,-1,1m2,2c0,.3,.3,.6,.7,.6c.4,0,.7,-.3,.7,-.6c-.1,-.4,-.4,-.7,-.7,-.7c-.4,0,-.7,.3,-.7,.7m3.1,-3.1c-.5,0,-1,.5,-1,1c.1,.6,.5,1,1.1,1c.5,0,1,-.4,.9,-1c0,-.5,-.4,-1,-1,-1m-1.8,-2.7l1,.6l.6,1l.5,-1l1.1,-.6l-1.1,-.6l-.6,-1l-.5,1.1ZM289,87.1c-.4,-.4,-2.2,-1.2,-4.9,-2.5c1.8,3.9,3.2,8,4.3,12.5C287.2,93,285.5,88.6,282.8,84c-4.9,-2.4,-12,-5.9,-18.6,-10.7c7.5,5.9,19.2,15.8,18.1,19.7c0,0,-.6,-1.6,-1.7,-1.1c-1,.5,-4.2,4.4,-7.9,2.3c0,.1,-.1,.2,-.1,.3c0,-.1,.1,-.2,.1,-.3c-.5,-.2,-.9,-.6,-1.4,-1c0,0,.6,.3,1.5,.6C273.3,91,272.5,85.4,260.1,79c0,0,-4.2,-.5,-4.4,2.9c0,0,-13.2,-6.8,-14,-1.7c-.7,5,6.6,6.8,6.6,6.8l-14,.5c0,0,-1.2,-6.9,3.4,-12.9c0,0,-.2,3.1,2.6,2.2c2.8,-.9,8.8,-7.1,7.1,-11c0,0,6.1,2.2,9.5,5.2c3.2,2.8,18.6,13.6,15.9,22.8c1.8,.5,4.5,.7,5.1,-3C278.6,86.3,266.8,75.7,261,70.9c-.2,-.1,-.4,-.2,-.5,-.4c-.3,-.2,-.6,-.4,-.8,-.6c.1,.1,.2,.2,.3,.3c-3.7,-3.1,-7.1,-6.5,-9.7,-10.4c0,0,12,11.8,27.9,17.6C274.7,73.1,270.3,68.9,264.7,65c-.2,.5,-.5,.9,-.8,1.3c0,0,.2,-.6,.3,-1.6C251.6,56.2,233,49.4,205.6,47.2c0,0,-24.4,-.6,-23.1,11.6c0,0,-.4,3.4,4.8,4.9c0,0,-5.4,-.2,-8.7,-1c0,0,.7,-1.6,-.8,-1.6c-1.5,0,-21.4,12.9,-20.5,22.2c0,0,5.1,0,9.8,-9.4c0,0,-2.3,6.8,-3.6,9.9c0,0,-6.4,2.3,-7.9,7.7c-1.4,5.4,-2.8,7.6,-2.8,7.6c0,0,-23.4,19.7,-43.8,22.1c0,0,-9,1.2,-15.4,-3l3.7,-.1c0,0,-14.1,-2.3,-20.1,-11C71.1,98.3,64.8,79.4,67,67.4c0,0,1.4,10.9,5.5,16.9c0,0,3.9,-34.9,33.4,-54.9c0,0,-8,9.6,-7.8,13.6c0,0,-3.2,-.9,-6.9,6.4c-3.7,7.2,-3.4,19.8,6.6,18.5c10,-1.2,12.4,-11.7,10.7,-17.3c0,0,1.8,4.5,5.9,3.2c4,-1.3,7.8,-4.8,7.8,-4.8c0,0,-2.3,8.9,13.2,5.1L131,53.6c0,0,22.5,-17.1,35.5,-22.3c0,0,-11,6.2,-18.1,12.1c0,0,35.3,-20.9,70.8,-13c1,.2,2,.5,2.9,.7H222c0,0,.3,0,.8,.2c1,.2,1.9,.5,2.8,.7c6,1.6,18,4.3,24.1,3c0,0,-5.3,1.9,-4.6,3.7c.7,1.8,11.6,5.6,11.6,5.6c0,0,-3.1,1,-.2,3.9h-.1c5,4.6,7.9,9.1,8.6,12.7c5.9,4.8,11.3,10.5,15.6,17.3c13,4.1,28.2,3.8,41.4,-10.1c0,0,-6.6,8.9,-6.1,10.8c.5,1.9,5.1,2.2,5.1,2.2l1.3,2.7c0,0,-11.1,-5.7,-21.5,1c0,0,.8,2,6.6,.9c0,0,-.9,.6,-4.5,1.2c-3.7,.6,-6.8,1.2,-2.4,5.6c0,0,-4.8,-.9,-12.9,-3.7c0,0,3.2,-.1,1.4,-1.7M258.1,68.7c.3,.3,.9,.7,1.6,1.2c-1,-.7,-1.6,-1.2,-1.6,-1.2Z" class="g4"/>
<path d="M102,69.3c0,0,-10,7.1,-7.2,9.6c2.7,2.4,7,-2.2,7,-2.2c0,0,-1.3,3.3,0,3.7c1.3,.5,6.1,-4.7,14.1,-2.4c0,0,-7.3,.3,-5.7,4.8L84.6,84.4l.3,-6.7c0,0,10,-8.1,17.1,-8.4Z" class="g4"/>
<path d="M137.9,81.4c0,0,5.6,.1,7.7,-4c0,0,.6,1.7,2.3,1.2c1.7,-.5,3.9,-3.2,2.8,-5.8c0,0,2,3,.4,6.1c0,0,-2.5,1.3,-2.4,2.9Z" class="g4"/>
<path d="M94.3,78.2c0,0,-1.4,-3,1.2,-7.7c0,0,-1.6,4.5,.6,5.5Z" class="g2"/>
<path d="M124.8,62.3L132,57.7L125.8,63Z" class="g2"/>
<path d="M396.3,59.5V171.4c1.6,-3.8,3.2,-5.4,3.2,-5.4V64.9c0,0,-1.6,-1.6,-3.2,-5.4Z" class="g2"/>
<path d="M396.3,59.5V171.4c1.6,-3.8,3.2,-5.4,3.2,-5.4V64.9c0,0,-1.6,-1.6,-3.2,-5.4Z" class="g5"/>
<path d="M47.8,99.3v57.3L102,149.5V92.2Z" class="g2"/>
<path d="M47.8,99.3v57.3L102,149.5V92.2L47.8,99.3Z" class="g6"/>
<path d="M49,152.3l53,-7.5M49,103.1l53,-6.7" class="g7"/>
<path d="M102,92.2L65,86.7V144l37,5.5Z" class="g8"/>
<path d="M102,92.2L65,86.7V144l37,5.5V92.2Z" class="g6"/>
<path d="M399.7,144C305.3,161.2,159.4,126.9,65,144V86.7c94.4,-17.1,240.3,17.2,334.7,0Z" class="g2"/>
<path d="M401,138.5c0,0,-31.3,13.2,-175.2,.5C124.2,130,73.5,137.9,65.6,139.3M399.7,91.2c0,0,-30.4,12.3,-174.2,-.4C123.8,81.8,73.1,89.7,65.3,91" class="g7"/>
<path d="M399.7,144C305.3,161.2,159.4,126.9,65,144V86.7c94.4,-17.1,240.3,17.2,334.7,0V144Zm479,-54.9v58.2c22.2,-.1,25.1,0,28.9,-4.9V85.1c-7.1,3.8,-14.5,3.9,-28.9,4Z" class="g6"/>
<path d="M877.7,93.4c24.8,-.1,27.1,-1.8,29.3,-3.5m-28.3,52.7c29.9,3.4,27.4,-5.5,28.7,-5.8" class="g7"/>
<path d="M879.1,161.8H399.5V69.1H879.1v92.7Z" class="g1"/>
<path d="M879.1,161.8H399.5V69.1H879.1v92.7ZM399.5,81.2c0,0,1.7,-15.8,12.9,-15.8H446c0,0,10.9,3.7,31.3,3.7m-77.8,80.6c0,0,1.7,15.8,12.9,15.8H446c0,0,10.9,-3.7,31.3,-3.7M879.1,81.2c0,0,-1.6,-15.8,-12.8,-15.8H832.6c0,0,-10.9,3.7,-31.3,3.7m77.8,80.6c0,0,-1.6,15.8,-12.8,15.8H832.7c0,0,-11,-3.7,-31.4,-3.7" class="g5"/>
<path d="M845.6,69.1c-7.9,1.4,-17.5,3,-26.2,3H459.3c-8.8,0,-18.4,-1.6,-26.3,-3m0,92.7c7.9,-1.4,17.5,-3,26.3,-3H819.4c8.7,0,18.3,1.6,26.2,3" class="g7"/>
<path d="M882.3,59.5V171.4c-1.6,-3.8,-3.2,-5.4,-3.2,-5.4V64.9c0,0,1.6,-1.6,3.2,-5.4Z" class="g2"/>
<path d="M882.3,59.5V171.4c-1.6,-3.8,-3.2,-5.4,-3.2,-5.4V64.9c0,0,1.6,-1.6,3.2,-5.4Z" class="g5"/>
<path d="M530.1,79.4h-94l-9.7,12.2v25.3l9.7,12.2h94l9.7,-12.2V91.6Z" class="g2"/>
<path d="M530.1,79.4h-94l-9.7,12.2v25.3l9.7,12.2h94l9.7,-12.2V91.6L530.1,79.4Z" class="g6"/>
<path d="M429.3,87.9v33.2m0,-4.7l10.3,12.7m0,-49.7L429.3,92.1" class="g9"/>
<path d="M427.9,104.3c0,.8,.6,1.4,1.4,1.4c.8,0,1.5,-.6,1.5,-1.4c0,-.8,-.7,-1.5,-1.5,-1.5c-.8,0,-1.4,.7,-1.4,1.5Z" class="g4"/>
<path d="M538.3,104.3c0,.8,-.6,1.4,-1.4,1.4c-.8,0,-1.5,-.6,-1.5,-1.4c0,-.8,.7,-1.5,1.5,-1.5c.8,0,1.4,.7,1.4,1.5Z" class="g4"/>
<path d="M536.9,87.9v33.2m0,-4.7l-10.3,12.7m0,-49.7l10.3,12.7" class="g9"/>
<path d="M684,79.4H589.9l-9.6,12.2v25.3l9.6,12.2H684l9.6,-12.2V91.6Z" class="g2"/>
<path d="M684,79.4H589.9l-9.6,12.2v25.3l9.6,12.2H684l9.6,-12.2V91.6L684,79.4Z" class="g6"/>
<path d="M583.2,87.9v33.2m0,-4.7l10.2,12.7m0,-49.7L583.2,92.1" class="g9"/>
<path d="M581.7,104.3c0,.8,.7,1.4,1.5,1.4c.8,0,1.4,-.6,1.4,-1.4c0,-.8,-.6,-1.5,-1.4,-1.5c-.8,0,-1.5,.7,-1.5,1.5Z" class="g4"/>
<path d="M692.2,104.3c0,.8,-.7,1.4,-1.5,1.4c-.8,0,-1.4,-.6,-1.4,-1.4c0,-.8,.6,-1.5,1.4,-1.5c.8,0,1.5,.7,1.5,1.5Z" class="g4"/>
<path d="M690.7,87.9v33.2m0,-4.7l-10.2,12.7m0,-49.7l10.2,12.7" class="g9"/>
<path d="M842.5,79.4h-94l-9.7,12.2v25.3l9.7,12.2h94l9.7,-12.2V91.6Z" class="g2"/>
<path d="M842.5,79.4h-94l-9.7,12.2v25.3l9.7,12.2h94l9.7,-12.2V91.6L842.5,79.4Z" class="g6"/>
<path d="M741.8,87.9v33.2m0,-4.7L752,129.1m0,-49.7L741.8,92.1" class="g9"/>
<path d="M740.3,104.3c0,.8,.7,1.4,1.5,1.4c.8,0,1.4,-.6,1.4,-1.4c0,-.8,-.6,-1.5,-1.4,-1.5c-.8,0,-1.5,.7,-1.5,1.5Z" class="g4"/>
<path d="M850.8,104.3c0,.8,-.7,1.4,-1.5,1.4c-.8,0,-1.4,-.6,-1.4,-1.4c0,-.8,.6,-1.5,1.4,-1.5c.8,0,1.5,.7,1.5,1.5Z" class="g4"/>
<path d="M849.3,87.9v33.2m0,-4.7L839,129.1m.1,-49.7l10.2,12.7" class="g9"/>
<path d="M310.7,282H48.9m261.8,21.3H48.9m261.8,21.4H48.9m261.8,21.4H48.9m261.8,21.4H48.9m261.8,21.4H48.9m261.8,21.4H48.9m261.8,21.4H48.9" class="ga"/>
<path d="M54,542.9c2.5,0,4.6,-2,4.6,-4.5c0,-2.5,-2.1,-4.5,-4.6,-4.5c-2.5,0,-4.5,2,-4.5,4.5c0,2.5,2,4.5,4.5,4.5Z" class="g2"/>
<path d="M54,543.5c-2.8,0,-5.1,-2.3,-5.1,-5.1c0,-2.8,2.3,-5.1,5.1,-5.1c2.8,0,5.1,2.3,5.1,5.1c0,2.8,-2.3,5.1,-5.1,5.1m0,-9.1c-2.2,0,-4,1.8,-4,4c0,2.2,1.8,4,4,4c2.2,0,4,-1.8,4,-4c0,-2.2,-1.8,-4,-4,-4Z" class="g4"/>
<path d="M61.8,543.3h249" class="ga"/>
<path d="M54,564.3c2.5,0,4.6,-2,4.6,-4.5c0,-2.5,-2.1,-4.5,-4.6,-4.5c-2.5,0,-4.5,2,-4.5,4.5c0,2.5,2,4.5,4.5,4.5Z" class="g2"/>
<path d="M54,564.9c-2.8,0,-5.1,-2.3,-5.1,-5.1c0,-2.8,2.3,-5.1,5.1,-5.1c2.8,0,5.1,2.3,5.1,5.1c0,2.8,-2.3,5.1,-5.1,5.1m0,-9.1c-2.2,0,-4,1.8,-4,4c0,2.2,1.8,4,4,4c2.2,0,4,-1.8,4,-4c0,-2.2,-1.8,-4,-4,-4Z" class="g4"/>
<path d="M61.8,564.7h249" class="ga"/>
<path d="M54,585.7c2.5,0,4.6,-2,4.6,-4.5c0,-2.5,-2.1,-4.6,-4.6,-4.6c-2.5,0,-4.5,2.1,-4.5,4.6c0,2.5,2,4.5,4.5,4.5Z" class="g2"/>
<path d="M54,586.3c-2.8,0,-5.1,-2.3,-5.1,-5.1c0,-2.8,2.3,-5.1,5.1,-5.1c2.8,0,5.1,2.3,5.1,5.1c0,2.8,-2.3,5.1,-5.1,5.1m0,-9.1c-2.2,0,-4,1.8,-4,4c0,2.2,1.8,4,4,4c2.2,0,4,-1.8,4,-4c0,-2.2,-1.8,-4,-4,-4Z" class="g4"/>
<path d="M61.8,586.1h249" class="ga"/>
<path d="M54,607.1c2.5,0,4.6,-2,4.6,-4.5C58.6,600.1,56.5,598,54,598c-2.5,0,-4.5,2.1,-4.5,4.6c0,2.5,2,4.5,4.5,4.5Z" class="g2"/>
<path d="M54,607.7c-2.8,0,-5.1,-2.3,-5.1,-5.1c0,-2.8,2.3,-5.1,5.1,-5.1c2.8,0,5.1,2.3,5.1,5.1c0,2.8,-2.3,5.1,-5.1,5.1m0,-9.1c-2.2,0,-4,1.8,-4,4c0,2.2,1.8,4,4,4c2.2,0,4,-1.8,4,-4c0,-2.2,-1.8,-4,-4,-4Z" class="g4"/>
<path d="M61.8,607.5h249" class="ga"/>
<path d="M54,628.5c2.5,0,4.6,-2,4.6,-4.5c0,-2.6,-2.1,-4.6,-4.6,-4.6c-2.5,0,-4.5,2,-4.5,4.6c0,2.5,2,4.5,4.5,4.5Z" class="g2"/>
<path d="M54,629c-2.8,0,-5.1,-2.2,-5.1,-5c0,-2.8,2.3,-5.1,5.1,-5.1c2.8,0,5.1,2.3,5.1,5.1c0,2.8,-2.3,5,-5.1,5m0,-9c-2.2,0,-4,1.8,-4,4c0,2.2,1.8,3.9,4,3.9c2.2,0,4,-1.7,4,-3.9c0,-2.2,-1.8,-4,-4,-4Z" class="g4"/>
<path d="M61.8,628.9h249" class="ga"/>
<path d="M54,649.9c2.5,0,4.6,-2,4.6,-4.6c0,-2.5,-2.1,-4.5,-4.6,-4.5c-2.5,0,-4.5,2,-4.5,4.5c0,2.6,2,4.6,4.5,4.6Z" class="g2"/>
<path d="M54,650.4c-2.8,0,-5.1,-2.2,-5.1,-5.1c0,-2.8,2.3,-5,5.1,-5c2.8,0,5.1,2.2,5.1,5c0,2.9,-2.3,5.1,-5.1,5.1m0,-9c-2.2,0,-4,1.7,-4,3.9c0,2.2,1.8,4,4,4c2.2,0,4,-1.8,4,-4c0,-2.2,-1.8,-3.9,-4,-3.9Z" class="g4"/>
<path d="M61.8,650.2h249" class="ga"/>
<path d="M54,671.3c2.5,0,4.6,-2.1,4.6,-4.6c0,-2.5,-2.1,-4.5,-4.6,-4.5c-2.5,0,-4.5,2,-4.5,4.5c0,2.5,2,4.6,4.5,4.6Z" class="g2"/>
<path d="M54,671.8c-2.8,0,-5.1,-2.3,-5.1,-5.1c0,-2.8,2.3,-5.1,5.1,-5.1c2.8,0,5.1,2.3,5.1,5.1c0,2.8,-2.3,5.1,-5.1,5.1m0,-9.1c-2.2,0,-4,1.8,-4,4c0,2.2,1.8,4,4,4c2.2,0,4,-1.8,4,-4c0,-2.2,-1.8,-4,-4,-4Z" class="g4"/>
<path d="M61.8,671.6h249" class="ga"/>
<path d="M54,692.7c2.5,0,4.6,-2.1,4.6,-4.6c0,-2.5,-2.1,-4.5,-4.6,-4.5c-2.5,0,-4.5,2,-4.5,4.5c0,2.5,2,4.6,4.5,4.6Z" class="g2"/>
<path d="M54,693.2c-2.8,0,-5.1,-2.3,-5.1,-5.1c0,-2.8,2.3,-5.1,5.1,-5.1c2.8,0,5.1,2.3,5.1,5.1c0,2.8,-2.3,5.1,-5.1,5.1m0,-9.1c-2.2,0,-4,1.8,-4,4c0,2.2,1.8,4,4,4c2.2,0,4,-1.8,4,-4c0,-2.2,-1.8,-4,-4,-4Z" class="g4"/>
<path d="M61.8,693h249" class="ga"/>
<path d="M54,714.1c2.5,0,4.6,-2.1,4.6,-4.6C58.6,707,56.5,705,54,705c-2.5,0,-4.5,2,-4.5,4.5c0,2.5,2,4.6,4.5,4.6Z" class="g2"/>
<path d="M54,714.6c-2.8,0,-5.1,-2.3,-5.1,-5.1c0,-2.8,2.3,-5.1,5.1,-5.1c2.8,0,5.1,2.3,5.1,5.1c0,2.8,-2.3,5.1,-5.1,5.1m0,-9.1c-2.2,0,-4,1.8,-4,4c0,2.2,1.8,4,4,4c2.2,0,4,-1.8,4,-4c0,-2.2,-1.8,-4,-4,-4Z" class="g4"/>
<path d="M61.8,714.4h249" class="ga"/>
<path d="M54,735.4c2.5,0,4.6,-2,4.6,-4.5c0,-2.5,-2.1,-4.5,-4.6,-4.5c-2.5,0,-4.5,2,-4.5,4.5c0,2.5,2,4.5,4.5,4.5Z" class="g2"/>
<path d="M54,736c-2.8,0,-5.1,-2.3,-5.1,-5.1c0,-2.8,2.3,-5.1,5.1,-5.1c2.8,0,5.1,2.3,5.1,5.1c0,2.8,-2.3,5.1,-5.1,5.1m0,-9.1c-2.2,0,-4,1.8,-4,4c0,2.2,1.8,4,4,4c2.2,0,4,-1.8,4,-4c0,-2.2,-1.8,-4,-4,-4Z" class="g4"/>
<path d="M61.8,735.8h249" class="ga"/>
<path d="M54,756.8c2.5,0,4.6,-2,4.6,-4.5c0,-2.5,-2.1,-4.5,-4.6,-4.5c-2.5,0,-4.5,2,-4.5,4.5c0,2.5,2,4.5,4.5,4.5Z" class="g2"/>
<path d="M54,757.4c-2.8,0,-5.1,-2.3,-5.1,-5.1c0,-2.8,2.3,-5.1,5.1,-5.1c2.8,0,5.1,2.3,5.1,5.1c0,2.8,-2.3,5.1,-5.1,5.1m0,-9.1c-2.2,0,-4,1.8,-4,4c0,2.2,1.8,4,4,4c2.2,0,4,-1.8,4,-4c0,-2.2,-1.8,-4,-4,-4Z" class="g4"/>
<path d="M61.8,757.2h249" class="ga"/>
<path d="M54,778.2c2.5,0,4.6,-2,4.6,-4.5c0,-2.5,-2.1,-4.6,-4.6,-4.6c-2.5,0,-4.5,2.1,-4.5,4.6c0,2.5,2,4.5,4.5,4.5Z" class="g2"/>
<path d="M54,778.8c-2.8,0,-5.1,-2.3,-5.1,-5.1c0,-2.8,2.3,-5.1,5.1,-5.1c2.8,0,5.1,2.3,5.1,5.1c0,2.8,-2.3,5.1,-5.1,5.1m0,-9.1c-2.2,0,-4,1.8,-4,4c0,2.2,1.8,4,4,4c2.2,0,4,-1.8,4,-4c0,-2.2,-1.8,-4,-4,-4Z" class="g4"/>
<path d="M61.8,778.6h249" class="ga"/>
<path d="M54,799.6c2.5,0,4.6,-2,4.6,-4.5c0,-2.5,-2.1,-4.6,-4.6,-4.6c-2.5,0,-4.5,2.1,-4.5,4.6c0,2.5,2,4.5,4.5,4.5Z" class="g2"/>
<path d="M54,800.2c-2.8,0,-5.1,-2.3,-5.1,-5.1c0,-2.8,2.3,-5.1,5.1,-5.1c2.8,0,5.1,2.3,5.1,5.1c0,2.8,-2.3,5.1,-5.1,5.1m0,-9.1c-2.2,0,-4,1.8,-4,4c0,2.2,1.8,4,4,4c2.2,0,4,-1.8,4,-4c0,-2.2,-1.8,-4,-4,-4Z" class="g4"/>
<path d="M61.8,800h249" class="ga"/>
<path d="M54,889.1c2.5,0,4.6,-2,4.6,-4.6C58.6,882,56.5,880,54,880c-2.5,0,-4.5,2,-4.5,4.5c0,2.6,2,4.6,4.5,4.6Z" class="g2"/>
<path d="M54,889.6c-2.8,0,-5.1,-2.2,-5.1,-5.1c0,-2.8,2.3,-5,5.1,-5c2.8,0,5.1,2.2,5.1,5c0,2.9,-2.3,5.1,-5.1,5.1m0,-9c-2.2,0,-4,1.7,-4,3.9c0,2.3,1.8,4,4,4c2.2,0,4,-1.7,4,-4c0,-2.2,-1.8,-3.9,-4,-3.9Z" class="g4"/>
<path d="M61.8,889.4h249" class="ga"/>
<path d="M54,910.5c2.5,0,4.6,-2.1,4.6,-4.6c0,-2.5,-2.1,-4.5,-4.6,-4.5c-2.5,0,-4.5,2,-4.5,4.5c0,2.5,2,4.6,4.5,4.6Z" class="g2"/>
<path d="M54,911c-2.8,0,-5.1,-2.3,-5.1,-5.1c0,-2.8,2.3,-5,5.1,-5c2.8,0,5.1,2.2,5.1,5c0,2.8,-2.3,5.1,-5.1,5.1m0,-9.1c-2.2,0,-4,1.8,-4,4c0,2.2,1.8,4,4,4c2.2,0,4,-1.8,4,-4c0,-2.2,-1.8,-4,-4,-4Z" class="g4"/>
<path d="M61.8,910.8h249" class="ga"/>
<path d="M54,931.9c2.5,0,4.6,-2.1,4.6,-4.6c0,-2.5,-2.1,-4.5,-4.6,-4.5c-2.5,0,-4.5,2,-4.5,4.5c0,2.5,2,4.6,4.5,4.6Z" class="g2"/>
<path d="M54,932.4c-2.8,0,-5.1,-2.3,-5.1,-5.1c0,-2.8,2.3,-5.1,5.1,-5.1c2.8,0,5.1,2.3,5.1,5.1c0,2.8,-2.3,5.1,-5.1,5.1m0,-9.1c-2.2,0,-4,1.8,-4,4c0,2.2,1.8,4,4,4c2.2,0,4,-1.8,4,-4c0,-2.2,-1.8,-4,-4,-4Z" class="g4"/>
<path d="M61.8,932.2h249" class="ga"/>
<path d="M54,953.3c2.5,0,4.6,-2.1,4.6,-4.6c0,-2.5,-2.1,-4.5,-4.6,-4.5c-2.5,0,-4.5,2,-4.5,4.5c0,2.5,2,4.6,4.5,4.6Z" class="g2"/>
<path d="M54,953.8c-2.8,0,-5.1,-2.3,-5.1,-5.1c0,-2.8,2.3,-5.1,5.1,-5.1c2.8,0,5.1,2.3,5.1,5.1c0,2.8,-2.3,5.1,-5.1,5.1m0,-9.1c-2.2,0,-4,1.8,-4,4c0,2.2,1.8,4,4,4c2.2,0,4,-1.8,4,-4c0,-2.2,-1.8,-4,-4,-4Z" class="g4"/>
<path d="M61.8,953.6h249" class="ga"/>
<path d="M54,974.6c2.5,0,4.6,-2,4.6,-4.5c0,-2.5,-2.1,-4.5,-4.6,-4.5c-2.5,0,-4.5,2,-4.5,4.5c0,2.5,2,4.5,4.5,4.5Z" class="g2"/>
<path d="M54,975.2c-2.8,0,-5.1,-2.3,-5.1,-5.1c0,-2.8,2.3,-5.1,5.1,-5.1c2.8,0,5.1,2.3,5.1,5.1c0,2.8,-2.3,5.1,-5.1,5.1m0,-9.1c-2.2,0,-4,1.8,-4,4c0,2.2,1.8,4,4,4c2.2,0,4,-1.8,4,-4c0,-2.2,-1.8,-4,-4,-4Z" class="g4"/>
<path d="M61.8,975h249" class="ga"/>
<path d="M54,996c2.5,0,4.6,-2,4.6,-4.5C58.6,989,56.5,987,54,987c-2.5,0,-4.5,2,-4.5,4.5c0,2.5,2,4.5,4.5,4.5Z" class="g2"/>
<path d="M54,996.6c-2.8,0,-5.1,-2.3,-5.1,-5.1c0,-2.8,2.3,-5.1,5.1,-5.1c2.8,0,5.1,2.3,5.1,5.1c0,2.8,-2.3,5.1,-5.1,5.1m0,-9.1c-2.2,0,-4,1.8,-4,4c0,2.2,1.8,4,4,4c2.2,0,4,-1.8,4,-4c0,-2.2,-1.8,-4,-4,-4Z" class="g4"/>
<path d="M61.8,996.4h249" class="ga"/>
<path d="M54,1017.4c2.5,0,4.6,-2,4.6,-4.5c0,-2.5,-2.1,-4.6,-4.6,-4.6c-2.5,0,-4.5,2.1,-4.5,4.6c0,2.5,2,4.5,4.5,4.5Z" class="g2"/>
<path d="M54,1018c-2.8,0,-5.1,-2.3,-5.1,-5.1c0,-2.8,2.3,-5.1,5.1,-5.1c2.8,0,5.1,2.3,5.1,5.1c0,2.8,-2.3,5.1,-5.1,5.1m0,-9.1c-2.2,0,-4,1.8,-4,4c0,2.2,1.8,4,4,4c2.2,0,4,-1.8,4,-4c0,-2.2,-1.8,-4,-4,-4Z" class="g4"/>
<path d="M61.8,1017.8h249" class="ga"/>
<path d="M54,1038.8c2.5,0,4.6,-2,4.6,-4.5c0,-2.5,-2.1,-4.6,-4.6,-4.6c-2.5,0,-4.5,2.1,-4.5,4.6c0,2.5,2,4.5,4.5,4.5Z" class="g2"/>
<path d="M54,1039.4c-2.8,0,-5.1,-2.3,-5.1,-5.1c0,-2.8,2.3,-5.1,5.1,-5.1c2.8,0,5.1,2.3,5.1,5.1c0,2.8,-2.3,5.1,-5.1,5.1m0,-9.1c-2.2,0,-4,1.8,-4,4c0,2.2,1.8,4,4,4c2.2,0,4,-1.8,4,-4c0,-2.2,-1.8,-4,-4,-4Z" class="g4"/>
<path d="M61.8,1039.2h249" class="ga"/>
<path d="M54,1060.2c2.5,0,4.6,-2,4.6,-4.5c0,-2.5,-2.1,-4.6,-4.6,-4.6c-2.5,0,-4.5,2.1,-4.5,4.6c0,2.5,2,4.5,4.5,4.5Z" class="g2"/>
<path d="M54,1060.7c-2.8,0,-5.1,-2.2,-5.1,-5c0,-2.8,2.3,-5.1,5.1,-5.1c2.8,0,5.1,2.3,5.1,5.1c0,2.8,-2.3,5,-5.1,5m0,-9c-2.2,0,-4,1.8,-4,4c0,2.2,1.8,4,4,4c2.2,0,4,-1.8,4,-4c0,-2.2,-1.8,-4,-4,-4Z" class="g4"/>
<path d="M61.8,1060.6h249" class="ga"/>
<path d="M54,1081.6c2.5,0,4.6,-2,4.6,-4.6c0,-2.5,-2.1,-4.5,-4.6,-4.5c-2.5,0,-4.5,2,-4.5,4.5c0,2.6,2,4.6,4.5,4.6Z" class="g2"/>
<path d="M54,1082.1c-2.8,0,-5.1,-2.2,-5.1,-5.1c0,-2.8,2.3,-5,5.1,-5c2.8,0,5.1,2.2,5.1,5c0,2.9,-2.3,5.1,-5.1,5.1m0,-9c-2.2,0,-4,1.7,-4,3.9c0,2.3,1.8,4,4,4c2.2,0,4,-1.7,4,-4c0,-2.2,-1.8,-3.9,-4,-3.9Z" class="g4"/>
<path d="M61.8,1081.9h249" class="ga"/>
<path d="M54,1103c2.5,0,4.6,-2.1,4.6,-4.6c0,-2.5,-2.1,-4.5,-4.6,-4.5c-2.5,0,-4.5,2,-4.5,4.5c0,2.5,2,4.6,4.5,4.6Z" class="g2"/>
<path d="M54,1103.5c-2.8,0,-5.1,-2.3,-5.1,-5.1c0,-2.8,2.3,-5,5.1,-5c2.8,0,5.1,2.2,5.1,5c0,2.8,-2.3,5.1,-5.1,5.1m0,-9.1c-2.2,0,-4,1.8,-4,4c0,2.2,1.8,4,4,4c2.2,0,4,-1.8,4,-4c0,-2.2,-1.8,-4,-4,-4Z" class="g4"/>
<path d="M61.8,1103.3h249" class="ga"/>
<path d="M54,1124.4c2.5,0,4.6,-2.1,4.6,-4.6c0,-2.5,-2.1,-4.5,-4.6,-4.5c-2.5,0,-4.5,2,-4.5,4.5c0,2.5,2,4.6,4.5,4.6Z" class="g2"/>
<path d="M54,1124.9c-2.8,0,-5.1,-2.3,-5.1,-5.1c0,-2.8,2.3,-5.1,5.1,-5.1c2.8,0,5.1,2.3,5.1,5.1c0,2.8,-2.3,5.1,-5.1,5.1m0,-9.1c-2.2,0,-4,1.8,-4,4c0,2.2,1.8,4,4,4c2.2,0,4,-1.8,4,-4c0,-2.2,-1.8,-4,-4,-4Z" class="g4"/>
<path d="M61.8,1124.7h249" class="ga"/>
<path d="M54,1145.8c2.5,0,4.6,-2.1,4.6,-4.6c0,-2.5,-2.1,-4.5,-4.6,-4.5c-2.5,0,-4.5,2,-4.5,4.5c0,2.5,2,4.6,4.5,4.6Z" class="g2"/>
<path d="M54,1146.3c-2.8,0,-5.1,-2.3,-5.1,-5.1c0,-2.8,2.3,-5.1,5.1,-5.1c2.8,0,5.1,2.3,5.1,5.1c0,2.8,-2.3,5.1,-5.1,5.1m0,-9.1c-2.2,0,-4,1.8,-4,4c0,2.2,1.8,4,4,4c2.2,0,4,-1.8,4,-4c0,-2.2,-1.8,-4,-4,-4Z" class="g4"/>
<path d="M61.8,1146.1h249" class="ga"/>
<path d="M342.8,283.6c2.5,0,4.5,-2,4.5,-4.5c0,-2.5,-2,-4.5,-4.5,-4.5c-2.5,0,-4.6,2,-4.6,4.5c0,2.5,2.1,4.5,4.6,4.5Z" class="g2"/>
<path d="M342.8,284.2c-2.8,0,-5.1,-2.3,-5.1,-5.1c0,-2.8,2.3,-5.1,5.1,-5.1c2.8,0,5.1,2.3,5.1,5.1c0,2.8,-2.3,5.1,-5.1,5.1m0,-9.1c-2.2,0,-4,1.8,-4,4c0,2.2,1.8,4,4,4c2.2,0,4,-1.8,4,-4c0,-2.2,-1.8,-4,-4,-4Z" class="g4"/>
<path d="M350.5,284H599.6" class="ga"/>
<path d="M342.8,305c2.5,0,4.5,-2,4.5,-4.5c0,-2.5,-2,-4.6,-4.5,-4.6c-2.5,0,-4.6,2.1,-4.6,4.6c0,2.5,2.1,4.5,4.6,4.5Z" class="g2"/>
<path d="M342.8,305.6c-2.8,0,-5.1,-2.3,-5.1,-5.1c0,-2.8,2.3,-5.1,5.1,-5.1c2.8,0,5.1,2.3,5.1,5.1c0,2.8,-2.3,5.1,-5.1,5.1m0,-9.1c-2.2,0,-4,1.8,-4,4c0,2.2,1.8,4,4,4c2.2,0,4,-1.8,4,-4c0,-2.2,-1.8,-4,-4,-4Z" class="g4"/>
<path d="M350.5,305.4H599.6" class="ga"/>
<path d="M342.8,326.4c2.5,0,4.5,-2,4.5,-4.5c0,-2.5,-2,-4.6,-4.5,-4.6c-2.5,0,-4.6,2.1,-4.6,4.6c0,2.5,2.1,4.5,4.6,4.5Z" class="g2"/>
<path d="M342.8,327c-2.8,0,-5.1,-2.3,-5.1,-5.1c0,-2.8,2.3,-5.1,5.1,-5.1c2.8,0,5.1,2.3,5.1,5.1c0,2.8,-2.3,5.1,-5.1,5.1m0,-9.1c-2.2,0,-4,1.8,-4,4c0,2.2,1.8,4,4,4c2.2,0,4,-1.8,4,-4c0,-2.2,-1.8,-4,-4,-4Z" class="g4"/>
<path d="M350.5,326.8H599.6" class="ga"/>
<path d="M342.8,347.8c2.5,0,4.5,-2,4.5,-4.5c0,-2.6,-2,-4.6,-4.5,-4.6c-2.5,0,-4.6,2,-4.6,4.6c0,2.5,2.1,4.5,4.6,4.5Z" class="g2"/>
<path d="M342.8,348.3c-2.8,0,-5.1,-2.2,-5.1,-5c0,-2.8,2.3,-5.1,5.1,-5.1c2.8,0,5.1,2.3,5.1,5.1c0,2.8,-2.3,5,-5.1,5m0,-9c-2.2,0,-4,1.8,-4,4c0,2.2,1.8,3.9,4,3.9c2.2,0,4,-1.7,4,-3.9c0,-2.2,-1.8,-4,-4,-4Z" class="g4"/>
<path d="M350.5,348.2H599.6" class="ga"/>
<path d="M342.8,369.2c2.5,0,4.5,-2,4.5,-4.6c0,-2.5,-2,-4.5,-4.5,-4.5c-2.5,0,-4.6,2,-4.6,4.5c0,2.6,2.1,4.6,4.6,4.6Z" class="g2"/>
<path d="M342.8,369.7c-2.8,0,-5.1,-2.3,-5.1,-5.1c0,-2.8,2.3,-5,5.1,-5c2.8,0,5.1,2.2,5.1,5c0,2.8,-2.3,5.1,-5.1,5.1m0,-9c-2.2,0,-4,1.7,-4,3.9c0,2.2,1.8,4,4,4c2.2,0,4,-1.8,4,-4c0,-2.2,-1.8,-3.9,-4,-3.9Z" class="g4"/>
<path d="M350.5,369.5H599.6" class="ga"/>
<path d="M342.8,390.6c2.5,0,4.5,-2.1,4.5,-4.6c0,-2.5,-2,-4.5,-4.5,-4.5c-2.5,0,-4.6,2,-4.6,4.5c0,2.5,2.1,4.6,4.6,4.6Z" class="g2"/>
<path d="M342.8,391.1c-2.8,0,-5.1,-2.3,-5.1,-5.1c0,-2.8,2.3,-5.1,5.1,-5.1c2.8,0,5.1,2.3,5.1,5.1c0,2.8,-2.3,5.1,-5.1,5.1m0,-9.1c-2.2,0,-4,1.8,-4,4c0,2.2,1.8,4,4,4c2.2,0,4,-1.8,4,-4c0,-2.2,-1.8,-4,-4,-4Z" class="g4"/>
<path d="M350.5,390.9H599.6" class="ga"/>
<path d="M342.8,412c2.5,0,4.5,-2.1,4.5,-4.6c0,-2.5,-2,-4.5,-4.5,-4.5c-2.5,0,-4.6,2,-4.6,4.5c0,2.5,2.1,4.6,4.6,4.6Z" class="g2"/>
<path d="M342.8,412.5c-2.8,0,-5.1,-2.3,-5.1,-5.1c0,-2.8,2.3,-5.1,5.1,-5.1c2.8,0,5.1,2.3,5.1,5.1c0,2.8,-2.3,5.1,-5.1,5.1m0,-9.1c-2.2,0,-4,1.8,-4,4c0,2.2,1.8,4,4,4c2.2,0,4,-1.8,4,-4c0,-2.2,-1.8,-4,-4,-4Z" class="g4"/>
<path d="M350.5,412.3H599.6" class="ga"/>
<path d="M342.8,433.3c2.5,0,4.5,-2,4.5,-4.5c0,-2.5,-2,-4.5,-4.5,-4.5c-2.5,0,-4.6,2,-4.6,4.5c0,2.5,2.1,4.5,4.6,4.5Z" class="g2"/>
<path d="M342.8,433.9c-2.8,0,-5.1,-2.3,-5.1,-5.1c0,-2.8,2.3,-5.1,5.1,-5.1c2.8,0,5.1,2.3,5.1,5.1c0,2.8,-2.3,5.1,-5.1,5.1m0,-9.1c-2.2,0,-4,1.8,-4,4c0,2.2,1.8,4,4,4c2.2,0,4,-1.8,4,-4c0,-2.2,-1.8,-4,-4,-4Z" class="g4"/>
<path d="M350.5,433.7H599.6" class="ga"/>
<path d="M342.8,454.7c2.5,0,4.5,-2,4.5,-4.5c0,-2.5,-2,-4.5,-4.5,-4.5c-2.5,0,-4.6,2,-4.6,4.5c0,2.5,2.1,4.5,4.6,4.5Z" class="g2"/>
<path d="M342.8,455.3c-2.8,0,-5.1,-2.3,-5.1,-5.1c0,-2.8,2.3,-5.1,5.1,-5.1c2.8,0,5.1,2.3,5.1,5.1c0,2.8,-2.3,5.1,-5.1,5.1m0,-9.1c-2.2,0,-4,1.8,-4,4c0,2.2,1.8,4,4,4c2.2,0,4,-1.8,4,-4c0,-2.2,-1.8,-4,-4,-4Z" class="g4"/>
<path d="M350.5,455.1H599.6" class="ga"/>
<path d="M342.8,476.1c2.5,0,4.5,-2,4.5,-4.5c0,-2.5,-2,-4.5,-4.5,-4.5c-2.5,0,-4.6,2,-4.6,4.5c0,2.5,2.1,4.5,4.6,4.5Z" class="g2"/>
<path d="M342.8,476.7c-2.8,0,-5.1,-2.3,-5.1,-5.1c0,-2.8,2.3,-5.1,5.1,-5.1c2.8,0,5.1,2.3,5.1,5.1c0,2.8,-2.3,5.1,-5.1,5.1m0,-9.1c-2.2,0,-4,1.8,-4,4c0,2.2,1.8,4,4,4c2.2,0,4,-1.8,4,-4c0,-2.2,-1.8,-4,-4,-4Z" class="g4"/>
<path d="M350.5,476.5H599.6" class="ga"/>
<path d="M342.8,497.5c2.5,0,4.5,-2,4.5,-4.5c0,-2.5,-2,-4.6,-4.5,-4.6c-2.5,0,-4.6,2.1,-4.6,4.6c0,2.5,2.1,4.5,4.6,4.5Z" class="g2"/>
<path d="M342.8,498.1c-2.8,0,-5.1,-2.3,-5.1,-5.1c0,-2.8,2.3,-5.1,5.1,-5.1c2.8,0,5.1,2.3,5.1,5.1c0,2.8,-2.3,5.1,-5.1,5.1m0,-9.1c-2.2,0,-4,1.8,-4,4c0,2.2,1.8,4,4,4c2.2,0,4,-1.8,4,-4c0,-2.2,-1.8,-4,-4,-4Z" class="g4"/>
<path d="M350.5,497.9H599.6" class="ga"/>
<path d="M342.8,518.9c2.5,0,4.5,-2,4.5,-4.5c0,-2.5,-2,-4.6,-4.5,-4.6c-2.5,0,-4.6,2.1,-4.6,4.6c0,2.5,2.1,4.5,4.6,4.5Z" class="g2"/>
<path d="M342.8,519.5c-2.8,0,-5.1,-2.3,-5.1,-5.1c0,-2.8,2.3,-5.1,5.1,-5.1c2.8,0,5.1,2.3,5.1,5.1c0,2.8,-2.3,5.1,-5.1,5.1m0,-9.1c-2.2,0,-4,1.8,-4,4c0,2.2,1.8,4,4,4c2.2,0,4,-1.8,4,-4c0,-2.2,-1.8,-4,-4,-4Z" class="g4"/>
<path d="M350.5,519.3H599.6" class="ga"/>
<path d="M342.8,540.3c2.5,0,4.5,-2,4.5,-4.5c0,-2.6,-2,-4.6,-4.5,-4.6c-2.5,0,-4.6,2,-4.6,4.6c0,2.5,2.1,4.5,4.6,4.5Z" class="g2"/>
<path d="M342.8,540.8c-2.8,0,-5.1,-2.2,-5.1,-5c0,-2.8,2.3,-5.1,5.1,-5.1c2.8,0,5.1,2.3,5.1,5.1c0,2.8,-2.3,5,-5.1,5m0,-9c-2.2,0,-4,1.8,-4,4c0,2.2,1.8,3.9,4,3.9c2.2,0,4,-1.7,4,-3.9c0,-2.2,-1.8,-4,-4,-4Z" class="g4"/>
<path d="M350.5,540.7H599.6" class="ga"/>
<path d="M628.6,283.6c2.6,0,4.6,-2,4.6,-4.5c0,-2.5,-2,-4.5,-4.6,-4.5c-2.5,0,-4.5,2,-4.5,4.5c0,2.5,2,4.5,4.5,4.5Z" class="g2"/>
<path d="M628.6,284.2c-2.8,0,-5,-2.3,-5,-5.1c0,-2.8,2.2,-5.1,5,-5.1c2.9,0,5.1,2.3,5.1,5.1c0,2.8,-2.2,5.1,-5.1,5.1m0,-9.1c-2.2,0,-3.9,1.8,-3.9,4c0,2.2,1.7,4,3.9,4c2.3,0,4,-1.8,4,-4c0,-2.2,-1.7,-4,-4,-4Z" class="g4"/>
<path d="M636.4,284H885.5" class="ga"/>
<path d="M628.6,305c2.6,0,4.6,-2,4.6,-4.5c0,-2.5,-2,-4.6,-4.6,-4.6c-2.5,0,-4.5,2.1,-4.5,4.6c0,2.5,2,4.5,4.5,4.5Z" class="g2"/>
<path d="M628.6,305.6c-2.8,0,-5,-2.3,-5,-5.1c0,-2.8,2.2,-5.1,5,-5.1c2.9,0,5.1,2.3,5.1,5.1c0,2.8,-2.2,5.1,-5.1,5.1m0,-9.1c-2.2,0,-3.9,1.8,-3.9,4c0,2.2,1.7,4,3.9,4c2.3,0,4,-1.8,4,-4c0,-2.2,-1.7,-4,-4,-4Z" class="g4"/>
<path d="M636.4,305.4H885.5" class="ga"/>
<path d="M628.6,326.4c2.6,0,4.6,-2,4.6,-4.5c0,-2.5,-2,-4.6,-4.6,-4.6c-2.5,0,-4.5,2.1,-4.5,4.6c0,2.5,2,4.5,4.5,4.5Z" class="g2"/>
<path d="M628.6,327c-2.8,0,-5,-2.3,-5,-5.1c0,-2.8,2.2,-5.1,5,-5.1c2.9,0,5.1,2.3,5.1,5.1c0,2.8,-2.2,5.1,-5.1,5.1m0,-9.1c-2.2,0,-3.9,1.8,-3.9,4c0,2.2,1.7,4,3.9,4c2.3,0,4,-1.8,4,-4c0,-2.2,-1.7,-4,-4,-4Z" class="g4"/>
<path d="M636.4,326.8H885.5" class="ga"/>
<path d="M628.6,347.8c2.6,0,4.6,-2,4.6,-4.5c0,-2.6,-2,-4.6,-4.6,-4.6c-2.5,0,-4.5,2,-4.5,4.6c0,2.5,2,4.5,4.5,4.5Z" class="g2"/>
<path d="M628.6,348.3c-2.8,0,-5,-2.2,-5,-5c0,-2.8,2.2,-5.1,5,-5.1c2.9,0,5.1,2.3,5.1,5.1c0,2.8,-2.2,5,-5.1,5m0,-9c-2.2,0,-3.9,1.8,-3.9,4c0,2.2,1.7,3.9,3.9,3.9c2.3,0,4,-1.7,4,-3.9c0,-2.2,-1.7,-4,-4,-4Z" class="g4"/>
<path d="M636.4,348.2H885.5" class="ga"/>
<path d="M628.6,369.2c2.6,0,4.6,-2,4.6,-4.6c0,-2.5,-2,-4.5,-4.6,-4.5c-2.5,0,-4.5,2,-4.5,4.5c0,2.6,2,4.6,4.5,4.6Z" class="g2"/>
<path d="M628.6,369.7c-2.8,0,-5,-2.3,-5,-5.1c0,-2.8,2.2,-5,5,-5c2.9,0,5.1,2.2,5.1,5c0,2.8,-2.2,5.1,-5.1,5.1m0,-9c-2.2,0,-3.9,1.7,-3.9,3.9c0,2.2,1.7,4,3.9,4c2.3,0,4,-1.8,4,-4c0,-2.2,-1.7,-3.9,-4,-3.9Z" class="g4"/>
<path d="M636.4,369.5H885.5" class="ga"/>
<path d="M628.6,390.6c2.6,0,4.6,-2.1,4.6,-4.6c0,-2.5,-2,-4.5,-4.6,-4.5c-2.5,0,-4.5,2,-4.5,4.5c0,2.5,2,4.6,4.5,4.6Z" class="g2"/>
<path d="M628.6,391.1c-2.8,0,-5,-2.3,-5,-5.1c0,-2.8,2.2,-5.1,5,-5.1c2.9,0,5.1,2.3,5.1,5.1c0,2.8,-2.2,5.1,-5.1,5.1m0,-9.1c-2.2,0,-3.9,1.8,-3.9,4c0,2.2,1.7,4,3.9,4c2.3,0,4,-1.8,4,-4c0,-2.2,-1.7,-4,-4,-4Z" class="g4"/>
<path d="M636.4,390.9H885.5" class="ga"/>
<path d="M628.6,412c2.6,0,4.6,-2.1,4.6,-4.6c0,-2.5,-2,-4.5,-4.6,-4.5c-2.5,0,-4.5,2,-4.5,4.5c0,2.5,2,4.6,4.5,4.6Z" class="g2"/>
<path d="M628.6,412.5c-2.8,0,-5,-2.3,-5,-5.1c0,-2.8,2.2,-5.1,5,-5.1c2.9,0,5.1,2.3,5.1,5.1c0,2.8,-2.2,5.1,-5.1,5.1m0,-9.1c-2.2,0,-3.9,1.8,-3.9,4c0,2.2,1.7,4,3.9,4c2.3,0,4,-1.8,4,-4c0,-2.2,-1.7,-4,-4,-4Z" class="g4"/>
<path d="M636.4,412.3H885.5" class="ga"/>
<path d="M628.6,433.3c2.6,0,4.6,-2,4.6,-4.5c0,-2.5,-2,-4.5,-4.6,-4.5c-2.5,0,-4.5,2,-4.5,4.5c0,2.5,2,4.5,4.5,4.5Z" class="g2"/>
<path d="M628.6,433.9c-2.8,0,-5,-2.3,-5,-5.1c0,-2.8,2.2,-5.1,5,-5.1c2.9,0,5.1,2.3,5.1,5.1c0,2.8,-2.2,5.1,-5.1,5.1m0,-9.1c-2.2,0,-3.9,1.8,-3.9,4c0,2.2,1.7,4,3.9,4c2.3,0,4,-1.8,4,-4c0,-2.2,-1.7,-4,-4,-4Z" class="g4"/>
<path d="M636.4,433.7H885.5" class="ga"/>
<path d="M628.6,454.7c2.6,0,4.6,-2,4.6,-4.5c0,-2.5,-2,-4.5,-4.6,-4.5c-2.5,0,-4.5,2,-4.5,4.5c0,2.5,2,4.5,4.5,4.5Z" class="g2"/>
<path d="M628.6,455.3c-2.8,0,-5,-2.3,-5,-5.1c0,-2.8,2.2,-5.1,5,-5.1c2.9,0,5.1,2.3,5.1,5.1c0,2.8,-2.2,5.1,-5.1,5.1m0,-9.1c-2.2,0,-3.9,1.8,-3.9,4c0,2.2,1.7,4,3.9,4c2.3,0,4,-1.8,4,-4c0,-2.2,-1.7,-4,-4,-4Z" class="g4"/>
<path d="M636.4,455.1H885.5" class="ga"/>
<path d="M628.6,543c2.6,0,4.6,-2.1,4.6,-4.6c0,-2.5,-2,-4.5,-4.6,-4.5c-2.5,0,-4.5,2,-4.5,4.5c0,2.5,2,4.6,4.5,4.6Z" class="g2"/>
<path d="M628.6,543.5c-2.8,0,-5,-2.3,-5,-5.1c0,-2.8,2.2,-5.1,5,-5.1c2.9,0,5.1,2.3,5.1,5.1c0,2.8,-2.2,5.1,-5.1,5.1m0,-9.1c-2.2,0,-3.9,1.8,-3.9,4c0,2.2,1.7,4,3.9,4c2.3,0,4,-1.8,4,-4c0,-2.2,-1.7,-4,-4,-4Z" class="g4"/>
<path d="M636.4,543.3H885.5" class="ga"/>
<path d="M628.6,564.4c2.6,0,4.6,-2.1,4.6,-4.6c0,-2.5,-2,-4.5,-4.6,-4.5c-2.5,0,-4.5,2,-4.5,4.5c0,2.5,2,4.6,4.5,4.6Z" class="g2"/>
<path d="M628.6,564.9c-2.8,0,-5,-2.3,-5,-5.1c0,-2.8,2.2,-5.1,5,-5.1c2.9,0,5.1,2.3,5.1,5.1c0,2.8,-2.2,5.1,-5.1,5.1m0,-9.1c-2.2,0,-3.9,1.8,-3.9,4c0,2.2,1.7,4,3.9,4c2.3,0,4,-1.8,4,-4c0,-2.2,-1.7,-4,-4,-4Z" class="g4"/>
<path d="M636.4,564.7H885.5" class="ga"/>
<path d="M628.6,585.7c2.6,0,4.6,-2,4.6,-4.5c0,-2.5,-2,-4.5,-4.6,-4.5c-2.5,0,-4.5,2,-4.5,4.5c0,2.5,2,4.5,4.5,4.5Z" class="g2"/>
<path d="M628.6,586.3c-2.8,0,-5,-2.3,-5,-5.1c0,-2.8,2.2,-5.1,5,-5.1c2.9,0,5.1,2.3,5.1,5.1c0,2.8,-2.2,5.1,-5.1,5.1m0,-9.1c-2.2,0,-3.9,1.8,-3.9,4c0,2.2,1.7,4,3.9,4c2.3,0,4,-1.8,4,-4c0,-2.2,-1.7,-4,-4,-4Z" class="g4"/>
<path d="M636.4,586.1H885.5" class="ga"/>
<path d="M628.6,607.1c2.6,0,4.6,-2,4.6,-4.5c0,-2.5,-2,-4.5,-4.6,-4.5c-2.5,0,-4.5,2,-4.5,4.5c0,2.5,2,4.5,4.5,4.5Z" class="g2"/>
<path d="M628.6,607.7c-2.8,0,-5,-2.3,-5,-5.1c0,-2.8,2.2,-5.1,5,-5.1c2.9,0,5.1,2.3,5.1,5.1c0,2.8,-2.2,5.1,-5.1,5.1m0,-9.1c-2.2,0,-3.9,1.8,-3.9,4c0,2.2,1.7,4,3.9,4c2.3,0,4,-1.8,4,-4c0,-2.2,-1.7,-4,-4,-4Z" class="g4"/>
<path d="M636.4,607.5H885.5" class="ga"/>
<path d="M628.6,628.5c2.6,0,4.6,-2,4.6,-4.5c0,-2.5,-2,-4.5,-4.6,-4.5c-2.5,0,-4.5,2,-4.5,4.5c0,2.5,2,4.5,4.5,4.5Z" class="g2"/>
<path d="M628.6,629.1c-2.8,0,-5,-2.3,-5,-5.1c0,-2.8,2.2,-5.1,5,-5.1c2.9,0,5.1,2.3,5.1,5.1c0,2.8,-2.2,5.1,-5.1,5.1m0,-9.1c-2.2,0,-3.9,1.8,-3.9,4c0,2.2,1.7,4,3.9,4c2.3,0,4,-1.8,4,-4c0,-2.2,-1.7,-4,-4,-4Z" class="g4"/>
<path d="M636.4,628.9H885.5" class="ga"/>
<path d="M628.6,649.9c2.6,0,4.6,-2,4.6,-4.5c0,-2.5,-2,-4.6,-4.6,-4.6c-2.5,0,-4.5,2.1,-4.5,4.6c0,2.5,2,4.5,4.5,4.5Z" class="g2"/>
<path d="M628.6,650.5c-2.8,0,-5,-2.3,-5,-5.1c0,-2.8,2.2,-5.1,5,-5.1c2.9,0,5.1,2.3,5.1,5.1c0,2.8,-2.2,5.1,-5.1,5.1m0,-9.1c-2.2,0,-3.9,1.8,-3.9,4c0,2.2,1.7,4,3.9,4c2.3,0,4,-1.8,4,-4c0,-2.2,-1.7,-4,-4,-4Z" class="g4"/>
<path d="M636.4,650.3H885.5" class="ga"/>
<path d="M628.6,671.3c2.6,0,4.6,-2,4.6,-4.5c0,-2.5,-2,-4.6,-4.6,-4.6c-2.5,0,-4.5,2.1,-4.5,4.6c0,2.5,2,4.5,4.5,4.5Z" class="g2"/>
<path d="M628.6,671.9c-2.8,0,-5,-2.3,-5,-5.1c0,-2.8,2.2,-5.1,5,-5.1c2.9,0,5.1,2.3,5.1,5.1c0,2.8,-2.2,5.1,-5.1,5.1m0,-9.1c-2.2,0,-3.9,1.8,-3.9,4c0,2.2,1.7,4,3.9,4c2.3,0,4,-1.8,4,-4c0,-2.2,-1.7,-4,-4,-4Z" class="g4"/>
<path d="M636.4,671.7H885.5" class="ga"/>
<path d="M628.6,692.7c2.6,0,4.6,-2,4.6,-4.5c0,-2.6,-2,-4.6,-4.6,-4.6c-2.5,0,-4.5,2,-4.5,4.6c0,2.5,2,4.5,4.5,4.5Z" class="g2"/>
<path d="M628.6,693.2c-2.8,0,-5,-2.2,-5,-5c0,-2.9,2.2,-5.1,5,-5.1c2.9,0,5.1,2.2,5.1,5.1c0,2.8,-2.2,5,-5.1,5m0,-9c-2.2,0,-3.9,1.8,-3.9,4c0,2.2,1.7,3.9,3.9,3.9c2.3,0,4,-1.7,4,-3.9c0,-2.2,-1.7,-4,-4,-4Z" class="g4"/>
<path d="M636.4,693H885.5" class="ga"/>
<path d="M628.6,714.1c2.6,0,4.6,-2,4.6,-4.6c0,-2.5,-2,-4.5,-4.6,-4.5c-2.5,0,-4.5,2,-4.5,4.5c0,2.6,2,4.6,4.5,4.6Z" class="g2"/>
<path d="M628.6,714.6c-2.8,0,-5,-2.3,-5,-5.1c0,-2.8,2.2,-5,5,-5c2.9,0,5.1,2.2,5.1,5c0,2.8,-2.2,5.1,-5.1,5.1m0,-9c-2.2,0,-3.9,1.7,-3.9,3.9c0,2.2,1.7,4,3.9,4c2.3,0,4,-1.8,4,-4c0,-2.2,-1.7,-3.9,-4,-3.9Z" class="g4"/>
<path d="M636.4,714.4H885.5" class="ga"/>
<path d="M628.6,802.4c2.6,0,4.6,-2,4.6,-4.5c0,-2.6,-2,-4.6,-4.6,-4.6c-2.5,0,-4.5,2,-4.5,4.6c0,2.5,2,4.5,4.5,4.5Z" class="g2"/>
<path d="M628.6,802.9c-2.8,0,-5,-2.2,-5,-5c0,-2.8,2.2,-5.1,5,-5.1c2.9,0,5.1,2.3,5.1,5.1c0,2.8,-2.2,5,-5.1,5m0,-9c-2.2,0,-3.9,1.8,-3.9,4c0,2.2,1.7,3.9,3.9,3.9c2.3,0,4,-1.7,4,-3.9c0,-2.2,-1.7,-4,-4,-4Z" class="g4"/>
<path d="M636.4,802.8H885.5" class="ga"/>
<path d="M628.6,823.8c2.6,0,4.6,-2,4.6,-4.6c0,-2.5,-2,-4.5,-4.6,-4.5c-2.5,0,-4.5,2,-4.5,4.5c0,2.6,2,4.6,4.5,4.6Z" class="g2"/>
<path d="M628.6,824.3c-2.8,0,-5,-2.3,-5,-5.1c0,-2.8,2.2,-5,5,-5c2.9,0,5.1,2.2,5.1,5c0,2.8,-2.2,5.1,-5.1,5.1m0,-9c-2.2,0,-3.9,1.7,-3.9,3.9c0,2.2,1.7,4,3.9,4c2.3,0,4,-1.8,4,-4c0,-2.2,-1.7,-3.9,-4,-3.9Z" class="g4"/>
<path d="M636.4,824.1H885.5" class="ga"/>
<path d="M628.6,845.2c2.6,0,4.6,-2.1,4.6,-4.6c0,-2.5,-2,-4.5,-4.6,-4.5c-2.5,0,-4.5,2,-4.5,4.5c0,2.5,2,4.6,4.5,4.6Z" class="g2"/>
<path d="M628.6,845.7c-2.8,0,-5,-2.3,-5,-5.1c0,-2.8,2.2,-5.1,5,-5.1c2.9,0,5.1,2.3,5.1,5.1c0,2.8,-2.2,5.1,-5.1,5.1m0,-9.1c-2.2,0,-3.9,1.8,-3.9,4c0,2.2,1.7,4,3.9,4c2.3,0,4,-1.8,4,-4c0,-2.2,-1.7,-4,-4,-4Z" class="g4"/>
<path d="M636.4,845.5H885.5" class="ga"/>
<path d="M628.6,866.6c2.6,0,4.6,-2.1,4.6,-4.6c0,-2.5,-2,-4.5,-4.6,-4.5c-2.5,0,-4.5,2,-4.5,4.5c0,2.5,2,4.6,4.5,4.6Z" class="g2"/>
<path d="M628.6,867.1c-2.8,0,-5,-2.3,-5,-5.1c0,-2.8,2.2,-5.1,5,-5.1c2.9,0,5.1,2.3,5.1,5.1c0,2.8,-2.2,5.1,-5.1,5.1m0,-9.1c-2.2,0,-3.9,1.8,-3.9,4c0,2.2,1.7,4,3.9,4c2.3,0,4,-1.8,4,-4c0,-2.2,-1.7,-4,-4,-4Z" class="g4"/>
<path d="M636.4,866.9H885.5" class="ga"/>
<path d="M628.6,887.9c2.6,0,4.6,-2,4.6,-4.5c0,-2.5,-2,-4.5,-4.6,-4.5c-2.5,0,-4.5,2,-4.5,4.5c0,2.5,2,4.5,4.5,4.5Z" class="g2"/>
<path d="M628.6,888.5c-2.8,0,-5,-2.3,-5,-5.1c0,-2.8,2.2,-5.1,5,-5.1c2.9,0,5.1,2.3,5.1,5.1c0,2.8,-2.2,5.1,-5.1,5.1m0,-9.1c-2.2,0,-3.9,1.8,-3.9,4c0,2.2,1.7,4,3.9,4c2.3,0,4,-1.8,4,-4c0,-2.2,-1.7,-4,-4,-4Z" class="g4"/>
<path d="M636.4,888.3H885.5" class="ga"/>
<path d="M628.6,909.3c2.6,0,4.6,-2,4.6,-4.5c0,-2.5,-2,-4.5,-4.6,-4.5c-2.5,0,-4.5,2,-4.5,4.5c0,2.5,2,4.5,4.5,4.5Z" class="g2"/>
<path d="M628.6,909.9c-2.8,0,-5,-2.3,-5,-5.1c0,-2.8,2.2,-5.1,5,-5.1c2.9,0,5.1,2.3,5.1,5.1c0,2.8,-2.2,5.1,-5.1,5.1m0,-9.1c-2.2,0,-3.9,1.8,-3.9,4c0,2.2,1.7,4,3.9,4c2.3,0,4,-1.8,4,-4c0,-2.2,-1.7,-4,-4,-4Z" class="g4"/>
<path d="M636.4,909.7H885.5" class="ga"/>
<path d="M628.6,930.7c2.6,0,4.6,-2,4.6,-4.5c0,-2.5,-2,-4.5,-4.6,-4.5c-2.5,0,-4.5,2,-4.5,4.5c0,2.5,2,4.5,4.5,4.5Z" class="g2"/>
<path d="M628.6,931.3c-2.8,0,-5,-2.3,-5,-5.1c0,-2.8,2.2,-5.1,5,-5.1c2.9,0,5.1,2.3,5.1,5.1c0,2.8,-2.2,5.1,-5.1,5.1m0,-9.1c-2.2,0,-3.9,1.8,-3.9,4c0,2.2,1.7,4,3.9,4c2.3,0,4,-1.8,4,-4c0,-2.2,-1.7,-4,-4,-4Z" class="g4"/>
<path d="M636.4,931.1H885.5" class="ga"/>
<path d="M628.6,1017.4c2.6,0,4.6,-2,4.6,-4.6c0,-2.5,-2,-4.5,-4.6,-4.5c-2.5,0,-4.5,2,-4.5,4.5c0,2.6,2,4.6,4.5,4.6Z" class="g2"/>
<path d="M628.6,1017.9c-2.8,0,-5,-2.2,-5,-5c0,-2.9,2.2,-5.1,5,-5.1c2.9,0,5.1,2.2,5.1,5.1c0,2.8,-2.2,5,-5.1,5m0,-9c-2.2,0,-3.9,1.7,-3.9,4c0,2.2,1.7,3.9,3.9,3.9c2.3,0,4,-1.7,4,-3.9c0,-2.3,-1.7,-4,-4,-4Z" class="g4"/>
<path d="M636.4,1017.7H885.5" class="ga"/>
<path d="M628.6,1038.8c2.6,0,4.6,-2.1,4.6,-4.6c0,-2.5,-2,-4.5,-4.6,-4.5c-2.5,0,-4.5,2,-4.5,4.5c0,2.5,2,4.6,4.5,4.6Z" class="g2"/>
<path d="M628.6,1039.3c-2.8,0,-5,-2.3,-5,-5.1c0,-2.8,2.2,-5,5,-5c2.9,0,5.1,2.2,5.1,5c0,2.8,-2.2,5.1,-5.1,5.1m0,-9.1c-2.2,0,-3.9,1.8,-3.9,4c0,2.2,1.7,4,3.9,4c2.3,0,4,-1.8,4,-4c0,-2.2,-1.7,-4,-4,-4Z" class="g4"/>
<path d="M636.4,1039.1H885.5" class="ga"/>
<path d="M628.6,1060.2c2.6,0,4.6,-2.1,4.6,-4.6c0,-2.5,-2,-4.5,-4.6,-4.5c-2.5,0,-4.5,2,-4.5,4.5c0,2.5,2,4.6,4.5,4.6Z" class="g2"/>
<path d="M628.6,1060.7c-2.8,0,-5,-2.3,-5,-5.1c0,-2.8,2.2,-5.1,5,-5.1c2.9,0,5.1,2.3,5.1,5.1c0,2.8,-2.2,5.1,-5.1,5.1m0,-9.1c-2.2,0,-3.9,1.8,-3.9,4c0,2.2,1.7,4,3.9,4c2.3,0,4,-1.8,4,-4c0,-2.2,-1.7,-4,-4,-4Z" class="g4"/>
<path d="M636.4,1060.5H885.5" class="ga"/>
<path d="M628.6,1081.6c2.6,0,4.6,-2.1,4.6,-4.6c0,-2.5,-2,-4.5,-4.6,-4.5c-2.5,0,-4.5,2,-4.5,4.5c0,2.5,2,4.6,4.5,4.6Z" class="g2"/>
<path d="M628.6,1082.1c-2.8,0,-5,-2.3,-5,-5.1c0,-2.8,2.2,-5.1,5,-5.1c2.9,0,5.1,2.3,5.1,5.1c0,2.8,-2.2,5.1,-5.1,5.1m0,-9.1c-2.2,0,-3.9,1.8,-3.9,4c0,2.2,1.7,4,3.9,4c2.3,0,4,-1.8,4,-4c0,-2.2,-1.7,-4,-4,-4Z" class="g4"/>
<path d="M636.4,1081.9H885.5" class="ga"/>
<path d="M628.6,1102.9c2.6,0,4.6,-2,4.6,-4.5c0,-2.5,-2,-4.5,-4.6,-4.5c-2.5,0,-4.5,2,-4.5,4.5c0,2.5,2,4.5,4.5,4.5Z" class="g2"/>
<path d="M628.6,1103.5c-2.8,0,-5,-2.3,-5,-5.1c0,-2.8,2.2,-5.1,5,-5.1c2.9,0,5.1,2.3,5.1,5.1c0,2.8,-2.2,5.1,-5.1,5.1m0,-9.1c-2.2,0,-3.9,1.8,-3.9,4c0,2.2,1.7,4,3.9,4c2.3,0,4,-1.8,4,-4c0,-2.2,-1.7,-4,-4,-4Z" class="g4"/>
<path d="M636.4,1103.3H885.5" class="ga"/>
<path d="M628.6,1124.3c2.6,0,4.6,-2,4.6,-4.5c0,-2.5,-2,-4.5,-4.6,-4.5c-2.5,0,-4.5,2,-4.5,4.5c0,2.5,2,4.5,4.5,4.5Z" class="g2"/>
<path d="M628.6,1124.9c-2.8,0,-5,-2.3,-5,-5.1c0,-2.8,2.2,-5.1,5,-5.1c2.9,0,5.1,2.3,5.1,5.1c0,2.8,-2.2,5.1,-5.1,5.1m0,-9.1c-2.2,0,-3.9,1.8,-3.9,4c0,2.2,1.7,4,3.9,4c2.3,0,4,-1.8,4,-4c0,-2.2,-1.7,-4,-4,-4Z" class="g4"/>
<path d="M636.4,1124.7H885.5" class="ga"/>
<path d="M628.6,1145.7c2.6,0,4.6,-2,4.6,-4.5c0,-2.5,-2,-4.6,-4.6,-4.6c-2.5,0,-4.5,2.1,-4.5,4.6c0,2.5,2,4.5,4.5,4.5Z" class="g2"/>
<path d="M628.6,1146.3c-2.8,0,-5,-2.3,-5,-5.1c0,-2.8,2.2,-5.1,5,-5.1c2.9,0,5.1,2.3,5.1,5.1c0,2.8,-2.2,5.1,-5.1,5.1m0,-9.1c-2.2,0,-3.9,1.8,-3.9,4c0,2.2,1.7,4,3.9,4c2.3,0,4,-1.8,4,-4c0,-2.2,-1.7,-4,-4,-4Z" class="g4"/>
<path d="M636.4,1146.1H885.5" class="ga"/>
<path d="M342.8,628.3c2.5,0,4.5,-2.1,4.5,-4.6c0,-2.5,-2,-4.5,-4.5,-4.5c-2.5,0,-4.6,2,-4.6,4.5c0,2.5,2.1,4.6,4.6,4.6Z" class="g2"/>
<path d="M342.8,628.8c-2.8,0,-5.1,-2.3,-5.1,-5.1c0,-2.8,2.3,-5.1,5.1,-5.1c2.8,0,5.1,2.3,5.1,5.1c0,2.8,-2.3,5.1,-5.1,5.1m0,-9.1c-2.2,0,-4,1.8,-4,4c0,2.2,1.8,4,4,4c2.2,0,4,-1.8,4,-4c0,-2.2,-1.8,-4,-4,-4Z" class="g4"/>
<path d="M350.5,628.6H599.6" class="ga"/>
<path d="M342.8,649.7c2.5,0,4.5,-2.1,4.5,-4.6c0,-2.5,-2,-4.5,-4.5,-4.5c-2.5,0,-4.6,2,-4.6,4.5c0,2.5,2.1,4.6,4.6,4.6Z" class="g2"/>
<path d="M342.8,650.2c-2.8,0,-5.1,-2.3,-5.1,-5.1c0,-2.8,2.3,-5.1,5.1,-5.1c2.8,0,5.1,2.3,5.1,5.1c0,2.8,-2.3,5.1,-5.1,5.1m0,-9.1c-2.2,0,-4,1.8,-4,4c0,2.2,1.8,4,4,4c2.2,0,4,-1.8,4,-4c0,-2.2,-1.8,-4,-4,-4Z" class="g4"/>
<path d="M350.5,650H599.6" class="ga"/>
<path d="M342.8,671c2.5,0,4.5,-2,4.5,-4.5c0,-2.5,-2,-4.5,-4.5,-4.5c-2.5,0,-4.6,2,-4.6,4.5c0,2.5,2.1,4.5,4.6,4.5Z" class="g2"/>
<path d="M342.8,671.6c-2.8,0,-5.1,-2.3,-5.1,-5.1c0,-2.8,2.3,-5.1,5.1,-5.1c2.8,0,5.1,2.3,5.1,5.1c0,2.8,-2.3,5.1,-5.1,5.1m0,-9.1c-2.2,0,-4,1.8,-4,4c0,2.2,1.8,4,4,4c2.2,0,4,-1.8,4,-4c0,-2.2,-1.8,-4,-4,-4Z" class="g4"/>
<path d="M350.5,671.4H599.6" class="ga"/>
<path d="M342.8,692.4c2.5,0,4.5,-2,4.5,-4.5c0,-2.5,-2,-4.5,-4.5,-4.5c-2.5,0,-4.6,2,-4.6,4.5c0,2.5,2.1,4.5,4.6,4.5Z" class="g2"/>
<path d="M342.8,693c-2.8,0,-5.1,-2.3,-5.1,-5.1c0,-2.8,2.3,-5.1,5.1,-5.1c2.8,0,5.1,2.3,5.1,5.1c0,2.8,-2.3,5.1,-5.1,5.1m0,-9.1c-2.2,0,-4,1.8,-4,4c0,2.2,1.8,4,4,4c2.2,0,4,-1.8,4,-4c0,-2.2,-1.8,-4,-4,-4Z" class="g4"/>
<path d="M350.5,692.8H599.6" class="ga"/>
<path d="M342.8,713.8c2.5,0,4.5,-2,4.5,-4.5c0,-2.5,-2,-4.5,-4.5,-4.5c-2.5,0,-4.6,2,-4.6,4.5c0,2.5,2.1,4.5,4.6,4.5Z" class="g2"/>
<path d="M342.8,714.4c-2.8,0,-5.1,-2.3,-5.1,-5.1c0,-2.8,2.3,-5.1,5.1,-5.1c2.8,0,5.1,2.3,5.1,5.1c0,2.8,-2.3,5.1,-5.1,5.1m0,-9.1c-2.2,0,-4,1.8,-4,4c0,2.2,1.8,4,4,4c2.2,0,4,-1.8,4,-4c0,-2.2,-1.8,-4,-4,-4Z" class="g4"/>
<path d="M350.5,714.2H599.6" class="ga"/>
<path d="M342.8,735.2c2.5,0,4.5,-2,4.5,-4.5c0,-2.5,-2,-4.6,-4.5,-4.6c-2.5,0,-4.6,2.1,-4.6,4.6c0,2.5,2.1,4.5,4.6,4.5Z" class="g2"/>
<path d="M342.8,735.8c-2.8,0,-5.1,-2.3,-5.1,-5.1c0,-2.8,2.3,-5.1,5.1,-5.1c2.8,0,5.1,2.3,5.1,5.1c0,2.8,-2.3,5.1,-5.1,5.1m0,-9.1c-2.2,0,-4,1.8,-4,4c0,2.2,1.8,4,4,4c2.2,0,4,-1.8,4,-4c0,-2.2,-1.8,-4,-4,-4Z" class="g4"/>
<path d="M350.5,735.6H599.6" class="ga"/>
<path d="M342.8,756.6c2.5,0,4.5,-2,4.5,-4.5c0,-2.5,-2,-4.6,-4.5,-4.6c-2.5,0,-4.6,2.1,-4.6,4.6c0,2.5,2.1,4.5,4.6,4.5Z" class="g2"/>
<path d="M342.8,757.2c-2.8,0,-5.1,-2.3,-5.1,-5.1c0,-2.8,2.3,-5.1,5.1,-5.1c2.8,0,5.1,2.3,5.1,5.1c0,2.8,-2.3,5.1,-5.1,5.1m0,-9.1c-2.2,0,-4,1.8,-4,4c0,2.2,1.8,4,4,4c2.2,0,4,-1.8,4,-4c0,-2.2,-1.8,-4,-4,-4Z" class="g4"/>
<path d="M350.5,757H599.6" class="ga"/>
<path d="M342.8,778c2.5,0,4.5,-2,4.5,-4.5c0,-2.6,-2,-4.6,-4.5,-4.6c-2.5,0,-4.6,2,-4.6,4.6c0,2.5,2.1,4.5,4.6,4.5Z" class="g2"/>
<path d="M342.8,778.5c-2.8,0,-5.1,-2.2,-5.1,-5c0,-2.8,2.3,-5.1,5.1,-5.1c2.8,0,5.1,2.3,5.1,5.1c0,2.8,-2.3,5,-5.1,5m0,-9c-2.2,0,-4,1.8,-4,4c0,2.2,1.8,3.9,4,3.9c2.2,0,4,-1.7,4,-3.9c0,-2.2,-1.8,-4,-4,-4Z" class="g4"/>
<path d="M350.5,778.4H599.6" class="ga"/>
<path d="M342.8,799.4c2.5,0,4.5,-2,4.5,-4.6c0,-2.5,-2,-4.5,-4.5,-4.5c-2.5,0,-4.6,2,-4.6,4.5c0,2.6,2.1,4.6,4.6,4.6Z" class="g2"/>
<path d="M342.8,799.9c-2.8,0,-5.1,-2.3,-5.1,-5.1c0,-2.8,2.3,-5,5.1,-5c2.8,0,5.1,2.2,5.1,5c0,2.8,-2.3,5.1,-5.1,5.1m0,-9c-2.2,0,-4,1.7,-4,3.9c0,2.2,1.8,4,4,4c2.2,0,4,-1.8,4,-4c0,-2.2,-1.8,-3.9,-4,-3.9Z" class="g4"/>
<path d="M350.5,799.7H599.6" class="ga"/>
<path d="M342.8,820.8c2.5,0,4.5,-2.1,4.5,-4.6c0,-2.5,-2,-4.5,-4.5,-4.5c-2.5,0,-4.6,2,-4.6,4.5c0,2.5,2.1,4.6,4.6,4.6Z" class="g2"/>
<path d="M342.8,821.3c-2.8,0,-5.1,-2.3,-5.1,-5.1c0,-2.8,2.3,-5.1,5.1,-5.1c2.8,0,5.1,2.3,5.1,5.1c0,2.8,-2.3,5.1,-5.1,5.1m0,-9.1c-2.2,0,-4,1.8,-4,4c0,2.2,1.8,4,4,4c2.2,0,4,-1.8,4,-4c0,-2.2,-1.8,-4,-4,-4Z" class="g4"/>
<path d="M350.5,821.1H599.6" class="ga"/>
<path d="M342.8,842.2c2.5,0,4.5,-2.1,4.5,-4.6c0,-2.5,-2,-4.5,-4.5,-4.5c-2.5,0,-4.6,2,-4.6,4.5c0,2.5,2.1,4.6,4.6,4.6Z" class="g2"/>
<path d="M342.8,842.7c-2.8,0,-5.1,-2.3,-5.1,-5.1c0,-2.8,2.3,-5.1,5.1,-5.1c2.8,0,5.1,2.3,5.1,5.1c0,2.8,-2.3,5.1,-5.1,5.1m0,-9.1c-2.2,0,-4,1.8,-4,4c0,2.2,1.8,4,4,4c2.2,0,4,-1.8,4,-4c0,-2.2,-1.8,-4,-4,-4Z" class="g4"/>
<path d="M350.5,842.5H599.6" class="ga"/>
<path d="M342.8,863.5c2.5,0,4.5,-2,4.5,-4.5c0,-2.5,-2,-4.5,-4.5,-4.5c-2.5,0,-4.6,2,-4.6,4.5c0,2.5,2.1,4.5,4.6,4.5Z" class="g2"/>
<path d="M342.8,864.1c-2.8,0,-5.1,-2.3,-5.1,-5.1c0,-2.8,2.3,-5.1,5.1,-5.1c2.8,0,5.1,2.3,5.1,5.1c0,2.8,-2.3,5.1,-5.1,5.1m0,-9.1c-2.2,0,-4,1.8,-4,4c0,2.2,1.8,4,4,4c2.2,0,4,-1.8,4,-4c0,-2.2,-1.8,-4,-4,-4Z" class="g4"/>
<path d="M350.5,863.9H599.6" class="ga"/>
<path d="M342.8,884.9c2.5,0,4.5,-2,4.5,-4.5c0,-2.5,-2,-4.5,-4.5,-4.5c-2.5,0,-4.6,2,-4.6,4.5c0,2.5,2.1,4.5,4.6,4.5Z" class="g2"/>
<path d="M342.8,885.5c-2.8,0,-5.1,-2.3,-5.1,-5.1c0,-2.8,2.3,-5.1,5.1,-5.1c2.8,0,5.1,2.3,5.1,5.1c0,2.8,-2.3,5.1,-5.1,5.1m0,-9.1c-2.2,0,-4,1.8,-4,4c0,2.2,1.8,4,4,4c2.2,0,4,-1.8,4,-4c0,-2.2,-1.8,-4,-4,-4Z" class="g4"/>
<path d="M350.5,885.3H599.6" class="ga"/>
<path d="M342.8,974.4c2.5,0,4.5,-2,4.5,-4.5c0,-2.5,-2,-4.6,-4.5,-4.6c-2.5,0,-4.6,2.1,-4.6,4.6c0,2.5,2.1,4.5,4.6,4.5Z" class="g2"/>
<path d="M342.8,975c-2.8,0,-5.1,-2.3,-5.1,-5.1c0,-2.8,2.3,-5.1,5.1,-5.1c2.8,0,5.1,2.3,5.1,5.1c0,2.8,-2.3,5.1,-5.1,5.1m0,-9.1c-2.2,0,-4,1.8,-4,4c0,2.2,1.8,4,4,4c2.2,0,4,-1.8,4,-4c0,-2.2,-1.8,-4,-4,-4Z" class="g4"/>
<path d="M350.5,974.8H599.6" class="ga"/>
<path d="M342.8,995.8c2.5,0,4.5,-2,4.5,-4.5c0,-2.5,-2,-4.6,-4.5,-4.6c-2.5,0,-4.6,2.1,-4.6,4.6c0,2.5,2.1,4.5,4.6,4.5Z" class="g2"/>
<path d="M342.8,996.3c-2.8,0,-5.1,-2.2,-5.1,-5c0,-2.8,2.3,-5.1,5.1,-5.1c2.8,0,5.1,2.3,5.1,5.1c0,2.8,-2.3,5,-5.1,5m0,-9c-2.2,0,-4,1.8,-4,4c0,2.2,1.8,4,4,4c2.2,0,4,-1.8,4,-4c0,-2.2,-1.8,-4,-4,-4Z" class="g4"/>
<path d="M350.5,996.2H599.6" class="ga"/>
<path d="M342.8,1017.2c2.5,0,4.5,-2,4.5,-4.6c0,-2.5,-2,-4.5,-4.5,-4.5c-2.5,0,-4.6,2,-4.6,4.5c0,2.6,2.1,4.6,4.6,4.6Z" class="g2"/>
<path d="M342.8,1017.7c-2.8,0,-5.1,-2.2,-5.1,-5.1c0,-2.8,2.3,-5,5.1,-5c2.8,0,5.1,2.2,5.1,5c0,2.9,-2.3,5.1,-5.1,5.1m0,-9c-2.2,0,-4,1.7,-4,3.9c0,2.3,1.8,4,4,4c2.2,0,4,-1.7,4,-4c0,-2.2,-1.8,-3.9,-4,-3.9Z" class="g4"/>
<path d="M350.5,1017.5H599.6" class="ga"/>
<path d="M342.8,1038.6c2.5,0,4.5,-2.1,4.5,-4.6c0,-2.5,-2,-4.5,-4.5,-4.5c-2.5,0,-4.6,2,-4.6,4.5c0,2.5,2.1,4.6,4.6,4.6Z" class="g2"/>
<path d="M342.8,1039.1c-2.8,0,-5.1,-2.3,-5.1,-5.1c0,-2.8,2.3,-5,5.1,-5c2.8,0,5.1,2.2,5.1,5c0,2.8,-2.3,5.1,-5.1,5.1m0,-9.1c-2.2,0,-4,1.8,-4,4c0,2.2,1.8,4,4,4c2.2,0,4,-1.8,4,-4c0,-2.2,-1.8,-4,-4,-4Z" class="g4"/>
<path d="M350.5,1038.9H599.6" class="ga"/>
<path d="M342.8,1060c2.5,0,4.5,-2.1,4.5,-4.6c0,-2.5,-2,-4.5,-4.5,-4.5c-2.5,0,-4.6,2,-4.6,4.5c0,2.5,2.1,4.6,4.6,4.6Z" class="g2"/>
<path d="M342.8,1060.5c-2.8,0,-5.1,-2.3,-5.1,-5.1c0,-2.8,2.3,-5.1,5.1,-5.1c2.8,0,5.1,2.3,5.1,5.1c0,2.8,-2.3,5.1,-5.1,5.1m0,-9.1c-2.2,0,-4,1.8,-4,4c0,2.2,1.8,4,4,4c2.2,0,4,-1.8,4,-4c0,-2.2,-1.8,-4,-4,-4Z" class="g4"/>
<path d="M350.5,1060.3H599.6" class="ga"/>
<path d="M342.8,1081.4c2.5,0,4.5,-2.1,4.5,-4.6c0,-2.5,-2,-4.5,-4.5,-4.5c-2.5,0,-4.6,2,-4.6,4.5c0,2.5,2.1,4.6,4.6,4.6Z" class="g2"/>
<path d="M342.8,1081.9c-2.8,0,-5.1,-2.3,-5.1,-5.1c0,-2.8,2.3,-5.1,5.1,-5.1c2.8,0,5.1,2.3,5.1,5.1c0,2.8,-2.3,5.1,-5.1,5.1m0,-9.1c-2.2,0,-4,1.8,-4,4c0,2.2,1.8,4,4,4c2.2,0,4,-1.8,4,-4c0,-2.2,-1.8,-4,-4,-4Z" class="g4"/>
<path d="M350.5,1081.7H599.6" class="ga"/>
<path d="M342.8,1102.7c2.5,0,4.5,-2,4.5,-4.5c0,-2.5,-2,-4.5,-4.5,-4.5c-2.5,0,-4.6,2,-4.6,4.5c0,2.5,2.1,4.5,4.6,4.5Z" class="g2"/>
<path d="M342.8,1103.3c-2.8,0,-5.1,-2.3,-5.1,-5.1c0,-2.8,2.3,-5.1,5.1,-5.1c2.8,0,5.1,2.3,5.1,5.1c0,2.8,-2.3,5.1,-5.1,5.1m0,-9.1c-2.2,0,-4,1.8,-4,4c0,2.2,1.8,4,4,4c2.2,0,4,-1.8,4,-4c0,-2.2,-1.8,-4,-4,-4Z" class="g4"/>
<path d="M350.5,1103.1H599.6" class="ga"/>
<path d="M342.8,1124.1c2.5,0,4.5,-2,4.5,-4.5c0,-2.5,-2,-4.5,-4.5,-4.5c-2.5,0,-4.6,2,-4.6,4.5c0,2.5,2.1,4.5,4.6,4.5Z" class="g2"/>
<path d="M342.8,1124.7c-2.8,0,-5.1,-2.3,-5.1,-5.1c0,-2.8,2.3,-5.1,5.1,-5.1c2.8,0,5.1,2.3,5.1,5.1c0,2.8,-2.3,5.1,-5.1,5.1m0,-9.1c-2.2,0,-4,1.8,-4,4c0,2.2,1.8,4,4,4c2.2,0,4,-1.8,4,-4c0,-2.2,-1.8,-4,-4,-4Z" class="g4"/>
<path d="M350.5,1124.5H599.6" class="ga"/>
<path d="M342.8,1145.5c2.5,0,4.5,-2,4.5,-4.5c0,-2.5,-2,-4.6,-4.5,-4.6c-2.5,0,-4.6,2.1,-4.6,4.6c0,2.5,2.1,4.5,4.6,4.5Z" class="g2"/>
<path d="M342.8,1146.1c-2.8,0,-5.1,-2.3,-5.1,-5.1c0,-2.8,2.3,-5.1,5.1,-5.1c2.8,0,5.1,2.3,5.1,5.1c0,2.8,-2.3,5.1,-5.1,5.1m0,-9.1c-2.2,0,-4,1.8,-4,4c0,2.2,1.8,4,4,4c2.2,0,4,-1.8,4,-4c0,-2.2,-1.8,-4,-4,-4Z" class="g4"/>
<path d="M350.5,1146.1H599.6" class="ga"/>
<path d="M313.5,250.4v-23L304,217.9H60.9l2.5,2.1H74l10.7,13.1c-.3,1.2,-.6,2.5,-.7,4c-.8,.2,-1.5,.9,-1.5,1.8c0,.9,.7,1.6,1.5,1.8c.1,1.5,.4,2.8,.7,4L74,257.8H63.4l-2.5,2.1H304ZM80.3,257.8l2.5,-3.1H299.6c-3.3,1.8,-6.7,2.7,-9.2,3.1Zm9,-23.1v8.4l-2.9,3.6c-.7,-1.6,-1.3,-3.6,-1.5,-6.1c.7,-.2,1.3,-.9,1.3,-1.7c0,-.8,-.6,-1.5,-1.3,-1.7c.2,-2.5,.8,-4.5,1.5,-6.1ZM83.5,224H92c-1.4,.8,-3.4,2.2,-5,4.4ZM87,249.4c1.6,2.2,3.6,3.6,5,4.4H83.5Zm-1.9,-3.7c.2,.7,.5,1.2,.7,1.8l-8.2,10.3H75.2ZM77.6,220l8.2,10.3c-.2,.6,-.5,1.2,-.7,1.8L75.2,220Zm211.8,0c2.6,.4,6.2,1.2,9.9,3.1H82.8L80.3,220Zm22,13.5C307.3,225.4,300.3,221.7,294.6,220h8.5l8.3,8.3Zm0,8.2c-2.4,5.9,-6.2,9.7,-10.3,12.1H94.2c-.4,-.1,-4,-1.3,-6.6,-5.1l3.8,-4.9V234l-3.8,-4.9c2.6,-3.8,6.2,-4.9,6.6,-5.1H301c4.1,2.5,8,6.3,10.4,12.3Zm0,7.8l-8.3,8.3h-8c5.6,-1.8,12.3,-5.5,16.3,-13.3Z" class="g4"/>
<path d="M56,213.6l18,15.6v19.4L56,264.2l-6.3,-6V219.6Zm0,-3L54.5,212l-6.4,5.9l-.7,.7v40.6l.7,.7l6.4,5.9l1.5,1.5l1.5,-1.4l18,-15.6l.8,-.7V228.2l-.8,-.7l-18,-15.6Z" class="g4"/>
<path d="M313.5,506.7v-23L304,474.1H61.4l2.5,2.1h74.4l10.8,13.1c-.4,1.3,-.6,2.6,-.8,4.1c-.8,.2,-1.4,.9,-1.4,1.8c0,.8,.6,1.5,1.4,1.7c.2,1.5,.4,2.9,.8,4.1l-10.8,13.1H63.9l-2.5,2.1H304Zm-168.8,7.4l2.4,-3.1H299.6c-3.3,1.7,-6.7,2.6,-9.2,3.1Zm9,-23.1v8.4l-2.9,3.6c-.8,-1.7,-1.4,-3.7,-1.6,-6.1c.8,-.2,1.3,-.9,1.3,-1.7c0,-.9,-.5,-1.5,-1.3,-1.8c.2,-2.4,.8,-4.4,1.6,-6Zm-5.8,-10.7h8.5c-1.5,.8,-3.4,2.1,-5.1,4.4Zm3.5,25.4c1.6,2.2,3.5,3.6,5,4.3h-8.5Zm-2,-3.7c.3,.6,.5,1.2,.8,1.7L142,514.1h-2.5Zm.8,-15.4c-.3,.5,-.5,1.1,-.8,1.7l-9.9,-12.1H142ZM289.4,476.2c2.6,.4,6.2,1.3,9.9,3.2H147.1l-2.5,-3.2Zm22,13.5c-4.1,-8,-11.1,-11.7,-16.8,-13.5h8.5l8.3,8.3Zm0,8.2c-2.4,5.9,-6.2,9.7,-10.3,12.2V510H158.6c-.5,-.1,-4.1,-1.3,-6.7,-5.1l3.9,-4.8v-9.9l-3.9,-4.8c2.6,-3.8,6.2,-5,6.7,-5.1H301c4.1,2.4,8,6.3,10.4,12.3Zm0,7.9l-8.3,8.3h-8c5.6,-1.8,12.3,-5.5,16.3,-13.3Z" class="g4"/>
<path d="M313.5,855.9v-23L304,823.3H61.4l2.5,2.1h74.4l10.8,13.1c-.4,1.3,-.6,2.6,-.8,4.1c-.8,.2,-1.4,.9,-1.4,1.8c0,.8,.6,1.6,1.4,1.7c.2,1.5,.4,2.9,.8,4.1l-10.8,13.1H63.9l-2.5,2.1H304Zm-168.8,7.4l2.4,-3.1H299.6c-3.3,1.7,-6.7,2.6,-9.2,3.1Zm9,-23.1v8.4l-2.9,3.6c-.8,-1.7,-1.4,-3.7,-1.6,-6.1c.8,-.2,1.3,-.9,1.3,-1.7c0,-.9,-.5,-1.5,-1.3,-1.8c.2,-2.4,.8,-4.4,1.6,-6Zm-5.8,-10.7h8.5c-1.5,.8,-3.4,2.1,-5.1,4.4Zm3.5,25.4c1.6,2.2,3.5,3.6,5,4.3h-8.5Zm-2,-3.7c.3,.6,.5,1.2,.8,1.7L142,863.3h-2.5Zm.8,-15.4c-.3,.5,-.5,1.1,-.8,1.7l-9.9,-12.1H142ZM289.4,825.4c2.6,.4,6.2,1.3,9.9,3.2H147.1l-2.5,-3.2Zm22,13.5c-4.1,-8,-11.1,-11.7,-16.8,-13.5h8.5l8.3,8.3Zm0,8.2c-2.4,5.9,-6.2,9.8,-10.3,12.2v-.1H158.6c-.5,-.1,-4.1,-1.3,-6.7,-5.1l3.9,-4.8v-9.9l-3.9,-4.8c2.6,-3.8,6.2,-5,6.7,-5.1H301c4.1,2.4,8,6.3,10.4,12.3Zm0,7.9l-8.3,8.3h-8c5.6,-1.8,12.3,-5.5,16.3,-13.3Z" class="g4"/>
<path d="M602.2,250.4v-23l-9.5,-9.5H350.2l2.4,2.1h74.5l10.7,13.1c-.3,1.2,-.6,2.5,-.7,4c-.8,.2,-1.5,.9,-1.5,1.8c0,.9,.7,1.6,1.5,1.8c.1,1.5,.4,2.8,.7,4l-10.7,13.1H352.6l-2.4,2.1H592.7Zm-168.8,7.4l2.5,-3.1H588.4c-3.4,1.8,-6.7,2.7,-9.3,3.1Zm9,-23.1v8.4l-2.9,3.6c-.7,-1.6,-1.3,-3.6,-1.5,-6.1c.7,-.2,1.3,-.9,1.3,-1.7c0,-.8,-.6,-1.5,-1.3,-1.7c.2,-2.5,.8,-4.5,1.5,-6.1ZM436.6,224h8.5c-1.4,.8,-3.4,2.2,-5,4.4Zm3.5,25.4c1.6,2.2,3.6,3.6,5,4.4h-8.5Zm-1.9,-3.7c.2,.7,.5,1.2,.7,1.8l-8.2,10.3h-2.4Zm.7,-15.4c-.2,.6,-.5,1.2,-.7,1.8L428.3,220h2.4ZM578.2,220c2.6,.4,6.2,1.2,9.9,3.1H435.9L433.4,220Zm21.9,13.5C596,225.4,589,221.7,583.4,220h8.4l8.3,8.3Zm0,8.2c-2.3,5.9,-6.2,9.7,-10.2,12.1H447.3c-.4,-.1,-4,-1.3,-6.6,-5.1l3.8,-4.9V234l-3.8,-4.9c2.6,-3.8,6.2,-4.9,6.6,-5.1H589.7c4.1,2.5,8.1,6.3,10.4,12.3Zm0,7.8l-8.3,8.3h-7.9c5.5,-1.8,12.2,-5.5,16.2,-13.3Z" class="g4"/>
<path d="M888.1,250.4v-23l-9.5,-9.5H636.1l2.4,2.1H713l10.7,13.1c-.4,1.2,-.6,2.5,-.7,4c-.9,.2,-1.5,.9,-1.5,1.8c0,.9,.6,1.6,1.5,1.8c.1,1.5,.3,2.8,.7,4L713,257.8H638.5l-2.4,2.1H878.6Zm-168.8,7.4l2.5,-3.1H874.2c-3.3,1.8,-6.7,2.7,-9.2,3.1Zm9,-23.1v8.4l-2.9,3.6c-.8,-1.6,-1.3,-3.6,-1.5,-6.1c.7,-.2,1.3,-.9,1.3,-1.7c0,-.8,-.6,-1.5,-1.3,-1.7c.2,-2.5,.7,-4.5,1.5,-6.1ZM722.5,224H731c-1.4,.8,-3.4,2.2,-5,4.4Zm3.5,25.4c1.6,2.2,3.6,3.6,5,4.4h-8.5Zm-1.9,-3.7c.2,.7,.4,1.2,.7,1.8l-8.2,10.3h-2.5Zm.7,-15.4c-.3,.6,-.5,1.2,-.7,1.8L714.1,220h2.5ZM864.1,220c2.5,.4,6.2,1.2,9.9,3.1H721.8L719.3,220ZM886,233.5C881.9,225.4,874.9,221.7,869.3,220h8.4l8.3,8.3Zm0,8.2c-2.3,5.9,-6.2,9.7,-10.2,12.1H733.2c-.4,-.1,-4,-1.3,-6.6,-5.1l3.8,-4.9V234l-3.8,-4.9c2.6,-3.8,6.2,-4.9,6.6,-5.1H875.6c4.1,2.5,8,6.3,10.4,12.3Zm0,7.8l-8.3,8.3h-8C875.3,256,882,252.3,886,244.5Z" class="g4"/>
<path d="M888.1,509.7V486.8l-9.5,-9.6H636.1l2.4,2.1H713l10.7,13.1c-.4,1.2,-.6,2.6,-.7,4.1c-.9,.2,-1.5,.9,-1.5,1.8c0,.8,.6,1.5,1.5,1.7c.1,1.5,.3,2.9,.7,4.1L713,517.2H638.5l-2.4,2.1H878.6Zm-168.8,7.5l2.5,-3.2H874.2c-3.3,1.8,-6.7,2.7,-9.2,3.2Zm9,-23.1v8.3l-2.9,3.7c-.8,-1.7,-1.3,-3.7,-1.5,-6.1c.7,-.3,1.3,-.9,1.3,-1.7c0,-.9,-.6,-1.5,-1.3,-1.8c.2,-2.4,.7,-4.4,1.5,-6.1Zm-5.8,-10.7H731c-1.4,.8,-3.4,2.1,-5,4.4Zm3.5,25.3c1.6,2.3,3.6,3.7,5,4.4h-8.5Zm-1.9,-3.6c.2,.6,.4,1.2,.7,1.7l-8.2,10.4h-2.5Zm.7,-15.4c-.3,.5,-.5,1.1,-.7,1.7l-10,-12.1h2.5ZM864.1,479.3c2.5,.4,6.2,1.3,9.9,3.2H721.8l-2.5,-3.2ZM886,492.8c-4.1,-8,-11.1,-11.7,-16.7,-13.5h8.4l8.3,8.3Zm0,8.2c-2.3,5.9,-6.2,9.7,-10.2,12.2v-.1H733.2c-.4,-.1,-4,-1.3,-6.6,-5.1l3.8,-4.8v-9.9l-3.8,-4.8c2.6,-3.8,6.2,-5,6.6,-5.1H875.6c4.1,2.4,8,6.3,10.4,12.3Zm0,7.9l-8.3,8.3h-8c5.6,-1.8,12.3,-5.5,16.3,-13.4Z" class="g4"/>
<path d="M888.1,769.2v-23l-9.5,-9.5H636.1l2.4,2.1H713l10.7,13.1c-.4,1.2,-.6,2.5,-.7,4c-.9,.2,-1.5,.9,-1.5,1.8c0,.9,.6,1.6,1.5,1.7c.1,1.5,.3,2.9,.7,4.1L713,776.6H638.5l-2.4,2.1H878.6Zm-168.8,7.4l2.5,-3.1H874.2c-3.3,1.7,-6.7,2.6,-9.2,3.1Zm9,-23.1v8.4l-2.9,3.6c-.8,-1.7,-1.3,-3.7,-1.5,-6.1c.7,-.2,1.3,-.9,1.3,-1.7c0,-.8,-.6,-1.5,-1.3,-1.8c.2,-2.4,.7,-4.4,1.5,-6Zm-5.8,-10.7H731c-1.4,.8,-3.4,2.1,-5,4.4Zm3.5,25.4c1.6,2.2,3.6,3.6,5,4.4h-8.5Zm-1.9,-3.7c.2,.6,.4,1.2,.7,1.7l-8.2,10.4h-2.5Zm.7,-15.4c-.3,.5,-.5,1.1,-.7,1.7l-10,-12h2.5ZM864.1,738.8c2.5,.3,6.2,1.2,9.9,3.1H721.8l-2.5,-3.1ZM886,752.2c-4.1,-8,-11.1,-11.7,-16.7,-13.4h8.4L886,747Zm0,8.2c-2.3,5.9,-6.2,9.8,-10.2,12.2H733.2c-.4,-.2,-4,-1.4,-6.6,-5.2l3.8,-4.8v-9.8l-3.8,-4.9c2.6,-3.8,6.2,-5,6.6,-5.1H875.6c4.1,2.4,8,6.3,10.4,12.3Zm0,7.9l-8.3,8.3h-8c5.6,-1.8,12.3,-5.5,16.3,-13.3Z" class="g4"/>
<path d="M888.1,984.2v-23l-9.5,-9.5H636.1l2.4,2.1H713l10.7,13c-.4,1.3,-.6,2.6,-.7,4.1c-.9,.2,-1.5,.9,-1.5,1.8c0,.9,.6,1.6,1.5,1.7c.1,1.5,.3,2.9,.7,4.1L713,991.6H638.5l-2.4,2.1H878.6Zm-168.8,7.4l2.5,-3.1H874.2c-3.3,1.7,-6.7,2.6,-9.2,3.1Zm9,-23.1v8.4l-2.9,3.6c-.8,-1.7,-1.3,-3.7,-1.5,-6.1c.7,-.2,1.3,-.9,1.3,-1.7c0,-.9,-.6,-1.5,-1.3,-1.8c.2,-2.4,.7,-4.4,1.5,-6Zm-5.8,-10.7H731c-1.4,.8,-3.4,2.1,-5,4.4Zm3.5,25.4c1.6,2.2,3.6,3.6,5,4.4h-8.5Zm-1.9,-3.7c.2,.6,.4,1.2,.7,1.7l-8.2,10.4h-2.5Zm.7,-15.4c-.3,.5,-.5,1.1,-.7,1.7l-10,-12h2.5ZM864.1,953.8c2.5,.3,6.2,1.2,9.9,3.1H721.8l-2.5,-3.1ZM886,967.2c-4.1,-8,-11.1,-11.7,-16.7,-13.4h8.4L886,962Zm0,8.2c-2.3,5.9,-6.2,9.8,-10.2,12.2H733.2c-.4,-.2,-4,-1.4,-6.6,-5.2l3.8,-4.8v-9.9l-3.8,-4.8c2.6,-3.8,6.2,-5,6.6,-5.1H875.6c4.1,2.4,8,6.3,10.4,12.3Zm0,7.9l-8.3,8.3h-8c5.6,-1.8,12.3,-5.5,16.3,-13.3Z" class="g4"/>
<path d="M602.2,595.1v-23l-9.5,-9.6H350.2l2.4,2.1h74.5l10.7,13.1c-.3,1.2,-.6,2.6,-.7,4.1c-.8,.2,-1.5,.9,-1.5,1.8c0,.8,.7,1.5,1.5,1.7c.1,1.5,.4,2.9,.7,4.1l-10.7,13.1H352.6l-2.4,2.1H592.7Zm-168.8,7.4l2.5,-3.2H588.4c-3.4,1.8,-6.7,2.7,-9.3,3.2Zm9,-23.1v8.3l-2.9,3.7c-.7,-1.7,-1.3,-3.7,-1.5,-6.1c.7,-.3,1.3,-.9,1.3,-1.7c0,-.9,-.6,-1.5,-1.3,-1.8c.2,-2.4,.8,-4.4,1.5,-6.1Zm-5.8,-10.7h8.5c-1.4,.8,-3.4,2.1,-5,4.4Zm3.5,25.3c1.6,2.3,3.6,3.7,5,4.4h-8.5Zm-1.9,-3.6c.2,.6,.5,1.2,.7,1.7l-8.2,10.4h-2.4Zm.7,-15.4c-.2,.5,-.5,1.1,-.7,1.7l-9.9,-12.1h2.4ZM578.2,564.6c2.6,.4,6.2,1.3,9.9,3.2H435.9l-2.5,-3.2Zm21.9,13.5C596,570.1,589,566.4,583.4,564.6h8.4l8.3,8.3Zm0,8.2c-2.3,5.9,-6.2,9.7,-10.2,12.2v-.1H447.3c-.4,-.1,-4,-1.3,-6.6,-5.1l3.8,-4.8v-9.9l-3.8,-4.8c2.6,-3.8,6.2,-5,6.6,-5.1H589.7c4.1,2.4,8.1,6.3,10.4,12.3Zm0,7.9l-8.3,8.3h-7.9c5.5,-1.8,12.2,-5.5,16.2,-13.4Z" class="g4"/>
<path d="M602.2,941.2v-23l-9.5,-9.5H350.2l2.4,2.1h74.5l10.7,13.1c-.3,1.2,-.6,2.5,-.7,4c-.8,.2,-1.5,.9,-1.5,1.8c0,.9,.7,1.6,1.5,1.8c.1,1.4,.4,2.8,.7,4l-10.7,13.1H352.6l-2.4,2.1H592.7Zm-168.8,7.4l2.5,-3.1H588.4c-3.4,1.8,-6.7,2.7,-9.3,3.1Zm9,-23.1v8.4l-2.9,3.6c-.7,-1.6,-1.3,-3.6,-1.5,-6.1c.7,-.2,1.3,-.9,1.3,-1.7c0,-.8,-.6,-1.5,-1.3,-1.7c.2,-2.5,.8,-4.5,1.5,-6.1Zm-5.8,-10.7h8.5c-1.4,.8,-3.4,2.2,-5,4.4Zm3.5,25.4c1.6,2.2,3.6,3.6,5,4.4h-8.5Zm-1.9,-3.7c.2,.6,.5,1.2,.7,1.8l-8.2,10.3h-2.4Zm.7,-15.4c-.2,.6,-.5,1.1,-.7,1.8l-9.9,-12.1h2.4ZM578.2,910.8c2.6,.4,6.2,1.2,9.9,3.1H435.9l-2.5,-3.1Zm21.9,13.5C596,916.2,589,912.5,583.4,910.8h8.4l8.3,8.3Zm0,8.1c-2.3,6,-6.2,9.8,-10.2,12.2H447.3c-.4,-.2,-4,-1.3,-6.6,-5.1l3.8,-4.9v-9.8l-3.8,-4.9c2.6,-3.8,6.2,-5,6.6,-5.1H589.7c4.1,2.5,8.1,6.3,10.4,12.3Zm0,7.9l-8.3,8.3h-7.9c5.5,-1.8,12.2,-5.5,16.2,-13.3Z" class="g4"/>
<path d="M56,469.9l18,15.6v19.4L56,520.4l-6.3,-5.9V475.9Zm0,-3.1l-1.5,1.4l-6.4,6l-.7,.7v40.5l.7,.7l6.4,6l1.5,1.4l1.5,-1.3l18,-15.6l.8,-.7V484.4l-.8,-.7l-18,-15.5Z" class="g4"/>
<path d="M56,819.1l18,15.6v19.4L56,869.6l-6.3,-5.9V825.1ZM56,816l-1.5,1.4l-6.4,6l-.7,.7v40.5l.7,.7l6.4,6l1.5,1.4l1.5,-1.3l18,-15.6l.8,-.7V833.6l-.8,-.7l-18,-15.5Z" class="g4"/>
<path d="M344.8,213.6l18,15.6v19.4l-18,15.6l-6.4,-6V219.6Zm-.1,-3l-1.5,1.4l-6.3,5.9l-.7,.7v40.6l.7,.7l6.3,5.9l1.5,1.5l1.6,-1.4l18,-15.6l.7,-.7V228.2l-.7,-.7l-18,-15.6Z" class="g4"/>
<path d="M630.7,213.6l17.9,15.6v19.4l-17.9,15.6l-6.4,-6V219.6Zm-.1,-3l-1.5,1.4l-6.3,5.9l-.8,.7v40.6l.8,.7l6.3,5.9l1.5,1.5l1.6,-1.4l17.9,-15.6l.8,-.7V228.2l-.8,-.7L632.2,211.9Z" class="g4"/>
<path d="M630.7,473l17.9,15.6v19.3l-17.9,15.6l-6.4,-6V479Zm-.1,-3.1l-1.5,1.4l-6.3,6l-.8,.7v40.5l.8,.7l6.3,6l1.5,1.4l1.6,-1.3l17.9,-15.6l.8,-.7V487.5l-.8,-.7L632.2,471.3Z" class="g4"/>
<path d="M630.7,732.4L648.6,748v19.4l-17.9,15.5L624.3,777V738.4Zm-.1,-3.1l-1.5,1.4l-6.3,6l-.8,.7V778l.8,.6l6.3,6l1.5,1.4l1.6,-1.3l17.9,-15.6l.8,-.7V746.9l-.8,-.6L632.2,730.7Z" class="g4"/>
<path d="M630.7,947.4L648.6,963v19.4l-17.9,15.5L624.3,992V953.4Zm-.1,-3.1l-1.5,1.4l-6.3,6l-.8,.7v40.5l.8,.7l6.3,6l1.5,1.4l1.6,-1.3l17.9,-15.6l.8,-.7V961.9l-.8,-.6L632.2,945.7Z" class="g4"/>
<path d="M344.8,558.3l18,15.6v19.3l-18,15.6l-6.4,-6V564.3Zm-.1,-3.1l-1.5,1.4l-6.3,6l-.7,.7v40.5l.7,.7l6.3,6l1.5,1.4l1.6,-1.3l18,-15.6l.7,-.7V572.8l-.7,-.7l-18,-15.5Z" class="g4"/>
<path d="M344.8,904.4l18,15.6v19.4l-18,15.6l-6.4,-6V910.4Zm-.1,-3.1l-1.5,1.5l-6.3,5.9l-.7,.7V950l.7,.6l6.3,6l1.5,1.4l1.6,-1.3l18,-15.6l.7,-.7V919l-.7,-.7l-18,-15.6Z" class="g4"/>
<path d="M353.5,59.6c.5,0,.5,.6,0,.6H353v-.6Zm.5,1.1c1,-.2,.8,-1.8,-.5,-1.8h-1.3v2.8h.8v-.9h.2l.7,.9h.7v-.2Zm-.7,1.8c1.3,0,2,-1,2,-2.2c0,-1.2,-.7,-2.1,-2,-2.1c-1.3,0,-2,.9,-2,2.1c0,1.2,.7,2.2,2,2.2M356,60.3c0,1.5,-1,2.7,-2.7,2.7c-1.7,0,-2.7,-1.2,-2.7,-2.7c0,-1.5,1,-2.7,2.7,-2.7c1.7,0,2.7,1.2,2.7,2.7Z" class="g4"/>
<g clip-path="url(#c0)">
<path d="M345.9,37.9c-2,-1,-3.9,-1.5,-6.6,-1.6h-5.4c-4.2,0,-6.2,-.1,-7.7,-.4c-1.3,-.3,-2.4,-1,-2.4,-1l-.4,-.3l.1,.4c0,.2,.3,3,3.7,5.5c.7,.5,1.2,1,1.2,2.7v1.1c.7,-.5,1.5,-.9,2.4,-1.2c-.3,.3,-.7,.7,-1,1.1c.6,-.4,1.4,-.7,2.6,-1c1.6,-.2,2.8,-.1,3.4,0v-.4h3c3.9,0,6.2,2.5,6.2,6.9c0,4.3,-2.3,6.8,-6.2,6.8h-1.2c1.1,1,1.7,2.3,1.7,3.7c0,1,-.3,2,-.9,2.8c3.7,0,6.1,-.7,8.7,-2.4c1.1,-.8,2.1,-1.6,2.9,-2.6c1.7,-2.2,2.8,-5.3,2.8,-8.4c0,-5.1,-2.6,-9.4,-6.9,-11.7M329.7,56.6c.2,-.2,.2,-.5,.1,-.8L329,53.4l2.1,1.3c.2,.1,.4,.3,.6,.4L333,55c1,-.1,1.9,.1,2.8,.4V48.7c-.5,.1,-.9,.3,-1,.5l-.6,.5l-.6,-.5c-.4,-.3,-.9,-.4,-1.6,-.4c-1,0,-1.9,.4,-2.6,1.1c-.4,.5,-.7,.9,-1,1.4v5.3c.5,.4,1,.4,1.3,0M303,56.3l-.9,1.1l.3,-3.3c.3,-2.7,1.9,-4.6,3.1,-5.6c-.2,0,-.5,0,-.8,.1l-2.9,.6l2.1,-2.1c.7,-.8,1.8,-1.3,2.6,-1.8c.1,0,.3,-.1,.4,-.2c-1.1,-3.1,-3.2,-5.6,-6.2,-7.2c-1.9,-1,-3.9,-1.5,-6.5,-1.6h-5.4c-4.3,0,-6.3,-.1,-7.8,-.4c-1.2,-.3,-2.4,-1,-2.4,-1l-.3,-.3V35c0,.2,.3,3,3.8,5.5c.6,.5,1.1,1,1.1,2.7V58.6c0,1.7,-.3,2.1,-1.1,2.6c-.8,.5,-2.5,1.5,-2.5,1.5L279,63h14c3.9,0,6.3,-.6,9,-2.4c.3,-.3,.7,-.5,1,-.8c-.2,-1.2,-.2,-2.4,0,-3.5M335.8,44.2v-.7c-.5,.1,-1.2,.4,-1.5,.6c.5,0,1,0,1.5,.1M293.7,56.5h-3V42.8h3c3.9,0,6.1,2.5,6.1,6.9c0,4.3,-2.2,6.8,-6.1,6.8Z" class="g4"/>
<path d="M332.9,56.8c.5,.1,1.2,.6,1.2,1.3c0,.5,-.2,.8,-.6,1.1c-.2,.1,-.4,.2,-.6,.3c.1,-.4,.1,-.9,.1,-1.4c0,-.8,-.1,-1.3,-.1,-1.3m-.6,-10.1c-4,.2,-7.4,3.6,-9.2,5.9c.3,.1,.7,.3,1,.5c.3,.3,.9,.8,1.5,1.3c.4,-1.1,1.5,-3.2,3.1,-5.1c1.5,-1.7,4.1,-1.8,5.5,-.8c.8,-.8,3.9,-1.5,5.4,-1.1c-.9,-1,-3,-2.4,-5.3,-2.4c-1.8,0,-2.9,.9,-3.1,.5c-.4,-.6,1.2,-1.3,1.2,-1.3c-2.2,0,-3.8,2.6,-4.5,2.3c-.4,-.2,.6,-1.4,.6,-1.4c-2,1.1,-3.7,3.6,-4,5.1c1.8,-2.2,5.4,-3.9,7.8,-3.5m-9.2,12.8c-.8,-.6,-2,-1.6,-2.9,-2.3c-1,1.7,-3.1,3.9,-5.3,3.9c-4,0,-6,-5.6,-1.5,-10.3c-.3,-.1,-.5,-.1,-.6,-.1c-.4,0,-.8,.1,-1,.3L310,52.2l.4,-2.2c0,-.1,.1,-.3,.1,-.4c-1,.5,-2,1.3,-2.4,1.7l-1.7,1.9l.2,-2.7c0,-.2,.1,-.4,.1,-.6c.1,-.4,.2,-1,.1,-1.2c0,0,0,-.1,-.1,-.1c-.8,.6,-3.1,2.7,-3.4,5.6c0,0,.5,-.6,.9,-.8c.2,-.1,.4,.1,.2,.8c-.1,.3,-2.3,6.2,2,10.3c0,0,-.5,-1.2,-.2,-1.5c.2,-.2,.4,-.2,.6,.1c.2,.2,.4,.5,.6,.7c.3,.4,.7,.8,1.2,1.1c1.3,.9,3,1.6,5,1.6c5.3,0,8.2,-3.6,9.7,-6.7c0,-.1,-.1,-.2,-.2,-.3m15.3,.7c0,-2.6,-2.5,-4.5,-5.3,-4.3c.8,.2,1.9,1,1.9,2.2c0,2.1,-2.5,2.7,-3.8,2.4c1.4,-1.1,1.2,-4,-.5,-5c.6,1.6,-1.2,3.2,-3,1.8c-.9,-.8,-3.2,-2.7,-4.2,-3.5c-1,-.8,-2.2,-.3,-2.6,-.6c-.5,-.4,-.2,-1.6,-.9,-2c-.6,-.3,-1.2,-.1,-1.9,-.4c-.7,-.2,-1.1,-.7,-1,-1.3c-.3,.4,-.3,1.3,.1,1.8c.5,.6,1.3,.9,1.6,1.5c.5,.8,-.2,1.9,1.7,3.4c.9,.7,2.3,1.9,3.2,2.7c1.5,1.3,.7,3,.9,4.5c.2,1.7,1.6,2.7,2.6,2.9c-.8,-.7,-1.1,-2.5,0,-3.6c0,1.4,1.1,3.6,3.4,4.3c2.6,.6,5.2,-.8,5.8,-1.8c-1,.5,-2.8,0,-3.6,-.7c3,.4,5.6,-1.7,5.6,-4.3M318.9,47.9c0,0,-.4,-1.3,-1.7,-1.7c.3,.9,.6,1.7,1.7,1.7m-14.4,-.2c1.3,-1.3,3.9,-2.1,4.1,-2.8c.2,-.6,-1.2,-1.8,-1.7,-2c1.9,-.1,2.8,.3,2.8,.3c-.5,-.8,-.7,-1.8,-.4,-2.7c1,2.4,4.6,2.8,5.5,4.8c-.1,-.9,-.9,-1.8,-1.9,-2.4c-.5,-1.3,-.1,-3.7,.5,-4.4c-.2,3.5,4.8,5.5,5.8,8c-.6,-2.2,-2.9,-3.5,-4,-4.8c-.4,-.9,-.1,-2.4,.3,-2.9c-.1,2.4,2.4,4.2,3.8,5.5c1.5,1.5,2,2.9,1.8,4c.3,.1,.8,.4,.7,1c.5,-.1,1.1,-.7,1.2,-1c.2,1.7,-.8,3.5,-1.9,4.1c0,0,.3,-.8,-.3,-1.5c-.5,-.6,-1.9,-.6,-2.4,-.6c0,0,.6,-.9,.3,-1.3c-.3,-.6,-3.1,-.3,-4.4,.1c.5,0,1.5,.1,1.8,.2c-.2,.3,-.7,1.6,-.3,2c.3,.3,.8,-.3,.8,-.3c0,0,-.5,1.4,-.1,1.7c.3,.3,1,.1,1,.1c-.5,1.1,-2.1,1.8,-3.3,1.8c.4,-.1,1.1,-.8,1.2,-1.3c-.3,.2,-1.1,.2,-1.4,.2c.4,-.2,1.2,-1.1,.9,-2.2c-.3,-1.6,-2.5,-1.8,-3.6,-1c.3,-1.1,1.4,-2.1,2.2,-2.4c-.5,-.2,-1,-.3,-1.7,-.5c.7,-.5,2.5,-1,3.4,-1c-1.4,-.3,-3.9,.1,-5,1.5c.3,0,1.3,.2,1.7,.3c-1.6,.3,-3.8,1.8,-4.4,2.5c.1,-1,.4,-1.7,.2,-2.3c-.3,-.8,-1.3,-1.1,-3.2,-.7m3,-8.2c-.3,-3,1.1,-4.6,1.8,-5.3c1.4,-1.4,3.3,-2.3,6.1,-2.1c4.5,.2,6.6,3.2,6.6,6.5c0,1.6,-.8,3.8,-1.9,5.3c-.1,-.1,-.1,-.2,-.2,-.2c-.2,-.3,-.5,-.5,-.8,-.7c-.7,-.7,-1.5,-1.4,-2.1,-2.3c1.3,-2.2,.6,-5.3,-2,-5.3c-1.5,0,-2.8,1.3,-2.7,3.2c-.4,.9,-.6,2.1,-.5,3.2c-.7,-.4,-1.4,-.9,-1.6,-1.7l-1,-2.2l-.7,2.3c-.2,.6,-.3,1.2,-.2,1.8c-.3,-.5,-.7,-1.3,-.8,-2.5Z" class="g4"/>
</g>
</svg>