<?xml version="1.0" encoding="UTF-8" standalone="no"?>
<!DOCTYPE svg PUBLIC "-//W3C//DTD SVG 1.1//EN"
"http://www.w3.org/Graphics/SVG/1.1/DTD/svg11.dtd">
<svg viewBox="0 0 935 1210" version="1.1" xmlns="http://www.w3.org/2000/svg" xmlns:xlink="http://www.w3.org/1999/xlink">
<defs>
<clipPath id="c0"><path d="M154.7,79.8V44h77.7V79.8Z"/></clipPath>
<style type="text/css"><![CDATA[
.g0{
fill: #DEDFDF;
}
.g1{
fill: #FFFFFF;
}
.g2{
fill: none;
stroke: #000000;
stroke-width: 2.1;
stroke-linecap: butt;
stroke-linejoin: miter;
}
.g3{
fill: #E7E8E8;
}
.g4{
fill: none;
stroke: #000000;
stroke-width: 1.145;
stroke-linecap: butt;
stroke-linejoin: miter;
}
.g5{
}
.g6{
fill: none;
stroke: #000000;
stroke-width: 1.909;
stroke-linecap: butt;
stroke-linejoin: miter;
}
.g7{
fill: #C3C4C6;
}
.g8{
fill: none;
stroke: #B5B6B6;
stroke-width: 0.381;
stroke-linecap: butt;
stroke-linejoin: miter;
stroke-miterlimit: 4;
}
.g9{
fill: none;
stroke: #000000;
stroke-width: 0.916;
stroke-linecap: butt;
stroke-linejoin: miter;
}
]]></style>
</defs>
<path d="M639.2,464.6c2.2,.4,5.7,.7,9.4,-.5l7.6,2.1H641.5c-.6,-.4,-1.4,-1,-2.3,-1.6m208.3,1.6h14.7c.7,-.4,1.5,-1,2.3,-1.6c-2.2,.4,-5.7,.7,-9.4,-.5ZM862.2,202.8H847.5l7.6,2.1c3.7,-1.2,7.2,-.9,9.4,-.5c-.8,-.6,-1.6,-1.1,-2.3,-1.6m-233,245.9V350.6c-.3,-.2,-.6,-.6,-.6,-1.1c0,-.6,.5,-1.2,1.2,-1.2c.7,0,1.2,.6,1.2,1.2c0,.5,-.3,.9,-.6,1.1v98.1c0,6.8,3.9,11.7,7.5,14.8c1.5,.4,6,1.3,10.6,-.1l.1,-.1l.1,.1l10.5,2.8H844.6l10.5,-2.9l.1,.1c4.6,1.4,9.1,.5,10.6,.1c3.6,-3.1,7.6,-8,7.6,-14.8V350.6c-.4,-.2,-.7,-.6,-.7,-1.1c0,-.6,.6,-1.2,1.2,-1.2c.7,0,1.2,.6,1.2,1.2c0,.5,-.2,.9,-.6,1.1v98.1c0,8.8,-6,14.5,-10.2,17.5h2.8c3.1,-2.8,9.1,-9.4,11.4,-18.7v-226c-2.3,-9.3,-8.3,-15.9,-11.3,-18.7h-2.9c4.2,3,10.2,8.7,10.2,17.5v96.6c.4,.2,.6,.6,.6,1.1c0,.6,-.5,1.2,-1.2,1.2c-.6,0,-1.2,-.6,-1.2,-1.2c0,-.5,.3,-.9,.7,-1.1V220.3c0,-6.8,-4,-11.7,-7.6,-14.8c-1.5,-.4,-6,-1.3,-10.6,.1l-.1,.1l-.1,-.1l-10.4,-2.8H659.2l-10.6,2.9l-.1,-.1c-4.6,-1.4,-9.1,-.5,-10.6,-.1c-3.6,3.1,-7.5,8,-7.5,14.8v96.6c.3,.2,.6,.6,.6,1.1c0,.6,-.5,1.2,-1.2,1.2c-.7,0,-1.2,-.6,-1.2,-1.2c0,-.5,.3,-.9,.6,-1.1V220.3c0,-8.8,6.1,-14.5,10.3,-17.5h-2.9c-3,2.8,-9.1,9.4,-11.4,18.7v226c2.3,9.3,8.4,15.9,11.4,18.7h2.9c-4.2,-3,-10.3,-8.7,-10.3,-17.5m27,-245.9H641.5c-.6,.5,-1.4,1,-2.3,1.6c2.2,-.4,5.7,-.7,9.4,.5Zm-20.7,0h-4c0,0,-3.3,5.6,-6.3,7v9c2.5,-7.6,7.3,-13.2,10.3,-16M868.3,466.2h3.9c0,0,3.3,-5.6,6.3,-7v-9c-2.5,7.6,-7.3,13.2,-10.2,16m-243.1,-16v9c3,1.4,6.3,7,6.3,7h4c-3,-2.8,-7.8,-8.4,-10.3,-16M878.5,218.8v-9c-3,-1.4,-6.3,-7,-6.3,-7h-3.9c2.9,2.8,7.7,8.4,10.2,16Z" class="g0"/>
<path d="M143.2,93.6l35.5,2.7l-35.5,2.6L107.7,96.3Zm212.7,10l35.5,2.6l35.5,-2.6l-35.5,-2.7Zm174.6,-26l34,-2.6l-42,-3.1l64.3,-4.8L529.6,62.8l79.2,-5.9L473.9,46.8l36.2,-2.7l-66.2,-5l-58.8,4.4L358.6,40.1l64.9,-4.8l-52,-3.9l-36.2,2.7L293.2,30.9l-39.4,3l40,3l-44,3.3L205.7,36.9l25.6,-2L200.8,32.7L103.3,40l34.5,2.5L28.3,50.7l64.5,4.9L58.7,58.1l42,3.1L36.5,66l57.2,4.3L14.4,76.2l108.9,8.2L73.5,88.1l52.6,4L139.7,91l39.6,3l58.9,-4.4L264.6,93L196,98.2l94.1,7l20.6,-1.5l-37,-2.8l52.9,-4l37,2.8l24.3,-1.8l34.6,2.6L520,93.2L485.4,90.6L595,82.4Z" class="g0"/>
<path d="M294,170.4l28.9,2.1L294,174.7l-28.8,-2.2Zm172.8,8.1l28.8,2.1l28.9,-2.1l-28.9,-2.2ZM608.6,157.4l27.7,-2.1l-34.1,-2.5l52.1,-3.9l-46.4,-3.5l64.3,-4.8L562.6,132.4l29.5,-2.2l-53.8,-4l-47.8,3.5L469,126.9L521.7,123l-42.2,-3.2L450,122l-34.1,-2.5l-32,2.4l32.5,2.4L380.6,127l-35.8,-2.7l20.8,-1.6l-24.8,-1.8l-79.2,5.9l28,2.1l-88.9,6.7l52.4,3.9l-27.7,2l34.1,2.6L207.3,148l46.5,3.5l-64.4,4.8l88.5,6.6l-40.5,3l42.7,3.2l11.1,-.8l32.2,2.4l47.8,-3.6l21.4,2.8l-55.7,4.2l76.5,5.7l16.7,-1.2L400,176.3l43,-3.2l30.1,2.2l19.7,-1.4l28.1,2.1l79.2,-5.9L572,168l89,-6.7Z" class="g0"/>
<path d="M600,97.8l23.8,1.8L600,101.4L576.2,99.6Zm142.4,6.7l23.8,1.8L790,104.5l-23.8,-1.8Zm117,-17.4l22.8,-1.7L854.1,83.3l43,-3.2L858.8,77.2l53.1,-4L821.5,66.5l24.3,-1.8L801.4,61.3l-39.4,3L744.3,62l43.5,-3.3L752.9,56.1l-24.3,1.8L700.4,55.8l-26.3,2l26.8,2L671.4,62L641.9,59.8L659,58.5L638.5,57l-65.3,4.9l23.1,1.7L523,69.1l43.2,3.2L543.4,74l28.1,2.1l-43,3.3l38.3,2.8l-53.1,4l73,5.5l-33.5,2.5l35.3,2.6l9.1,-.7l26.6,2l39.4,-3l17.7,2.4l-45.9,3.4l63,4.7l13.8,-1l-24.8,-1.9l35.4,-2.6l24.8,1.8l16.3,-1.2l23.2,1.7l65.3,-4.8L829.2,95.8l73.4,-5.5Z" class="g0"/>
<path d="M274,71.7L315.7,68L274,65.1l-44.1,3.3Z" class="g1"/>
<path d="M282.2,63.1L310,60.7l-27.8,-2l-29.4,2.2Z" class="g1"/>
<path d="M259.5,59.3l20.6,-1.8L259.5,56.1l-21.7,1.6Z" class="g1"/>
<path d="M302.3,56l19.2,-1.7L302.3,53l-20.4,1.5Z" class="g1"/>
<path d="M271.3,75.6l27.8,-2.4l-27.8,-2L242,73.4Z" class="g1"/>
<path d="M111.5,52.7l28.6,-2.5l-28.6,-2L81.2,50.5Z" class="g1"/>
<path d="M116.3,55.3l22,-1.9l-22,-1.5L93.1,53.6Z" class="g1"/>
<path d="M103.4,68.3l21.9,-1.9L103.4,64.8L80.1,66.5Z" class="g1"/>
<path d="M110.1,72.8l19.4,-1.7L110.1,69.7L89.5,71.2Z" class="g1"/>
<path d="M866.1,442.9H637.7V217.6H866.1V442.9Z" class="g1"/>
<path d="M866.1,442.9H637.7V217.6H866.1V442.9Z" class="g2"/>
<path d="M859.6,255.1V234.5H647.5l-3.6,3.6v20.6H856Z" class="g3"/>
<path d="M878.7,89.1v58.2c22.2,-.1,25.1,0,28.9,-4.9V85.1c-7.1,3.8,-14.5,3.9,-28.9,4Z" class="g2"/>
<path d="M877.7,93.4c24.8,-.1,27.1,-1.8,29.3,-3.5m-28.3,52.7c29.9,3.4,27.4,-5.5,28.7,-5.8" class="g4"/>
<path d="M399.7,81.2c-.2,-.1,0,-.3,.2,-.2c.2,.1,-.1,.4,-.2,.2m2.9,4.4c.1,.2,.1,.5,.1,.7c1.1,.7,1.9,2,1.8,3.1c0,.4,-.2,.6,-.5,.7c.2,.3,.4,.6,.5,1c.4,1.8,-2,2.3,-2.8,1c-.2,-.3,-.3,-.5,-.5,-.7c-.7,-.3,-2.5,-.3,-4.3,-.2c-1.3,2.2,-2.8,4.2,-4.7,5.9c-1,1,-3,.5,-3.4,-.8c-.2,.2,-.4,.3,-.6,.5c-.8,.6,-1.8,-.4,-1.4,-1.2c.2,-.3,.3,-.6,.5,-.9c-.3,0,-.7,-.2,-.9,-.4c-.5,.6,-1.2,.7,-1.8,.4c-.1,.1,-.2,.2,-.2,.3q-.1,.1,-.1,.2c.3,1.2,-.2,2.8,-1.7,3.2c-3.4,.7,-6.1,-.3,-9,-1.5c0,.4,-.2,.8,-.6,1.1c-.2,.2,-.4,.4,-.6,.5c-7.8,3.6,-16.1,5.7,-24.2,8.6c-.8,.3,-1.5,-.1,-1.8,-.7c-1.3,.7,-2.7,-.6,-2,-1.9c-.6,.5,-1.3,1,-2,1.5c-.5,.3,-1,.3,-1.4,0c-.6,.5,-1.1,1,-1.7,1.5c-1,.8,-2.7,-.2,-2.2,-1.5c.1,-.3,.3,-.6,.4,-.9c-.6,.6,-1.1,1.2,-1.7,1.8c-.7,.8,-1.8,.4,-2.2,-.3c-.1,.2,-.2,.3,-.4,.4c-.8,.8,-2,.1,-2.1,-.9c-.1,.2,-.3,.4,-.4,.6c-.9,1.2,-2.3,-.1,-2.2,-1.2c.1,-.2,.1,-.3,.1,-.4c-.3,.3,-.5,.6,-.9,.9c-.7,.7,-2.3,-.1,-2,-1.1c.1,-.2,.1,-.3,.1,-.4c-.2,.2,-.4,.4,-.6,.6c-.8,.6,-1.7,.2,-2,-.5c-.1,.1,-.2,.2,-.4,.4c-.6,.6,-2.1,.4,-2,-.7c0,-.9,.1,-1.7,.2,-2.6c-1.1,.8,-2.3,1.4,-3.6,1.8c-.7,.3,-1.5,-.6,-.9,-1.2c.2,-.2,.4,-.4,.6,-.6c-.2,.1,-.4,.2,-.6,.2c-.5,.2,-.8,-.1,-1,-.4c-.7,.3,-1.5,.6,-2.2,1c.2,1.1,.5,2.2,.7,3.2c0,.2,0,.4,-.2,.5c.3,.1,.5,.3,.7,.5c.1,.1,.1,.3,.1,.4c0,.1,-.1,.1,-.1,.2c0,.1,-.1,.2,-.2,.2c0,.3,0,.6,-.1,.9c0,.2,-.4,.3,-.5,.1c-.1,-.4,-.1,-.7,-.1,-1c0,0,-.1,0,-.1,-.1c0,.1,-.1,.2,-.2,.2c-.5,.1,-1.1,.1,-1.6,0c-.4,-.1,-.2,-.8,.2,-.8c.3,0,.6,.1,.9,.1c.1,-.1,.2,-.2,.2,-.3c0,-.2,.2,-.2,.2,0c.1,.1,.1,.2,0,.3q.1,0,.1,0c0,-.1,.1,-.1,.2,-.2c0,-.1,0,-.2,-.1,-.3c-.1,0,-.3,-.1,-.4,-.2c-.2,.3,-.7,.3,-.8,0c-.4,-.9,-.7,-1.8,-1,-2.7c0,-.1,-.1,-.2,-.1,-.2c-1.1,.4,-2.3,.8,-3.4,1.1c-.3,0,-.6,0,-.8,-.2c-.5,.1,-1,-.1,-1.2,-.5c-.2,0,-.4,.1,-.5,.1c-1.3,.6,-2.3,-1.6,-1,-2.3c1.5,-.8,3.1,-1.6,4.7,-2.2c.2,-.1,.4,-.1,.6,-.1v-.1c-.4,-.8,-.7,-1.6,-.7,-2.3c-.1,-.4,-.1,-1,.3,-1.3c.2,-.4,.5,-.8,1,-1.2h.1c1.1,-2.2,2.7,-4.5,3.6,-6.9c0,0,0,-.1,0,-.1c-.7,-.6,-1.4,-1.3,-1.9,-2c-1.2,-.1,-2.5,-.4,-3.6,-.9c-.3,.1,-.7,.2,-1.1,.5c-.4,.7,-.7,1.4,-1,2.1c-.1,.8,-.3,1.7,-.8,2.4c-.1,.2,-.3,.2,-.5,.1c0,.3,-.1,.5,-.2,.8c.2,0,.3,.1,.3,.3c0,.3,-.1,.6,-.2,.9c-.1,.2,-.4,.5,-.7,.4c-.4,-.2,-.8,-.3,-1.2,-.5c0,0,-.1,0,-.1,0c-.1,0,-.2,0,-.3,-.1c.1,.3,-.1,.6,-.4,.4C300.5,90.9,299,89.4,297.9,88c-.1,-.1,-.2,-.1,-.3,-.2c-2.5,-1.5,-4.6,-3.6,-6.7,-5.5c-2.6,-2.1,-5.4,-4,-7.6,-6.5c-.1,-.1,0,-.2,.1,-.2c4.9,2.5,8.8,6.6,13.5,9.5c.1,-.1,.3,-.1,.4,-.2c.4,-.1,.6,.4,.5,.7c.1,0,.2,.1,.2,.2c.2,.1,.4,.2,.6,.3c.3,.1,.4,.3,.5,.6c.7,.6,1.4,1.3,1.8,1.9c.7,.1,1.4,.1,2.1,.2c.1,-.1,.3,0,.5,.1V89c.1,0,.1,.1,.1,.2c0,.1,0,.2,-.1,.3c0,.1,0,.2,-.1,.2c.2,0,.3,0,.5,-.1c0,0,-.1,0,0,-.1v-.1c-.1,-.1,-.2,-.2,-.2,-.4c-.2,-.2,-.4,-.4,-.4,-.7c.1,-.6,.1,-1.2,.2,-1.7c-.2,-.1,-.4,-.2,-.6,-.3c-.5,-.3,-1.1,-.5,-1.6,-.9c-.3,.2,-.8,.3,-1,-.1c-1,-1.3,-1.2,-3.4,-1.4,-5c-.1,-.7,-.3,-2,-.1,-3c-.2,-.2,-.4,-.4,-.3,-.8c.4,-1.4,2.4,-2.1,3.7,-2.3c.4,0,1,0,1.5,.1c.4,-.6,.7,-1.1,.9,-1.7q0,-.1,0,-.1c-.1,0,-.2,-.1,-.3,-.2c0,-.1,-.1,-.2,-.2,-.2c-.1,-.1,-.2,-.2,-.2,-.3q0,-.1,0,-.2c-.2,-.3,-.4,-.5,-.6,-.8c-.2,-.1,-.3,-.3,-.5,-.4c-.2,.1,-.4,.1,-.6,0c0,.2,0,.4,0,.6c0,.2,-.3,.2,-.5,.1c-.1,-.2,-.2,-.5,-.2,-.7c0,0,0,.1,0,.1c0,.1,-.1,.2,-.1,.2c0,.1,.1,.2,.1,.4c.1,.2,-.2,.4,-.3,.2c-.1,-.1,-.2,-.2,-.3,-.3c-.1,.2,-.5,.3,-.7,0c-.3,-.4,-.5,-1,-.5,-1.5c-.3,-.8,-.4,-1.6,-.3,-2.4c0,-.5,0,-1,.2,-1.4c-.3,-.1,-.3,-.5,0,-.6c0,0,.1,0,.1,0q.1,0,.2,0c.2,-1.4,1.9,-2,3.3,-1.4c.1,0,.2,0,.3,.1v.1c.6,.3,1,.7,1.3,1.2c.6,.7,.9,1.7,.8,2.7c.1,.3,.1,.5,.2,.7q0,.1,0,.2c.2,.1,.4,.2,.5,.4c.1,.1,.2,.2,.3,.4c.6,.7,1.1,1.5,1.4,2.3c1.7,1.2,3.3,2.7,4.2,4.6c.7,1.4,1.7,2.9,2.2,4.5c.3,.3,.5,.7,.7,1c.2,.4,.5,.8,.7,1.3c0,.1,0,.2,0,.3c0,0,0,.1,0,.2c.1,0,.2,0,.2,0c.9,.4,1.9,.7,2.7,1.4c.6,.6,.7,1.5,.3,2.2c.1,.1,.2,.4,.1,.7c-.1,0,-.1,.1,-.1,.2c0,.8,-.3,1.6,-1,2.1c-.3,.9,-.9,1.8,-1.5,2.5c.1,.1,.2,.1,.3,.1c.2,0,.3,.1,.3,.2q0,-.1,0,-.1q.1,-.1,.2,-.2c.2,-.6,.5,-1.2,.8,-1.8c.1,-.1,.2,0,.2,.1c0,.4,-.2,.8,-.3,1.2c0,-.1,.1,-.2,.2,-.2c.3,-.4,.9,-.1,.8,.4c0,0,0,.1,-.1,.1c.1,.1,.1,.3,.1,.4c-.1,.4,-.3,.7,-.5,1.1c.1,.1,.1,.2,.1,.3c0,0,.1,0,.1,.1c.2,.3,.3,.6,.5,1c0,-.1,0,-.2,-.1,-.2c-.1,-.5,-.2,-1,-.2,-1.6c-.1,-.4,.6,-.6,.7,-.2c.3,1,.6,1.9,.9,2.7c.3,-.3,.6,-.6,.9,-.9c-.4,-.7,-.7,-1.5,-1.2,-2.2c-.2,-.4,-.1,-.8,0,-1.1c.2,-.7,.4,-1.4,.7,-2.1v-.1c-.5,-2.4,-.7,-4.8,1.5,-4c.5,-.8,1.1,-1.5,1.9,-2.1c0,-.3,-.1,-.7,-.1,-1v-.1c-.6,.3,-1.2,.4,-2,0c-.8,-.3,-1.4,-1,-1.9,-1.8c-.2,0,-.3,-.2,-.3,-.3c-.1,-.1,-.1,-.2,-.1,-.3c-.4,-1,-.7,-2,-.6,-2.9c0,-.5,.7,-.5,.8,0c0,.1,.1,.3,.1,.5c.1,-.2,.2,-.4,.2,-.6v-.1c-.2,-.2,-.1,-.5,-.2,-.7c-.1,-.1,0,-.2,.1,-.2c0,-.1,-.1,-.3,-.1,-.4c0,-.1,0,-.2,.1,-.3c-.2,-.5,-.4,-.9,-.5,-1.4c-.9,-.9,-1.6,-1.9,-2.4,-3c-.6,-.9,-1.4,-1.9,-2,-2.9c-.4,0,-.8,-.1,-1.3,0c-.4,.2,-1,.5,-1,.5c0,.1,-.1,.1,-.2,.2c-.1,.1,-.2,.3,-.3,.4c.1,.3,.1,.5,.2,.8c0,.2,0,.3,-.1,.4c.2,1,.5,1.8,1.2,2.6c.1,.2,-.1,.4,-.2,.3c-.2,-.1,-.3,-.2,-.4,-.3c-1,-.5,-1.6,-1.7,-2.1,-2.6c-.6,-1,-1,-2,-1,-3.1q0,-.1,.1,-.1c0,.2,.1,.3,.2,.5q0,-.1,0,-.1c-.1,-.1,-.2,-.2,-.2,-.3c.1,-.7,.1,-1.5,.4,-2.1c-.1,-.1,-.2,-.2,-.1,-.4c.2,-.4,.7,-.5,1.2,-.7c.3,-.2,.6,-.4,.9,-.5c.3,-.1,.6,-.3,.9,-.5q0,-.1,0,-.1c0,-.3,-.1,-.5,-.2,-.8c.3,0,.4,.3,.5,.5c.1,0,.2,0,.2,.1c1.7,2.4,3.3,4.9,4.8,7.5c.3,.5,.6,1,.8,1.6c.4,.7,.7,1.4,1.1,2.1c0,-.1,0,-.2,.1,-.3c-.1,-.2,-.1,-.4,-.2,-.6c0,-.1,0,-.2,0,-.4c-.4,-.3,-.6,-.8,-.3,-1.2c.3,-.4,.6,-.9,.9,-1.3c.2,-.5,.4,-1,.6,-1.4c-.1,-.7,-.1,-1.4,.1,-2c0,-.2,.2,-.2,.3,0c0,0,0,.1,0,.1c0,-.1,0,-.3,.1,-.5q-.1,0,-.1,0c-.4,0,-.8,-.3,-1.2,-.4c-.2,-.1,-.3,-.2,-.5,-.3c0,.3,-.1,.5,-.3,.7c-.1,.1,-.3,.1,-.5,0c-.7,-.5,-.4,-2.1,-.4,-2.9c0,-.3,0,-.7,.1,-1c0,0,-.1,-.1,0,-.2c0,0,.1,-.1,.1,-.1c.2,-.5,.5,-.9,.9,-1.2c0,0,0,-.1,0,-.1c.1,-.1,.2,-.2,.3,-.2c0,-.1,.1,-.1,.1,-.2c.2,-.1,.3,-.3,.5,-.4c.1,-.2,.2,-.4,.2,-.7c.1,-.3,.1,-.6,.1,-.9c-.3,-.2,-.6,-.5,-.8,-.8c-.2,-.2,0,-.4,.2,-.4c.8,0,1.6,.4,2.3,.7c.1,-.2,.2,-.3,.5,-.3c1.2,.3,2,1.3,2.5,2.4c.4,.5,-.4,1.2,-.9,.8c-.1,0,-.2,.1,-.2,0c-.6,0,-1,-.3,-1.4,-.6c.1,.1,.2,.2,.3,.3c.2,0,.5,.2,.5,.5c.1,.3,.1,.6,.1,.9q0,-.1,.1,-.1c.2,-.4,1.1,-.2,1,.3c0,.3,0,.6,0,.9c-.1,.2,-.1,.4,-.2,.6c-.2,.5,-.3,.8,-.6,1.2c-.2,.2,-.5,.3,-.7,.2c0,.2,-.1,.4,-.2,.5l.1,-.1c.1,-.1,.2,-.1,.4,-.1c.1,0,.2,0,.3,.1c.1,-.1,.1,0,.2,0c.2,.1,.4,.2,.6,.3c.2,.1,.3,.1,.4,.1h.1c.1,-.3,.6,-.1,.6,.1c0,.4,-.1,.6,-.3,.8c.3,0,.6,.1,.7,.4c-.1,-.4,-.1,-.7,-.2,-1c0,-.4,.5,-.5,.6,-.2c.7,2.1,1.6,4.1,2.5,6.1c.2,-1.2,1,-2.3,1.3,-3.5c.1,-.4,.4,-.6,.8,-.7c-.1,-.3,-.2,-.5,-.3,-.8c0,0,0,-.1,0,-.2c-.1,-.1,-.3,-.3,-.4,-.4c-.4,-.1,-.8,-.5,-.8,-1.1c-1.3,-1.3,-.9,-3.6,0,-5c.1,-.2,.3,-.3,.5,-.3c.2,-.9,.6,-1.5,1.5,-2.2c.2,-.2,.5,-.1,.8,0c.2,-.2,.5,-.5,.8,-.7c.2,-.2,.5,0,.5,.2c.1,.3,.2,.5,.2,.6c.2,0,.5,.1,.7,.1c.4,0,.8,.5,.8,.9c0,.4,-.1,.8,-.1,1.1c.9,.9,.6,2.6,.3,3.9c.3,.8,.6,1.8,.3,2.6c.1,0,.2,.1,.3,.1c.2,.2,1.1,1.1,1.3,1.7c.6,.5,1,1.1,1.5,1.7c.3,.3,.6,.6,.9,.9c0,-.1,-.1,-.2,-.1,-.2c0,-.8,.6,-1.2,1.2,-1.3c-.1,-.7,0,-1.3,.2,-1.9c-.5,-1.2,.3,-2.3,1.5,-2.7c.5,-.2,1,.2,1.1,.6c.2,1,.5,1.9,1.1,2.7c.3,-.2,.7,-.1,.9,.2c.2,.5,.5,1,.8,1.5c0,-.3,-.1,-.7,0,-1.1c0,-.4,.5,-.4,.6,-.1c.2,.3,.3,.5,.4,.8c.1,-.1,.2,-.1,.3,-.2c-.1,-.2,-.1,-.4,-.2,-.6c-.2,-.9,-.4,-1.7,-.6,-2.5c-.2,-.3,-.4,-.5,-.6,-.8c-.3,-.3,-.1,-.6,.2,-.8c0,0,0,-.1,0,-.1c-.1,-.3,.5,-.5,.6,-.2c.1,.2,.1,.3,.1,.4c1.2,1,2.1,2.3,2.9,3.5c.1,-.2,.2,-.3,.4,-.3c-.2,-.4,-.5,-.6,-.6,-1v-.1q-.1,0,-.1,-.1c0,0,.1,0,.1,.1c.7,-1.2,1.4,-1.5,1.9,-.9c.1,.1,.2,.2,.3,.3c.2,.2,.3,.5,.5,.8c.1,.3,.3,.6,.4,.9c0,.1,.1,.5,.1,.5c.1,.5,.4,.8,.4,1.3c0,.1,-.1,.2,-.1,.3c.3,-.2,.5,-.4,.7,-.5c1,-.5,2.8,-1.8,2.8,-1.8c0,0,.5,.4,1,-.5c.5,-.9,2.3,-3.4,2,-4.3c-.2,.1,-.4,.1,-.6,.2c-.1,0,-.1,-.1,-.1,-.2c.6,-.5,1.3,-.8,2.1,-1c.2,-1,.3,-2.1,.6,-3.1c-.4,-1.3,-.3,-2.8,-.2,-4.1c0,-.1,.1,-.1,.1,0c.1,.9,.1,1.8,.2,2.6c0,-.5,.1,-1.1,.2,-1.6c.1,-.5,.2,-1.1,.3,-1.6c0,-.1,.1,-.1,.1,0c0,.2,0,.5,0,.7c.1,-.2,.2,-.4,.3,-.7v.1c-.1,.4,-.2,1,-.2,1.5c.1,-.6,.3,-1.1,.5,-1.7c0,0,.1,0,.1,.1c-.2,.7,-.3,1.4,-.4,2.2c0,.5,-.1,1,-.1,1.5c1.1,1.1,2.1,2.3,3.1,3.5c.2,0,.4,0,.5,0c.6,0,.5,.8,0,.8q-.1,0,-.2,0c-.4,.9,-1.6,3.2,-2.9,5.2c.2,2.4,.1,4.9,.6,7.3c.1,0,.1,.1,.2,.1c.5,.5,.7,1,1.4,1.2c.3,.1,.6,.1,.9,.1c1.3,-1.1,3.1,.7,2.8,2.1c0,0,.1,.1,.1,.1c.2,.4,.4,.8,.6,1.2c.3,-.1,.5,.1,.7,.2c.5,0,.7,1,.9,1.3c.2,.3,.5,.5,.8,.7c0,.1,.4,.3,.5,.3c0,0,.1,-.2,.1,-.2c.1,-.2,.2,-.3,.2,-.5c0,-.2,.3,-.4,.5,-.4c-.3,-.1,-.5,-.4,-.6,-.7c-.3,-1.5,1.5,-3.1,2.8,-3.6c1.8,-.8,3.6,.3,3.5,2.3c0,.1,0,.3,-.1,.5c0,0,.1,0,.1,0c0,.1,.1,.1,.1,.2c.5,-.6,1.2,-1.1,2,-.8c.2,0,.4,0,.6,.1c.8,.3,1.4,1,1.7,1.7c.1,0,.3,0,.3,.2c0,.1,0,.2,0,.2c.1,.1,.2,.1,.3,.2c.2,-.1,.3,-.2,.4,-.2c0,-.3,.1,-.5,.3,-.7c.3,-.4,.5,-.6,.9,-.9c0,0,.1,0,.1,-.1c.2,-.2,.4,-.4,.7,-.5c.3,-.2,.5,-.2,.7,-.3q.1,0,.1,0c.3,-.8,.9,-.8,1.4,-.4c.2,.1,.3,.3,.5,.3c0,0,0,.1,0,.1c.9,0,1.2,1.7,.1,1.9c.2,.4,.5,.8,.7,1.3c0,-.4,.1,-.7,.1,-1c0,-.2,.2,-.2,.3,-.2c.5,-2.8,1.6,-5.7,2.8,-8.1c.1,-.3,.5,-.1,.5,.1c-.4,2.6,-.8,5.3,-1.4,7.8c0,.1,0,.2,-.1,.3c0,.2,-.1,.3,-.1,.5q0,-.1,0,-.1c.4,-.2,.8,-.3,1.2,-.3c.7,-.1,1.3,.5,1.7,1.1c.3,-.1,.6,0,.9,.1c.2,0,.5,0,.7,.1c.2,.1,.3,.2,.4,.2c.2,0,.3,0,.5,0c0,-.2,0,-.3,0,-.5c.1,.1,.2,.3,.2,.4c.3,0,.5,.1,.6,.3c0,-.1,0,-.2,0,-.2c0,-.5,.6,-.6,.7,-.2c.5,.9,1.2,1.9,2.1,2.4c0,-.5,0,-1.1,-.1,-1.6c-.2,-.4,-.4,-.8,-.6,-1.2q-.1,-.1,-.1,-.2c-.2,-.1,-.5,-.2,-.6,-.1c-.5,.1,-.4,-.9,.1,-.7c.2,.2,.6,.1,.8,.3c0,0,0,.1,0,.1c.2,-.1,.4,-.1,.6,.1c.9,.9,1.7,2.1,2.2,3.3c.5,.6,-.6,1.5,-1.1,.8c0,-.1,-.1,-.2,-.1,-.3q-.1,.1,-.1,.2c-.3,.5,-.7,.6,-1.1,.5m.5,-1.8c0,.3,0,.6,.1,.9c.1,-.1,.1,-.3,.2,-.4c-.1,-.2,-.2,-.3,-.3,-.5M320.4,62.7h-.1q0,.1,0,.1h.1v-.1m.5,-1.1c-.1,.1,-.3,.2,-.4,.3c0,.2,-.1,.3,-.1,.5c.1,-.3,.2,-.5,.3,-.7c.1,0,.2,-.1,.2,-.1m-9.5,3.7c0,0,-.1,0,-.1,0c0,0,.1,0,.1,0m3.4,2.1q-.1,-.1,-.2,-.2c0,.1,.1,.2,.1,.2h.1M315.3,66.4c0,0,0,-.1,-.1,-.1c.1,0,.1,.1,.1,.1m1.6,2.5c-.2,-.3,-.4,-.6,-.6,-1c.1,.3,.2,.5,.4,.7c0,.1,.1,.2,.2,.3m5,11.8c0,-.1,-.1,-.2,-.1,-.4c-.1,-.1,-.3,-.2,-.4,-.4c-.1,-.3,-.3,-.6,-.4,-.8c0,.1,0,.2,0,.3c.2,.5,.5,.9,.9,1.3m.9,.6c0,0,0,-.1,0,-.1q-.1,0,-.1,0c0,.1,.1,.1,.1,.1m1.3,-15.1c0,-.1,0,-.2,0,-.3c0,0,0,.1,0,.1c-.1,.1,-.2,.2,-.3,.3v.1c.1,-.1,.2,-.2,.3,-.2M301.8,84.9c0,-.1,-.1,-.2,-.1,-.2c0,0,0,.1,0,.1c0,0,.1,0,.1,.1m.8,4.2c-.4,0,-.9,0,-1.4,0c.2,0,.5,.1,.7,.2q0,-.1,.1,-.1c.2,-.1,.3,-.1,.6,-.1m1.2,1.1h-.1c0,0,-.1,0,-.1,0q.1,0,.2,0m1.1,-1.4c0,0,0,.1,0,.1v-.1m1.6,-7.9c-.1,0,-.1,-.1,-.1,-.2c-.1,.1,-.1,.3,-.1,.4c0,0,.1,-.1,.2,-.2m50.1,-5.3c.1,0,.1,.1,.1,.1c0,-.1,-.1,-.2,-.1,-.2c0,0,0,.1,0,.1m7.7,-7.2c0,-.1,0,-.3,0,-.4c0,0,-.1,0,-.1,0c0,.2,.1,.3,.1,.4M324.5,99.9q0,-.1,.1,-.1q-.1,0,-.1,0c0,0,0,.1,0,.1m23.2,-5c.1,-.1,.3,-.1,.4,-.1q0,-.1,0,-.1q-.1,-.1,-.1,-.1c-.1,.1,-.2,.2,-.3,.3M369,77.9c0,0,.1,-.1,.2,-.2h-.1q0,.1,-.1,.2M363.9,59.5c.1,.7,.1,1.4,.2,2.1c.9,-.2,1.9,-.2,2.8,-.2c-1,-1.1,-1.8,-2.3,-2.7,-3.4c0,.4,-.1,.9,-.2,1.3q0,.1,-.1,.2m-.4,-1.9c0,.2,0,.4,0,.5c0,0,0,-.1,.1,-.2c0,0,-.1,-.1,-.1,-.2v-.1m-.6,4.3c.3,-.1,.5,-.1,.8,-.2c-.1,-.7,-.1,-1.4,-.1,-2.1c0,0,-.1,0,-.1,-.1c0,0,0,-.1,0,-.1c-.2,.8,-.3,1.7,-.6,2.5m-6.6,12c.1,.3,.2,.7,.3,1c0,-.2,0,-.5,0,-.7c.1,-.4,.7,-.6,.9,-.2c.2,.6,.5,1.5,.1,2.2c.3,.1,.5,.3,.8,.4c.7,.4,1.1,-.2,1.4,-.7c-1,-.4,-1.6,-1.7,-.6,-2.3c.5,-.3,1,-.4,1.4,-.2c.4,-.2,.8,-.4,1.2,-.2c.1,.1,.2,.2,.2,.3c.4,.1,.6,.3,.9,.5c.3,.2,.6,.5,.8,1c.1,-.2,.3,-.3,.5,-.4c-.1,-1.6,-.1,-3.2,-.3,-4.8c0,-.4,-.1,-.8,-.1,-1.2c-.5,.6,-.9,1.1,-1.4,1.4c0,0,-1.2,-.5,-1.7,.1c-.4,.5,-1.3,2.6,-1.7,2.8c-.3,.1,-1.5,.4,-2.7,1M350,68.7c.1,.1,.1,.3,.2,.4h.1c-.1,-.1,-.2,-.3,-.3,-.4m-5.8,-.1c0,.2,.1,.4,.2,.6c0,-.1,.1,-.1,.1,-.1c-.1,-.2,-.2,-.3,-.3,-.5M330.7,73.6c.1,.2,.1,.3,.2,.5c.2,.5,.6,1.4,.9,2.3c.2,-1,.5,-2,.9,-3c.1,-.3,.2,-.6,.3,-.8c.4,-1,.8,-1.9,1.4,-2.7c0,-.2,0,-.4,0,-.6c0,0,0,-.1,-.1,-.1h-.1c-.4,.5,-.8,1,-1.1,1.5c-.3,1,-.8,2.1,-1.5,2.8c-.2,.2,-.6,.2,-.9,.1m-3.6,-3.5h.1c0,0,-.1,0,-.1,-.1q0,.1,0,.1M326.7,69c.1,.1,.2,.3,.3,.4c-.1,-.1,-.1,-.3,-.2,-.4q-.1,0,-.1,0m-.4,14.4c.2,.1,.3,.3,.4,.5c.1,-.2,.2,-.4,.3,-.6c-.2,.1,-.5,.1,-.7,.1M325.2,69c.1,.1,.1,.2,.1,.3q.1,0,.2,0c-.1,-.1,-.2,-.2,-.3,-.3m-.6,11.2c0,-.1,.1,-.3,.1,-.4c0,0,-.1,-.1,-.1,-.1c0,.2,0,.3,0,.5M316.6,94.3c0,.1,.1,.1,.1,.1c0,-.1,0,-.2,.1,-.3c.1,-.1,.2,-.3,.4,-.5v-.1c0,.1,-.1,.1,-.1,.2c-.1,.1,-.3,.4,-.5,.6m-.5,-.7q.1,.1,.1,.1l.1,-.1q-.1,0,-.2,0m-1.9,-8.3c0,0,0,.1,.1,.1v.1q0,-.1,0,-.1c0,0,-.1,-.1,-.1,-.1m-2.1,12.9c.1,.3,.2,.7,.3,1.1c.3,-.1,.5,-.2,.7,-.2c.5,-.3,.9,-.4,1.4,-.5c.9,-.3,1.9,-.6,2.8,-.9c-.4,-.7,-.7,-1.4,-1.1,-2c-.2,-.3,-.3,-.6,-.5,-.9q-.1,0,-.2,0c-.1,-.1,-.1,-.2,0,-.3c-.1,-.1,-.1,-.2,-.2,-.4c-.2,.3,-.4,.5,-.7,.7c-.2,.2,-.5,.4,-.7,.6c-.1,.1,-.2,.1,-.2,.1c-.4,.3,-.7,.5,-1.1,.8c0,.1,0,.2,-.1,.3c0,0,.1,.1,.1,.1c0,.1,0,.2,0,.4v.1c.1,.1,0,.2,-.1,.3c-.1,.2,-.2,.4,-.2,.5c-.1,.1,-.2,.2,-.2,.2m78,-14.9c-.1,-.1,-.1,-.2,-.1,-.3c0,0,0,.1,0,.2c0,0,0,.1,0,.1h.1m1.1,-.4c-.2,-.1,-.3,-.3,-.4,-.4c0,.2,.1,.3,.1,.5c.1,0,.2,-.1,.3,-.1m4.6,-.9c-.1,0,-.1,-.1,-.2,-.1c0,0,0,.1,0,.1q.1,0,.2,0m5.9,2.4c-.5,-.4,-.9,-.9,-1.3,-1.5c-.1,.1,-.3,.2,-.3,0q-.1,-.1,-.1,-.1c0,0,0,.1,-.1,.1c0,.1,-.1,.3,-.1,.4h.1q-.1,0,-.1,0c0,.1,.1,.2,.1,.3c0,.1,-.1,.2,-.1,.3c-.1,.3,-.3,.6,-.7,.7c.7,.2,1.3,.4,1.9,.7c.2,-.1,.3,-.2,.5,-.3c-.5,-.1,-1,-.4,-1.5,-.7c-.2,-.1,-.2,-.5,.1,-.5c.4,0,.7,.1,1,.3c.2,.1,.4,.2,.6,.3Z" class="g5"/>
<path d="M233.1,59.1c0,0,0,.1,0,.1c0,0,0,.1,0,.1c-.4,.3,-.2,1,.1,1.3c0,.1,.1,.1,.2,.1q-.1,0,-.1,.1c-.2,.1,-.3,.3,-.5,.5c-.2,0,-.3,.1,-.4,.2c-.1,.1,0,.2,.1,.2h.1c-.1,.2,.1,.7,.2,.9c.1,.3,.1,.8,.4,1q0,.1,.1,.1c0,.2,.1,.4,.2,.6c0,0,.1,0,0,0c0,-.2,-.1,-.3,-.1,-.5q0,.1,.1,0q0,.1,0,.1c0,.1,0,.2,0,.3c0,0,.1,0,.1,0c0,-.1,.1,-.2,.1,-.3c0,-.1,.1,-.2,.1,-.3c.1,.2,.2,.4,.3,.6c0,.1,.1,.1,.1,0c.1,-.2,.1,-.4,.1,-.6c0,.1,.1,.3,.1,.4c-.1,.1,0,.2,.1,.1c.2,-.1,.4,-.3,.3,-.5c0,-.1,0,-.2,0,-.3c.1,0,.2,.1,.3,.1c0,0,-.1,0,-.1,0q0,.1,0,.2q0,.1,0,.2q0,.1,.1,.2q0,.1,0,.1c0,.1,.1,.1,.2,.1c0,-.1,.1,-.1,.1,-.2c.1,0,.1,-.1,.1,-.1c0,-.1,0,-.2,0,-.2q.1,0,.1,0c.1,.1,.2,.1,.3,.2c-.1,.2,-.1,.5,0,.7c0,0,0,.1,.1,.1c0,.2,0,.4,.1,.6c-.1,.1,-.2,.2,-.3,.4c-.2,.2,-.3,.3,-.5,.4c0,-.2,-.3,-.2,-.3,0c0,0,0,.1,0,.1c0,0,-.1,.1,-.1,.1c0,-.1,0,-.2,0,-.3c0,-.1,-.2,-.2,-.2,0c-.1,.1,-.1,.3,-.1,.4v-.1c0,-.1,-.1,-.1,-.2,-.1c0,0,0,-.1,0,-.1c-.1,-.1,-.2,-.1,-.3,0c0,.5,.1,.9,.2,1.3c.1,.3,.2,.6,.5,.8q.1,0,.1,0c0,0,.1,0,.1,0c.3,-.3,.6,-.5,.9,-.7c1.1,-.3,2.2,-.5,3.4,-.3c.6,0,1.3,.2,1.9,.4c.1,0,.2,0,.2,.1c.2,.2,.3,.5,.5,.7c0,1,0,2.1,-.2,3.1c-.1,.1,-.2,.3,-.4,.6c0,0,0,-.1,0,-.1c.1,-.4,.1,-.8,0,-1.2c-.1,-.1,-.2,-.1,-.2,0c0,.1,-.1,.1,-.1,.1q0,.1,0,.1c0,0,0,.1,0,.1c-.2,1,-.7,1.8,-1.3,2.6c-.3,.5,-.7,1,-.8,1.6c0,.1,-.1,.2,-.2,.3c0,.1,.1,.1,.1,.1c.1,-.1,.2,-.1,.2,-.2c.1,.1,.3,.1,.3,0c.2,-.1,.4,-.3,.5,-.6c.2,-.1,.3,-.2,.5,-.3c.1,.1,.3,.2,.4,0c.2,-.1,.4,-.4,.6,-.6c-.6,1.2,-1.3,2.3,-2.1,3.3c-.1,.1,0,.1,0,.1c1,-.8,1.8,-1.8,2.3,-2.9q0,.1,0,.2q0,.1,0,.1c-.1,.1,-.2,.2,-.2,.4c-.4,.7,-.9,1.3,-1.5,1.9c-.1,.1,0,.1,.1,.1c.4,-.3,.8,-.6,1.1,-1c-.1,.2,-.2,.4,-.4,.6c0,.1,.1,.1,.2,.1c.6,-.6,1.1,-1.2,1.5,-1.9c.1,0,.3,-.1,.3,-.2c0,-.1,.1,-.3,.1,-.4c.1,.4,.3,.9,.6,1.3q-.1,.1,-.1,.2c.2,.7,.6,1.3,1.1,1.8c.1,.8,0,1.6,0,2.4c-.8,1.9,-.7,4,-1.1,6c-.1,-.1,-.2,-.2,-.4,-.2c0,-.1,-.1,-.1,-.1,-.1c-.1,-.1,-.3,-.1,-.4,0c-.1,0,-.3,0,-.4,0c-.1,0,-.1,.2,0,.3c0,0,.1,.1,.2,.1c0,.1,0,.2,0,.3c-.1,-.1,-.1,-.2,-.1,-.3c0,0,-.1,-.1,-.2,0c0,-.3,-.1,-.5,-.2,-.7c-.1,.4,-.1,.7,-.1,1.1c-.2,1.5,-.2,3.1,-.4,4.6c-.1,.4,-.3,.8,-.4,1.2c-.5,-.1,-1.2,0,-1.7,.2c0,0,-.1,0,-.1,.1c-.4,-.1,-.8,-.1,-1.1,-.1c-.1,0,-.2,0,-.2,0c-.3,0,-.7,.1,-.9,.3c-.1,.2,-.2,.3,-.2,.5q0,.1,0,.2c0,0,-.1,.1,-.1,.2c0,.1,.2,.2,.2,.1c.1,-.2,.2,-.3,.4,-.5c0,0,.1,0,.1,-.1c.2,0,.3,0,.5,0c.2,0,.4,.1,.7,.2c-.2,.1,-.3,.3,-.4,.5c0,.3,0,.4,.2,.6c.1,.1,.2,.1,.2,0c.1,-.1,.3,-.4,.4,-.5c.6,.1,1.1,.3,1.7,.3c0,0,-.1,.1,-.2,.2c-.4,.4,-.8,.8,-1.1,1.3c-.2,.1,0,.3,.1,.2c.6,-.3,1.2,-.6,1.7,-1c.2,-.1,.3,-.2,.5,-.3c.2,0,.3,0,.4,-.1c.1,0,.2,0,.4,0c.1,-.1,.2,-.1,.2,-.1c.1,0,.2,0,.2,.1c0,0,.1,0,.2,0c.1,.1,.2,.1,.4,.1c.2,.1,.3,-.3,.1,-.4q.1,0,.1,0c.1,0,.1,-.1,.1,-.1c.1,0,.1,-.1,.1,-.1c.1,-.1,.1,-.3,0,-.4v-.1c.2,-.4,.2,-.8,.3,-1.2c.3,-.2,.5,-.5,.6,-.9c.8,-.3,1.6,-1.6,1.2,-2.5c.1,0,.1,-.1,.2,-.1c.1,-.1,.2,-.1,.3,-.1c.2,-.1,.3,-.3,.3,-.5c.1,0,.1,-.1,.2,-.1c.1,-.1,0,-.4,-.2,-.3c0,0,0,-.1,0,-.1c-.5,-.5,-1.2,-.8,-1.9,-1.2c.1,0,.1,-.1,.2,-.1v.1c0,-.2,.1,-.5,.3,-.6c.4,-.2,.8,-.3,.9,-.7c.1,-.2,0,-.3,-.1,-.4c-.2,0,-.3,0,-.4,0c0,-.3,0,-.5,0,-.8c.1,0,.1,-.1,.1,-.1c0,-.2,0,-.4,.1,-.6c.1,-.6,.3,-1.2,.4,-1.7c.2,-.5,.4,-1,.6,-1.5c.8,.7,1.8,1.4,2.8,1.9c.7,.7,1.3,1.3,2.2,1.5c.4,.4,.8,.7,1.2,.7c.1,0,.1,-.1,.1,-.1c-.2,-.1,-.3,-.2,-.4,-.3c.1,0,.2,.1,.3,.2c.2,.1,.4,.2,.5,.4c.5,.8,1,1.7,1.3,2.6c.2,.4,.7,.1,.6,-.2c-.2,-.6,-.4,-1.2,-.7,-1.7c.8,.4,1.6,.7,2.3,.7c.1,.3,.2,.5,.3,.8c.1,0,.1,.1,.1,.1c-.2,1.1,-.5,2.1,-.7,3.1c-.2,.8,-.4,1.6,-.2,2.3c0,.1,.1,.1,.1,0c.1,-.2,.2,-.4,.3,-.6c0,.2,-.1,.4,-.2,.6c-.1,.4,-.3,.8,-.5,1.1c-.1,.1,-.1,.2,0,.3c-1.5,1.6,-3.4,2.9,-5.1,4.4c-.1,.1,.1,.3,.2,.2c2.2,-1.1,4.3,-2.4,6,-4.1c0,0,-.1,.1,-.1,.1q0,.1,0,.1c-1.3,1.2,-2.8,2.2,-4.2,3.3c-.1,0,-.1,.1,0,.1c-.6,.4,-1.3,.7,-1.9,1.1c-.1,.1,0,.3,.1,.2c2.1,-1.1,4.6,-1.8,6.6,-2.9c-.1,.2,-.1,.4,-.1,.5c-.1,.2,-.2,.4,-.2,.7c-.1,.1,0,.1,.1,.1c0,0,0,.1,0,.1c-.1,.4,-.2,.9,-.3,1.3c-.2,.5,-.4,1,-.6,1.6c-.1,0,-.1,.1,-.2,.2c-.3,.7,-.4,1.4,-.5,2.2c-.4,.1,-.6,.4,-.7,.8c0,-.2,-.2,-.2,-.3,-.1c-.4,.7,-.1,1.6,.2,2.3c.1,.3,.5,.3,.6,.1c.1,.1,.2,.2,.2,.3h-.1c-.4,.1,-.4,.7,0,.8c1.9,.7,4.3,.6,6.4,.8c0,.4,0,.8,0,1.1c-.2,0,-.3,-.1,-.4,-.1c-.3,-.1,-.5,.2,-.3,.4c.2,.3,.5,.5,.8,.7c-.2,0,-.4,0,-.6,0c0,0,0,.1,-.1,.1c-.1,-.1,-.3,-.2,-.4,-.2c-.4,-.2,-.7,.2,-.4,.4c.4,.3,.9,.5,1.3,.6q0,.1,0,.1c0,0,.1,.1,.1,.2c.1,.1,.2,.1,.2,.1c0,.1,.1,.1,.1,.1c0,0,.1,0,.1,.1c0,0,0,.1,0,.2c1.8,1.4,4.1,2.2,6.2,3c1.8,.7,3.6,1.5,5.5,2c0,.1,.1,.1,.2,.2c.3,.3,.8,.7,1.3,.8c0,0,0,.1,.1,.1c0,0,.1,.1,.1,.1c.1,0,.2,0,.2,0c0,0,.1,0,.1,0c0,-.1,.1,-.2,0,-.3c-.1,-.3,-.4,-.7,-.7,-.8q-.1,-.1,-.1,-.1q0,-.1,0,-.1c-.1,-.6,-.8,-.9,-1.3,-1.1c-.5,-.3,-1,-.5,-1.4,-.8c-1.3,-.9,-2.7,-1.7,-4,-2.4c-.7,-.3,-1.4,-.8,-2.1,-1.3c.1,-.1,0,-.1,0,-.2c-.3,-.5,-.8,-.8,-1.2,-1.2c-.4,-.2,-.6,-.6,-1,-.9c0,0,.1,-.1,.1,-.1q0,-.1,0,-.1c0,-.1,.1,-.2,.1,-.2c.5,0,1,.1,1.5,.2c0,.1,.1,.1,.2,.2c.6,.1,1.3,.1,1.9,0c.2,.1,.4,.1,.6,.1c.4,.4,1,.7,1.4,1c.7,.4,1.3,.9,1.9,1.6c0,.1,.1,.1,.2,.1c0,.1,.1,.2,.2,.3c.3,.3,.7,.5,1,.8c.1,.1,.3,-.1,.2,-.3c-.1,-.2,-.3,-.4,-.5,-.6c-.6,-.5,-.7,-1.2,-1,-1.8c-.1,-.2,-.2,-.3,-.2,-.4c.1,.1,.3,.3,.4,.4c.2,.5,.5,.9,.8,1.3c.4,.4,.9,.6,1.4,.8c-.1,.1,0,.3,.1,.3q.3,0,.6,-.1c.3,0,.3,-.4,0,-.5c-.7,0,-1.1,-.5,-1.6,-.9c-.5,-.5,-.9,-1,-1.2,-1.6q-.1,-.1,-.2,-.1c-.1,-.2,-.2,-.4,-.3,-.6c-.2,-.3,-.4,-.7,-.6,-.9c.5,-.3,0,-1.1,-.5,-.8c-.3,.2,-.5,.4,-.7,.7c0,0,0,.1,0,.1c-.7,.1,-1.3,.2,-2,.2c-.1,0,-.3,0,-.4,0c-.2,-.1,-.4,-.2,-.6,-.2c0,-.1,-.1,-.2,-.2,-.2c-.5,-.2,-1.1,-.3,-1.7,-.5c.6,-1.2,1.1,-2.5,1.7,-3.7c.1,-.3,.2,-.5,.4,-.8c.6,-.9,1.1,-1.9,1.2,-2.8c.3,.1,.6,.1,.9,.2c.2,.1,.3,.2,.5,.4q.1,.1,.2,.1c.2,.2,.5,.5,.7,.7c0,.1,-.1,.1,-.1,.1c-.1,.2,0,.5,.3,.5q-.1,0,-.1,0c-.3,.4,.3,1,.7,.6c0,-.2,.2,-.3,.3,-.3v.1c0,.1,.1,.1,.1,0c0,-.1,0,-.2,0,-.3c.1,0,.2,-.1,.3,-.1q.1,0,.1,0c0,.1,.1,.1,.2,0c0,0,0,-.1,0,-.1c.2,-.1,.2,-.4,.1,-.6c0,-.2,0,-.4,0,-.6q.1,-.1,.2,-.1c.1,.4,.2,.8,.3,1.2c0,.1,.1,.1,.1,0c0,-.5,-.1,-.9,-.2,-1.4c.2,-.1,.3,-.3,.3,-.5q0,-.1,0,-.2c0,-.4,-.1,-.9,-.2,-1.3c.4,-.1,.6,-.4,.7,-.7c.2,-.7,-.1,-1.3,-.7,-1.5q-.1,0,-.2,0c.1,-.3,0,-.6,0,-.9c-.1,-1.6,-.1,-3.1,-.8,-4.8c-.1,-.4,-.3,-.8,-.5,-1.1c-.3,-.9,-.6,-1.6,-1.1,-2.4c.7,.2,1.4,.3,2.1,.4c.7,.4,1.5,.9,2.1,1.4c.1,.1,.2,.3,.3,.4c.2,.3,.5,.1,.4,-.2c.1,0,.2,-.1,.2,-.2h.1c.4,0,.5,-.4,.4,-.7c0,0,.1,0,.1,-.1c.2,0,.5,-.1,.8,-.1c0,0,.1,.1,.2,.1c0,0,0,.1,0,.1c.1,0,.2,0,.3,0c1.1,.5,2.3,.9,3.3,1.6c.1,.1,.3,-.1,.3,-.2c.2,-.1,.3,-.2,.4,-.3c.1,-.2,.2,-.4,.3,-.6c.1,-.1,.3,-.1,.3,-.1c1.1,-.2,2.1,-.3,3,-.6c.1,.1,.3,.3,.5,.3c0,0,.1,0,.1,.1c.2,.1,.4,-.1,.2,-.2v-.1c.3,0,.5,-.1,.7,-.2c.8,.2,1.6,.4,2.4,.6c.1,0,.2,-.1,.2,-.2c.2,-.1,.3,-.3,.3,-.5c1,.3,1.9,.8,2.8,1.2c.1,.1,.2,-.1,.1,-.1c-1.5,-.9,-3,-1.7,-4.6,-2.4q-.1,-.1,-.2,-.1h-.1c-1.3,-.6,-2.6,-1.1,-4,-1.5c.3,0,.6,.1,.8,.1c1.4,.1,2.8,.4,4.2,.4c.1,0,.2,-.2,.1,-.2C288,84.3,287,84,286,83.8h.1c.1,-.1,0,-.3,-.1,-.3c-1.3,0,-2.5,-.1,-3.7,-.2c-.1,-.1,-.2,-.1,-.3,-.1c-.1,-.1,-.1,-.2,-.3,-.3c-1.2,-.7,-2.3,-1.5,-3.6,-2.1c.5,0,1,0,1.4,-.1c0,0,.1,0,.1,0c1.8,-.2,3.5,-.6,5.1,-1.1c.1,-.1,.1,-.2,0,-.2c-.1,0,-.2,0,-.3,0c-.9,.2,-1.7,.3,-2.5,.4c.2,-.1,.3,-.2,.5,-.3c.3,0,.6,0,.9,0c.1,0,.2,-.1,.2,-.2c.1,0,.2,0,.2,-.1c0,.1,.1,.1,.1,.1c.2,0,.5,0,.7,-.1c.1,0,.1,-.2,0,-.2c-.4,0,-.7,0,-1.1,.1c0,-.1,-.1,-.1,-.1,-.1c-.2,-.1,-.3,-.1,-.5,-.2c0,-.1,-.1,-.2,-.3,-.2q-.1,0,-.1,0c0,0,-.1,0,-.1,0c0,0,-.1,.1,-.3,.1c-1.1,-.5,-2.3,-.7,-3.5,-.9c-.9,-.4,-1.8,-.7,-2.6,-1c-.1,-.1,-.1,0,-.2,0c-.1,-.1,-.2,-.2,-.3,-.2c-.4,-.3,-.9,-.5,-1.3,-.7c2.4,.4,4.9,.5,7.3,-.5c.1,-.1,0,-.2,-.1,-.2c-2,.2,-3.9,.2,-5.8,-.1c1.8,.2,3.7,.1,5.1,-.7q0,-.1,0,-.1c-1.5,.7,-3.3,.1,-4.8,-.1c-2.1,-.3,-4.1,-.8,-6.1,-1.5c-3.1,-1.2,-5.9,-3.5,-9.3,-3.3c-.3,.1,-.4,.2,-.4,.4c-.2,0,-.3,-.1,-.4,-.1q0,-.1,0,-.1q-.1,0,-.1,0c-.1,-.1,-.2,-.1,-.2,-.2c-.6,-.5,-1.1,-1,-1.5,-1.6c.6,0,1.2,0,1.8,-.2c.2,.1,.4,.2,.6,.2c.3,.1,.5,.1,.8,.1c0,.2,.2,.4,.4,.5c.2,.2,.8,.3,.9,-.2c0,0,.1,0,.1,0c.3,0,.6,0,.9,-.1c.3,0,.6,0,.9,-.1c.2,-.1,.5,-.1,.8,-.2c.1,.1,.2,0,.3,-.1h.1c.2,0,.1,-.4,-.1,-.4h-.1q0,-.1,0,-.2c.1,0,.2,-.1,.2,-.2c.1,-.1,.1,-.2,.2,-.3c0,0,0,.1,0,.1c.4,.7,1,.9,1.7,.6c.2,-.2,.3,-.4,.3,-.6c.3,0,.5,-.1,.6,-.2c.2,-.2,.4,-.4,.4,-.7c.1,-.4,.2,-.6,.5,-.8c0,0,.1,.1,.1,.1l.1,.1c-.1,.1,-.1,.2,-.2,.3c-.1,.2,.1,.5,.4,.5c.6,0,1.1,-.3,1.6,-.6c.3,-.1,0,-.6,-.3,-.5c-.2,.2,-.4,.3,-.6,.3c.1,-.1,.2,-.2,.3,-.3q0,-.1,0,-.1c.1,.1,.4,.2,.5,0c0,0,.1,-.1,.1,-.1c.1,.1,.2,.2,.4,.2c.3,.1,.7,0,.8,-.3c.1,-.4,0,-.9,-.1,-1.3c.3,0,.5,-.1,.7,-.2h.1c0,0,.1,0,.1,0c.1,-.1,.2,-.1,.3,-.1c.1,-.1,.2,-.2,.2,-.4c.3,.1,.6,.2,.9,.2h.1c.2,.1,.4,.1,.5,-.1c0,0,0,.1,.1,.1c.2,.2,.5,-.1,.4,-.3q.1,0,.1,0c.2,.1,.3,-.1,.3,-.2c.1,-.3,-.1,-.5,-.3,-.6c-.2,-.1,-.4,.1,-.3,.3h-.1c-.1,0,-.1,.1,-.1,.1q-.1,-.1,-.3,-.2c0,0,-.1,0,-.1,0c0,0,-.1,0,-.1,-.1c0,0,-.1,0,-.2,0h-.1c-.5,-.1,-1,-.3,-1.5,-.5c1.8,-2.6,14.5,-20.8,17.8,-26.1c0,0,.6,-1.7,.5,-2c0,-.2,-.7,.5,-.7,.5L270.9,60.5h.1c-.2,-.1,-.4,-.1,-.6,-.2c0,-.2,-.1,-.5,-.2,-.6c-.2,-.1,-.3,0,-.4,0c-.2,-.2,-.4,-.3,-.6,-.2c-.1,.1,-.2,.2,-.3,.2c-.2,0,-.3,.1,-.4,.2c-.8,0,-.9,1.1,-.1,1.3q.1,0,.2,0c-.1,.5,-.3,.9,-.5,1.3q-.1,.1,-.1,.1c0,0,-.1,0,-.1,0c.1,-.3,.3,-.6,.4,-.9c.1,-.2,-.2,-.2,-.3,-.1c-.1,.2,-.3,.5,-.6,.7c0,-.1,.1,-.1,0,-.2c0,-.5,-.7,-.6,-.9,-.2c-.2,.4,-.4,.7,-.6,1.1c-.1,-.2,-.2,-.2,-.3,-.1c-.1,.2,-.2,.4,-.3,.6q-.1,0,-.1,0c-.1,-.2,-.3,-.4,-.5,-.3c-1,.1,-2,.3,-3,.4c-.4,.1,-.5,.6,-.2,.7q0,.1,0,.2c0,0,0,.1,0,.2c-.1,-.2,-.3,-.3,-.5,-.2q-.1,0,-.2,0c0,0,-.1,0,-.1,0c0,0,-.1,0,-.1,.1c0,-.1,0,-.2,-.1,-.2c-1.1,-.2,-2.1,-.2,-3.2,-.2c.2,-.1,.2,-.4,0,-.6c-.3,-.3,-.8,-.6,-1.3,-.8c.2,0,.3,0,.4,0c.4,.1,.5,-.4,.3,-.6c0,-.1,0,-.2,-.1,-.2c-1.7,-.9,-3.8,-.1,-5.5,.1c-.1,0,-.2,.1,-.3,.1c-.3,.1,-.6,.2,-.8,.4c-.1,0,-.2,.1,-.3,.1c.2,-.2,.5,-.4,.8,-.6c.8,-.3,1.6,-.6,2.5,-.7c1,-.1,2.4,.1,3.1,-.5c.1,0,.1,-.1,0,-.1c.1,0,.2,0,.2,-.1c.1,0,.1,-.1,0,-.1c-1.3,-.1,-2.7,-.6,-4,-.6c0,0,0,-.1,-.1,-.1c0,0,0,-.1,0,-.1c-.5,-1.1,-2.5,-.4,-3.3,0c-.8,.5,-1.4,1.2,-1.8,2c0,0,-.1,-.1,-.1,-.1c-.1,-.1,-.3,-.1,-.4,-.1c-.1,.1,-.2,.1,-.3,.2v-.1c.1,-.1,0,-.4,-.1,-.4c-.1,-.2,-.3,-.2,-.4,-.1q0,.1,0,.2c-.7,.4,-1.2,1.4,-1.6,2.1c-.1,0,-.2,0,-.2,.1c-.1,.1,-.1,.2,-.1,.3c-.2,0,-.3,.1,-.4,.3c0,.1,0,.2,0,.3c-.1,0,-.2,0,-.2,.1c-.2,-.1,-.4,-.2,-.5,-.2c.1,-.3,.2,-.5,.4,-.8c.1,-.2,-.2,-.4,-.4,-.3c-.1,.2,-.3,.4,-.4,.6c0,-.2,0,-.4,-.1,-.6c.8,-.6,1.3,-1.5,1.1,-2.7c0,-.4,-.2,-.8,-.3,-1.2c-.2,-.6,-.4,-1.2,-.7,-1.7c-.1,0,-.2,0,-.1,.1c.1,.1,.1,.3,.2,.5c-.3,-.4,-.6,-.7,-1,-1c.1,0,.2,0,.3,0c.1,0,.1,-.1,0,-.2c-1.8,-.6,-4.7,-1.4,-6.6,-.7c-.2,.1,-.3,.1,-.4,.2q-.1,.1,-.1,.1v.1q-.1,0,-.1,0v-.1c0,-.1,-.1,-.2,-.2,-.1c-.3,.5,-.6,.9,-.9,1.3c-.2,.3,-.5,.6,-.6,1c0,.2,.1,.2,.2,.2m.4,1.4h.1q0,.1,-.1,.1c0,0,0,-.1,0,-.1m22.6,45.3c0,0,-.1,0,-.1,-.1q.1,0,.2,0c0,.1,-.1,.1,-.1,.1m1.3,.3q0,-.1,-.1,-.1c.2,0,.3,.1,.4,.1c-.1,0,-.2,0,-.2,0c0,0,-.1,0,-.1,0m26,-20.7c.1,.1,.1,.3,.3,.4c.4,.1,.8,.3,1.3,.4c-.1,0,-.1,.1,-.1,.1c-.8,-.3,-1.6,-.6,-2.5,-.8c0,-.2,0,-.3,-.1,-.4c.4,.1,.8,.2,1.1,.3M241,72.9c0,0,.1,0,.1,-.1q0,.1,0,.1H241M234.3,57.8c-.1,.1,-.1,.2,-.1,.3q-.1,0,-.1,0c0,0,0,-.1,0,-.1q.1,-.1,.2,-.2M276.5,87q0,-.1,0,-.1c0,0,.1,0,.1,0V87h-.1M242.1,62.5c0,0,0,-.1,0,-.1c0,0,0,.1,0,.1m19.4,36q.1,0,.2,0c.1,.1,.1,.2,.2,.3c.1,.1,.3,-.1,.2,-.2c0,-.1,-.1,-.1,-.1,-.2h.1q.1,0,.2,.1c.2,.1,.4,0,.6,-.1q.1,0,.2,0c-.5,.2,-1.1,.4,-1.6,.6c0,-.1,0,-.3,0,-.5m1.6,-.6q0,-.1,0,-.1c.2,0,.3,.1,.5,.1c-.2,0,-.3,0,-.5,0m7.8,-13.7v-.1q0,.1,0,.1M239.2,61c0,-.2,0,-.3,-.1,-.4q.1,.1,.1,.1q.1,.1,.1,.2c0,0,-.1,0,-.1,.1m-1.6,.7c0,0,0,-.1,0,-.1q0,-.1,0,-.1c0,0,.1,0,.1,-.1c0,.1,-.1,.2,-.1,.3m.7,-2.5c0,0,0,-.1,0,-.2c.1,.3,.1,.5,.2,.7c0,0,0,-.1,-.1,-.1c0,-.1,-.1,-.2,-.1,-.4m-.9,.9h.1q-.1,0,-.1,.1q0,-.1,-.1,-.1q.1,0,.1,0M263.9,79c.1,.2,.2,.3,.3,.5h-.1c0,-.2,-.1,-.3,-.2,-.5m3.6,14.6c0,.1,0,.2,0,.3c0,-.1,0,-.2,0,-.3M267.5,97.7l-.1,.1q0,-.1,0,-.1c0,0,.1,0,.1,0m1,-10.9l.1,.1c0,0,-.1,0,-.1,0q0,-.1,0,-.1M244,66.5q.1,-.1,.1,-.2q0,.1,0,.2c0,0,-.1,0,-.1,0M241,65.9h.1q-.1,0,-.1,0M236.6,64c0,-.1,0,-.2,0,-.3c0,0,.1,0,.1,-.1c0,.2,.2,.3,.4,.3c0,0,0,.1,0,.1H237c-.1,-.1,-.3,-.1,-.4,0m1.4,-.2c-.1,0,-.1,.1,-.1,.2q0,-.1,0,-.2c0,0,.1,0,.1,0m10.4,-1.3c0,0,.1,0,.1,-.1c0,.1,-.1,.1,-.1,.2v-.1M277,87c0,0,-.1,0,-.1,0q.1,0,.1,0m-20.1,17.4c.1,-.4,.2,-.7,.3,-1.1c1.1,-1.5,2.4,-2.9,3.2,-4.5c.2,0,.4,-.1,.6,-.1c0,.2,.1,.4,.1,.6c0,.2,.3,.3,.4,0c0,0,0,.1,.1,.1c.5,.1,1.1,-.1,1.6,-.2c.8,-.2,1.6,-.4,2.3,-.7l.1,.1c0,.1,.1,.2,.2,.2c-.4,1,-.9,2,-1.3,3c-.5,1.1,-1.1,2.2,-1.6,3.4c-.1,.3,-.2,.7,-.3,1c-.4,-.1,-.8,-.2,-1.2,-.4c-1.5,-.5,-3,-1,-4.5,-1.4M240.4,65.5c-.1,0,-.2,-.1,-.2,-.2c.1,.1,.1,.2,.2,.2m-.5,-.7c0,0,0,.1,.1,.1l-.1,.1q0,-.1,0,-.2m-.8,-1.9c-.3,.1,-.6,.4,-.9,.6c0,0,0,-.1,.1,-.2c.1,0,.2,-.1,.2,-.2c.2,0,.3,-.1,.5,-.2c0,0,.1,0,.1,0m-3.9,-4.2q0,-.1,-.1,-.1q.1,0,.1,0v.1M270.3,62.8q-.1,.1,-.1,.2c-.1,0,-.1,-.1,-.1,-.1c.1,-.1,.2,-.1,.2,-.1m-.1,1.7c-.1,-.1,-.2,-.1,-.3,-.1c0,-.2,0,-.3,0,-.5c.1,0,.1,-.1,.1,-.2c0,.1,0,.3,0,.4c0,.2,.1,.3,.2,.4m10.3,20.3c.3,0,.6,.1,.9,.2c-.1,0,-.2,0,-.3,0c-.2,0,-.4,-.1,-.6,-.2M284.5,87c-.5,0,-1,.1,-1.4,.1c0,0,.1,0,.2,-.1c0,0,.1,-.1,.1,-.1c.3,-.2,.7,-.1,1.1,.1m-11.3,9.8c0,0,0,-.1,0,-.1q0,.1,0,.1M268,99.5c-.1,.3,-.3,.6,-.5,.9c.1,-.3,.3,-.6,.4,-.9q.1,0,.1,0M240,66.1c-.5,-.2,-1,-.4,-1.4,-.6c0,-.3,-.1,-.5,-.2,-.7c-.5,-1,.6,-1.8,1.5,-1.6c0,.1,.1,.1,.1,.1c0,.3,0,.6,.1,.8c-.1,-.1,-.3,-.2,-.4,-.3c-.1,0,-.3,0,-.4,.1c-.5,.8,.1,1.6,.7,2.2m-5.4,-3.4h-.1q.1,0,.1,0m-.4,-.1c0,0,-.1,0,-.1,0v-.1c0,0,0,.1,0,.1c0,0,.1,0,.1,0m-.5,-3v.1c0,0,.1,0,.1,0c0,-.2,.1,-.5,.2,-.6c-.1,.1,.7,-.3,.9,-.1c.2,.2,.1,.4,.1,.6c-.1,.4,-.3,.8,-.5,1.2c-.5,-.2,-.8,-.6,-.8,-1.2M235,57.1h.1c0,0,0,-.1,.1,-.1q-.1,.1,-.2,.1c-.1,.1,-.2,.1,-.3,.2c.1,-.1,.2,-.2,.3,-.2m1.3,-.3c.4,0,.8,0,1.1,0c-.4,0,-.7,0,-1,0h-.1m19.9,7c-.1,0,-.2,.1,-.4,.1c-.4,-.1,-.9,-.2,-1.4,-.2c.6,-.1,1.2,0,1.8,.1m12.1,-.3c.1,-.1,.1,-.2,.1,-.3q0,.1,0,.2q0,.1,0,.2c0,0,-.1,.1,-.1,.1h-.1q.1,-.1,.1,-.2m3,-1.5h-.1c0,0,-.1,0,-.1,0c-.2,-.1,-.5,.1,-.6,.2q0,.1,0,.2q-.1,0,-.1,0c-.1,0,-.2,.1,-.2,.3c0,-.1,-.2,-.2,-.3,-.2c-.1,0,-.2,0,-.4,0c.1,-.3,.2,-.6,.2,-1c.6,.2,1.1,.4,1.6,.5M261.1,70.4q.1,.1,.2,.1c-.1,0,-.2,0,-.2,0q0,-.1,0,-.1m.2,.1c.1,.1,.2,.1,.3,.1v.1c-.1,-.1,-.2,-.1,-.3,-.2m4,41.7c-.3,-.1,-.7,-.2,-1.1,-.3q0,-.1,0,-.1c.2,0,.4,.1,.6,.2c.2,0,.3,.1,.5,.2m-2,-2.9c0,-.1,0,-.2,0,-.3c0,.1,0,.2,0,.3M245.2,85.2c0,0,-.1,0,-.1,0h.1M240.5,66.7c-.2,0,-.3,-.1,-.4,-.1c.1,0,.3,0,.4,.1c0,0,.1,0,.1,.1c0,0,-.1,0,-.1,-.1m-5.4,1.1q-.1,0,-.1,-.1q.1,0,.1,0q0,.1,0,.1m14.8,-6.1c0,-.1,-.1,-.1,-.1,-.2c.7,-.4,1.5,-.7,2.4,-.8c.2,0,.5,0,.8,0c-.4,.1,-.8,.2,-1.1,.3c-.7,.1,-1.4,.4,-2,.7m10.2,3c-.8,.2,-1.5,.2,-2.3,.2c.7,-.1,1.5,-.2,2.3,-.2m8.8,-3.4c.2,0,.3,.1,.4,.1c-.1,.4,-.2,.8,-.4,1.1c-.1,0,-.2,0,-.2,0c.1,-.4,.2,-.8,.2,-1.2m-5,5.8q-.1,0,-.1,0c0,0,.1,0,.1,0c0,0,.1,0,.1,0q-.1,0,-.1,0M275.7,77c.2,.1,.4,.3,.7,.4c0,0,0,.1,0,.1c0,0,-.1,0,-.2,0c-.3,-.2,-.6,-.5,-.9,-.7c.1,.1,.2,.2,.4,.2m4.5,1.4q-.1,0,-.1,0c-.1,0,-.2,0,-.2,0q-.1,-.1,-.1,-.1c.1,.1,.3,.1,.4,.1m-7.8,22.2c0,0,.1,0,.1,0q-.1,0,-.1,0m-.9,8v-.1c.1,.1,.1,.2,.2,.3q-.1,-.1,-.2,-.2m-.2,-.5q.1,.1,.1,.2c0,0,-.1,-.1,-.2,-.2q0,-.1,0,-.2q.1,.1,.1,.2m-6.2,2.1c-.2,-.1,-.4,-.1,-.6,-.2c-.1,-.1,-.2,-.1,-.4,-.2c.1,-.2,.2,-.4,.3,-.6c.2,.3,.4,.6,.6,.8c0,.1,.1,.1,.1,.2M257,106.1c0,-.2,-.1,-.4,-.4,-.5c0,0,-.1,0,-.1,0c0,0,.1,-.1,.1,-.1c.2,.2,.5,.3,.7,.5c-.1,-.1,-.3,0,-.3,.1M241.8,92.5h-.1c0,0,.1,-.1,.1,-.1c0,0,0,.1,0,.1M239.1,66.6c-.5,-.1,-1,0,-1.5,.1q0,-.1,.1,-.1c.1,-.1,.2,-.2,.3,-.3c.4,.1,.7,.2,1.1,.3m-4.4,.2c0,0,0,.1,0,.1h.1c-.1,0,-.1,.1,-.1,.1v-.1c0,0,0,-.1,-.1,-.1q.1,0,.1,0m1.4,-.9V66H236q.1,-.1,.1,-.1m-1.9,-2.6c0,0,0,-.1,0,-.1c0,0,0,.1,0,.1m-.8,-2.4l.1,.1c-.2,.5,-.3,1.1,-.3,1.7c0,-.1,0,-.2,-.1,-.3c0,-.1,-.1,-.3,-.2,-.4q0,-.1,0,-.1c0,0,0,-.1,0,-.1q-.1,-.1,-.2,-.1c.3,-.2,.6,-.6,.7,-.8m-.3,-1.6q0,.1,.1,.1c-.1,0,-.1,.1,-.1,.1c0,.1,0,.3,.1,.4c-.1,-.2,-.2,-.4,-.1,-.6M256,91.5c.2,0,.1,.2,0,.2c-.1,0,-.2,0,-.3,0c-.1,0,-.1,-.2,.1,-.2q.1,0,.2,0m17.3,20c-.1,-.1,.1,-.2,.2,-.1c.4,.3,.8,.6,1.2,.9c.1,.1,0,.1,0,.1c-.5,-.2,-1,-.5,-1.4,-.9m1.9,-48.7c0,0,.1,.1,0,0Z" class="g5"/>
<path d="M879.1,161.8H399.5V69.1H879.1v92.7Z" class="g1"/>
<path d="M879.1,161.8H399.5V69.1H879.1v92.7Z" class="g6"/>
<path d="M111.8,55.6c0,0,-.1,-.1,-.1,-.1c0,-.2,-.1,-.3,-.2,-.6c-.2,-.2,-.5,-.2,-.7,-.1c-.3,-.2,-.5,-.4,-.8,-.6c.1,-.2,-.1,-.5,-.4,-.5c-.8,-.9,-1.7,-1.7,-2.6,-2.4c0,-.1,0,-.3,-.1,-.5c0,-.2,0,-.4,-.1,-.6c0,-.1,0,-.2,-.1,-.3c-.1,-.1,-.2,-.3,-.3,-.4c0,-.1,-.1,-.1,-.1,-.2c-.1,0,-.2,-.1,-.3,-.1q0,-.1,0,-.1c0,0,0,.1,0,.1c0,0,-.1,0,-.1,-.1q.1,0,.2,0q-.1,0,0,0q0,-.1,0,-.1c0,0,-.1,0,-.1,0v-.1c.1,-.2,0,-.5,-.3,-.5c-.3,-.1,-.5,0,-.8,.1c.1,-.4,.3,-.8,.4,-1.2c0,-.1,.1,-.1,.1,-.1v-.1q0,-.1,0,-.1c.1,-.1,0,-.3,-.1,-.3c.1,0,.2,0,.3,0c0,0,0,-.1,.1,-.1c-.1,.2,-.1,.4,-.2,.5c-.1,.2,-.2,.4,-.3,.6c-.1,.1,.1,.2,.1,.1c.3,-.3,.5,-.8,.6,-1.2c0,0,0,-.1,0,-.1c0,0,-.1,0,-.1,0v-.1c.1,-.1,.1,-.2,0,-.3c0,0,-.1,-.1,-.2,0c-.1,0,-.3,.1,-.3,.1c-.1,.1,-.2,.3,-.1,.4c0,0,.1,0,.1,.1c-.1,-.1,-.3,-.1,-.4,0c-.3,.5,-.5,.9,-.6,1.4L85.2,33.9C84,33.1,82.7,32.3,81.7,31.7c-.1,0,-.1,-.1,-.2,-.1c0,0,-.1,-.1,-.1,-.1c-.2,-.1,-.4,-.3,-.7,-.5c0,0,0,.1,0,.1c0,.1,.1,.1,.2,.2c-.4,-.2,-.6,-.3,-.6,-.3c.1,1.2,4.1,4.2,4.1,4.2l18.9,15.4c-.1,.1,-.2,.3,-.2,.5c-.1,.2,-.2,.4,-.2,.5c-.3,.4,-.5,.8,-.7,1.1q0,.1,0,.2h-.1c0,.1,-.1,.1,-.1,.2c0,0,0,.1,0,.1c-.1,.1,0,.3,.1,.2q0,.1,0,.1c.1,0,.2,0,.2,0c.1,-.1,.3,-.2,.4,-.3c0,0,0,-.1,0,-.1c0,0,0,-.1,.1,-.1c.2,-.3,.4,-.6,.6,-.9c0,-.1,.1,-.2,.1,-.3c.1,-.1,.2,-.2,.3,-.3c0,.2,.1,.5,.2,.6c.1,.1,.2,.2,.2,.3c-.3,1.1,-.5,2.3,-.5,3.5c-.2,.5,-.4,.9,-.6,1.4c-.2,.2,-.3,.5,-.5,.7h-.1c-.1,.1,-.2,.2,-.3,.3c0,0,-.1,.1,-.1,.1c-.1,0,-.1,.1,-.1,.2c-.1,.1,-.1,.2,-.2,.3c0,0,0,.1,0,.1c-.1,.1,-.2,.3,-.3,.5q0,-.1,0,-.1c0,0,-.1,0,-.1,.1c0,.1,-.1,.3,-.1,.5c0,.2,-.1,.4,-.1,.6c-.1,.3,-.2,.5,-.3,.8c-.3,-.1,-.7,.2,-.9,.4q0,.1,-.1,.2c-.2,.1,-.4,.3,-.5,.5c-.2,.2,-.4,.4,-.5,.7c0,0,-.1,0,-.1,.1c-.1,0,-.1,.1,-.1,.1c-.2,0,-.4,.1,-.5,.2c0,-.3,.1,-.6,.1,-.9c.1,-.2,-.1,-.2,-.3,-.1c.1,-.1,.1,-.2,.1,-.3c.3,-.7,.5,-1.5,.4,-2.4l-.1,-.1c0,0,.1,-.1,.1,-.1c.4,-1.1,.3,-2.3,-.9,-3c0,0,-.1,0,-.1,0q0,-.1,0,-.1q-.1,-.1,-.1,-.1c0,-.1,-.1,-.1,-.1,-.1c-.1,-.2,-.2,-.3,-.2,-.4q-.1,-.1,-.2,0c-.2,-.3,-.5,-.5,-.9,-.7q-.1,0,-.1,.1c-.5,-.2,-1.1,-.3,-1.8,-.2c-.1,0,-.1,.2,0,.2c.3,0,.5,0,.7,.1c-1.2,.1,-2.5,.9,-3.1,1.9c.4,-.4,.8,-.7,1.2,-.9c-.5,.5,-1,1.1,-1.3,1.5c-.1,.1,0,.2,.1,.2c.3,-.3,.5,-.6,.8,-.8c-.3,.3,-.5,.7,-.8,1.1c-.1,.1,-.3,.1,-.4,.2c-.8,.4,-1.6,.8,-2.4,1.1c-.9,.4,-3.2,1.3,-3.7,-.1c0,0,-.1,0,-.1,0c0,1.8,2.7,1.1,3.7,.8c.8,-.3,1.6,-.7,2.4,-1.1c-.9,.7,-1.5,1.6,-2.1,2.5c-1,.9,-2,1.4,-3.1,.7c0,0,-.1,0,0,0c.6,.9,1.7,.6,2.5,.1c0,0,0,.1,0,.1c-.3,.3,-.5,.6,-.8,.9c-.9,.9,-2.1,.8,-2.6,-.3c.3,.8,.7,1.5,1.5,1.5c-.1,.2,-.2,.4,-.3,.5c-.1,0,-.2,-.1,-.3,-.3c-.4,-.3,-.6,-.8,-.8,-1.3c0,-.1,-.1,-.1,-.1,0c.2,.7,.4,1.5,.9,1.9c-.5,-.2,-.8,-.5,-.9,-1.2c0,0,-.1,0,-.1,0c0,.7,.4,1.3,.9,1.5c-.1,.3,-.2,.6,-.3,.8c0,.1,-.1,.2,-.1,.4c0,-.1,-.1,-.2,-.1,-.3c-.3,-.7,-.5,-1.5,-.6,-2.2c-.1,-.1,-.2,-.1,-.1,0c.1,1,.2,2.1,.6,3c-.1,.7,-.3,1.4,-.3,2.1c0,.1,0,.2,-.1,.3c0,0,.1,0,.1,0c0,.3,0,.6,0,.9c0,.1,.1,.1,.1,0c0,-.4,.1,-.9,.2,-1.3c.1,-.2,.3,-.4,.4,-.5c0,.5,0,1,0,1.4c0,0,.1,0,.1,0c0,-.5,.1,-1.1,.2,-1.6c.6,-.4,1.2,-.6,1.8,-.8c.3,-.1,.5,-.2,.8,-.3c-.3,.4,-.5,.9,-.7,1.3c0,.1,.1,.2,.1,.1c.6,-.9,1.2,-1.7,1.9,-2.4c.4,-.4,.9,-.8,1.4,-1.2c0,.3,0,.5,0,.8c-.3,.5,-.9,.7,-1.2,1.2c0,0,0,.1,-.1,.1c-.9,.8,-1.6,1.9,-1.4,3.2c-.1,.2,-.2,.5,-.4,.7c-.3,.3,-.7,.8,-.7,1.3c0,0,0,.1,.1,.1c-.2,.2,-.3,.5,-.4,.7c-.2,.3,-.4,.7,-.4,1.1c0,.2,0,.3,-.1,.4c0,0,-.1,0,-.2,0c-.1,0,-.2,.1,-.3,.1c-.2,.1,-.4,.1,-.5,.3c-.3,0,-.6,-.2,-.8,-.2c-.4,-.1,-.7,-.1,-1.1,0c-.1,-.1,-.3,-.1,-.5,-.2c-.1,0,-.2,-.1,-.3,-.2c.2,-.5,0,-1.2,-.5,-1.7c-.1,-.2,-.4,-.1,-.3,.1c.1,.3,.1,.5,.1,.7q0,-.1,0,-.1c-.1,-.1,-.2,-.2,-.3,-.2h-.1c0,0,-.1,0,-.1,0c-.3,-.1,-.4,-.6,-.5,-.9c0,-.2,0,-.5,.1,-.8c0,-.1,0,-.2,.1,-.3c0,-.3,.1,-.6,-.1,-.8h-.1c0,-.1,-.1,0,-.1,0c0,0,0,.1,0,.1c0,0,-.1,.1,-.1,.1c0,.1,0,.2,-.1,.2c-.1,.4,-.2,.7,-.3,1c0,.3,-.1,.7,-.1,1.1v.1c-.1,.1,-.1,.2,-.2,.3c0,0,0,-.1,-.1,-.2c0,-.1,-.1,-.2,-.1,-.3c-.1,-.2,-.1,-.3,-.2,-.5c0,0,0,-.1,-.1,-.1c0,0,0,-.1,0,-.1c.1,-.2,-.2,-.2,-.2,0c0,0,0,.1,0,.2c-.2,.3,-.1,.7,.1,1c0,.1,.1,.2,.2,.3c-.1,0,-.1,-.1,-.2,-.1c0,-.1,-.2,0,-.1,.1c.1,.2,.2,.4,.4,.6c-.2,-.2,-.4,-.3,-.6,-.5c-.1,0,-.3,.2,-.2,.3c.6,.8,1.2,2.3,2.3,2.4q.1,0,.2,0q.1,.1,.2,.2q.1,0,.2,.1c.2,.2,.5,.3,.9,.5h.1c.2,.1,.5,.2,.8,.3c.4,.3,.8,.7,1.3,1q.1,0,.2,0c1,.6,2.1,.6,3.2,.3c.3,-.1,.3,-.3,.3,-.5c.2,-.1,.4,-.2,.6,-.3c.2,-.1,.2,-.3,.2,-.4c0,0,.1,-.1,.1,-.2c0,0,.1,-.1,.1,-.1q0,.1,0,.2c0,0,0,.1,-.1,.2c0,.1,.1,.3,.2,.3c0,.6,0,1.2,0,1.8q0,.1,0,.2c0,.1,0,.2,0,.2c-.1,0,-.2,0,-.2,.1c-.4,1.1,-1.1,1.9,-1.7,2.9c-.7,1,-1.3,2.2,-1.9,3.3c-.6,1.1,-1.1,2.3,-1.5,3.5c-.3,.5,-.5,1.1,-.6,1.7c-.2,.6,-.3,1.3,-.5,1.9c0,0,-.1,0,-.2,.1c-.1,.7,.1,1.4,.7,1.8v.1c.3,1.9,.9,3.7,1.6,5.5c.7,1.9,.5,4.1,1.2,6.1c0,0,0,.1,.1,.1c-.3,.4,-.5,.8,-.7,1.1c-.2,.2,-.1,.5,0,.6c-.3,.6,-.6,1,-1,1.5c-.1,0,-.1,.1,-.1,.1c-.4,.3,-.2,1,.4,.9c0,.1,.1,.1,.1,.2c.1,.1,.2,.1,.4,.1v.1c-.1,.2,.2,.3,.4,.1c0,-.1,.1,-.2,.1,-.3c.2,-.1,.4,-.1,.6,-.2c.4,-.2,.8,-.4,1.2,-.6c.2,.1,.4,.1,.5,-.1c.2,-.3,.5,-.6,.7,-1c.3,-.3,.5,-.6,.7,-.9c.2,-.3,.1,-.5,-.1,-.6c.1,-.1,.2,-.2,.3,-.3c.3,-.8,.7,-1.7,1,-2.5c1.2,-1.9,1.7,-4.1,2.3,-6.2c.2,-.4,.3,-.8,.5,-1.2c.2,-.6,1,-2.3,.4,-2.9q-.1,0,-.1,0c0,-.2,0,-.3,0,-.4q0,-.1,0,-.2c.1,-.2,.1,-.3,.1,-.6c0,-.1,-.1,-.3,-.1,-.5v-.1c0,-.1,-.1,-.2,-.2,-.1q0,-.1,0,-.1c-.1,-.2,-.3,-.4,-.5,-.5c0,-.1,0,-.2,0,-.2c-.1,-.1,-.1,-.3,-.1,-.4c.1,-.5,.3,-1.1,.5,-1.7c.1,-.2,.2,-.3,.3,-.5c.1,.1,.2,.1,.3,0c1,-.7,1.8,-1.9,2.5,-2.9c.1,-.2,.2,-.4,.3,-.5c.1,-.1,.2,-.3,.4,-.4c.4,-.5,1,-1.3,.9,-2c.2,-.3,.4,-.7,.5,-1c.3,-.2,.5,-.5,.6,-.7c.3,0,.6,0,.9,0c.4,-.1,1,-.4,1.3,-.6c.9,-.7,1.4,-1.9,2.5,-2.2c.4,-.1,.4,-.6,.1,-.8c-.5,-.3,-1.5,-.8,-1.6,-1.4q0,-.1,0,-.1c-.1,-.4,-.4,-.9,-.5,-1.3c0,-.3,0,-.8,-.2,-1.2c0,-.4,-.1,-.9,-.1,-1.2c-.1,-.3,-.3,-.4,-.5,-.3c-.7,.2,-1.3,.4,-2,.7c-.2,.1,-.8,.3,-.7,.6q0,.1,.1,.1q-.1,.1,-.2,.1c0,-.4,-.1,-.8,-.2,-1.1c0,0,0,-.1,0,-.1c0,-.1,0,-.2,0,-.3c.1,0,.2,-.1,.2,-.2c.3,-.8,.3,-1.8,.3,-2.7c0,-.1,0,-.2,0,-.3c0,-.1,0,-.3,0,-.4c.5,-1,1.1,-1.9,1.4,-2.9c0,0,0,-.1,0,-.1c0,0,.1,0,.1,-.1c0,-.1,0,-.2,.1,-.3c.2,-.2,.4,-.4,.6,-.6c.2,-.2,.6,-.5,.8,-.7c.2,-.1,.4,-.1,.4,-.3q.1,0,.1,0c.1,0,.2,0,.2,-.1c0,-.1,-.1,-.2,-.1,-.3c.1,0,.3,0,.3,-.2c-.1,-.7,-.3,-1.3,-.4,-1.9c0,0,0,-.1,0,-.1c.2,-.5,.5,-.9,.7,-1.5c.2,-.3,.3,-.7,.5,-1.1q.1,0,.2,-.1c.2,-.5,.3,-1.1,.4,-1.6c.6,-.2,.8,-.9,.8,-1.5c0,-.2,-.1,-.6,-.2,-.8c0,0,0,-.1,-.1,-.1c.1,-.5,.2,-1.1,.3,-1.6c.1,-.4,.2,-.9,.2,-1.4l1.4,.4c1.2,.8,2.3,1.6,3.4,2.4q.1,0,.1,.1c.1,.1,.1,.2,.2,.3c.2,.3,.8,.3,.8,-.2c0,0,0,-.1,.1,-.1c0,-.1,0,-.3,-.1,-.4m-9.5,-2.4v0M87.4,105.3c0,.3,.1,.6,.2,1c0,.2,0,.5,0,.8c-.1,0,-.1,.1,-.1,.1c0,-.6,-.1,-1.3,-.1,-1.9m-.2,5.2c.1,-.3,.3,-.5,.4,-.8c0,.2,0,.4,0,.6c0,.1,0,.2,.1,.2c-.2,0,-.3,0,-.5,0M105.4,50q.1,0,.2,0c.1,.1,.1,.2,.2,.3q0,.1,0,.1c-.2,-.1,-.3,-.2,-.4,-.3q-.1,-.1,-.2,-.2c.1,0,.2,.1,.2,.1Z" class="g5"/>
<path d="M103.5,70.5c.2,.2,.5,.4,.8,.5c0,0,.1,0,.2,0c0,0,.1,.1,.2,.1c.5,-.3,0,-.9,-.2,-1.2c.2,.3,.5,.5,.8,.8c.1,0,.2,0,.2,-.1q0,-.1,-.1,-.1q.1,0,.2,0c-.4,.5,-.7,.9,-.8,1.2h-.1c-.1,.1,-.2,.2,-.2,.3c0,0,0,.1,0,.1c-.1,.1,-.2,.2,-.2,.3c.1,.2,.2,.3,.3,.4c.1,0,.2,0,.2,0q.1,0,.2,0l.1,.1c.1,0,.2,-.1,.2,-.2c0,-.1,.1,-.1,.1,-.2c.1,-.1,.1,-.3,0,-.4l-.1,-.1c.1,-.1,.3,-.3,.4,-.4c.4,-.4,.8,-.7,1.1,-1.1c.3,-.3,.5,-.5,.7,-.7c.2,.1,.4,0,.6,-.2q-.1,-.1,-.2,-.2c0,-.1,.1,-.1,.2,-.2l35.1,-6.5c0,0,4.3,-1,5.4,-1.5c0,0,-4.1,-.2,-6.1,.2c-1.8,.3,-27.5,5,-32.5,5.9c.4,-.4,.8,-.9,1.2,-1.3c.1,-.1,.3,-.3,.4,-.5c.2,-.3,-.1,-.7,-.5,-.6c0,-.1,.1,-.1,.1,-.1c.2,-.2,.4,-.3,.7,-.2c.1,.1,.2,.1,.3,.2c-.1,0,-.1,.1,-.2,.1c-.2,.1,0,.4,.2,.5c.3,0,.5,-.1,.7,-.1c.3,-.1,.6,0,.8,-.2c.1,0,.1,-.1,.1,-.2c.1,-.1,.2,-.3,.2,-.4c.1,-.3,.3,-.5,.4,-.8c.1,0,.1,-.1,.1,-.1c.1,0,.2,.1,.3,.1c.3,0,.4,-.2,.3,-.4c.1,-.1,.1,-.2,.2,-.3c.1,-.1,.2,-.2,.4,-.3q.1,.1,.2,.2c.1,.1,.3,.1,.4,0c.3,-.3,.7,-.6,1.1,-.8c.1,-.1,.3,-.1,.4,-.2q.1,0,.2,0c.3,-.1,.7,-.3,1.1,-.4c.3,1.2,.3,3.6,.3,3.6l23.8,-4.3l-.2,-.1c.1,-.4,-.1,-.9,-.2,-1.2c-.2,-.6,-.3,-1.3,-.1,-1.9c0,0,.1,-.1,.1,-.2c.1,-.9,-.5,-1.7,-1,-2.4c-.5,-.8,-1.2,-1.5,-2,-1.9c-.2,-.1,-.3,.1,-.3,.2c-.2,-.1,-.6,.1,-.8,.2c-.3,.1,-.6,.1,-.9,.1c-.4,-.1,-.8,-.3,-1.1,-.4c-.2,0,-.3,0,-.4,0c0,-.1,-.1,-.2,-.1,-.4c-.1,-.7,0,-1.5,-.1,-2.3c0,-1,.3,-1.8,.7,-2.7c0,0,.1,0,.1,-.1c-.1,-1,-.7,-2,-.3,-3c.2,-.8,1.2,-1.2,2,-1.1c.5,0,.9,.3,1.3,.7c.1,.4,.4,.9,.6,1.3c0,0,0,.1,0,.1c-.1,0,-.1,.1,-.1,.2q.1,0,.1,0c.1,.3,.3,.6,.5,.8c0,0,.1,.1,.1,.1c0,.1,0,.2,0,.3c-.4,-.4,-.8,-.8,-1.2,-1.1c.3,-.5,0,-1.3,-.4,-1.7c-.4,-.5,-1,-.7,-1.6,-.4c-1.5,.7,-1,2.8,.1,3.7c0,0,0,.1,0,.1c-.7,.1,-1.2,1.1,-1.4,1.7c-.2,.7,-.2,1.3,0,1.9c.1,.2,.1,.3,.2,.5c0,0,-.1,.1,-.1,.1c0,0,0,.1,0,.1c0,.1,.1,.3,.2,.3c1,.7,2.6,.8,3.5,-.1c.2,.3,.4,.6,.7,.9c0,0,.1,0,.1,0c0,0,.1,0,.1,0c0,-.1,.1,-.1,0,-.2c.5,-1.4,.6,-3,.8,-4.5c.2,-1.4,.4,-2.9,.2,-4.4c0,0,-.1,0,-.1,-.1c-.1,-1.3,-1.2,-2.5,-2.1,-3.3c-.9,-1,-2,-1.4,-3.2,-1c-.2,0,-.4,0,-.6,0c-.4,0,-.8,.1,-1.1,.3q-.1,.1,0,.2c-1.2,0,-2.1,1.8,-2.4,2.8c-.3,1.4,-.5,3,-.2,4.5c-.2,.1,-.3,.3,-.4,.4c-.2,.2,-.3,.4,-.5,.5q0,.1,-.1,.1c-.1,0,-.2,.1,-.1,.1q0,.1,0,.1c-.1,.1,-.1,.3,.1,.3c.1,.1,.1,.2,.1,.3c.1,.3,.5,.2,.6,0q.1,0,.2,0c.9,.2,1.5,1.1,1.9,1.8c.4,.5,.8,1.1,1.2,1.6c0,.1,-.1,.1,-.1,.2c-.7,-1.3,-2.5,-4,-3.5,-3c-.3,-.3,-.6,-.7,-.8,-1c-.1,-.2,-.4,-.1,-.4,0c0,.3,0,.6,0,.9c-.1,-.1,-.2,-.2,-.3,-.2c-.3,-.6,-.8,-1.1,-1.4,-1.5c-.3,-.2,-.7,-.2,-1,.2c-.3,.4,-.3,1,-.3,1.5c-.7,-.2,-1.5,-.2,-2.2,-.1c-1.2,0,-2.4,.3,-3.5,.9c0,0,-.1,0,-.2,0c-.4,.1,-.6,.6,-.8,1c0,0,0,-.1,0,-.1c-.1,-.1,-.2,-.1,-.2,-.1c-.3,.3,-.4,.8,-.6,1.1q-.1,-.1,-.1,-.2c0,-.1,-.2,-.2,-.2,-.1c-.2,.2,-.4,.5,-.5,.8c-.1,.1,-.2,.3,-.3,.4c0,0,0,-.1,0,-.1c0,-.3,-.4,-.3,-.5,-.1c-.4,.5,-.8,1,-1.2,1.6c0,-.3,0,-.6,-.2,-.9c0,0,0,-.1,0,-.1q-.1,0,-.2,.1c-.4,.1,-.7,.7,-1,1c-.6,.6,-1.3,1,-1.9,1.4c-.8,.6,-1.7,1.2,-2.5,1.8c-.3,.2,-.6,.4,-.8,.7c-.1,.2,0,.7,0,1c0,0,-.1,0,-.1,.1c-.2,.2,-.4,.3,-.7,.5c-.2,.2,-.4,.4,-.5,.6c0,0,-.1,0,-.2,0c-.2,-.1,-.4,-.3,-.6,-.4c-.3,-.2,-.7,-.3,-1.1,-.4c-.2,0,-.3,.2,-.2,.3c-.6,.9,-1,1.9,-1.5,2.9c-.6,1,-1.1,2.1,-1.4,3.3c-.5,.3,-.9,.7,-1.5,.9c-.1,.1,-.2,.2,-.2,.3c0,.4,0,.8,-.1,1.1c-.2,.2,-.2,.4,0,.7c0,0,0,.1,-.1,.1c0,.1,0,.2,.1,.3c.2,.2,.4,.3,.7,.5M120,52.7h.1c-.1,0,-.1,.1,-.1,.1c0,0,0,-.1,0,-.1m2.1,-1.9q.1,0,.2,0q0,.1,0,.1c0,0,-.1,0,-.1,0c0,0,-.1,.1,-.2,.1c-.1,.1,-.2,.2,-.3,.3c.2,-.2,.3,-.3,.4,-.5M106.8,67.7c0,0,-.1,0,-.2,0q0,-.1,0,-.1c.1,0,.2,0,.2,.1M110,65.5v0c0,0,.1,0,.1,0q-.1,.1,-.2,.2q0,-.1,.1,-.2M137.2,54.3c0,0,.1,0,.2,0q-.1,0,-.2,0m-8.3,-4.9q0,-.1,0,-.1q0,-.1,0,-.1c0,0,.1,.1,.1,.1q0,.1,-.1,.1M115.2,62.5l.1,.1q-.1,0,-.2,0c0,0,.1,0,.1,-.1m.9,-.2q-.1,0,-.1,0c0,0,.1,0,.1,0m24.8,-7c0,0,0,-.1,0,-.2c0,.1,.1,.2,.1,.3c0,0,0,-.1,-.1,-.1M139.9,48.1V48c0,0,0,.1,0,.1m-1.2,2.8c0,0,0,.1,.1,.1q-.1,0,-.1,0c0,0,0,-.1,0,-.1m2.4,1.5c.1,0,.1,-.1,.1,-.2c0,.1,0,.2,0,.4q0,-.1,-.1,-.2m.6,-4.8c0,0,0,.1,0,.1c0,0,0,-.1,0,-.1M131.4,50c0,0,0,-.1,0,-.1c0,0,0,.1,.1,.1q-.1,0,-.1,0M106.9,62.4c-.1,.2,-.2,.4,-.3,.6c.1,-.2,.2,-.4,.3,-.6M103.4,68q0,-.1,0,-.1c0,0,.1,0,.1,0c0,0,-.1,0,-.1,.1m.8,1.7h.1q-.1,0,-.1,0M142.1,59.4c0,0,0,-.1,0,-.1c0,.1,.1,.1,.1,.2ZM138.2,40c-.3,-.2,-.6,-.2,-1,-.2c0,0,0,-.1,-.1,-.1c.4,0,.8,.1,1.1,.3M120.9,52q-.1,.1,-.2,.1c.1,-.1,.2,-.2,.2,-.3q0,.1,0,.1c0,0,0,.1,0,.1m-13.1,8.6c-.1,0,-.2,.1,-.2,.2c0,-.1,0,-.2,0,-.3c.1,0,.2,.1,.2,.1m49.4,2.7c-.4,-.6,-1.2,-.6,-1.9,-.4c-.4,.1,-.9,.4,-.9,.8q0,.1,0,.1c-.1,0,-.2,.1,-.3,.2q-.1,0,-.2,0c0,0,0,-.1,-.1,-.1c0,0,.1,-.1,.1,-.1q0,-.1,.1,-.2c.5,.2,.7,-.6,.2,-.9q-.1,0,-.2,-.1c-.2,-.1,-.4,-.2,-.6,-.4c-.2,-.1,-.5,0,-.6,.2c0,.1,-.2,.3,-.2,.5c-.4,.4,-.5,.9,-.8,1.3c-.1,0,-.1,.1,-.1,.1c-.2,.2,-.5,.3,-.8,.5c-.2,-.1,-.4,-.1,-.6,-.1c-.3,-.1,-.6,-.2,-.9,-.2c0,0,0,-.1,0,-.1c-.2,-.4,-1.1,-.5,-1.6,-.6c-.4,-.1,-.8,-.2,-1.3,-.2c-.3,-.3,-.7,-.3,-1.1,-.1c0,0,-.1,0,-.1,0q-.1,.1,-.1,.2h-.1q0,-.1,0,-.2c-.1,-.3,-.7,-.7,-.7,-.7l-25.1,4.8c.1,.6,-.8,.8,-.8,.8c0,0,-.2,.4,-.3,.6c-.2,.2,-.3,.5,-.2,.6c.1,.2,.6,.5,.8,.9c.2,.4,-.8,.6,-.8,.6l-.1,.9c-.3,.3,-.6,.5,-.7,.9c-.2,.3,-.3,.6,-.4,1c-.1,.3,-.2,.6,-.1,.9c0,.1,.1,.2,.2,.2c0,.3,0,.5,0,.8c0,.1,-.1,.2,-.1,.3c0,.1,0,.2,0,.3c-.1,0,-.2,0,-.3,0c-.3,0,-.4,.3,-.3,.5c.3,.5,.3,.9,.3,1.4c-.4,.2,-.7,.5,-.7,1c0,.3,.1,.5,.1,.8c.1,.2,.1,.5,.3,.7q.1,0,.1,0c.1,.1,.3,0,.4,-.1c.1,0,.2,-.1,.4,-.2c0,0,0,.1,.1,.1c.1,.1,.2,.2,.3,.3c.5,.6,.5,1.7,.5,2.4c0,.9,0,1.9,0,2.8c0,.9,.1,1.7,.1,2.6c0,.1,-.1,.1,-.1,.2c-.1,.6,0,1.3,0,1.9c-.1,.6,-.1,1.2,-.1,1.8c-.1,1.1,.1,2.3,.3,3.4c0,.1,.2,.2,.3,.1c0,.2,.2,.2,.3,.2c.3,.1,.6,.1,.9,.2c.3,.1,.5,.2,.8,.2c.1,.9,.4,1.7,.7,2.5c-1.1,.7,-2.4,1.3,-3.6,1.8c-1,.5,-2.7,1.1,-3.4,2.2c-.4,-.1,-.8,-.1,-1.1,.1c-.5,.3,-.8,1,-1.1,1.5c-.2,.1,-.3,.2,-.5,.4c-.2,.2,-.5,.4,-.6,.8c-.2,-.1,-.4,.1,-.3,.3c0,-.1,0,-.2,0,0c-.2,.2,0,.4,.2,.4c.3,.3,.8,.6,1.2,.8c.4,.3,.8,.5,1.1,.6c.2,.1,.3,.2,.4,.2c0,.1,.2,.2,.3,.1h.1c.1,0,.1,-.1,.1,-.2c.2,-.1,.3,-.2,.4,-.3c.4,.2,.7,.5,1,.9c.2,.2,.3,.4,.5,.6c.2,.3,.5,.6,.8,.8c.1,.1,.1,.3,.2,.4c.2,.3,.4,.6,.7,.8c.1,.1,.2,0,.3,0c.7,0,1.4,-.1,2.2,-.1c.4,-.1,.8,-.3,1.2,-.4c.3,-.1,.6,-.1,.9,-.2c.1,.1,.3,.1,.3,0q0,-.1,0,-.2c.1,0,0,-.1,0,-.2c-.1,-.2,-.2,-.4,-.4,-.5c-.2,-.1,-.4,-.2,-.6,-.3c-.1,0,-.2,-.1,-.3,-.1c-.2,-.1,-.3,-.2,-.5,-.3c0,0,-.1,0,-.2,0c.1,-.5,.1,-1,-.2,-1.2q0,-.1,0,-.1c-.2,-.3,-.4,-.6,-.5,-.9c-.2,-.3,-.3,-.7,-.5,-1q.1,0,.1,0c.3,0,.5,0,.8,.1c.3,.1,.8,.2,1.1,0q0,.1,.1,.1c.1,.1,.2,-.1,.2,-.2c.1,-.3,.2,-.5,.3,-.7c0,0,0,-.1,0,-.1c.2,-.3,.5,-.5,.7,-.8c.3,-.1,.7,-.3,1,-.4c.7,-.3,1.4,-.6,2.1,-.9c.9,-.3,1.7,-.8,2.5,-1.3c.7,-.3,1.7,-.6,2.3,-1.2c.4,0,.7,-.1,.9,-.2q.1,0,.1,0c.1,.1,.2,.3,.4,.4c.2,.5,.5,.9,1,1.3c.2,.2,.3,.5,.5,.8c.1,.3,.2,.7,.4,1c.4,.9,.7,1.9,.9,2.9c.1,.8,.2,1.7,.6,2.5q.1,.1,.2,.2c0,.8,0,1.6,.5,2.4c.2,.5,.9,.2,.9,-.3c.3,.3,.9,.3,1.1,-.1c.1,.4,.9,.5,1.1,.2c.1,-.3,.3,-.5,.4,-.7c0,-.1,.1,-.1,.1,-.1c1,-.5,1.8,-1.2,2.6,-1.8c.4,-.4,0,-.9,-.5,-.8c-.6,.1,-1.1,.4,-1.6,.7c0,0,0,-.1,0,-.1c0,-.1,0,-.2,.1,-.3c.1,-.2,.1,-.4,.2,-.6c.4,0,.6,-.3,.8,-.6c.1,-.2,.1,-.3,.1,-.4c.2,-.1,.2,-.2,.3,-.4c.1,-.2,.2,-.5,0,-.7c0,-.1,-.1,-.1,-.1,-.2l-.1,-.1c0,-.2,-.1,-.3,-.1,-.5c.2,-.8,.1,-1.8,0,-2.6c-.1,-1.2,-.3,-2.3,-.5,-3.5c-.1,-.9,-.3,-1.8,-.4,-2.7c-.1,-.5,-.2,-1,-.3,-1.6c0,-.1,0,-.2,0,-.3c-.1,-.7,-.2,-1.5,-.4,-2.3c0,-.6,0,-1.3,-.1,-2q.1,-.1,.2,-.2c0,-.1,.1,-.2,.2,-.3c0,-.2,.1,-.3,.1,-.4c.1,0,.1,-.1,.1,-.1c.3,-1.3,-.4,-3.5,-1.4,-4.2q-.1,-.1,-.2,0c-.2,-.2,-.5,-.3,-.8,-.5c.3,-.1,.4,-.5,.1,-.8c-.4,-.4,-1,-.6,-1.6,-.9c0,-.4,-.3,-.8,-.6,-1.2c-.2,-.2,-.6,-.4,-.9,-.5c-.1,-.1,-.2,-.3,-.4,-.4c-.2,-.6,-.4,-1.1,-.7,-1.6c0,-.3,0,-.5,0,-.8c0,0,0,-.1,0,-.1c.1,-.2,.1,-.3,.1,-.4c0,-.1,.1,-.1,.1,-.2q0,-.1,0,-.2c.1,0,.2,0,.2,0c.1,0,.3,0,.3,-.1c.1,-.4,.1,-.7,.1,-1c0,-.1,.1,-.1,.1,-.2c0,-.8,0,-1.6,0,-2.4c0,0,.1,0,.1,0c0,-.2,0,0,.1,-.5c.2,-.4,0,-.2,0,-.6c0,-.4,.4,-.6,.2,-1.6c-.2,-.9,.2,-.5,.1,-.9c0,-.4,.2,-.5,.2,-.5c0,0,.1,-.2,.2,-.8c0,-.6,.3,-.6,.3,-.6c0,0,0,.4,.5,.2c.6,-.3,1,-1.6,1,-1.6l.2,-.5l.9,-.6l.2,.4c.1,.4,.6,1.1,.8,1.3c0,.2,.1,.4,.2,.5c.1,.1,.1,.2,.2,.2c.1,.2,.2,.4,.3,.6c.4,.5,1.3,1.1,2,.8c0,.1,0,.2,0,.2c0,.1,.1,.1,.2,.1c.2,0,.4,-.1,.6,-.1c.4,0,.7,.1,1,.2c.4,.1,1,.4,1.4,.3c.1,0,.3,0,.3,-.1c.1,-.3,.3,-.6,.6,-.7c.3,-.1,.5,-.1,.8,-.2q.1,-.1,.1,-.2c.6,-.1,1.1,-.2,1.7,-.3c.9,-.1,2,-.1,2.9,-.5l.1,-.1c0,0,.1,0,.1,0c.2,0,.4,.1,.5,.1c.3,.1,.6,0,.8,-.1c.2,0,.4,.1,.6,.1h.1c.3,.2,.6,.2,1,.1c.3,0,.6,-.1,.9,-.2c.3,-.1,.7,-.1,1.1,-.2c.2,-.1,.2,-.3,.1,-.5c-.1,-.1,.1,-.4,.1,-.7c0,-.1,.1,-.2,.2,-.3c.1,-.2,0,-.4,-.1,-.6c0,-.1,-.1,-.3,-.2,-.4c0,0,0,-.1,0,-.1c.1,-.1,.2,-.2,.2,-.3c0,-.1,-.1,-.1,-.1,-.2c-.1,-.1,-.1,-.3,-.2,-.5c.3,-.1,.5,-.4,.3,-.8m-26,30.3c0,0,0,-.1,0,-.1c.1,.3,.1,.5,.2,.7c0,0,0,.1,0,.1c0,0,0,.1,0,.1c-.1,-.2,-.1,-.5,-.2,-.8m-14.3,11.7c0,0,0,-.1,0,-.1c0,0,0,.1,0,.1m22.2,-13c0,0,0,.1,0,.1c0,.1,0,.2,0,.2c0,-.1,0,-.2,0,-.3M119.4,80.1c0,0,.1,0,.1,0c0,.1,0,.2,0,.3c0,-.1,0,-.2,-.1,-.3m.2,29.1v.1q0,-.1,0,-.1M139.3,93.3c0,0,0,.1,0,.1c0,.1,0,.2,.1,.3c-.1,-.1,-.1,-.2,-.1,-.4m-1.7,-8v0c0,0,0,-.1,0,-.1c0,0,.1,0,.1,0c-.1,0,-.1,.1,-.1,.1m-24.8,21.8q0,.1,0,.1c0,0,-.1,0,-.1,0c-.1,-.1,-.2,-.1,-.2,-.1c.1,0,.2,0,.3,0M120,95.9c0,0,.1,0,.1,0q-.1,0,-.1,0M137.7,111.3c0,0,-.1,0,-.1,0q-.1,0,.1,0M146,64c0,0,-.1,-.1,-.1,-.1c.1,0,.1,.1,.1,.1m-.1,-.1c-.1,0,-.2,0,-.2,0c0,0,.1,0,.2,0m10.5,3.2q0,-.1,0,-.1q0,-.1,.1,-.1V67q-.1,0,-.1,.1m-.3,.4c.1,0,.1,-.1,.2,-.2c0,0,.1,.1,.1,.1c-.1,0,-.2,.1,-.3,.1Z" class="g5"/>
<path d="M47.8,99.3v57.3L102,149.5V92.2Z" class="g1"/>
<path d="M47.8,99.3v57.3L102,149.5V92.2L47.8,99.3Z" class="g2"/>
<path d="M49,152.3l53,-7.5M49,103.1l53,-6.7" class="g4"/>
<path d="M102,92.2L65,86.7V144l37,5.5Z" class="g7"/>
<path d="M102,92.2L65,86.7V144l37,5.5V92.2Z" class="g2"/>
<path d="M399.7,144C305.3,161.2,159.4,126.9,65,144V86.7c94.4,-17.1,240.3,17.2,334.7,0Z" class="g1"/>
<path d="M401,138.5c0,0,-31.3,13.2,-175.2,.5C124.2,130,73.5,137.9,65.6,139.3M399.7,91.2c0,0,-30.4,12.3,-174.2,-.4C123.8,81.8,73.1,89.7,65.3,91" class="g4"/>
<path d="M399.7,144C305.3,161.2,159.4,126.9,65,144V86.7c94.4,-17.1,240.3,17.2,334.7,0V144Z" class="g2"/>
<path d="M396.3,59.5V171.4c1.6,-3.8,3.2,-5.4,3.2,-5.4V64.9c0,0,-1.6,-1.6,-3.2,-5.4Z" class="g1"/>
<path d="M396.3,59.5V171.4c1.6,-3.8,3.2,-5.4,3.2,-5.4V64.9c0,0,-1.6,-1.6,-3.2,-5.4Zm3.2,21.7c0,0,1.7,-15.8,12.9,-15.8H446c0,0,10.9,3.7,31.3,3.7m-77.8,80.6c0,0,1.7,15.8,12.9,15.8H446c0,0,10.9,-3.7,31.3,-3.7M879.1,81.2c0,0,-1.6,-15.8,-12.8,-15.8H832.6c0,0,-10.9,3.7,-31.3,3.7m77.8,80.6c0,0,-1.6,15.8,-12.8,15.8H832.7c0,0,-11,-3.7,-31.4,-3.7" class="g6"/>
<path d="M845.6,69.1c-7.9,1.4,-17.5,3,-26.2,3H459.3c-8.8,0,-18.4,-1.6,-26.3,-3m0,92.7c7.9,-1.4,17.5,-3,26.3,-3H819.4c8.7,0,18.3,1.6,26.2,3" class="g4"/>
<path d="M882.3,59.5V171.4c-1.6,-3.8,-3.2,-5.4,-3.2,-5.4V64.9c0,0,1.6,-1.6,3.2,-5.4Z" class="g1"/>
<path d="M882.3,59.5V171.4c-1.6,-3.8,-3.2,-5.4,-3.2,-5.4V64.9c0,0,1.6,-1.6,3.2,-5.4Z" class="g6"/>
<path d="M404.9,102.1H875.1M404.9,141.9H875.1" class="g8"/>
<path d="M308.6,581H48.9l-7.6,7.7v576.1l7.6,7.6H308.6l7.7,-7.6V588.7Zm5.5,8.6v5.9c-.6,-1.9,-1.5,-3.9,-2.7,-5.7v-.2h-.1c-1.7,-2.6,-4.2,-5,-7.7,-6.5h4.1Zm-13.5,580.7H56.8c-4,-.9,-7.2,-3.1,-9.6,-6.5V589.7c2.1,-2.9,5.2,-5.5,9.7,-6.6H300.7c4,1,7.2,3.2,9.6,6.6v574.1c-2.1,2.9,-5.2,5.4,-9.7,6.5M43.4,599c.4,-2.2,1.2,-4.9,2.7,-7.5V1162c-.3,-.5,-.5,-.9,-.8,-1.4c-1,-2.1,-1.6,-4.2,-1.9,-6Zm268,-7.5c.3,.4,.5,.9,.8,1.4c1,2.1,1.6,4.2,1.9,6v555.6c-.4,2.2,-1.2,4.9,-2.7,7.5ZM49.8,583.1h4.1c-3.5,1.5,-6,3.9,-7.7,6.5h-.1v.2c-1.2,1.8,-2.1,3.8,-2.7,5.7v-5.9Zm-6.4,580.8V1158c.6,1.9,1.5,3.9,2.7,5.7v.1h.1c1.7,2.7,4.2,5.1,7.7,6.5H49.8Zm264.3,6.4h-4.1c3.5,-1.4,6,-3.8,7.7,-6.5h.1v-.1c1.2,-1.8,2.1,-3.8,2.7,-5.7v5.9Z" class="g5"/>
<path d="M886.1,565.3H337.7l-7.7,7.6V897.6l7.7,7.7H886.1l7.7,-7.7V572.9Zm5.5,8.5v5.9c-.6,-1.8,-1.5,-3.8,-2.7,-5.7v-.1h-.1c-1.7,-2.7,-4.2,-5.1,-7.7,-6.5h4.1ZM878.1,903.2H345.6c-4,-1,-7.2,-3.2,-9.6,-6.6V573.9c2.1,-2.9,5.1,-5.4,9.6,-6.5H878.2c4,.9,7.2,3.1,9.6,6.5V896.6c-2.1,2.9,-5.2,5.5,-9.7,6.6m-546,-320c.5,-2.2,1.3,-4.9,2.7,-7.5V894.8c-.2,-.4,-.5,-.9,-.7,-1.4c-1,-2.1,-1.6,-4.2,-2,-6Zm556.8,-7.5c.3,.5,.5,.9,.8,1.4c1,2.1,1.6,4.2,1.9,6V887.4c-.4,2.1,-1.2,4.8,-2.7,7.4ZM338.5,567.4h4.2c-3.5,1.4,-6,3.8,-7.8,6.5h-.1v.1c-1.2,1.9,-2.1,3.9,-2.7,5.7v-5.9Zm-6.4,329.3v-5.9c.6,1.9,1.5,3.9,2.7,5.8v.1h.1c1.8,2.6,4.3,5,7.8,6.5h-4.2Zm553.1,6.5h-4.1c3.5,-1.5,6,-3.9,7.7,-6.5h.1v-.1c1.2,-1.9,2.1,-3.9,2.7,-5.8v5.9Z" class="g5"/>
<path d="M886.5,190.4H337.7L330,198V548.5l7.7,7.7H886.5l7.7,-7.7V198Zm5.6,8.5v5.9c-.6,-1.8,-1.5,-3.8,-2.7,-5.7V199h-.1c-1.8,-2.6,-4.3,-5,-7.8,-6.5h4.2ZM878.6,554.1h-533c-4,-1,-7.2,-3.2,-9.6,-6.6V199.1c2.1,-3,5.1,-5.5,9.6,-6.6h533c4,1,7.2,3.2,9.6,6.5V547.5c-2.1,2.9,-5.1,5.5,-9.6,6.6M332.1,208.3c.5,-2.2,1.3,-4.9,2.7,-7.4V545.7c-.2,-.4,-.5,-.9,-.7,-1.4c-1,-2.1,-1.6,-4.2,-2,-6Zm557.3,-7.5c.2,.5,.5,.9,.7,1.4c1,2.1,1.6,4.3,2,6v330c-.5,2.2,-1.3,4.9,-2.7,7.5ZM338.5,192.5h4.2c-3.5,1.5,-6,3.9,-7.8,6.5h-.1v.1c-1.2,1.9,-2.1,3.9,-2.7,5.7v-5.9Zm-6.4,355.1v-5.9c.6,1.9,1.5,3.9,2.7,5.7v.2h.1c1.8,2.6,4.3,5,7.8,6.5h-4.2Zm553.6,6.5h-4.2c3.5,-1.5,6,-3.9,7.8,-6.5h.1v-.2c1.2,-1.8,2.1,-3.8,2.7,-5.7v5.9Z" class="g5"/>
<path d="M886.1,914.4H337.7L330,922v242.7l7.7,7.7H886.1l7.7,-7.7V922Zm5.5,8.5v5.9c-.6,-1.8,-1.5,-3.8,-2.7,-5.7V923h-.1c-1.7,-2.7,-4.2,-5,-7.7,-6.5h4.1Zm-13.5,247.4H345.6c-4,-1,-7.2,-3.2,-9.6,-6.6V923.1c2.1,-3,5.1,-5.5,9.6,-6.6H878.2c4,.9,7.2,3.1,9.6,6.5v240.7c-2.1,2.9,-5.2,5.5,-9.7,6.6m-546,-238c.5,-2.2,1.3,-4.9,2.7,-7.4v237c-.2,-.4,-.5,-.9,-.7,-1.3c-1,-2.2,-1.6,-4.3,-2,-6.1Zm556.8,-7.5c.3,.5,.5,.9,.8,1.4c1,2.1,1.6,4.2,1.9,6v222.3c-.4,2.1,-1.2,4.8,-2.7,7.4ZM338.5,916.5h4.2c-3.5,1.5,-6,3.8,-7.8,6.5h-.1v.1c-1.2,1.9,-2.1,3.9,-2.7,5.7v-5.9Zm-6.4,247.3v-5.9c.6,1.9,1.5,3.9,2.7,5.8v.1h.1c1.8,2.6,4.3,5,7.8,6.5h-4.2Zm553.1,6.5h-4.1c3.5,-1.5,6,-3.9,7.7,-6.5h.1v-.1c1.2,-1.9,2.1,-3.9,2.7,-5.8v5.9Z" class="g5"/>
<path d="M308.6,190.4H293.9c-1.7,-2.9,-2.9,-6.3,-2.9,-9.8v-1H206.5c-8.8,-2.6,-18.1,-3.9,-27.8,-3.9c-9.6,0,-18.9,1.3,-27.8,3.9H66.4v1c0,3.5,-1.1,6.9,-2.8,9.8H48.9l-7.6,7.7V548.4l7.6,7.7H63.7c1.6,2.9,2.7,6.2,2.7,9.6v1.1H151c8.8,2.5,18.1,3.8,27.7,3.8c9.7,0,19,-1.3,27.8,-3.8H291v-1.1c0,-3.4,1.2,-6.7,2.8,-9.6h14.8l7.7,-7.7V198.1ZM139.1,186c.9,0,1.6,-.7,1.6,-1.6c0,-.1,0,-.2,0,-.2c2.1,-1,4.3,-1.8,6.6,-2.5h62.9c2.3,.7,4.5,1.5,6.6,2.5c0,0,0,.1,0,.2c0,.9,.7,1.6,1.6,1.6c.5,0,.9,-.3,1.2,-.6c1.7,.8,3.3,1.6,5,2.4H132.9c1.7,-.8,3.3,-1.6,4.9,-2.4c.3,.3,.8,.6,1.3,.6m-12.3,4.4H68.4c1.3,-2,4.8,-5.6,12.9,-5.6h55.6c-3.5,1.7,-6.9,3.5,-10.1,5.6m4.5,-1.6h94.9c1,.5,1.9,1,2.8,1.6H128.5c.9,-.6,1.8,-1.1,2.8,-1.6m99.4,1.6c-3.2,-2.1,-6.6,-3.9,-10.1,-5.6h55.8c8.1,0,11.6,3.6,12.9,5.6Zm60.8,0h-1.2c-.8,-1.5,-2.9,-4.2,-7.4,-5.6h6.6c.4,2,1.1,3.9,2,5.6M289,181.7c0,.7,.1,1.5,.2,2.2H219.9c-.2,-.7,-.8,-1.2,-1.5,-1.2c-.5,0,-.9,.3,-1.2,.6c-1.4,-.6,-2.8,-1.1,-4.2,-1.6Zm-110.3,-5c8.4,0,16.5,.9,24.3,2.9H154.5c7.8,-2,15.9,-2.9,24.2,-2.9m-34.2,5c-1.4,.5,-2.8,1,-4.2,1.6c-.3,-.3,-.7,-.6,-1.2,-.6c-.8,0,-1.4,.5,-1.6,1.2H68.3c.1,-.7,.2,-1.5,.2,-2.2ZM68,184.8h6.7c-4.5,1.4,-6.6,4.1,-7.4,5.6H66c.9,-1.7,1.6,-3.6,2,-5.6M43.4,198.9l6.4,-6.4h4.1c-3.5,1.5,-6,3.9,-7.7,6.5h-.1v.1C44.9,201,44,203,43.4,204.8Zm0,9.4c.4,-2.1,1.2,-4.8,2.7,-7.4V545.7c-.3,-.5,-.5,-.9,-.8,-1.4c-1,-2.1,-1.6,-4.3,-1.9,-6ZM49.8,554l-6.4,-6.4v-5.9c.6,1.8,1.5,3.8,2.7,5.7v.1h.1c1.7,2.6,4.2,5,7.7,6.5Zm168.6,6.4c-.9,0,-1.6,.7,-1.6,1.6q0,.1,0,.2c-2.1,.9,-4.3,1.7,-6.6,2.5H147.3c-2.3,-.7,-4.5,-1.6,-6.6,-2.5q0,-.1,0,-.2c0,-.9,-.7,-1.6,-1.6,-1.6c-.5,0,-1,.2,-1.2,.6c-1.7,-.8,-3.3,-1.6,-5,-2.5h91.7c-1.7,.9,-3.3,1.7,-4.9,2.5c-.3,-.4,-.8,-.6,-1.3,-.6m12.1,-4.3H289c-1.4,2,-4.8,5.4,-12.8,5.4H220.6c3.4,-1.6,6.7,-3.4,9.9,-5.4m-4.3,1.5H131.3c-.9,-.5,-1.8,-1,-2.6,-1.5H228.8c-.8,.5,-1.7,1,-2.6,1.5M127,556.1c3.2,2,6.5,3.8,9.9,5.4H81.1c-7.9,0,-11.4,-3.4,-12.8,-5.4Zm-60.9,0h1.1c.9,1.5,3,4.1,7.4,5.4H68c-.4,-1.9,-1,-3.7,-1.9,-5.4m2.4,8.6c0,-.8,-.1,-1.5,-.2,-2.2h69.3c.2,.6,.7,1.1,1.5,1.1c.5,0,.9,-.2,1.2,-.5c1.4,.5,2.8,1.1,4.2,1.6Zm110.2,5c-8.3,0,-16.4,-1,-24.2,-2.9H203c-7.8,1.9,-15.9,2.9,-24.3,2.9m34.3,-5c1.4,-.5,2.8,-1.1,4.2,-1.6c.3,.3,.7,.5,1.2,.5c.8,0,1.4,-.5,1.6,-1.1h69.2c-.1,.7,-.2,1.4,-.2,2.2Zm76.5,-3.2h-6.7c4.3,-1.3,6.4,-3.9,7.3,-5.4h1.3c-.9,1.7,-1.5,3.5,-1.9,5.4M56.8,554c-4,-1,-7.2,-3.2,-9.6,-6.5V199.1c2.1,-3,5.2,-5.5,9.7,-6.6H300.7c4,1,7.2,3.2,9.6,6.5V547.4c-2.1,3,-5.2,5.5,-9.7,6.6Zm257.3,-6.4l-6.4,6.4h-4.1c3.5,-1.5,6,-3.9,7.7,-6.5h.1v-.1c1.2,-1.9,2.1,-3.9,2.7,-5.7Zm0,-9.4c-.4,2.2,-1.2,4.8,-2.7,7.4V200.9c.3,.4,.5,.8,.8,1.3c1,2.1,1.6,4.3,1.9,6Zm0,-333.4c-.6,-1.8,-1.5,-3.8,-2.7,-5.7V199h-.1c-1.7,-2.6,-4.2,-5,-7.7,-6.5h4.1l6.4,6.4Z" class="g5"/>
<path d="M866.1,223.9c-7.3,-5.3,-10.6,-12.2,-10.6,-12.2H648.3c0,0,-3.4,6.9,-10.6,12.2" class="g2"/>
<path d="M646.6,214.6H855.7m-55.6,0C786,219.3,769.5,222,751.9,222c-17.7,0,-34.2,-2.7,-48.3,-7.4" class="g9"/>
<path d="M753.8,222c0,1,-.9,1.9,-1.9,1.9c-1.1,0,-2,-.9,-2,-1.9c0,-1.1,.9,-2,2,-2c1,0,1.9,.9,1.9,2Z" class="g5"/>
<path d="M637.7,436.6c7.2,5.4,10.6,12.2,10.6,12.2H855.5c0,0,3.3,-6.8,10.6,-12.2" class="g2"/>
<path d="M857.2,446H648m55.6,0c14.1,-4.7,30.6,-7.4,48.3,-7.4c17.6,0,34.1,2.7,48.2,7.4" class="g9"/>
<path d="M749.9,438.6c0,-1.1,.9,-2,2,-2c1.1,0,1.9,.9,1.9,2c0,1.1,-.8,1.9,-1.9,1.9c-1.1,0,-2,-.8,-2,-1.9Z" class="g5"/>
<path d="M229.9,71.7c.5,0,.5,.6,0,.6h-.6v-.6Zm.4,1.1c1,-.2,.8,-1.8,-.4,-1.8h-1.3v2.8h.7v-.9h.3l.6,.9h.8v-.2Zm-.6,1.8c1.3,0,2,-1,2,-2.2c0,-1.2,-.7,-2.1,-2,-2.1c-1.3,0,-2,.9,-2,2.1c0,1.2,.7,2.2,2,2.2m2.7,-2.2c0,1.5,-1,2.7,-2.7,2.7C228,75.1,227,73.9,227,72.4c0,-1.5,1,-2.7,2.7,-2.7c1.7,0,2.7,1.2,2.7,2.7Z" class="g5"/>
<g clip-path="url(#c0)">
<path d="M222.3,50c-2,-1,-3.9,-1.5,-6.6,-1.6h-5.4c-4.2,0,-6.2,-.1,-7.7,-.4c-1.3,-.3,-2.4,-1,-2.4,-1l-.4,-.3l.1,.4c0,.2,.3,3,3.7,5.5c.7,.5,1.1,1,1.1,2.7v1.1c.8,-.4,1.6,-.9,2.5,-1.2c-.3,.3,-.7,.7,-1,1.1c.6,-.4,1.3,-.7,2.6,-1c1.6,-.2,2.8,-.1,3.4,0v-.4h3c3.9,0,6.2,2.5,6.2,6.9c0,4.3,-2.3,6.8,-6.2,6.8H214c1.1,1,1.7,2.3,1.7,3.7c0,1,-.3,2,-.9,2.8c3.7,0,6.1,-.7,8.7,-2.4c1.1,-.8,2.1,-1.6,2.9,-2.6c1.7,-2.2,2.7,-5.3,2.7,-8.4c0,-5.1,-2.5,-9.4,-6.8,-11.7M206.1,68.7c.2,-.2,.2,-.5,.1,-.8l-.9,-2.4l2.2,1.3c.2,.1,.4,.3,.6,.4l1.3,-.1c1,-.1,1.9,.1,2.8,.4V60.8c-.5,.1,-.9,.3,-1,.5l-.6,.5l-.6,-.5c-.4,-.3,-1,-.4,-1.6,-.4c-1,0,-2,.4,-2.6,1.1c-.4,.5,-.7,.9,-1.1,1.4v5.3c.6,.4,1.1,.4,1.4,0m-26.7,-.3l-.9,1.1l.3,-3.3c.3,-2.7,1.9,-4.6,3.1,-5.6c-.3,0,-.5,0,-.8,.1l-2.9,.6l2.1,-2.1c.7,-.8,1.7,-1.3,2.6,-1.8c.1,0,.2,-.1,.4,-.2c-1.1,-3.1,-3.2,-5.6,-6.2,-7.2c-1.9,-1,-3.9,-1.5,-6.6,-1.6h-5.3c-4.3,0,-6.3,-.1,-7.8,-.4C156.2,47.7,155,47,155,47l-.3,-.3v.4c0,.2,.3,3,3.8,5.5c.6,.5,1.1,1,1.1,2.7V70.7c0,1.7,-.3,2.1,-1.1,2.6c-.8,.5,-2.5,1.5,-2.5,1.5l-.6,.3h13.9c4,0,6.4,-.6,9,-2.4c.4,-.3,.8,-.5,1.1,-.8c-.2,-1.2,-.2,-2.4,0,-3.5M212.2,56.3v-.7c-.5,.1,-1.2,.4,-1.5,.6c.5,0,1,0,1.5,.1M170,68.6h-3V54.9h3c4,0,6.2,2.5,6.2,6.9c0,4.3,-2.2,6.8,-6.2,6.8Z" class="g5"/>
<path d="M209.3,68.9c.4,.1,1.2,.6,1.2,1.3c0,.5,-.2,.8,-.6,1.1c-.2,.1,-.4,.2,-.7,.3c.2,-.4,.2,-.9,.2,-1.4c0,-.8,-.1,-1.3,-.1,-1.3m-.6,-10.1c-4,.2,-7.4,3.6,-9.2,5.9c.3,.1,.7,.3,1,.5c.3,.3,.9,.8,1.5,1.3c.4,-1.1,1.5,-3.2,3.1,-5.1c1.5,-1.7,4.1,-1.8,5.5,-.8c.8,-.8,3.8,-1.5,5.4,-1.1c-.9,-1,-3,-2.4,-5.3,-2.4c-1.8,0,-2.9,.9,-3.2,.5c-.3,-.6,1.3,-1.3,1.3,-1.3c-2.2,0,-3.8,2.6,-4.5,2.3c-.4,-.2,.6,-1.4,.6,-1.4c-2,1.1,-3.7,3.6,-4,5.1c1.8,-2.2,5.4,-3.9,7.8,-3.5m-9.2,12.8c-.8,-.6,-2,-1.6,-2.9,-2.3c-1,1.7,-3.1,3.9,-5.3,3.9c-4,0,-6,-5.6,-1.5,-10.3c-.3,-.1,-.6,-.1,-.6,-.1c-.4,0,-.8,.1,-1,.3l-1.8,1.2l.4,-2.2c0,-.1,.1,-.3,.1,-.4c-1,.5,-2,1.3,-2.4,1.7l-1.7,1.9l.2,-2.7c0,-.2,.1,-.4,.1,-.6c.1,-.4,.2,-1,.1,-1.2c0,0,0,-.1,-.1,-.1c-.8,.6,-3.1,2.7,-3.4,5.6c0,0,.5,-.6,.9,-.8c.2,-.1,.4,.1,.2,.8c-.1,.3,-2.3,6.2,2,10.3c0,0,-.5,-1.2,-.2,-1.5c.2,-.2,.3,-.2,.6,.1c.2,.2,.4,.5,.6,.7c.3,.4,.7,.8,1.2,1.1c1.2,.9,3,1.6,5,1.6c5.3,0,8.1,-3.6,9.7,-6.7c-.1,-.1,-.1,-.2,-.2,-.3m15.3,.7c0,-2.6,-2.5,-4.5,-5.3,-4.3c.8,.2,1.9,1,1.9,2.2c0,2.1,-2.5,2.7,-3.9,2.4c1.5,-1.1,1.3,-4,-.5,-5c.6,1.6,-1.1,3.2,-2.9,1.8c-1,-.8,-3.2,-2.7,-4.2,-3.5c-1,-.8,-2.2,-.3,-2.6,-.6c-.6,-.4,-.2,-1.6,-.9,-2c-.6,-.3,-1.2,-.1,-1.9,-.4c-.7,-.2,-1.1,-.7,-1.1,-1.3c-.2,.4,-.2,1.3,.2,1.8c.5,.6,1.3,.9,1.6,1.5c.5,.8,-.3,1.9,1.6,3.4c1,.7,2.4,1.9,3.3,2.7c1.5,1.3,.7,3,.9,4.5c.2,1.7,1.6,2.7,2.5,2.9c-.8,-.7,-1.1,-2.5,.1,-3.6c0,1.4,1.1,3.6,3.4,4.3c2.5,.6,5.2,-.8,5.8,-1.8c-1,.5,-2.8,0,-3.6,-.7c3,.4,5.6,-1.7,5.6,-4.3M195.3,60c0,0,-.4,-1.3,-1.7,-1.7c.3,.9,.6,1.7,1.7,1.7m-14.4,-.2c1.3,-1.3,3.9,-2.1,4.1,-2.8c.1,-.6,-1.2,-1.8,-1.7,-2c1.8,-.1,2.8,.3,2.8,.3c-.5,-.8,-.7,-1.8,-.4,-2.7c1,2.4,4.6,2.8,5.5,4.8c-.1,-.9,-.9,-1.8,-1.9,-2.4c-.5,-1.3,-.1,-3.7,.5,-4.4c-.2,3.5,4.8,5.5,5.8,8c-.6,-2.2,-2.9,-3.5,-4,-4.8c-.4,-.9,-.1,-2.4,.3,-2.9c-.1,2.4,2.4,4.2,3.7,5.5c1.6,1.5,2.1,2.9,1.9,4c.3,.1,.8,.4,.7,1c.5,-.1,1,-.7,1.2,-1c.2,1.7,-.8,3.5,-2,4.1c0,0,.4,-.8,-.2,-1.5c-.5,-.6,-1.9,-.6,-2.4,-.6c0,0,.6,-.9,.3,-1.3c-.3,-.6,-3.1,-.3,-4.4,.1c.4,0,1.5,.1,1.8,.2c-.2,.3,-.7,1.6,-.3,2c.3,.3,.8,-.3,.8,-.3c0,0,-.5,1.4,-.1,1.7c.3,.3,1,.1,1,.1c-.5,1.1,-2.1,1.8,-3.3,1.8c.4,-.1,1.1,-.8,1.2,-1.3c-.3,.2,-1.1,.3,-1.4,.2c.4,-.2,1.1,-1.1,.9,-2.2c-.3,-1.6,-2.5,-1.8,-3.7,-1c.4,-1.1,1.5,-2.1,2.3,-2.4c-.5,-.2,-1.1,-.3,-1.7,-.5c.7,-.5,2.5,-1,3.4,-1c-1.4,-.3,-3.9,.1,-5,1.5c.3,0,1.3,.2,1.6,.3c-1.5,.3,-3.7,1.8,-4.3,2.5c.1,-1,.4,-1.7,.2,-2.3c-.3,-.8,-1.3,-1.1,-3.2,-.7m3,-8.2c-.3,-3,1.1,-4.6,1.8,-5.3c1.4,-1.4,3.3,-2.3,6.1,-2.1c4.5,.2,6.6,3.2,6.6,6.5c0,1.6,-.8,3.8,-1.9,5.3c-.1,-.1,-.2,-.2,-.2,-.2c-.2,-.3,-.5,-.5,-.8,-.7c-.7,-.7,-1.5,-1.5,-2.1,-2.3c1.2,-2.2,.5,-5.3,-2,-5.3c-1.5,0,-2.8,1.3,-2.7,3.2c-.4,.9,-.6,2.1,-.5,3.2c-.7,-.4,-1.4,-.9,-1.7,-1.7L185.6,50l-.8,2.3c-.1,.6,-.2,1.2,-.1,1.8c-.3,-.5,-.7,-1.3,-.8,-2.5Z" class="g5"/>
</g>
</svg>